<svg width="352" height="300" viewBox="0 0 352 300" fill="none" xmlns="http://www.w3.org/2000/svg">
<path d="M12.0244 75.9454L19.5036 82.8913H61.4903V68.9923H19.5036L12.0244 75.9454Z" fill="#EBEBEB"/>
<path d="M12.085 95.8933L19.929 102.48L61.8625 100.507L61.1252 86.6297L19.1917 88.5958L12.085 95.8933Z" fill="#EBEBEB"/>
<path d="M113.024 86.5867L104.974 92.9513L63.1245 89.7941L64.3102 75.9382L106.16 79.0954L113.024 86.5867Z" fill="#EBEBEB"/>
<path d="M56.7627 241.9H68.1107L65.4656 63.0008H59.4078L56.7627 241.9Z" fill="#DBDBDB"/>
<path d="M316.474 179.201C316.703 182.507 316.252 185.823 315.143 188.967C314.625 190.423 313.974 191.835 313.198 193.186C312.225 194.922 311.221 196.608 311.267 198.589C311.457 198.725 310.773 198.661 310.765 198.467C305.445 195.073 298.368 194.011 294.492 188.809C292.751 186.293 291.761 183.38 291.627 180.377C291.26 177.06 291.604 173.708 292.637 170.518C293.588 167.914 295.442 165.495 298.201 164.355C300.96 163.214 304.616 163.587 307.429 164.634C313.486 166.909 316.055 173.46 316.474 179.201Z" fill="#EBEBEB"/>
<path d="M316.155 218.243C315.592 215.803 315.03 213.356 314.444 210.924C313.297 206.145 312.096 201.387 310.712 196.666C309.892 193.839 309.005 191.035 308.052 188.256C308.322 186.566 308.682 184.889 309.131 183.233C309.762 181.231 310.598 179.315 311.412 177.371C311.465 177.249 311.26 177.17 311.191 177.285C309.724 179.94 307.809 183.327 307.505 186.57C306.395 183.422 305.184 180.313 303.872 177.242C303.901 174.722 304.188 172.211 304.731 169.743C304.731 169.723 304.724 169.703 304.711 169.687C304.698 169.671 304.68 169.659 304.659 169.653C304.639 169.648 304.617 169.648 304.597 169.656C304.577 169.663 304.56 169.676 304.548 169.693C303.892 171.842 303.527 174.06 303.461 176.295C302.448 173.975 301.363 171.683 300.208 169.42C300.102 169.22 299.798 169.42 299.889 169.6C301.667 173.546 303.286 177.565 304.784 181.626C302.388 179.337 299.55 177.503 296.423 176.223C296.286 176.165 296.172 176.352 296.309 176.417C299.686 178.078 302.719 180.299 305.263 182.975C306.337 185.946 307.35 188.935 308.303 191.944C305.088 188.479 300.505 186.01 295.997 184.539C295.838 184.489 295.777 184.711 295.929 184.769C301.128 186.67 305.05 189.792 308.805 193.544C309.177 194.757 309.565 195.977 309.899 197.197C311.252 201.818 312.506 206.46 313.699 211.117C314.27 213.356 314.824 215.588 315.364 217.826C315.949 220.237 316.36 222.77 317.181 225.109C317.264 225.339 317.682 225.318 317.644 225.052C317.273 222.759 316.776 220.486 316.155 218.243Z" fill="#DBDBDB"/>
<path d="M310.484 174.142C309.379 175.501 308.568 177.051 308.098 178.706C308.098 178.715 308.102 178.724 308.109 178.731C308.116 178.738 308.126 178.741 308.136 178.741C308.146 178.741 308.155 178.738 308.163 178.731C308.17 178.724 308.174 178.715 308.174 178.706C308.926 177.17 309.776 175.68 310.72 174.242C310.819 174.128 310.591 174.013 310.484 174.142Z" fill="#DBDBDB"/>
<path d="M299.676 184.353C298.194 183.432 296.549 182.771 294.819 182.401C294.774 182.401 294.743 182.451 294.819 182.473C295.579 182.846 296.415 183.126 297.206 183.484C297.996 183.843 298.764 184.252 299.562 184.582C299.591 184.584 299.62 184.577 299.645 184.563C299.67 184.55 299.69 184.529 299.702 184.504C299.714 184.479 299.718 184.452 299.714 184.425C299.709 184.398 299.696 184.373 299.676 184.353Z" fill="#DBDBDB"/>
<path d="M297.959 170.999C297.487 170.605 296.978 170.251 296.438 169.944C296.42 169.938 296.401 169.938 296.382 169.943C296.364 169.948 296.347 169.958 296.336 169.972C296.324 169.987 296.317 170.004 296.316 170.022C296.316 170.041 296.321 170.058 296.332 170.073C296.801 170.479 297.31 170.842 297.852 171.157C297.928 171.222 298.08 171.071 297.959 170.999Z" fill="#DBDBDB"/>
<path d="M334.769 187.618C330.832 188.981 326.872 190.251 322.942 191.593C322.6 191.715 315.022 179.854 317.059 173.403C318.036 170.473 319.694 167.786 321.911 165.538C324.128 163.29 326.848 161.537 329.874 160.408C332.679 159.325 336.145 158.349 339.208 158.801C341.929 159.203 343.966 161.169 344.992 163.501C346.398 166.672 346.254 170.569 345.82 173.912C345.513 177.053 344.348 180.064 342.438 182.652C340.469 185.163 337.832 186.563 334.769 187.618Z" fill="#EBEBEB"/>
<path d="M339.808 175.634C337.354 176.951 334.792 178.081 332.147 179.014C330.379 179.576 328.665 180.279 327.024 181.117C328.476 177.457 330.11 173.862 331.85 170.289C334.485 169.493 336.891 168.135 338.881 166.321C338.901 166.302 338.913 166.276 338.913 166.249C338.913 166.222 338.901 166.196 338.881 166.177C338.861 166.158 338.834 166.147 338.805 166.147C338.777 166.147 338.749 166.158 338.729 166.177C336.656 167.606 334.429 168.825 332.086 169.815C332.557 168.854 333.036 167.892 333.523 166.945C333.659 166.679 333.264 166.443 333.097 166.708C331.182 169.709 329.478 172.825 327.997 176.036C327.387 173.325 327.069 170.563 327.047 167.792C327.047 167.776 327.04 167.762 327.029 167.751C327.017 167.74 327.002 167.734 326.986 167.734C326.97 167.734 326.954 167.74 326.943 167.751C326.931 167.762 326.925 167.776 326.925 167.792C326.625 170.835 326.861 173.905 327.624 176.876C326.393 179.61 325.291 182.394 324.318 185.207C323.756 183.585 323.049 181.992 322.547 180.356C321.783 178.01 321.427 175.562 321.491 173.109C321.491 173.037 321.384 173.037 321.377 173.109C320.957 177.671 321.836 182.256 323.923 186.391C323.36 188.077 322.828 189.777 322.349 191.471C319.889 200.127 318.679 209.058 318.754 218.02C318.763 218.057 318.784 218.09 318.815 218.114C318.846 218.138 318.885 218.151 318.925 218.151C318.965 218.151 319.004 218.138 319.035 218.114C319.066 218.09 319.088 218.057 319.096 218.02C319.565 209.144 320.997 200.337 323.368 191.736C324.31 188.371 325.435 185.085 326.697 181.863C329.023 181.059 331.318 180.026 333.599 179.129C335.881 178.338 338.008 177.193 339.892 175.742C339.983 175.699 339.884 175.591 339.808 175.634Z" fill="#DBDBDB"/>
<path d="M343.312 171.86C340.918 172.822 338.668 174.113 336.274 175.089C336.168 175.132 336.274 175.304 336.358 175.276C338.958 174.73 341.38 173.6 343.419 171.982C343.495 171.918 343.396 171.824 343.312 171.86Z" fill="#DBDBDB"/>
<path d="M322.98 168.036C322.98 167.914 322.806 167.856 322.775 167.985C322.243 170.138 321.924 172.441 322.722 174.587C322.722 174.666 322.897 174.666 322.897 174.587C322.866 172.362 322.6 170.231 322.98 168.036Z" fill="#DBDBDB"/>
<path d="M332.777 162.518C332.066 163.623 331.776 164.924 331.956 166.206C331.956 166.292 332.101 166.328 332.124 166.206C332.336 164.972 332.77 163.831 333.081 162.618C333.084 162.584 333.074 162.55 333.054 162.521C333.034 162.492 333.004 162.47 332.97 162.459C332.935 162.448 332.898 162.447 332.863 162.458C332.828 162.468 332.798 162.489 332.777 162.518Z" fill="#DBDBDB"/>
<path d="M346.269 194.535C345.768 198.201 343.921 203.461 339.573 204.236C336.753 204.738 333.842 204.903 331.007 205.348C327.967 205.815 324.926 206.331 321.932 207.013C321.681 207.07 320.662 198.402 327.161 192.963C328.985 191.449 331.41 190.653 333.637 189.792C336.18 188.752 338.855 188.028 341.595 187.639C343.275 187.417 344.734 187.517 345.638 189.038C346.543 190.559 346.512 192.791 346.269 194.535Z" fill="#EBEBEB"/>
<path d="M342.309 190.717C340.614 191.435 338.919 192.246 337.247 193.078C337.619 192.524 338.022 191.99 338.455 191.478C339.109 190.76 339.854 190.129 340.576 189.462C340.637 189.411 340.576 189.289 340.492 189.34C338.896 190.306 337.619 191.676 336.806 193.293C334.716 194.341 332.664 195.446 330.726 196.637C329.366 197.446 328.093 198.379 326.925 199.421C327.187 198.481 327.535 197.563 327.966 196.68C328.726 195.331 329.897 194.449 331.007 193.401C331.03 193.382 331.044 193.355 331.046 193.326C331.048 193.297 331.038 193.269 331.018 193.247C330.998 193.225 330.969 193.211 330.939 193.209C330.908 193.207 330.878 193.217 330.855 193.236C329.637 194.004 328.602 195.004 327.817 196.172C327.031 197.34 326.513 198.649 326.294 200.017C324.972 201.301 323.809 202.724 322.828 204.257C319.028 210.249 316.497 217.769 317.812 224.794C317.812 224.966 318.139 224.959 318.139 224.794C318.072 217.701 320.028 210.722 323.801 204.588C324.075 204.15 324.356 203.727 324.652 203.318C325.933 202.92 327.237 202.597 328.559 202.349C330.079 202.112 331.691 202.04 333.257 201.897C335.841 201.667 338.661 201.215 340.728 199.622C340.819 199.55 340.728 199.393 340.614 199.457C335.826 202.076 330.034 200.756 325.101 202.665C326.922 200.324 329.194 198.328 331.797 196.781L332.23 196.53C335.59 196.343 339.208 196.565 342.218 195.015C342.231 195.004 342.24 194.989 342.243 194.972C342.247 194.956 342.245 194.939 342.237 194.923C342.229 194.908 342.217 194.896 342.201 194.888C342.185 194.88 342.167 194.877 342.149 194.879C339.193 196.135 336.069 195.719 332.983 196.085C336.069 194.305 339.269 192.762 342.37 190.99C342.636 190.868 342.598 190.595 342.309 190.717Z" fill="#DBDBDB"/>
<path d="M344.331 193.53C342.783 193.992 341.21 194.375 339.618 194.678V194.743C341.281 194.748 342.92 194.369 344.391 193.638C344.445 193.602 344.445 193.501 344.331 193.53Z" fill="#DBDBDB"/>
<path d="M332.975 192.375C332.159 192.896 331.455 193.558 330.9 194.327C330.832 194.413 330.969 194.535 331.045 194.456C331.394 194.111 331.759 193.781 332.132 193.458C332.489 193.183 332.829 192.888 333.15 192.576C333.167 192.551 333.175 192.523 333.173 192.494C333.172 192.465 333.16 192.437 333.141 192.415C333.121 192.392 333.095 192.376 333.065 192.369C333.035 192.362 333.004 192.364 332.975 192.375Z" fill="#DBDBDB"/>
<path d="M307.589 205.097C307.642 205.212 307.467 205.319 307.399 205.197C307.37 205.233 307.33 205.258 307.285 205.269C304.303 205.942 301.279 206.438 298.232 206.755C295.785 206.963 292.965 207.092 290.821 205.75C287.918 203.935 286.002 199.07 287.576 195.984C289.43 192.31 295.032 194.305 297.837 195.611C302.162 197.599 305.613 200.956 307.589 205.097Z" fill="#EBEBEB"/>
<path d="M309.763 206.79C308.129 205.301 306.315 203.998 304.359 202.908C302.952 200.801 301.083 199.003 298.878 197.634C298.772 197.563 298.681 197.728 298.78 197.792C300.532 199.106 302.086 200.639 303.401 202.349C301.221 201.227 298.957 200.256 296.629 199.443C295.794 197.986 294.529 196.789 292.988 195.998C292.988 195.998 292.919 195.998 292.95 196.042C294.221 196.956 295.329 198.055 296.233 199.299C294.858 198.818 293.467 198.366 292.076 197.929C291.954 197.893 291.901 198.072 292.022 198.115C294.5 199.027 297.031 199.988 299.479 201.1C296.488 201.552 293.44 201.552 290.449 201.1C290.365 201.1 290.327 201.201 290.411 201.222C293.533 202.092 296.847 202.139 299.996 201.359C301.564 202.076 303.087 202.878 304.556 203.762C303.324 203.665 302.083 203.762 300.885 204.049C298.768 204.525 296.6 204.765 294.424 204.767C294.348 204.767 294.326 204.889 294.424 204.903C298.172 205.513 301.706 203.906 305.423 204.322C306.796 205.21 308.088 206.206 309.284 207.3C311.598 209.487 313.504 212.027 314.924 214.813C316.482 217.812 317.333 220.998 318.595 224.098C318.608 224.12 318.629 224.138 318.654 224.148C318.679 224.158 318.706 224.16 318.733 224.153C318.759 224.146 318.782 224.132 318.798 224.111C318.815 224.091 318.823 224.066 318.823 224.04C317.706 217.891 314.483 211.146 309.763 206.79Z" fill="#DBDBDB"/>
<path d="M298.468 198.402C298.22 197.986 297.896 197.614 297.51 197.304C297.194 196.982 296.818 196.717 296.401 196.522C296.363 196.522 296.347 196.558 296.401 196.58C296.705 196.91 297.161 197.154 297.465 197.469C297.769 197.785 298.073 198.151 298.407 198.467C298.416 198.467 298.424 198.465 298.432 198.462C298.44 198.459 298.447 198.454 298.453 198.448C298.459 198.441 298.463 198.434 298.466 198.426C298.468 198.419 298.469 198.41 298.468 198.402Z" fill="#DBDBDB"/>
<path d="M292.288 200.304C291.733 200.167 291.148 200.182 290.585 200.067C290.024 199.941 289.471 199.785 288.928 199.601C288.913 199.598 288.898 199.601 288.885 199.607C288.871 199.614 288.86 199.625 288.854 199.638C288.848 199.652 288.847 199.666 288.851 199.68C288.855 199.694 288.863 199.707 288.875 199.715C289.899 200.3 291.098 200.552 292.288 200.433C292.299 200.426 292.308 200.416 292.314 200.405C292.32 200.393 292.324 200.381 292.324 200.368C292.324 200.356 292.32 200.343 292.314 200.332C292.308 200.321 292.299 200.311 292.288 200.304Z" fill="#DBDBDB"/>
<path d="M327.571 213.263L326.963 219.814L324.888 241.922H306.547L303.955 219.814L303.195 213.263H327.571Z" fill="#C7C7C7"/>
<path d="M327.571 213.263L326.963 219.814H303.955L303.195 213.263H327.571Z" fill="#A6A6A6"/>
<path d="M329.388 211.483H301.379V216.793H329.388V211.483Z" fill="#C7C7C7"/>
<path d="M326.963 46.5689H240.899C240.899 46.5689 249.435 24.5761 262.554 24.5761C275.673 24.5761 279.793 39.7594 279.793 39.7594C279.793 39.7594 288.648 31.5076 295.929 31.5076C303.211 31.5076 309.527 42.4072 309.527 42.4072C309.527 42.4072 319.811 36.5448 326.963 46.5689Z" fill="#EBEBEB"/>
<path d="M175.981 16.0085H135.773C135.773 16.0085 144.757 3.72408 151.833 3.72408C158.91 3.72408 161.008 11.9113 161.008 11.9113C161.008 11.9113 166.001 8.09395 170.63 8.77562C175.259 9.45729 175.981 16.0085 175.981 16.0085Z" fill="#EBEBEB"/>
<path d="M134.116 30.3308H55.8276C55.8276 30.3308 66.5447 7.72801 78.0219 6.32161C89.4991 4.91521 94.9793 23.1123 94.9793 23.1123C94.9793 23.1123 102.375 16.6543 108.197 16.6543C114.019 16.6543 118.504 25.1286 118.504 25.1286C118.504 25.1286 130.103 19.3738 134.116 30.3308Z" fill="#EBEBEB"/>
<path d="M1.771 241.9L44.495 241.721L87.219 241.656L172.667 241.541L258.115 241.656L300.839 241.721L343.563 241.9L300.839 242.072L258.115 242.137L172.667 242.252L87.219 242.137L44.495 242.072L1.771 241.9Z" fill="#263238"/>
<path d="M66.0204 300C102.482 300 132.041 295.859 132.041 290.751C132.041 285.643 102.482 281.502 66.0204 281.502C29.5583 281.502 0 285.643 0 290.751C0 295.859 29.5583 300 66.0204 300Z" fill="#EBEBEB"/>
<path d="M285.979 300C322.441 300 352 295.859 352 290.751C352 285.643 322.441 281.502 285.979 281.502C249.517 281.502 219.959 285.643 219.959 290.751C219.959 295.859 249.517 300 285.979 300Z" fill="#EBEBEB"/>
<path d="M178.276 281.767C226.413 281.767 265.435 279.056 265.435 275.711C265.435 272.366 226.413 269.655 178.276 269.655C130.14 269.655 91.1182 272.366 91.1182 275.711C91.1182 279.056 130.14 281.767 178.276 281.767Z" fill="#EBEBEB"/>
<path d="M228.434 66.6029L277.984 60.4894V249.621L228.434 255.734V66.6029Z" fill="#37474F"/>
<path d="M129.328 66.6029L178.877 60.4894V249.621L129.328 255.734V66.6029Z" fill="#263238"/>
<path d="M228.434 66.6029L178.877 60.4894V249.621L228.434 255.734V66.6029Z" fill="#263238"/>
<path d="M129.327 66.6029L79.7778 60.4894V249.621L129.327 255.734V66.6029Z" fill="#37474F"/>
<path d="M228.434 70.6283L273.256 65.1462V245.258L228.434 250.74V70.6283Z" fill="#DBDBDB"/>
<path d="M129.327 70.9655L178.877 65.1462V245.258L129.327 251.077V70.9655Z" fill="#DBDBDB"/>
<path d="M228.434 70.8005L178.877 65.3113V245.43L228.434 250.912V70.8005Z" fill="#EBEBEB"/>
<path d="M129.328 70.9655L84.5059 65.1462V245.258L129.328 251.077V70.9655Z" fill="#EBEBEB"/>
<path d="M124.091 70.2911L120.093 83.2141L119.15 86.2637L109.262 118.116L108.684 119.379L105.788 118.345L84.5059 110.768V107.374L106.943 115.375L121.035 69.8892L124.091 70.2911Z" fill="white"/>
<path d="M170.41 66.1436L168.593 67.1841L165.431 68.978L145.662 80.2435L142.979 81.779L129.503 89.4568L129.328 89.4066L119.15 86.2637L117.744 85.8332L118.588 82.7477L120.093 83.2141L129.153 86.0126L129.328 85.9121L162.353 67.0908V67.0836H162.361L165.682 66.7033L167.423 66.4952H167.438L170.41 66.1436Z" fill="white"/>
<path d="M218.948 69.7529L216.372 79.899L215.505 83.3289L201.231 139.334L200.448 142.441L200.44 142.476L189.852 138.595L186.189 137.167L178.831 134.296L177.919 133.938L176.429 131.72L142.978 81.779L142.203 80.6237L144.673 78.7653L145.661 80.2434L160.437 102.301L162.429 105.279L179.842 131.268L198.373 138.257L207.942 100.751L208.794 97.4L215.908 69.4084L218.948 69.7529Z" fill="white"/>
<path d="M210.23 98.5697L208.391 101.117L207.942 100.751L178.877 77.1365L178.041 76.4548L176.224 75.3713L173.579 73.8071L165.431 68.978L164.709 68.5474L165.682 66.7033L167.422 66.4952H167.438L168.593 67.1841L178.877 73.2976L179.789 73.8358L208.794 97.4001L210.23 98.5697Z" fill="white"/>
<path d="M273.248 111.019V114.492L265.374 111.012L262.554 109.756L227.629 94.2931L215.505 83.3289L213.521 81.5351L215.475 79.0882L216.372 79.899L229.232 91.5233L273.248 111.019Z" fill="white"/>
<path d="M244.16 199.744L241.226 198.955L262.873 108.414L265.807 109.204L244.16 199.744Z" fill="white"/>
<path d="M273.248 187.854V191.212L236.346 203.418L233.413 204.394H233.405L229.164 205.793L183.673 245.954L179.47 245.488L195.165 231.639L198.32 228.848L212.153 216.642L214.646 214.447L227.697 202.923L241.363 198.402L244.753 197.276L273.248 187.854Z" fill="white"/>
<path d="M228.252 152.666L198.897 141.924L199.87 138.889L228.609 149.408L254.733 146.81L255.014 150.004L228.252 152.666Z" fill="white"/>
<path d="M162.034 106.14L159.32 104.726L174.21 72.4437L176.924 73.8573L162.034 106.14Z" fill="white"/>
<path d="M198.981 228.948L198.578 232.12L195.166 231.639L178.277 229.25L129.176 213.076L84.5059 217.755V214.526L114.734 211.361L118.702 210.952L129.487 209.818L129.776 209.919L157.823 219.154L160.993 220.194L178.93 226.1L198.32 228.848L198.981 228.948Z" fill="white"/>
<path d="M95.2534 148.554L84.5059 171.903V164.584L105.788 118.345L106.548 116.702L109.262 118.116L108.684 119.379L96.7051 145.404L95.2534 148.554Z" fill="white"/>
<path d="M119.203 211.454L117.128 213.779L114.734 211.361L84.5059 180.894V176.467L108.015 200.175L110.432 202.6L118.702 210.952L119.203 211.454Z" fill="white"/>
<path d="M129.517 150.219L94.2646 148.497L94.4015 145.289L129.137 146.99L178.436 131.067L179.317 134.139L129.517 150.219Z" fill="white"/>
<path d="M110.12 203.576L107.255 202.542L124.889 147.686L127.754 148.726L110.12 203.576Z" fill="white"/>
<path d="M273.248 163.895V167.131L252.543 164.692L251.229 164.534L251.563 161.348L253.288 161.549L273.248 163.895Z" fill="white"/>
<path d="M212.495 217.69L185.945 136.449L188.803 135.394L215.353 216.635L212.495 217.69Z" fill="white"/>
<path d="M159.434 222.06L157.177 219.922L177.927 195.231L201.923 181.246L203.374 184.058L179.835 197.778L159.434 222.06Z" fill="white"/>
<path d="M218.948 69.7529L216.372 79.899L215.505 83.3289L201.231 139.334L200.448 142.441L200.44 142.476L189.852 138.595L186.189 137.167L178.831 134.296L177.919 133.938L176.429 131.72L142.978 81.779L142.203 80.6237L144.673 78.7653L145.661 80.2434L160.437 102.301L162.429 105.279L179.842 131.268L198.373 138.257L207.942 100.751L208.794 97.4L215.908 69.4084L218.948 69.7529Z" fill="white"/>
<path d="M228.252 152.666L198.897 141.924L199.87 138.889L228.609 149.408L254.733 146.81L255.014 150.004L228.252 152.666Z" fill="white"/>
<path d="M198.981 228.948L198.578 232.127L195.158 231.639L178.277 229.25L158.842 222.849H158.826L139.026 216.319L129.176 213.076L84.5059 217.755V214.526L114.734 211.361L118.709 210.952L129.48 209.818L129.784 209.919L139.026 212.968L157.823 219.154L160.993 220.194H161L161.046 220.216L178.93 226.1L198.32 228.848L198.981 228.948Z" fill="white"/>
<path d="M215.353 216.635L212.495 217.683L201.801 184.977V184.97L200.797 181.899L186.181 137.167L185.945 136.449L186.303 136.313L188.803 135.394L189.852 138.595L204.491 183.405L215.353 216.635Z" fill="white"/>
<path d="M203.374 184.051V184.058L201.801 184.977L179.835 197.778L161 220.194L159.434 222.06L157.177 219.929L157.823 219.154L177.927 195.231L200.798 181.899L201.923 181.246L203.374 184.051Z" fill="white"/>
<path d="M257.583 247.174L254.368 247.569L233.412 204.394H233.405L232.827 203.188L235.518 201.717L236.346 203.418L257.583 247.174Z" fill="white"/>
<path d="M142.021 137.698L167.772 129.381L150.944 104.26L136.792 108.744L142.021 137.698Z" fill="#EBEBEB"/>
<path d="M235.617 141.702L250.324 140.238L257.043 112.605L241.196 105.587L235.617 141.702Z" fill="#EBEBEB"/>
<path d="M273.248 103.011L240.154 89.098V69.1932L273.256 65.1462L273.248 103.011Z" fill="#EBEBEB"/>
<path d="M133.219 92.1261L141.458 87.4333L148.831 98.4836L135.689 102.724L133.219 92.1261Z" fill="#EBEBEB"/>
<path d="M187.01 200.268L200.44 192.439L207.631 214.454L198.016 222.942L187.01 221.385V200.268Z" fill="#DBDBDB"/>
<path d="M186.166 71.9988V66.0934L212.837 69.0712L207.661 89.4568L186.166 71.9988Z" fill="#DBDBDB"/>
<path d="M89.5146 172.972L106.647 190.244L117.714 155.672L97.8603 154.704L89.5146 172.972Z" fill="#DBDBDB"/>
<path d="M89.2256 103.557V75.4359L113.426 78.7223L104.085 108.859L89.2256 103.557Z" fill="#DBDBDB"/>
<path d="M89.2256 71.9917L113.426 75.278L115.349 69.1502L89.2256 65.7561V71.9917Z" fill="#DBDBDB"/>
<path d="M134.382 246.32V219.972L152.13 225.848V244.232L134.382 246.32Z" fill="#EBEBEB"/>
<path d="M88.2832 222.024L102.079 220.574V243.672L88.2832 241.879V222.024Z" fill="#DBDBDB"/>
<path d="M261.9 241.326L246.509 209.625L273.248 200.777L273.256 239.934L261.9 241.326Z" fill="#EBEBEB"/>
<path d="M224.398 141.601V125.6L209.052 120.534L205.427 134.792L224.398 141.601Z" fill="#DBDBDB"/>
<path d="M189.853 138.602L204.5 183.413L203.375 184.058L201.809 184.97V184.977L179.835 197.778L161.053 220.216L158.842 222.849H158.826L139.026 216.319V212.968L157.823 219.161L177.927 195.231L200.798 181.899L186.174 137.167H186.182L186.303 136.32L186.653 133.837V133.816L198.381 138.221L203.435 118.403L206.301 119.457L200.441 142.476L189.853 138.602Z" fill="#800080"/>
<path d="M216.037 99.8828C215.467 94.4366 211.476 89.0047 204.491 89.0047C197.506 89.0047 193.523 94.4366 192.946 99.8828C192.064 108.3 198.076 115.927 204.491 122.88C210.914 115.927 216.926 108.3 216.037 99.8828ZM204.491 105.939C203.241 105.937 202.019 105.586 200.98 104.929C199.941 104.272 199.132 103.34 198.654 102.249C198.177 101.158 198.053 99.9574 198.298 98.7998C198.542 97.6422 199.145 96.5791 200.03 95.7449C200.915 94.9107 202.042 94.3428 203.268 94.1131C204.495 93.8833 205.766 94.0019 206.921 94.454C208.076 94.9061 209.063 95.6713 209.758 96.6529C210.452 97.6345 210.823 98.7884 210.823 99.9689C210.824 100.754 210.661 101.531 210.343 102.256C210.025 102.981 209.558 103.64 208.97 104.195C208.382 104.75 207.683 105.189 206.915 105.488C206.146 105.788 205.323 105.941 204.491 105.939Z" fill="#903594"/>
<path d="M150.579 193.379C150.002 187.926 146.019 182.494 139.026 182.494C132.033 182.494 128.058 187.926 127.48 193.379C126.599 201.796 132.611 209.417 139.026 216.341C145.449 209.417 151.461 201.796 150.579 193.379ZM139.026 199.428C137.776 199.427 136.554 199.076 135.515 198.419C134.476 197.762 133.666 196.829 133.189 195.738C132.711 194.647 132.587 193.447 132.832 192.289C133.077 191.132 133.68 190.069 134.565 189.234C135.449 188.4 136.576 187.832 137.803 187.602C139.029 187.373 140.3 187.491 141.455 187.943C142.61 188.395 143.598 189.161 144.292 190.142C144.987 191.124 145.357 192.278 145.357 193.458C145.358 194.243 145.195 195.02 144.877 195.746C144.559 196.471 144.093 197.13 143.505 197.684C142.917 198.239 142.218 198.679 141.45 198.978C140.681 199.277 139.857 199.43 139.026 199.428Z" fill="#903594"/>
<path d="M94.744 287.12C93.3758 287.558 54.1102 287.687 52.6052 286.804C52.0352 286.467 51.6855 281.064 51.4499 274.534C51.4043 273.099 51.3587 271.664 51.3207 270.186L48.1436 250.425L74.3891 250.267L76.8973 270.035L76.7985 274.384C76.7985 274.384 91.8557 280.684 93.391 281.825C94.9264 282.965 96.1121 286.682 94.744 287.12Z" fill="#AD6359"/>
<path d="M94.7441 287.12C93.3759 287.558 54.1103 287.687 52.6053 286.804C51.9137 286.388 51.5336 278.509 51.3208 270.186L76.867 270.035L76.7682 274.384C76.7682 274.384 91.8254 280.684 93.3607 281.825C94.8961 282.965 96.1122 286.682 94.7441 287.12Z" fill="white"/>
<path d="M94.7443 287.12C93.3761 287.558 54.1105 287.687 52.6055 286.804C52.0355 286.467 51.6858 281.064 51.4502 274.534L76.7684 274.384C76.7684 274.384 91.8256 280.684 93.3609 281.825C94.8963 282.965 96.1124 286.682 94.7443 287.12Z" fill="#278CFF"/>
<path d="M94.1739 285.642C87.5917 285.513 61.0269 285.57 54.513 285.915C54.4598 285.915 54.4598 285.95 54.513 285.95C61.0345 286.216 87.5917 285.95 94.1739 285.742C94.3108 285.735 94.3108 285.642 94.1739 285.642Z" fill="#263238"/>
<path d="M90.8294 280.497C90.097 280.482 89.3693 280.61 88.6918 280.873C88.0143 281.136 87.4016 281.529 86.8922 282.025C85.9742 282.916 85.4544 284.105 85.4404 285.348C85.4404 285.384 85.5088 285.391 85.5164 285.348C85.7317 284.114 86.3678 282.98 87.3282 282.119C88.2886 281.257 89.5206 280.716 90.837 280.576C90.8826 280.562 90.8826 280.497 90.8294 280.497Z" fill="#263238"/>
<path d="M79.3223 274.993C76.6849 274.993 73.6369 275.854 72.0104 277.864C71.942 277.943 72.0636 278.029 72.1396 277.993C74.4386 276.844 76.862 275.932 79.3679 275.273C79.3935 275.256 79.4135 275.233 79.4258 275.206C79.4381 275.179 79.442 275.149 79.4373 275.12C79.4325 275.091 79.4193 275.064 79.3989 275.041C79.3786 275.019 79.3521 275.002 79.3223 274.993Z" fill="#263238"/>
<path d="M81.3595 275.732C78.722 275.732 75.6741 276.594 74.0399 278.639C73.9791 278.717 74.1007 278.796 74.1767 278.761C76.4757 277.612 78.8992 276.7 81.4051 276.041C81.4429 276.03 81.4754 276.006 81.4966 275.975C81.5178 275.943 81.5265 275.906 81.521 275.868C81.5155 275.831 81.4963 275.797 81.4667 275.772C81.4371 275.748 81.3991 275.733 81.3595 275.732Z" fill="#263238"/>
<path d="M83.3961 276.479C80.7586 276.479 77.7107 277.34 76.0765 279.349C76.0157 279.428 76.1373 279.514 76.2133 279.471C78.5138 278.325 80.9369 277.413 83.4417 276.751C83.4678 276.736 83.4885 276.713 83.5012 276.686C83.5139 276.66 83.5181 276.63 83.5133 276.601C83.5084 276.572 83.4948 276.545 83.474 276.523C83.4532 276.502 83.4261 276.486 83.3961 276.479Z" fill="#263238"/>
<path d="M85.4332 277.218C82.7957 277.218 79.7478 278.079 78.1136 280.088C78.0528 280.167 78.1744 280.253 78.2505 280.217C80.5495 279.068 82.9729 278.156 85.4788 277.498C85.5044 277.481 85.5244 277.457 85.5367 277.43C85.5489 277.403 85.5529 277.373 85.5481 277.344C85.5434 277.315 85.5301 277.288 85.5098 277.266C85.4895 277.243 85.4629 277.227 85.4332 277.218Z" fill="#263238"/>
<path d="M56.1699 280.002C53.2132 280.002 53.236 284.357 56.1699 284.307C59.1038 284.257 59.1266 279.988 56.1699 280.002Z" fill="#263238"/>
<path d="M82.1421 268.363C80.8043 267.323 79.1018 268.363 78.3417 269.432C76.9763 271.325 76.1587 273.521 75.9702 275.804C75.97 275.814 75.9721 275.824 75.9764 275.833C75.9808 275.842 75.9872 275.85 75.9953 275.856C76.0034 275.862 76.0128 275.867 76.023 275.869C76.0331 275.871 76.0437 275.871 76.0538 275.869C76.0651 275.916 76.0877 275.959 76.12 275.997C76.1523 276.034 76.1934 276.063 76.2399 276.083C76.2864 276.102 76.3371 276.111 76.3879 276.109C76.4387 276.107 76.4883 276.093 76.5327 276.07C78.4025 274.843 80.5611 273.745 81.9749 272.008C82.7729 270.982 83.4114 269.332 82.1421 268.363ZM78.9345 273.659C78.0301 274.283 77.0952 274.864 76.2135 275.524C76.6393 274.273 77.1315 273.042 77.688 271.836C77.9619 271.252 78.282 270.689 78.6457 270.15C79.2082 269.332 81.7924 267.244 82.0585 269.949C82.2181 271.42 80.0063 272.898 78.9345 273.644V273.659Z" fill="#263238"/>
<path d="M69.403 276.73C71.6832 277.053 74.0623 276.429 76.3121 276.091C76.5477 276.091 76.5933 275.804 76.5097 275.639C76.5178 275.633 76.5243 275.624 76.5287 275.615C76.5332 275.606 76.5355 275.596 76.5355 275.585C76.5355 275.575 76.5332 275.565 76.5287 275.556C76.5243 275.547 76.5178 275.538 76.5097 275.532C74.6976 274.013 72.4968 272.966 70.1251 272.496C68.7341 272.252 66.7731 272.611 66.5755 274.233C66.3779 275.854 68.0577 276.543 69.403 276.73ZM67.8068 275.295C66.0131 273.142 69.403 272.984 70.4215 273.2C71.0755 273.356 71.7179 273.552 72.3445 273.788C73.6413 274.29 74.9098 274.856 76.1449 275.481C75.0276 275.589 73.9255 275.776 72.8158 275.919C71.4628 276.113 68.7949 276.493 67.7764 275.324L67.8068 275.295Z" fill="#263238"/>
<path d="M79.2462 268.32L47.5281 268.858C47.5281 268.858 43.2109 242.366 40.3682 225.877C39.2965 219.685 38.4452 214.906 38.088 213.464C37.2671 210.027 21.1914 155.464 21.1914 155.464H44.2522H52.1418C52.1418 155.464 51.6402 164.584 51.9366 165.546C56.0486 178.749 64.4551 202.141 67.0774 210.328C71.1058 222.849 79.2462 268.32 79.2462 268.32Z" fill="#455A64"/>
<path d="M76.3654 263.728C71.8049 263.728 55.6685 263.527 49.6031 264.065C49.5574 264.065 49.5574 264.137 49.6031 264.144C51.6933 264.424 71.8126 263.986 76.3654 263.85C76.3788 263.846 76.3905 263.837 76.3987 263.826C76.4069 263.815 76.4113 263.802 76.4113 263.789C76.4113 263.776 76.4069 263.762 76.3987 263.751C76.3905 263.741 76.3788 263.732 76.3654 263.728Z" fill="#263238"/>
<path d="M48.0146 241.154C46.9201 234.304 45.6989 227.47 44.351 220.653C43.6822 217.303 42.9601 213.959 42.0708 210.658C41.1815 207.357 39.9654 204.049 38.772 200.785C36.4006 194.327 34.1204 187.783 32.0073 181.217C29.8943 174.651 27.8801 168.057 26.0331 161.449C25.8051 160.609 25.5695 159.769 25.3111 158.93C25.3111 158.858 25.1818 158.93 25.197 158.966C25.9571 162.31 26.854 165.617 27.7509 168.918C28.6478 172.219 29.6055 175.52 30.6088 178.799C32.6357 185.391 34.8222 191.932 37.1683 198.424C38.3388 201.66 39.5625 204.882 40.6038 208.161C41.6451 211.44 42.4584 214.755 43.1805 218.099C44.6399 224.88 45.8864 231.732 47.0493 238.549C48.2122 245.366 49.1851 252.305 50.158 259.207L50.5229 261.826C50.5229 262.078 50.9637 262.07 50.9333 261.826C50.1504 254.895 49.1471 248.014 48.0146 241.154Z" fill="#263238"/>
<path d="M44.2674 155.435L40.3682 225.877C39.2965 219.685 38.4452 214.906 38.088 213.464C37.2671 210.027 21.1914 155.464 21.1914 155.464L44.2674 155.435Z" fill="#263238"/>
<path d="M54.1406 293.42C52.7573 293.822 12.4883 292.796 11.0061 291.87C10.9374 291.809 10.8852 291.732 10.8541 291.648C10.4133 290.507 11.2646 285.678 11.219 279.751C11.219 279.643 11.3102 277.778 11.4394 275.137C11.789 268.241 12.4123 256.057 12.4123 256.057L38.673 256.567L36.9324 275.768L36.5296 280.232C36.5296 280.232 51.4043 286.912 52.9017 288.082C54.399 289.251 55.5239 293.018 54.1406 293.42Z" fill="#AD6359"/>
<path d="M54.1406 293.42C52.7573 293.822 12.4883 292.796 11.0061 291.87C10.9374 291.809 10.8852 291.732 10.8541 291.648C10.4133 290.507 11.2646 285.678 11.219 279.751C11.219 279.643 11.3102 277.777 11.4394 275.137L36.9324 275.768L36.5296 280.232C36.5296 280.232 51.4043 286.912 52.9017 288.081C54.399 289.251 55.5239 293.018 54.1406 293.42Z" fill="white"/>
<path d="M54.141 293.42C52.7577 293.822 12.4887 292.796 11.0065 291.87C10.4517 291.519 10.2465 286.46 11.2194 279.751L36.53 280.232C36.53 280.232 51.4047 286.905 52.9097 288.089C54.4146 289.273 55.5243 293.011 54.141 293.42Z" fill="#278CFF"/>
<path d="M53.6158 291.92C47.0412 291.626 20.484 291.023 13.9549 291.203C13.9017 291.203 13.9017 291.239 13.9549 291.239C20.4688 291.669 47.026 292.071 53.6082 292.028C53.7527 292.042 53.7527 291.928 53.6158 291.92Z" fill="#263238"/>
<path d="M50.4163 286.697C49.6847 286.665 48.9541 286.776 48.27 287.023C47.586 287.27 46.9634 287.647 46.4411 288.132C45.5087 289.001 44.9647 290.175 44.9209 291.411C44.9209 291.454 44.9893 291.454 44.9969 291.411C45.245 290.183 45.9108 289.066 46.893 288.228C47.8752 287.39 49.1203 286.877 50.4391 286.768C50.4447 286.763 50.4486 286.756 50.4505 286.749C50.4524 286.741 50.4521 286.734 50.4498 286.726C50.4475 286.719 50.4432 286.712 50.4373 286.707C50.4314 286.702 50.4241 286.698 50.4163 286.697Z" fill="#263238"/>
<path d="M39.0681 280.906C36.4306 280.813 33.3599 281.624 31.6725 283.626C31.6041 283.704 31.7257 283.791 31.8017 283.755C34.1325 282.662 36.5815 281.811 39.1061 281.215C39.1435 281.204 39.1758 281.181 39.1972 281.15C39.2187 281.119 39.2279 281.082 39.2234 281.045C39.2189 281.009 39.2009 280.975 39.1725 280.949C39.1441 280.924 39.1071 280.908 39.0681 280.906Z" fill="#263238"/>
<path d="M41.0827 281.703C38.4452 281.609 35.3745 282.42 33.6871 284.415C33.6187 284.494 33.7403 284.58 33.8163 284.544C36.1483 283.452 38.5969 282.598 41.1207 281.997C41.1563 281.986 41.1869 281.964 41.2071 281.935C41.2273 281.905 41.2359 281.87 41.2314 281.835C41.2269 281.8 41.2095 281.767 41.1824 281.743C41.1552 281.719 41.1199 281.705 41.0827 281.703Z" fill="#263238"/>
<path d="M43.0969 282.492C40.4594 282.399 37.3887 283.209 35.7013 285.211C35.6329 285.29 35.7545 285.376 35.8305 285.34C38.1613 284.248 40.6103 283.396 43.1349 282.8C43.1723 282.79 43.2046 282.767 43.226 282.736C43.2475 282.705 43.2568 282.668 43.2522 282.631C43.2477 282.594 43.2297 282.56 43.2013 282.535C43.1729 282.509 43.1359 282.494 43.0969 282.492Z" fill="#263238"/>
<path d="M45.111 283.288C42.4811 283.195 39.4028 284.006 37.7155 286.001C37.6546 286.08 37.7687 286.166 37.8447 286.13C40.1769 285.04 42.6255 284.189 45.149 283.59C45.1914 283.585 45.23 283.564 45.2563 283.533C45.2827 283.501 45.2947 283.461 45.2896 283.421C45.2846 283.381 45.2629 283.345 45.2295 283.32C45.196 283.295 45.1534 283.283 45.111 283.288Z" fill="#263238"/>
<path d="M15.7793 285.34C12.8226 285.283 12.739 289.646 15.6881 289.646C18.6372 289.646 18.736 285.391 15.7793 285.34Z" fill="#263238"/>
<path d="M42.0702 274.333C40.7629 273.264 39.0299 274.247 38.2166 275.309C36.7969 277.165 35.9164 279.34 35.6628 281.616C35.6612 281.627 35.6624 281.637 35.6662 281.647C35.67 281.657 35.6763 281.666 35.6845 281.673C35.6927 281.68 35.7027 281.685 35.7135 281.688C35.7243 281.691 35.7355 281.691 35.7464 281.688C35.756 281.735 35.7772 281.78 35.8082 281.818C35.8392 281.856 35.8791 281.886 35.9249 281.907C35.9706 281.928 36.0209 281.939 36.0717 281.938C36.1225 281.937 36.1725 281.926 36.2176 281.903C38.1178 280.719 40.3144 279.672 41.7738 277.971C42.6327 276.974 43.3092 275.352 42.0702 274.333ZM38.7107 279.55C37.791 280.153 36.8409 280.712 35.944 281.344C36.4457 280.117 36.8865 278.875 37.5174 277.691C37.8146 277.12 38.1497 276.566 38.5207 276.034C39.1135 275.23 41.751 273.207 41.9486 275.919C42.055 277.412 39.8128 278.832 38.7107 279.55Z" fill="#263238"/>
<path d="M29.0963 282.399C31.3766 282.779 33.7632 282.212 36.0283 281.932C36.077 281.922 36.1225 281.9 36.161 281.87C36.1995 281.84 36.23 281.802 36.2499 281.759C36.2699 281.715 36.2788 281.668 36.276 281.621C36.2731 281.574 36.2585 281.528 36.2335 281.487C36.2429 281.481 36.2506 281.473 36.2559 281.464C36.2613 281.455 36.2641 281.444 36.2641 281.433C36.2641 281.423 36.2613 281.412 36.2559 281.403C36.2506 281.394 36.2429 281.386 36.2335 281.38C34.4649 279.812 32.2926 278.709 29.9324 278.179C28.5491 277.899 26.5805 278.179 26.3373 279.83C26.094 281.48 27.7662 282.176 29.0963 282.399ZM27.5762 280.963C25.8432 278.811 29.2408 278.689 30.2441 278.94C30.8944 279.109 31.5318 279.32 32.1519 279.571C33.4241 280.108 34.6671 280.704 35.8762 281.358C34.7513 281.437 33.6492 281.602 32.5395 281.71C31.179 281.832 28.4959 282.147 27.5458 280.949L27.5762 280.963Z" fill="#263238"/>
<path d="M39.8588 273.874H8.80957C8.80957 273.874 15.5515 183.04 14.4646 177.952C12.6784 169.614 13.8717 160.013 18.0445 155.435H45.6582C45.6582 155.435 46.2054 162.747 43.3779 167.117C43.3779 167.117 40.7861 168.667 39.5319 169.349L39.8588 273.874Z" fill="#455A64"/>
<path d="M36.9479 269.138C32.6534 269.031 33.9076 269.002 29.5903 268.944C27.4849 268.944 13.6287 268.729 11.6905 269.031C11.6823 269.034 11.6754 269.039 11.6705 269.046C11.6657 269.053 11.6631 269.062 11.6631 269.07C11.6631 269.078 11.6657 269.087 11.6705 269.094C11.6754 269.101 11.6823 269.106 11.6905 269.11C13.6515 269.425 27.4849 269.382 29.5827 269.375C33.8848 269.375 32.623 269.318 36.9479 269.253C36.964 269.253 36.9795 269.247 36.9909 269.236C37.0023 269.225 37.0087 269.211 37.0087 269.196C37.0087 269.18 37.0023 269.166 36.9909 269.155C36.9795 269.144 36.964 269.138 36.9479 269.138Z" fill="#263238"/>
<path d="M45.0733 165.94C42.3616 167.178 39.7655 168.631 37.3129 170.281C37.3015 170.287 37.2914 170.295 37.2832 170.304C37.2751 170.313 37.2692 170.324 37.2659 170.336C37.2625 170.348 37.2618 170.36 37.2638 170.372C37.2658 170.384 37.2704 170.395 37.2774 170.405C37.2844 170.415 37.2936 170.424 37.3044 170.431C37.3151 170.437 37.3273 170.442 37.3399 170.444C37.3526 170.445 37.3656 170.445 37.3779 170.441C37.3903 170.438 37.4018 170.433 37.4117 170.425C40.034 169.054 42.7323 167.727 45.2633 166.22C45.461 166.105 45.2862 165.847 45.0733 165.94Z" fill="#263238"/>
<path d="M41.5614 165.567C41.3997 166.07 41.2752 166.583 41.189 167.103C41.0744 167.507 41.046 167.929 41.1054 168.344C41.1054 168.423 41.2346 168.423 41.2802 168.344C41.4881 167.953 41.6316 167.535 41.7059 167.103C41.8351 166.622 41.9795 166.148 42.1011 165.668C42.1081 165.634 42.108 165.6 42.1009 165.566C42.0938 165.533 42.0798 165.501 42.0597 165.473C42.0396 165.444 42.0137 165.42 41.9837 165.401C41.9536 165.382 41.9199 165.369 41.8845 165.363C41.849 165.356 41.8126 165.356 41.7772 165.363C41.7417 165.37 41.7081 165.383 41.6781 165.402C41.6481 165.421 41.6224 165.445 41.6023 165.474C41.5823 165.502 41.5684 165.534 41.5614 165.567Z" fill="#263238"/>
<path d="M41.3106 163.056C41.3866 162.618 41.4626 162.18 41.5462 161.75C41.6298 161.319 41.7514 160.853 41.797 160.394C41.797 160.329 41.9262 160.343 41.9186 160.394C41.8426 160.824 41.835 161.276 41.797 161.714C41.759 162.152 41.7134 162.597 41.6678 163.041C41.5762 163.868 41.4392 164.689 41.2574 165.503C41.7156 165.429 42.1498 165.257 42.5267 165C42.8882 164.663 43.1276 164.226 43.2108 163.752C43.3476 163.25 43.4616 162.747 43.606 162.252C43.7931 161.707 43.9279 161.148 44.0088 160.58C44.0088 160.508 44.1381 160.53 44.1229 160.58C44.0149 161.771 43.7807 162.949 43.4236 164.096C43.3453 164.549 43.1004 164.96 42.7319 165.259C42.2601 165.495 41.7435 165.641 41.2118 165.689C41.151 165.689 41.0597 165.689 41.0673 165.617C41.0901 164.799 41.1738 163.91 41.3106 163.056Z" fill="#263238"/>
<path d="M18.9492 177.608C18.7516 175.692 18.4172 173.79 18.1891 171.867C17.7785 168.027 18.0353 164.149 18.9492 160.386C18.9492 160.315 18.8428 160.286 18.8276 160.386C18.0464 163.683 17.6841 167.055 17.7483 170.432C17.9231 173.805 18.554 177.141 18.6148 180.528C18.6756 183.915 18.3868 187.381 18.1511 190.803C17.9155 194.226 17.6875 197.685 17.4519 201.122C16.5094 214.956 15.6353 228.79 14.746 242.625C14.4952 246.485 14.2671 250.346 14.0315 254.213C13.7959 258.081 13.4995 262.07 13.3398 266.003C13.3398 266.347 13.8643 266.318 13.8947 266.003C14.518 259.057 14.8828 252.089 15.3465 245.143C15.8101 238.198 16.2357 231.381 16.6842 224.499C17.1326 217.618 17.5659 210.737 17.9991 203.856C18.217 200.411 18.4273 196.97 18.63 193.53C18.8428 190.107 19.1088 186.677 19.162 183.24C19.2007 181.361 19.1297 179.48 18.9492 177.608Z" fill="#263238"/>
<path d="M28.7236 160.164C28.7174 160.155 28.7089 160.148 28.699 160.143C28.689 160.138 28.6779 160.135 28.6666 160.135C28.6553 160.135 28.6442 160.138 28.6343 160.143C28.6243 160.148 28.6159 160.155 28.6096 160.164C28.4464 160.627 28.3592 161.111 28.3512 161.599C28.266 162.112 28.1389 162.619 27.9712 163.113C27.6712 164.11 27.1 165.016 26.3142 165.739C24.5812 167.275 22.2554 167.849 20.0055 168.366C19.9219 168.366 19.9523 168.488 20.0055 168.495C21.3377 168.549 22.668 168.354 23.9199 167.921C25.0433 167.6 26.0802 167.054 26.9603 166.321C27.7929 165.572 28.3632 164.6 28.5944 163.537C28.7081 162.978 28.7692 162.412 28.7768 161.843C28.7768 161.578 28.7768 161.305 28.7768 161.032C28.8219 160.743 28.8038 160.447 28.7236 160.164Z" fill="#263238"/>
<path d="M40.7706 119.034C43.6057 122.356 58.1916 133.199 70.9609 131.699C76.2815 131.082 79.4434 119.501 80.1427 115.26C81.3892 107.683 83.183 91.7315 80.1427 92.4203C76.3423 93.2742 67.1149 118.123 64.4014 118.367C60.0462 118.754 52.795 115.784 43.6285 114.564C38.8932 113.932 38.5816 116.48 40.7706 119.034Z" fill="#AD6359"/>
<path d="M40.8392 120.276C44.3432 124.581 55.5011 131.304 55.5011 131.304L56.7856 128.118L61.0269 117.578C61.0269 117.578 51.0547 115.224 44.48 114.298C43.7112 114.179 42.9333 114.119 42.1541 114.119C38.0117 114.148 37.8141 116.573 40.8392 120.276Z" fill="#278CFF"/>
<path d="M40.8392 120.276C44.3432 124.581 55.5011 131.304 55.5011 131.304L56.7856 128.118C52.514 123.978 45.9393 117.721 42.1541 114.119C38.0117 114.148 37.8141 116.573 40.8392 120.276Z" fill="#263238"/>
<path d="M53.4414 129.345C54.1331 127.408 57.2418 119.601 58.0627 117.951C58.1235 117.836 58.2071 117.843 58.1691 117.951C56.8365 121.826 55.2863 125.632 53.5251 129.353C53.5023 129.41 53.4262 129.396 53.4414 129.345Z" fill="#263238"/>
<path d="M89.3022 93.6688C90.0622 95.5201 87.3107 95.2761 87.3107 95.2761C87.3107 95.2761 91.1111 96.5175 91.1111 98.6988C91.1111 100.88 87.7972 100.392 87.5616 100.364C87.7668 100.435 91.2556 101.662 90.9895 103.851C90.7235 106.039 87.4932 105.185 87.2879 105.121C87.4552 105.243 89.667 106.865 89.0665 108.486C88.0328 111.263 82.2258 107.259 79.7708 107.718L80.1356 111.521C80.1356 111.643 80.1356 111.773 80.0976 111.895L78.053 112.16C77.4456 110.974 76.7416 109.835 75.9476 108.752C74.9975 107.367 74.131 106.025 74.0398 104.999C73.9804 104.536 74.0816 104.068 74.3283 103.664C74.575 103.26 74.9539 102.943 75.4079 102.76C75.4079 102.76 73.4697 101.756 73.6141 100.026C73.6977 99.1365 75.2711 98.4692 75.2711 98.4692C74.8448 98.2193 74.4995 97.8636 74.2729 97.4409C74.0464 97.0182 73.9473 96.5449 73.9866 96.0726C74.1766 94.8528 75.7271 94.372 75.7271 94.372C75.7271 94.372 74.6782 92.901 75.2939 91.7099C76.5404 89.3133 87.7364 89.6936 89.3022 93.6688Z" fill="#AD6359"/>
<path d="M79.6032 108.221L80.1428 111.521C80.1428 111.643 80.1428 111.773 80.1048 111.895C79.5728 116.135 74.6626 119.034 74.1002 116.02C73.6745 113.724 76.7529 111.041 75.9472 108.752L79.6032 108.221Z" fill="#AD6359"/>
<path d="M75.2256 98.4477C75.18 98.4477 75.18 98.3831 75.2256 98.3759C79.4895 97.5809 83.9139 98.2529 87.6985 100.27C87.8277 100.349 87.8657 100.536 87.6985 100.464C85.0762 99.2083 78.8436 98.3042 75.2256 98.4477Z" fill="#263238"/>
<path d="M87.5387 105.358C83.822 103.42 79.8163 102.803 75.6131 102.724C75.5523 102.724 75.5599 102.645 75.6131 102.638C77.6881 102.143 80.3636 102.459 82.4538 102.868C84.3752 103.217 86.1671 104.034 87.6528 105.236C87.63 105.286 87.5844 105.401 87.5387 105.358Z" fill="#263238"/>
<path d="M80.1354 109.577C79.9986 108.91 79.8998 108.278 79.7782 107.618C79.7782 107.553 79.6641 107.575 79.6641 107.618C79.6641 108.565 79.7782 109.484 79.8086 110.431C79.8468 111.403 79.7053 112.374 79.3905 113.301C79.1185 114.109 78.6822 114.86 78.106 115.511C77.8273 115.888 77.4722 116.209 77.0612 116.455C76.6502 116.701 76.1915 116.868 75.7117 116.946C75.4921 116.948 75.2746 116.906 75.0742 116.821C74.8738 116.736 74.6952 116.611 74.5507 116.455C74.4062 116.299 74.2993 116.115 74.2373 115.916C74.1753 115.717 74.1597 115.508 74.1916 115.303C74.338 114.436 74.6915 113.611 75.2253 112.892C75.7238 112.099 76.0879 111.237 76.3046 110.338C76.4238 109.532 76.2496 108.712 75.8105 108.013C75.5445 107.518 75.2709 107.022 74.9973 106.534C74.74 106.128 74.5334 105.694 74.3816 105.243C74.2577 104.771 74.3014 104.274 74.506 103.828C74.7107 103.382 75.0649 103.012 75.5141 102.775C75.5977 102.775 75.5141 102.631 75.4685 102.674C74.6956 103.006 74.0922 103.612 73.7887 104.36C73.6761 104.77 73.6579 105.198 73.7352 105.615C73.8126 106.032 73.9838 106.429 74.2372 106.778C74.5184 107.274 74.7996 107.769 75.0733 108.264C75.4231 108.76 75.6156 109.34 75.6281 109.936C75.4062 111.068 74.9462 112.146 74.2752 113.107C73.7258 113.889 73.4592 114.818 73.5151 115.755C73.5541 116.154 73.7201 116.533 73.9915 116.842C74.2628 117.151 74.6266 117.374 75.0353 117.484C77.0115 117.987 78.7824 115.942 79.5349 114.471C80.0399 113.459 80.2995 112.353 80.295 111.234C80.294 110.679 80.2406 110.124 80.1354 109.577Z" fill="#263238"/>
<path d="M83.1302 108.35C82.7095 108.099 82.2542 107.903 81.7772 107.769C81.3014 107.622 80.8091 107.528 80.3103 107.489C79.8486 107.445 79.3823 107.482 78.9345 107.596C78.5211 107.722 78.1492 107.947 77.8552 108.249C77.8467 108.259 77.8416 108.27 77.8405 108.282C77.8395 108.295 77.8426 108.307 77.8494 108.317C77.8561 108.328 77.8663 108.336 77.8783 108.34C77.8902 108.345 77.9035 108.346 77.916 108.343C78.3054 108.241 78.7016 108.165 79.1017 108.113C79.5211 108.045 79.9456 108.009 80.3711 108.005C80.826 108.016 81.2789 108.067 81.724 108.156C82.1801 108.242 82.6285 108.386 83.0846 108.443C83.0977 108.449 83.1126 108.449 83.1262 108.445C83.1397 108.44 83.1507 108.43 83.1568 108.418C83.1628 108.406 83.1634 108.392 83.1584 108.379C83.1534 108.366 83.1433 108.356 83.1302 108.35Z" fill="#263238"/>
<path d="M75.3242 102.61L75.1189 102.48C74.9903 102.385 74.8684 102.282 74.7541 102.172C74.6325 102.05 74.5109 101.935 74.4045 101.813C74.3475 101.748 74.2866 101.685 74.2221 101.626L74.1232 101.533L74.032 101.404C74.032 101.339 73.8876 101.404 73.9332 101.461C73.9662 101.503 73.9967 101.546 74.0244 101.591C74.0244 101.634 74.0244 101.677 74.0776 101.72C74.1136 101.803 74.1542 101.884 74.1992 101.964C74.2931 102.127 74.408 102.279 74.5413 102.416C74.6654 102.544 74.8187 102.645 74.9897 102.71C75.0677 102.749 75.1529 102.773 75.2406 102.782C75.3174 102.803 75.3993 102.803 75.4762 102.782V102.739C75.4333 102.688 75.3819 102.644 75.3242 102.61Z" fill="#263238"/>
<path d="M52.6131 160.616C51.9215 161.19 42.6105 161.413 33.1171 161.405C29.522 161.405 25.8888 161.362 22.6888 161.298C16.859 161.183 13.6743 161.039 13.4995 160.781C13.0054 160.064 20.6062 135.875 25.5315 126.97C28.6631 121.316 31.0801 118.453 33.0563 116.831C34.2572 115.855 34.6753 115.303 35.6026 114.894C36.0966 114.679 36.5603 114.499 37.0087 114.291C39.289 113.265 45.4836 114.255 46.4565 114.743C47.5662 115.281 50.5989 120.785 51.2146 125.263C51.8303 129.74 53.2136 160.107 52.6131 160.616Z" fill="#278CFF"/>
<path opacity="0.1" d="M14.1528 157.624H52.7572C52.7572 156.677 52.7572 155.543 52.704 154.273H15.1257L14.1528 157.624Z" fill="black"/>
<path d="M33.0942 121.216C32.4177 127.559 41.1662 148.21 46.0763 151.848C53.3807 157.258 69.3575 160.961 74.0548 161.893C76.0994 162.31 79.3146 145.978 77.1407 145.497C72.3674 144.45 57.2799 142.527 55.9345 141.587C54.5892 140.647 46.0535 130.637 42.1467 124.789C36.9098 116.96 33.4362 118.001 33.0942 121.216Z" fill="#AD6359"/>
<path d="M85.9043 161.448C87.1128 159.841 84.3841 159.418 84.3841 159.418C84.3841 159.418 88.4277 159.145 88.9902 157.028C89.5526 154.912 86.2539 154.589 86.0183 154.56C86.2311 154.56 89.9403 154.201 90.2747 152.02C90.6092 149.839 87.2344 149.867 87.0444 149.867C87.242 149.788 89.8263 148.755 89.6819 147.047C89.4386 144.105 82.0127 146.495 79.74 145.454V141.544C78.8964 142.428 77.9732 143.242 76.9809 143.976C75.6888 145.088 74.5791 145.806 74.2143 146.775C74.0317 147.206 74.0019 147.682 74.1293 148.13C74.2567 148.579 74.5345 148.977 74.9211 149.265C74.9211 149.265 72.7701 149.774 72.4509 151.475C72.2837 152.357 73.629 153.383 73.629 153.383C73.1491 153.521 72.7186 153.78 72.3848 154.133C72.0509 154.486 71.8266 154.92 71.7364 155.385C71.5844 156.612 72.9525 157.452 72.9525 157.452C72.9525 157.452 71.5388 158.621 71.8124 159.92C72.3825 162.546 83.3124 164.864 85.9043 161.448Z" fill="#AD6359"/>
<path d="M73.1731 157.624C73.1731 157.624 73.1199 157.66 73.1731 157.674C76.6966 159.338 80.6729 159.952 84.5742 159.432C84.6959 159.432 84.7187 159.217 84.5742 159.21C80.7126 159.205 76.8721 158.671 73.1731 157.624Z" fill="#263238"/>
<path d="M73.5988 153.398C73.5532 153.398 73.5304 153.448 73.5988 153.469C77.5042 155.272 81.9649 155.692 86.1705 154.653C86.3149 154.617 86.4062 154.445 86.2313 154.474C83.3202 155.055 77.0496 154.431 73.5988 153.398Z" fill="#263238"/>
<path d="M87.3409 149.695C83.2213 150.664 79.1853 150.298 75.0961 149.351C75.0429 149.351 75.0277 149.408 75.0961 149.43C76.9583 150.405 79.6565 150.757 81.7392 150.865C83.6893 150.996 85.6418 150.642 87.4018 149.839C87.4474 149.796 87.4322 149.674 87.3409 149.695Z" fill="#263238"/>
<path d="M39.6534 121.266C33.7628 114.478 30.7681 117.341 32.4174 125.026C33.6861 130.325 35.3187 135.541 37.3047 140.64L50.3477 133.565L39.6534 121.266Z" fill="#278CFF"/>
<path d="M41.6071 123.275C42.3672 124.158 43.2109 125.026 44.0242 125.894C43.7961 125.442 43.5985 124.983 43.4161 124.516C43.5909 124.868 43.7885 125.234 43.9558 125.578C44.0394 125.758 44.123 125.93 44.2142 126.095C44.2272 126.135 44.2451 126.173 44.2674 126.21C44.8982 126.884 45.5291 127.566 46.1372 128.255C46.8973 129.087 47.5737 129.927 48.2806 130.773C48.9875 131.62 49.7247 132.675 50.4924 133.514C50.5608 133.586 49.3371 134.146 49.2231 134.232C49.1091 134.318 49.0179 134.196 49.1471 134.153C49.2763 134.11 50.2112 133.471 50.2264 133.435C49.5119 132.589 48.7062 131.814 47.9462 130.981C47.1861 130.149 46.4716 129.338 45.7571 128.499C44.3054 126.798 42.9525 125.019 41.5083 123.304C41.5539 123.275 41.5919 123.253 41.6071 123.275Z" fill="#263238"/>
<path d="M33.1322 130.106C33.3679 130.472 33.6187 130.823 33.8315 131.204C33.9151 131.362 33.9987 131.52 34.0899 131.67C33.6795 130.316 33.2716 128.955 32.8662 127.587C33.6263 129.783 34.4472 131.979 35.1464 134.189C35.934 136.291 36.6063 138.429 37.1607 140.597C37.5577 140.4 37.9723 140.237 38.3996 140.109C37.9835 140.398 37.5317 140.639 37.0542 140.826C36.1722 138.648 35.4111 136.428 34.774 134.174C34.5764 133.565 34.394 132.955 34.2115 132.338C34.0291 131.979 33.8163 131.62 33.6111 131.276C33.4059 130.931 33.2082 130.515 33.0106 130.127C33.0866 130.106 33.1246 130.084 33.1322 130.106Z" fill="#263238"/>
<path d="M37.373 138.487C39.1744 137.36 46.7296 133.012 48.4322 132.173C48.5462 132.115 48.6146 132.173 48.5006 132.244C44.9322 134.534 41.2354 136.639 37.4262 138.552C37.373 138.595 37.3122 138.53 37.373 138.487Z" fill="#263238"/>
<path d="M45.1108 120.29C42.8914 120.598 39.4331 117.154 38.1865 114.485C38.3749 113.059 38.6413 111.644 38.9846 110.244C39.243 108.888 39.5015 107.374 39.6307 105.939C39.6307 105.652 40.6416 106.262 40.6416 106.262L42.519 106.857L48.7744 108.852C48.086 110.562 47.6215 112.346 47.3911 114.162C47.3718 114.353 47.3718 114.545 47.3911 114.736V114.808C47.4595 115.942 47.2543 119.989 45.1108 120.29Z" fill="#AD6359"/>
<path d="M47.3686 114.736V114.808C47.0499 114.832 46.7296 114.832 46.4109 114.808C40.1555 114.169 40.0566 106.585 40.0566 106.585L42.5193 106.886L48.7747 108.852C48.0863 110.562 47.6218 112.346 47.3914 114.162C47.3645 114.352 47.3569 114.544 47.3686 114.736Z" fill="#263238"/>
<path d="M37.6771 97.2422C36.917 100.428 39.2961 109.326 41.7967 111.177C45.4147 113.868 51.0089 113.789 53.3499 109.742C55.6302 105.831 52.2706 94.2931 49.5495 92.6355C45.4527 90.2031 38.8324 92.5638 37.6771 97.2422Z" fill="#AD6359"/>
<path d="M47.4671 102.509C47.4671 102.509 47.4671 102.552 47.4671 102.574C47.642 103.169 47.7408 103.88 47.2163 104.21C47.2163 104.21 47.2163 104.253 47.2163 104.245C47.8776 103.987 47.7408 103.047 47.4671 102.509Z" fill="#263238"/>
<path d="M46.7375 102.014C45.6962 102.186 46.1294 104.167 47.0871 103.98C48.0448 103.793 47.6116 101.892 46.7375 102.014Z" fill="#263238"/>
<path d="M51.1152 101.655C51.1152 101.655 51.1684 101.655 51.176 101.698C51.2901 102.308 51.5257 102.99 52.1489 103.076C51.4269 103.155 51.1152 102.251 51.1152 101.655Z" fill="#263238"/>
<path d="M51.5486 100.909C52.5595 100.629 53.0687 102.566 52.1339 102.825C51.199 103.083 50.6973 101.174 51.5486 100.909Z" fill="#263238"/>
<path d="M45.7345 101.282C45.9959 101.154 46.2496 101.013 46.4946 100.859C46.7764 100.743 47.0109 100.544 47.1635 100.292C47.1945 100.203 47.1934 100.107 47.1604 100.018C47.1274 99.9302 47.0643 99.8547 46.9811 99.8039C46.8031 99.7255 46.6059 99.6941 46.4105 99.713C46.2151 99.732 46.0288 99.8006 45.8714 99.9115C45.5165 100.089 45.2453 100.386 45.1113 100.744C45.0869 100.824 45.0866 100.908 45.1104 100.988C45.1342 101.068 45.1812 101.14 45.246 101.196C45.3108 101.252 45.3909 101.289 45.4772 101.305C45.5635 101.32 45.6527 101.312 45.7345 101.282Z" fill="#263238"/>
<path d="M52.1341 99.7393C51.8446 99.743 51.5551 99.7286 51.2676 99.6962C50.9592 99.7241 50.6496 99.6561 50.3859 99.5025C50.32 99.4411 50.2758 99.3619 50.2595 99.2758C50.2431 99.1897 50.2554 99.1009 50.2947 99.0217C50.4132 98.8713 50.5725 98.7539 50.7557 98.682C50.939 98.61 51.1395 98.586 51.336 98.6127C51.7395 98.6073 52.1303 98.7457 52.4305 99.0002C52.4882 99.0609 52.5272 99.1354 52.543 99.2156C52.5589 99.2958 52.5511 99.3786 52.5205 99.4549C52.4899 99.5312 52.4377 99.5981 52.3695 99.6482C52.3014 99.6984 52.2199 99.7299 52.1341 99.7393Z" fill="#263238"/>
<path d="M47.8548 108.034C48.0372 108.149 48.2349 108.314 48.4705 108.285C48.7069 108.233 48.9294 108.135 49.1241 107.998C49.1241 107.998 49.1698 107.998 49.1622 107.998C49.096 108.138 48.9898 108.258 48.8555 108.344C48.7213 108.43 48.5643 108.48 48.4021 108.486C48.2646 108.481 48.1319 108.437 48.0209 108.361C47.9098 108.284 47.8256 108.178 47.7788 108.056C47.7788 108.041 47.8244 108.02 47.8548 108.034Z" fill="#263238"/>
<path d="M48.1287 106.09C48.3429 106.298 48.601 106.462 48.8864 106.571C49.1718 106.68 49.4781 106.731 49.7857 106.721C50.0441 106.717 50.3003 106.676 50.5458 106.599C50.5977 106.589 50.6486 106.575 50.6978 106.556L50.827 106.506C50.8604 106.495 50.8885 106.473 50.9066 106.444C50.9246 106.415 50.9314 106.381 50.9258 106.348C50.9292 106.329 50.9292 106.31 50.9258 106.291V106.24C50.8346 105.767 50.6294 105.071 50.6294 105.071C50.827 105.121 51.8379 105.329 51.7695 105.071C51.2442 102.988 50.4954 100.961 49.5349 99.0218C49.5319 99.0147 49.5274 99.0083 49.5218 99.0028C49.5162 98.9974 49.5094 98.993 49.502 98.99C49.4946 98.987 49.4867 98.9854 49.4786 98.9853C49.4705 98.9852 49.4625 98.9867 49.455 98.9895C49.4476 98.9923 49.4407 98.9965 49.435 99.0018C49.4292 99.0071 49.4246 99.0135 49.4214 99.0205C49.4182 99.0275 49.4166 99.035 49.4165 99.0426C49.4164 99.0502 49.4178 99.0578 49.4208 99.0648C49.8921 100.995 50.7206 102.839 51.2222 104.805C50.8643 104.723 50.4954 104.692 50.1277 104.712C50.0669 104.712 50.5534 106.054 50.5686 106.269C50.1722 106.388 49.7546 106.43 49.3406 106.393C48.9266 106.356 48.5248 106.241 48.1591 106.054C48.1211 105.996 48.0755 106.054 48.1287 106.09Z" fill="#263238"/>
<path d="M50.2338 106.42C50.0388 106.806 49.7401 107.137 49.3673 107.381C49.1609 107.511 48.9162 107.577 48.6681 107.568C48.1284 107.568 48.0144 107.101 48.0296 106.7C48.0367 106.488 48.0699 106.279 48.1284 106.075C48.7736 106.398 49.5111 106.519 50.2338 106.42Z" fill="#263238"/>
<path d="M49.3673 107.381C49.1609 107.511 48.9162 107.577 48.6681 107.568C48.1284 107.568 48.0144 107.101 48.0296 106.7C48.3011 106.657 48.58 106.7 48.8222 106.824C49.0645 106.947 49.2563 107.143 49.3673 107.381Z" fill="#FF98B9"/>
<path d="M51.6474 95.434C48.8047 98.2612 43.5145 95.9291 43.5145 95.9291C43.3881 96.6723 43.0104 97.357 42.4377 97.8808C41.8651 98.4046 41.1283 98.7394 40.3374 98.8352C40.3374 98.8352 40.8923 104.289 39.4101 104.576C37.1299 105.02 34.7888 97.9167 35.1841 96.3453C35.3571 95.8325 35.641 95.3592 36.0178 94.9553C36.3946 94.5514 36.8561 94.2257 37.3731 93.9989C37.3885 93.0936 37.7659 92.2272 38.4296 91.5736C39.7217 90.1385 45.3995 90.569 45.3995 90.569C45.55 89.835 45.8806 89.1444 46.3648 88.5527C46.4803 88.4064 46.626 88.2838 46.7932 88.1921C46.9603 88.1005 47.1454 88.0419 47.3373 88.0198C47.5291 87.9976 47.7237 88.0125 47.9093 88.0634C48.0949 88.1143 48.2676 88.2002 48.417 88.3159C48.223 88.771 48.1399 89.2615 48.1738 89.751C48.265 91.3655 49.6104 91.0857 49.2759 89.6793C49.1707 89.1468 48.8658 88.6679 48.417 88.3303C48.8731 87.2755 49.8916 86.7517 50.6973 87.1104C52.0958 87.7634 54.0036 93.0733 51.6474 95.434Z" fill="#263238"/>
<path d="M40.2539 104.454C40.2539 104.454 37.8292 101.727 36.4991 102.566C35.1689 103.406 37.1831 107.489 38.8781 107.927C39.09 107.998 39.315 108.029 39.5396 108.016C39.7642 108.004 39.9839 107.949 40.1855 107.854C40.387 107.76 40.5663 107.628 40.7126 107.466C40.8588 107.305 40.9691 107.117 41.0367 106.915L40.2539 104.454Z" fill="#AD6359"/>
<path d="M302.451 94.2859C301.433 92.8656 300.883 91.193 300.87 89.4783C300.87 83.3792 307.961 78.4353 316.71 78.4353C325.458 78.4353 332.534 83.3792 332.534 89.4783C332.534 95.5775 325.451 100.514 316.71 100.514C312.824 100.576 309.012 99.5116 305.787 97.4647L300.36 98.7706L302.451 94.2859Z" fill="white"/>
<path d="M300.413 98.8065L300.307 98.6845L305.742 97.2996H305.818L305.886 97.3427C308.727 99.1062 312.027 100.099 315.425 100.213C317.113 100.292 318.805 100.178 320.464 99.8756C322.123 99.608 323.734 99.1251 325.253 98.4405C326.762 97.7524 328.134 96.8253 329.312 95.6995C330.481 94.5877 331.344 93.223 331.827 91.7243C332.288 90.2259 332.264 88.6318 331.759 87.1463C331.252 85.6551 330.367 84.3031 329.182 83.207C326.736 81.0073 323.636 79.5674 320.297 79.081C316.96 78.5223 313.529 78.729 310.294 79.6838C307.019 80.5707 304.186 82.5325 302.306 85.2161C301.42 86.5852 300.957 88.1609 300.968 89.7653C301.012 91.3813 301.524 92.9549 302.45 94.3146L300.413 98.8065ZM300.786 89.7438C300.72 88.0936 301.149 86.4593 302.025 85.0295C302.907 83.615 304.096 82.3924 305.514 81.4418C306.917 80.4696 308.474 79.7117 310.127 79.1958C311.776 78.675 313.486 78.3449 315.22 78.2128C316.954 78.1 318.697 78.1819 320.411 78.4568C323.896 78.9463 327.138 80.434 329.699 82.719C330.973 83.8892 331.929 85.3314 332.489 86.9238C333.028 88.5426 333.044 90.2764 332.534 91.9036C332.008 93.5079 331.074 94.9663 329.813 96.1515C328.575 97.3329 327.13 98.3039 325.542 99.0217C322.372 100.411 318.88 101.014 315.395 100.773C311.907 100.58 308.544 99.4773 305.681 97.5866H305.825L300.353 98.8208L300.163 98.8639L300.246 98.6988L302.45 94.25C301.459 92.9249 300.882 91.3635 300.786 89.7438Z" fill="#263238"/>
<path d="M322.402 89.4783C322.402 89.7849 322.499 90.0845 322.679 90.3394C322.859 90.5943 323.116 90.793 323.416 90.9103C323.716 91.0276 324.046 91.0583 324.364 90.9985C324.683 90.9387 324.975 90.791 325.205 90.5743C325.435 90.3575 325.591 90.0814 325.654 89.7807C325.718 89.4801 325.685 89.1684 325.561 88.8852C325.437 88.602 325.226 88.3599 324.956 88.1896C324.686 88.0193 324.369 87.9284 324.044 87.9284C323.609 87.9284 323.191 88.0917 322.883 88.3824C322.575 88.673 322.402 89.0673 322.402 89.4783Z" fill="#263238"/>
<path d="M315.06 89.4783C315.06 89.7849 315.156 90.0845 315.337 90.3394C315.517 90.5943 315.774 90.793 316.074 90.9103C316.374 91.0276 316.704 91.0583 317.022 90.9985C317.341 90.9387 317.633 90.791 317.863 90.5743C318.092 90.3575 318.249 90.0814 318.312 89.7807C318.375 89.4801 318.343 89.1684 318.219 88.8852C318.094 88.602 317.884 88.3599 317.614 88.1896C317.344 88.0193 317.027 87.9284 316.702 87.9284C316.266 87.9284 315.849 88.0917 315.541 88.3824C315.233 88.673 315.06 89.0673 315.06 89.4783Z" fill="#263238"/>
<path d="M307.726 89.4783C307.726 89.7849 307.822 90.0845 308.002 90.3394C308.183 90.5943 308.439 90.793 308.739 90.9103C309.039 91.0276 309.369 91.0583 309.688 90.9985C310.006 90.9387 310.299 90.791 310.528 90.5743C310.758 90.3575 310.914 90.0814 310.978 89.7807C311.041 89.4801 311.008 89.1684 310.884 88.8852C310.76 88.602 310.549 88.3599 310.279 88.1896C310.009 88.0193 309.692 87.9284 309.367 87.9284C308.932 87.9284 308.514 88.0917 308.206 88.3824C307.899 88.673 307.726 89.0673 307.726 89.4783Z" fill="#263238"/>
</svg>
