<svg width="20" height="20" viewBox="0 0 20 20" fill="none" xmlns="http://www.w3.org/2000/svg">
<ellipse cx="9.93789" cy="9.99988" rx="9.93789" ry="10" fill="white"/>
<path fill-rule="evenodd" clip-rule="evenodd" d="M10.9317 6.99988C10.9317 6.4476 10.4868 5.99988 9.93789 5.99988C9.38902 5.99988 8.9441 6.4476 8.9441 6.99988V8.99988H6.95652C6.40767 8.99988 5.96273 9.44758 5.96273 9.99988C5.96273 10.5522 6.40767 10.9999 6.95652 10.9999H8.9441V12.9999C8.9441 13.5522 9.38902 13.9999 9.93789 13.9999C10.4868 13.9999 10.9317 13.5522 10.9317 12.9999V10.9999H12.9193C13.4681 10.9999 13.913 10.5522 13.913 9.99988C13.913 9.44758 13.4681 8.99988 12.9193 8.99988H10.9317V6.99988ZM0 9.99988C0 4.47703 4.44934 -0.00012207 9.93789 -0.00012207C15.4264 -0.00012207 19.8758 4.47703 19.8758 9.99988C19.8758 15.5227 15.4264 19.9999 9.93789 19.9999C4.44934 19.9999 0 15.5227 0 9.99988Z" fill="#1ED300"/>
</svg>
