<svg width="23" height="17" viewBox="0 0 23 17" fill="none" xmlns="http://www.w3.org/2000/svg">
<path d="M19.7544 3.31566H19.7044V3.36566V4.04559V4.09559H19.7544H20.8378C20.9071 4.09559 20.9553 4.13139 20.9888 4.19181C21.0235 4.25432 21.0399 4.3404 21.0399 4.4269V13.3967C21.0399 14.2857 20.3964 14.9472 19.5089 14.9472H12.8646C12.5746 14.9472 12.2938 15.0808 12.086 15.284C11.8782 15.4871 11.7395 15.7637 11.7395 16.0544V16.1128H10.504V16.0544C10.504 15.4873 10.1288 14.9472 9.54247 14.9472H2.89818C2.00419 14.9472 1.20357 14.2795 1.20357 13.3967V4.4269C1.20357 4.3553 1.25046 4.27244 1.32609 4.20485C1.40135 4.13759 1.49393 4.09559 1.56934 4.09559H2.48913H2.53913V4.04559V3.36566V3.31566H2.48913H1.56934C1.2792 3.31566 0.999236 3.45042 0.792415 3.6546C0.58559 3.85878 0.447925 4.13634 0.447925 4.4269V13.3967C0.447925 14.7105 1.59238 15.7029 2.89818 15.7029H9.54247C9.60973 15.7029 9.65939 15.7414 9.69489 15.8084C9.73103 15.8765 9.74832 15.9682 9.74832 16.0544V16.2205C9.74832 16.4226 9.85205 16.5859 10.0015 16.697C10.1502 16.8076 10.3461 16.8684 10.5391 16.8684H11.868C12.062 16.8684 12.2205 16.8068 12.3302 16.6913C12.4397 16.5761 12.4952 16.4131 12.4952 16.2205V16.0544C12.4952 15.9824 12.5434 15.8942 12.6206 15.8213C12.6975 15.7485 12.7907 15.7029 12.8646 15.7029H19.5089C20.8194 15.7029 21.7956 14.706 21.7956 13.3967V4.4269C21.7956 3.86039 21.4245 3.31566 20.8378 3.31566H19.7544Z" fill="#800080" stroke="#800080" stroke-width="0.1"/>
<path d="M5.47595 3.31566H5.42595V3.36566V4.04559V4.09559H5.47595H9.45836H9.50836V4.04559V3.36566V3.31566H9.45836H5.47595ZM5.47595 4.82121H5.42595V4.87121V5.52685V5.57685H5.47595H9.45836H9.50836V5.52685V4.87121V4.82121H9.45836H5.47595ZM5.47595 6.30247H5.42595V6.35247V7.03239V7.08239H5.47595H9.45836H9.50836V7.03239V6.35247V6.30247H9.45836H5.47595ZM12.7851 3.31566H12.7351V3.36566V4.04559V4.09559H12.7851H16.7675H16.8175V4.04559V3.36566V3.31566H16.7675H12.7851ZM12.7851 4.82121H12.7351V4.87121V5.52685V5.57685H12.7851H16.7675H16.8175V5.52685V4.87121V4.82121H16.7675H12.7851ZM12.7851 6.30247H12.7351V6.35247V7.03239V7.08239H12.7851H16.7675H16.8175V7.03239V6.35247V6.30247H16.7675H12.7851Z" fill="#800080" stroke="#800080" stroke-width="0.1"/>
<path d="M19.0106 2.00437H18.6388V1.93529C18.6388 1.18255 18.1169 0.498828 17.3495 0.498828H13.3629C12.4511 0.498828 11.6519 0.982481 11.2035 1.70521C10.7552 0.982481 9.95596 0.498828 9.04414 0.498828H5.05757C4.298 0.498828 3.60472 1.17419 3.60472 1.93529V2.00437H3.39651C3.0592 2.00437 2.73472 2.17328 2.49561 2.43373C2.25629 2.69441 2.09917 3.05017 2.09917 3.43025V12.4C2.09917 13.3468 2.91745 14.0516 3.81178 14.0516H9.87469C10.3954 14.0516 10.8213 14.5137 10.8213 14.9972V15.0472H10.8713H11.5358H11.5858V14.9972C11.5858 14.5137 12.0116 14.0516 12.5324 14.0516H18.5953C19.4964 14.0516 20.1443 13.34 20.1443 12.4V3.43025C20.1443 3.05431 20.0308 2.69944 19.8327 2.43739C19.6342 2.1748 19.3494 2.00437 19.0106 2.00437ZM4.36036 1.93529V1.93042C4.36203 1.76569 4.4486 1.59724 4.58136 1.46834C4.71539 1.3382 4.8903 1.25447 5.05755 1.25447H9.04411C10.019 1.25447 10.7439 2.11285 10.7439 3.09803V12.7195C10.3715 12.2753 9.72117 11.9604 9.04411 11.9604H5.05757C4.88457 11.9604 4.70844 11.9034 4.57659 11.8043C4.44525 11.7056 4.36036 11.5676 4.36036 11.4034V1.93529ZM19.3643 12.4V12.4083C19.3628 12.6702 19.2868 12.8915 19.1555 13.0468C19.0235 13.203 18.8329 13.296 18.5953 13.296H12.5324C12.3412 13.296 12.1572 13.3239 11.9847 13.3807C12.3111 12.9785 12.8078 12.716 13.3629 12.716H17.3495C17.7283 12.716 18.0514 12.5788 18.2797 12.3444C18.5079 12.11 18.6387 11.7815 18.6387 11.4034V2.76001H19.0105C19.1189 2.76001 19.2061 2.8311 19.2689 2.95736C19.3317 3.08351 19.3643 3.25536 19.3643 3.43025V12.4ZM13.3629 1.25447H17.3495C17.5141 1.25447 17.646 1.33565 17.7383 1.46197C17.8314 1.5892 17.8831 1.76122 17.8831 1.93529V11.4034C17.8831 11.5768 17.8318 11.7153 17.7424 11.81C17.6532 11.9043 17.5214 11.9604 17.3495 11.9604H13.3629C12.6636 11.9604 12.0055 12.2973 11.4995 12.7559V3.09803C11.4995 2.11881 12.3823 1.25447 13.3629 1.25447ZM3.81175 13.296C3.32999 13.296 2.85479 12.9166 2.85479 12.4V3.43025C2.85479 3.26442 2.92928 3.09542 3.03754 2.96737C3.14686 2.83805 3.2821 2.76001 3.39649 2.76001H3.60469V11.4034C3.60469 12.1703 4.30428 12.716 5.05755 12.716H9.04411C9.59924 12.716 10.0959 12.9785 10.4223 13.3807C10.2498 13.3239 10.0658 13.296 9.87464 13.296H3.81175Z" fill="#800080" stroke="#800080" stroke-width="0.1"/>
<path d="M9.12615 9.89924C9.33724 9.89924 9.50836 9.72812 9.50836 9.51702V8.19025C9.50836 7.97915 9.33724 7.80803 9.12615 7.80803H5.80817C5.59707 7.80803 5.42595 7.97915 5.42595 8.19025V9.51702C5.42595 9.72812 5.59707 9.89924 5.80817 9.89924H9.12615ZM16.4353 9.89924C16.6464 9.89924 16.8175 9.72812 16.8175 9.51702V8.19025C16.8175 7.97915 16.6464 7.80803 16.4353 7.80803H13.1173C12.9063 7.80803 12.7351 7.97915 12.7351 8.19025V9.51702C12.7351 9.72812 12.9063 9.89924 13.1173 9.89924H16.4353Z" fill="#800080" stroke="#800080" stroke-width="0.1"/>
</svg>
