<svg width="24" height="19" viewBox="0 0 24 19" fill="none" xmlns="http://www.w3.org/2000/svg">
<path d="M22.2878 5.65957C22.1908 4.93 22.1771 3.67342 22.8548 3.25147C22.8669 3.24374 22.8759 3.23256 22.8865 3.22297C23.4405 3.04577 23.8239 2.79709 23.5229 2.46246L15.3504 0L2.11727 1.83982C2.11727 1.83982 0.601903 2.05642 0.737274 4.41072C0.810761 5.69208 1.21265 6.32138 1.56411 6.63109L0.478208 6.95834C0.176811 7.29297 0.560146 7.54172 1.11423 7.71863C1.12476 7.72852 1.13364 7.73962 1.14596 7.74736C1.82318 8.16965 1.81014 9.4261 1.71273 10.1558C-0.720145 10.8466 0.153175 11.0717 0.153175 11.0717L0.68685 11.2009C0.311465 11.5401 -0.0613411 12.1834 0.00849294 13.4033C0.143935 15.7572 1.38863 15.9197 1.38863 15.9197L10.0483 18.7344L23.1191 15.5684C23.1191 15.5684 23.9927 15.3429 21.5592 14.652C21.4614 13.9235 21.4478 12.6672 22.1266 12.2438C22.139 12.2363 22.1481 12.2249 22.1582 12.2154C22.7123 12.0382 23.0953 11.7898 22.7943 11.4552L22.2262 11.2836C22.6051 11.0551 23.1742 10.458 23.2634 8.90689C23.3249 7.83997 23.0466 7.21511 22.7244 6.84725L23.8473 6.5755C23.8474 6.57593 24.721 6.35046 22.2878 5.65957ZM11.3549 5.62941L13.5529 5.17768L20.981 3.65121L22.0877 3.42359C21.734 4.07079 21.7489 4.9565 21.8074 5.52577C21.8202 5.65455 21.835 5.77216 21.8493 5.86155L20.638 6.16273L11.2625 8.49505L11.3549 5.62941ZM1.91314 7.92019L3.01967 8.14781L10.1533 9.61425L10.7765 9.74189L12.6454 10.126L12.7376 12.9917L3.1016 10.5944L2.15165 10.3583C2.16561 10.2688 2.18037 10.1513 2.19376 10.0222C2.25192 9.45331 2.26703 8.56739 1.91314 7.92019ZM1.48325 4.29741C1.46985 3.67119 1.58144 3.21831 1.80699 2.98811C1.95052 2.84114 2.11992 2.81055 2.23609 2.81055C2.29747 2.81055 2.34167 2.81908 2.34468 2.81908L8.0465 4.67795L10.8912 5.60542L10.7979 8.49111L2.81733 6.25369L2.39617 6.13573C2.3807 6.13136 2.35972 6.12835 2.34353 6.12763C2.31065 6.12527 1.52164 6.05264 1.48325 4.29741ZM10.069 17.4842L1.66746 15.1287C1.65192 15.1242 1.63115 15.1212 1.61496 15.1204C1.58151 15.1182 0.792139 15.0456 0.753963 13.2908C0.740354 12.6638 0.852518 12.2114 1.07763 11.9809C1.22153 11.834 1.39099 11.8034 1.50695 11.8034C1.56848 11.8034 1.61253 11.8116 1.61575 11.8116L10.1617 14.5984L10.069 17.4842ZM21.078 14.5184C21.0913 14.6476 21.106 14.765 21.1204 14.8545L10.5334 17.4882L10.6259 14.6225L12.8893 14.1572L13.2236 14.2381L14.4765 13.8309L20.2516 12.6441L21.3587 12.4164C21.0048 13.0635 21.0194 13.9496 21.078 14.5184ZM21.6612 10.6238C21.6419 10.6242 21.6227 10.6268 21.6046 10.6325L20.8061 10.8561L13.2033 12.9879L13.1103 10.1022L15.6047 9.28865L21.6446 7.3189C21.6454 7.31854 21.9623 7.24813 22.195 7.48471C22.4201 7.71491 22.5319 8.16779 22.5187 8.79401C22.4793 10.5487 21.6899 10.6216 21.6612 10.6238Z" fill="#800080"/>
</svg>
