<svg width="70" height="45" viewBox="0 0 70 45" fill="none" xmlns="http://www.w3.org/2000/svg">
<path d="M62.1951 16.7688H50.5588L48.2498 13.3722L50.5588 9.14246V4.19861C50.5588 2.24854 49.2372 0.646362 47.6118 0.646362H6.20877C4.59093 0.646362 3.26172 2.23938 3.26172 4.19861V33.1842C3.26172 35.1343 4.58333 36.7365 6.20877 36.7365H68.0056V23.7726C68.0056 19.8999 65.408 16.7688 62.1951 16.7688Z" fill="#FFB819"/>
<path d="M3.26156 4.53735H50.5586V7.20154H3.26156V4.53735ZM50.5586 22.5824H6.8922C6.28456 22.5824 5.79085 21.9873 5.79085 21.2549C5.79085 20.5225 6.28456 19.9274 6.8922 19.9274H50.5586C51.1663 19.9274 51.66 20.5225 51.66 21.2549C51.66 21.9873 51.1663 22.5824 50.5586 22.5824ZM50.5586 26.5466H6.8922C6.28456 26.5466 5.79085 25.9515 5.79085 25.2191C5.79085 24.4867 6.28456 23.8916 6.8922 23.8916H50.5586C51.1663 23.8916 51.66 24.4867 51.66 25.2191C51.66 25.9515 51.1663 26.5466 50.5586 26.5466ZM6.8922 37.3499C6.8922 38.0365 6.42887 38.595 5.85921 38.595H2.42605C1.85639 38.595 1.39307 38.0365 1.39307 37.3499V34.1089C1.39307 33.4222 1.85639 32.8638 2.42605 32.8638H5.85921C6.42887 32.8638 6.8922 33.4222 6.8922 34.1089V37.3499ZM69.9347 37.3499C69.9347 38.0365 69.4714 38.595 68.9017 38.595H65.9167C65.3471 38.595 64.8837 38.0365 64.8837 37.3499V34.1089C64.8837 33.4222 65.3471 32.8638 65.9167 32.8638H68.9017C69.4714 32.8638 69.9347 33.4222 69.9347 34.1089V37.3499Z" fill="#333E48"/>
<path d="M59.4603 36.7365C59.4603 31.7926 56.1335 27.7734 52.0319 27.7734C47.9303 27.7734 44.6035 31.7834 44.6035 36.7365H59.4603Z" fill="black"/>
<path d="M45.7354 36.7364C45.7354 38.7469 46.3979 40.6751 47.5774 42.0967C48.7568 43.5184 50.3565 44.317 52.0244 44.317C53.6924 44.317 55.292 43.5184 56.4715 42.0967C57.6509 40.6751 58.3135 38.7469 58.3135 36.7364C58.3135 34.726 57.6509 32.7978 56.4715 31.3762C55.292 29.9545 53.6924 29.1559 52.0244 29.1559C50.3565 29.1559 48.7568 29.9545 47.5774 31.3762C46.3979 32.7978 45.7354 34.726 45.7354 36.7364Z" fill="#333E48"/>
<path d="M49.1382 36.7365C49.1382 37.6591 49.4423 38.544 49.9836 39.1965C50.5248 39.8489 51.259 40.2155 52.0245 40.2155C52.79 40.2155 53.5241 39.8489 54.0654 39.1965C54.6067 38.544 54.9108 37.6591 54.9108 36.7365C54.9108 35.8138 54.6067 34.9289 54.0654 34.2764C53.5241 33.624 52.79 33.2574 52.0245 33.2574C51.259 33.2574 50.5248 33.624 49.9836 34.2764C49.4423 34.9289 49.1382 35.8138 49.1382 36.7365Z" fill="#D1D3D3"/>
<path d="M24.5286 36.7365C24.5286 31.7926 21.2018 27.7734 17.1003 27.7734C12.9987 27.7734 9.67188 31.7834 9.67188 36.7365H24.5286Z" fill="black"/>
<path d="M10.8115 36.7364C10.8115 37.7319 10.9742 38.7177 11.2902 39.6374C11.6063 40.5571 12.0696 41.3928 12.6535 42.0967C13.2375 42.8006 13.9308 43.359 14.6939 43.74C15.4569 44.1209 16.2747 44.317 17.1006 44.317C17.9265 44.317 18.7443 44.1209 19.5073 43.74C20.2703 43.359 20.9636 42.8006 21.5476 42.0967C22.1316 41.3928 22.5949 40.5571 22.9109 39.6374C23.227 38.7177 23.3896 37.7319 23.3896 36.7364C23.3896 35.741 23.227 34.7552 22.9109 33.8355C22.5949 32.9158 22.1316 32.0801 21.5476 31.3762C20.9636 30.6723 20.2703 30.1139 19.5073 29.7329C18.7443 29.352 17.9265 29.1559 17.1006 29.1559C16.2747 29.1559 15.4569 29.352 14.6939 29.7329C13.9308 30.1139 13.2375 30.6723 12.6535 31.3762C12.0696 32.0801 11.6063 32.9158 11.2902 33.8355C10.9742 34.7552 10.8115 35.741 10.8115 36.7364Z" fill="#333E48"/>
<path d="M14.2144 36.7365C14.2144 37.6591 14.5184 38.544 15.0597 39.1965C15.601 39.8489 16.3351 40.2155 17.1006 40.2155C17.8661 40.2155 18.6003 39.8489 19.1416 39.1965C19.6828 38.544 19.9869 37.6591 19.9869 36.7365C19.9869 35.8138 19.6828 34.9289 19.1416 34.2764C18.6003 33.624 17.8661 33.2574 17.1006 33.2574C16.3351 33.2574 15.601 33.624 15.0597 34.2764C14.5184 34.9289 14.2144 35.8138 14.2144 36.7365Z" fill="#D1D3D3"/>
<path d="M16.4928 15.8807C16.4928 16.366 16.1586 16.7688 15.756 16.7688H7.62885C7.22629 16.7688 6.89209 16.366 6.89209 15.8807V10.0305C6.89209 9.54529 7.22629 9.14246 7.62885 9.14246H15.756C16.1586 9.14246 16.4928 9.54529 16.4928 10.0305V15.8807ZM29.1089 15.8807C29.1089 16.366 28.7747 16.7688 28.3721 16.7688H20.245C19.8424 16.7688 19.5082 16.366 19.5082 15.8807V10.0305C19.5082 9.54529 19.8424 9.14246 20.245 9.14246H28.3721C28.7747 9.14246 29.1089 9.54529 29.1089 10.0305V15.8807Z" fill="#00B3E3"/>
<path d="M28.3722 9.15161H20.2451C19.8425 9.15161 19.5083 9.55444 19.5083 10.0397V11.5503C19.5083 11.0651 19.8425 10.6622 20.2451 10.6622H28.3722C28.7748 10.6622 29.109 11.0651 29.109 11.5503V10.0397C29.109 9.54529 28.7748 9.15161 28.3722 9.15161Z" fill="black"/>
<path d="M41.7252 35.8575C41.7252 36.3428 41.391 36.7456 40.9884 36.7456H32.8613C32.4587 36.7456 32.1245 36.3428 32.1245 35.8575V10.0397C32.1245 9.55444 32.4587 9.15161 32.8613 9.15161H40.9884C41.391 9.15161 41.7252 9.55444 41.7252 10.0397V35.8575Z" fill="#D68231"/>
<path d="M40.9884 9.15161H32.8613C32.4587 9.15161 32.1245 9.55444 32.1245 10.0397V11.5503C32.1245 11.0651 32.4587 10.6622 32.8613 10.6622H40.9884C41.391 10.6622 41.7252 11.0651 41.7252 11.5503V10.0397C41.7252 9.54529 41.3986 9.15161 40.9884 9.15161Z" fill="black"/>
<path d="M50.5586 16.7688H45.4848C45.0822 16.7688 44.748 16.366 44.748 15.8807V10.0305C44.748 9.54529 45.0822 9.14246 45.4848 9.14246H50.5586V16.7688Z" fill="#00B3E3"/>
<path d="M15.756 9.15161H7.62885C7.22629 9.15161 6.89209 9.55444 6.89209 10.0397V11.5503C6.89209 11.0651 7.22629 10.6622 7.62885 10.6622H15.756C16.1586 10.6622 16.4928 11.0651 16.4928 11.5503V10.0397C16.4928 9.54529 16.1586 9.15161 15.756 9.15161ZM45.4848 9.15161C45.0822 9.15161 44.748 9.55444 44.748 10.0397V11.5503C44.748 11.0651 45.0822 10.6622 45.4848 10.6622H50.5585V9.15161H45.4848Z" fill="black"/>
<path d="M35.2234 29.3573C34.6158 29.3573 34.1221 28.7622 34.1221 28.0298V23.2965C34.1221 22.5641 34.6158 21.969 35.2234 21.969C35.8311 21.969 36.3248 22.5641 36.3248 23.2965V28.0298C36.3248 28.7622 35.8311 29.3573 35.2234 29.3573ZM38.6338 29.3573C38.0261 29.3573 37.5324 28.7622 37.5324 28.0298V23.2965C37.5324 22.5641 38.0261 21.969 38.6338 21.969C39.2414 21.969 39.7351 22.5641 39.7351 23.2965V28.0298C39.7351 28.7622 39.2414 29.3573 38.6338 29.3573ZM35.2234 19.4421C34.6158 19.4421 34.1221 18.847 34.1221 18.1146V13.3813C34.1221 12.6489 34.6158 12.0538 35.2234 12.0538C35.8311 12.0538 36.3248 12.6489 36.3248 13.3813V18.1055C36.3248 18.847 35.8311 19.4421 35.2234 19.4421ZM38.6338 19.4421C38.0261 19.4421 37.5324 18.847 37.5324 18.1146V13.3813C37.5324 12.6489 38.0261 12.0538 38.6338 12.0538C39.2414 12.0538 39.7351 12.6489 39.7351 13.3813V18.1055C39.7351 18.847 39.2414 19.4421 38.6338 19.4421Z" fill="white"/>
<path d="M62.7344 28.5516H68.0056V32.8638H62.7344V28.5516Z" fill="#00B3E3"/>
<path d="M63.5697 32.8638H62.3544C62.0734 32.8638 61.8379 32.5891 61.8379 32.2412V29.165C61.8379 28.8263 62.0658 28.5425 62.3544 28.5425H63.5697V32.8638Z" fill="white"/>
</svg>
