<svg width="23" height="22" viewBox="0 0 23 22" fill="none" xmlns="http://www.w3.org/2000/svg">
<g clip-path="url(#clip0_2904_2085)">
<path fill-rule="evenodd" clip-rule="evenodd" d="M3.625 3.66666C2.10622 3.66666 0.875 4.89788 0.875 6.41666V12.8333C0.875 14.0361 1.64717 15.0585 2.72283 15.4319C2.87733 17.0599 4.24828 18.3333 5.91667 18.3333C7.53297 18.3333 8.87011 17.1381 9.09251 15.5833H14.6575C14.8799 17.1381 16.2171 18.3333 17.8333 18.3333C19.5018 18.3333 20.8726 17.0599 21.0272 15.4319C22.1028 15.0585 22.875 14.0361 22.875 12.8333V9.4357C22.875 9.16812 22.836 8.90188 22.759 8.64552L21.8533 5.62645C21.5043 4.46324 20.4337 3.66666 19.2192 3.66666H3.625ZM4.54167 15.0664V15.1836C4.57236 15.9164 5.17622 16.5012 5.91667 16.5012C6.65711 16.5012 7.26098 15.9164 7.29167 15.1836V15.0664C7.26098 14.3335 6.65711 13.7488 5.91667 13.7488C5.17622 13.7488 4.57236 14.3335 4.54167 15.0664ZM5.91667 11.9167C7.19652 11.9167 8.30133 12.666 8.81625 13.75H14.9337C15.4486 12.666 16.5535 11.9167 17.8333 11.9167C19.0475 11.9167 20.104 12.591 20.649 13.5856C20.8864 13.42 21.0417 13.1448 21.0417 12.8333V9.4357C21.0417 9.34651 21.0287 9.25777 21.003 9.17234L21.0013 9.16666H17.375C16.3625 9.16666 15.5417 8.34585 15.5417 7.33332V5.49999H3.625C3.11874 5.49999 2.70833 5.9104 2.70833 6.41666V12.8333C2.70833 13.1448 2.86366 13.42 3.10108 13.5856C3.64601 12.591 4.70259 11.9167 5.91667 11.9167ZM17.375 5.49999V6.41666C17.375 6.92291 17.7854 7.33332 18.2917 7.33332H20.4513L20.0973 6.15325C19.981 5.76552 19.624 5.49999 19.2192 5.49999H17.375ZM16.4583 15.0664V15.1836C16.489 15.9164 17.0929 16.5012 17.8333 16.5012C18.5738 16.5012 19.1776 15.9164 19.2083 15.1836V15.0664C19.1776 14.3335 18.5738 13.7488 17.8333 13.7488C17.0929 13.7488 16.489 14.3335 16.4583 15.0664Z" fill="#800080"/>
</g>
<defs>
<clipPath id="clip0_2904_2085">
<rect width="22" height="22" fill="white" transform="translate(0.875)"/>
</clipPath>
</defs>
</svg>
