<svg width="12" height="12" viewBox="0 0 12 12" fill="none" xmlns="http://www.w3.org/2000/svg">
<path d="M10.614 0H1.386C0.620368 0 0 0.676703 0 1.51186V7.76003C0 8.59519 0.620368 9.27189 1.386 9.27189H1.5V11.4535C1.5 11.9394 2.03857 12.1827 2.35355 11.8392L4.7071 9.27189H10.614C11.3796 9.27189 12 8.59519 12 7.76003V1.51186C12 0.676703 11.3797 0 10.614 0ZM11 7.76003C11 7.99275 10.8274 8.18107 10.614 8.18107H5.70711L5.85355 8.02134C6.04881 7.80835 6.04881 7.46301 5.85355 7.25002C5.65829 7.03703 5.3417 7.03703 5.14644 7.25002L4.14645 8.34081L2.50001 10.1368V8.72647C2.50001 8.42525 2.27616 8.18107 2.00002 8.18107H1.386C1.17265 8.18107 1.00001 7.99275 1.00001 7.76003V1.51186C1.00001 1.27914 1.17265 1.09082 1.386 1.09082H10.614C10.8274 1.09082 11 1.27914 11 1.51186V7.76003Z" fill="white"/>
<path d="M3.00001 3.27246C2.44752 3.27246 2 3.76059 2 4.36328C2 4.96594 2.44749 5.4541 3.00001 5.4541C3.5525 5.4541 4.00002 4.96597 4.00002 4.36328C4.00002 3.76059 3.5525 3.27246 3.00001 3.27246Z" fill="white"/>
<path d="M6.00001 3.27246C5.44752 3.27246 5 3.76059 5 4.36328C5 4.96594 5.44749 5.4541 6.00001 5.4541C6.55253 5.4541 7.00002 4.96597 7.00002 4.36328C7.00002 3.76059 6.5525 3.27246 6.00001 3.27246Z" fill="white"/>
<path d="M9.00001 3.27246C8.44752 3.27246 8 3.76059 8 4.36328C8 4.96594 8.44749 5.4541 9.00001 5.4541C9.5525 5.4541 10 4.96597 10 4.36328C10 3.76059 9.5525 3.27246 9.00001 3.27246Z" fill="white"/>
</svg>
