<svg width="41" height="40" viewBox="0 0 41 40" fill="none" xmlns="http://www.w3.org/2000/svg">
<circle cx="20" cy="20" r="19.25" stroke="#E8E8E8" stroke-width="1.5"/>
<circle cx="34.5" cy="6.5" r="5.25" fill="#FF0004" stroke="#FAFAFA" stroke-width="1.5"/>
<circle cx="20" cy="20" r="14" fill="white"/>
<path d="M16.2466 24.1814C16.6088 25.2096 17.1945 26.1447 17.9615 26.9193C18.7285 27.6939 19.6578 28.2887 20.6824 28.661C21.7069 29.0332 22.8013 29.1736 23.8867 29.0721C24.9721 28.9705 26.0214 28.6295 26.9591 28.0736L26.9591 28.0735L29.5037 28.8005C29.609 28.8306 29.7204 28.832 29.8264 28.8045C29.9324 28.7771 30.0291 28.7217 30.1065 28.6443C30.1839 28.5669 30.2392 28.4702 30.2667 28.3642C30.2942 28.2582 30.2928 28.1468 30.2627 28.0415L29.5357 25.4969L29.5357 25.497C30.1817 24.4075 30.536 23.17 30.5645 21.9038C30.5929 20.6376 30.2945 19.3854 29.6981 18.268C29.1017 17.1507 28.2274 16.2059 27.1596 15.5249C26.0917 14.8438 24.8664 14.4495 23.6017 14.3799" fill="white"/>
<path d="M16.2466 24.1814C16.6088 25.2096 17.1945 26.1447 17.9615 26.9193C18.7285 27.6939 19.6578 28.2887 20.6824 28.661C21.7069 29.0332 22.8013 29.1736 23.8867 29.0721C24.9721 28.9705 26.0214 28.6295 26.9591 28.0736L26.9591 28.0735L29.5037 28.8005C29.609 28.8306 29.7204 28.832 29.8264 28.8045C29.9324 28.7771 30.0291 28.7217 30.1065 28.6443C30.1839 28.5669 30.2392 28.4702 30.2667 28.3642C30.2942 28.2582 30.2928 28.1468 30.2627 28.0415L29.5357 25.4969L29.5357 25.497C30.1817 24.4075 30.536 23.17 30.5645 21.9038C30.5929 20.6376 30.2945 19.3854 29.6981 18.268C29.1017 17.1507 28.2274 16.2059 27.1596 15.5249C26.0917 14.8438 24.8664 14.4495 23.6017 14.3799" stroke="#800080" stroke-width="1.5" stroke-linecap="round" stroke-linejoin="round"/>
<circle cx="19.75" cy="21.75" r="0.75" fill="#131313"/>
<circle cx="23.25" cy="21.75" r="0.75" fill="#131313"/>
<circle cx="26.75" cy="21.75" r="0.75" fill="#131313"/>
<path d="M9.12031 21.0899C8.12526 19.4125 7.77678 17.4295 8.14032 15.5133C8.50386 13.5972 9.5544 11.8796 11.0947 10.6832C12.635 9.4868 14.559 8.89383 16.5055 9.01564C18.4521 9.13745 20.2872 9.96566 21.6663 11.3448C23.0454 12.7239 23.8736 14.559 23.9955 16.5055C24.1173 18.4521 23.5243 20.3761 22.3279 21.9164C21.1315 23.4567 19.414 24.5072 17.4978 24.8708C15.5816 25.2343 13.5987 24.8859 11.9212 23.8908L11.9213 23.8907L9.15513 24.6811C9.04069 24.7138 8.91958 24.7153 8.80437 24.6854C8.68915 24.6555 8.58401 24.5954 8.49985 24.5113C8.41569 24.4271 8.35556 24.322 8.32571 24.2067C8.29585 24.0915 8.29735 23.9704 8.33005 23.856L9.12037 21.0899L9.12031 21.0899Z" fill="#800080"/>
<circle cx="12.5054" cy="17.0056" r="0.75" fill="white"/>
<circle cx="16.0054" cy="17.0056" r="0.75" fill="white"/>
<circle cx="19.5054" cy="17.0056" r="0.75" fill="white"/>
</svg>
