<svg width="19" height="18" viewBox="0 0 19 18" fill="none" xmlns="http://www.w3.org/2000/svg">
<g clip-path="url(#clip0_2904_2050)">
<path d="M18.125 9C18.125 13.5563 14.4313 17.25 9.875 17.25C5.31865 17.25 1.625 13.5563 1.625 9C1.625 4.44365 5.31865 0.75 9.875 0.75C14.4313 0.75 18.125 4.44365 18.125 9ZM3.13012 9C3.13012 12.7251 6.14991 15.7449 9.875 15.7449C13.6001 15.7449 16.6199 12.7251 16.6199 9C16.6199 5.27491 13.6001 2.25512 9.875 2.25512C6.14991 2.25512 3.13012 5.27491 3.13012 9Z" fill="#903594"/>
<path d="M9.875 3.75C9.46077 3.75 9.125 4.08578 9.125 4.5V9.35002C9.125 9.35002 9.125 9.54555 9.22003 9.69263C9.28363 9.81735 9.38277 9.92573 9.51305 10.001L12.9779 12.0014C13.3366 12.2085 13.7953 12.0856 14.0024 11.7269C14.2095 11.3681 14.0866 10.9094 13.7279 10.7024L10.625 8.9109V4.5C10.625 4.08579 10.2892 3.75 9.875 3.75Z" fill="#903594"/>
</g>
<defs>
<clipPath id="clip0_2904_2050">
<rect width="18" height="18" fill="white" transform="translate(0.875)"/>
</clipPath>
</defs>
</svg>
