<svg width="52" height="38" viewBox="0 0 52 38" fill="none" xmlns="http://www.w3.org/2000/svg">
<path d="M14.0071 37.7527C10.8195 37.5441 7.79077 36.4826 5.35332 34.7196C2.91588 32.9566 1.19437 30.5824 0.43459 27.936C-0.325186 25.2895 -0.0843726 22.5061 1.12264 19.9833C2.32966 17.4604 4.44116 15.327 7.15565 13.8878C7.73324 10.0497 9.93215 6.5225 13.3409 3.96628C16.7496 1.41005 21.1345 0 25.675 0C30.2155 0 34.6004 1.41005 38.0091 3.96628C41.4178 6.5225 43.6168 10.0497 44.1943 13.8878C46.9088 15.327 49.0203 17.4604 50.2274 19.9833C51.4344 22.5061 51.6752 25.2895 50.9154 27.936C50.1556 30.5824 48.4341 32.9566 45.9967 34.7196C43.5592 36.4826 40.5305 37.5441 37.3429 37.7527V37.7905H14.0071V37.7527ZM28.0086 21.8806H35.0093L25.675 11.9368L16.3407 21.8806H23.3414V29.8355H28.0086V21.8806Z" fill="#800080"/>
</svg>
