<svg width="41" height="40" viewBox="0 0 41 40" fill="none" xmlns="http://www.w3.org/2000/svg">
<circle cx="20" cy="20" r="19.25" stroke="#E8E8E8" stroke-width="1.5"/>
<circle cx="34.5" cy="6.5" r="5.25" fill="#FF0004" stroke="#FAFAFA" stroke-width="1.5"/>
<g clip-path="url(#clip0_2784_7173)">
<path d="M20.0002 11.5292L22.4293 15.3333H17.5252L20.0002 11.5292ZM20.0002 8.91665C19.8427 8.92341 19.6893 8.96874 19.5534 9.04865C19.4176 9.12857 19.3034 9.24063 19.221 9.37498L15.0502 15.7917C14.9812 15.9346 14.9453 16.0913 14.9453 16.25C14.9453 16.4087 14.9812 16.5654 15.0502 16.7083C15.1257 16.8487 15.2382 16.9657 15.3756 17.0465C15.513 17.1273 15.6699 17.1689 15.8293 17.1667H24.1252C24.2826 17.1599 24.436 17.1146 24.5719 17.0346C24.7078 16.9547 24.8219 16.8427 24.9043 16.7083C24.995 16.5727 25.0434 16.4132 25.0434 16.25C25.0434 16.0868 24.995 15.9273 24.9043 15.7917L20.7793 9.37498C20.7038 9.23459 20.5913 9.11762 20.4539 9.0368C20.3165 8.95598 20.1596 8.91442 20.0002 8.91665Z" fill="white"/>
<path d="M28.7083 27.7083H22.2917C22.0486 27.7083 21.8154 27.6117 21.6435 27.4398C21.4716 27.2679 21.375 27.0348 21.375 26.7916V20.375C21.375 20.1319 21.4716 19.8987 21.6435 19.7268C21.8154 19.5549 22.0486 19.4583 22.2917 19.4583H28.7083C28.9514 19.4583 29.1846 19.5549 29.3565 19.7268C29.5284 19.8987 29.625 20.1319 29.625 20.375V26.7916C29.625 27.0348 29.5284 27.2679 29.3565 27.4398C29.1846 27.6117 28.9514 27.7083 28.7083 27.7083ZM23.2083 25.875H27.7917V21.2916H23.2083V25.875Z" fill="white"/>
<path d="M14.9583 20.8333C15.5022 20.8333 16.0339 20.9946 16.4862 21.2968C16.9384 21.599 17.2909 22.0285 17.499 22.531C17.7071 23.0335 17.7616 23.5864 17.6555 24.1198C17.5494 24.6533 17.2875 25.1433 16.9029 25.5279C16.5183 25.9125 16.0283 26.1744 15.4948 26.2805C14.9614 26.3866 14.4085 26.3321 13.906 26.124C13.4035 25.9159 12.974 25.5634 12.6718 25.1112C12.3696 24.6589 12.2083 24.1272 12.2083 23.5833C12.2083 22.854 12.4981 22.1545 13.0138 21.6388C13.5295 21.1231 14.229 20.8333 14.9583 20.8333ZM14.9583 19C14.0518 19 13.1657 19.2688 12.412 19.7724C11.6582 20.2761 11.0708 20.9919 10.7239 21.8294C10.377 22.6669 10.2862 23.5884 10.4631 24.4775C10.6399 25.3666 11.0764 26.1833 11.7174 26.8242C12.3584 27.4652 13.1751 27.9018 14.0642 28.0786C14.9533 28.2555 15.8748 28.1647 16.7123 27.8178C17.5498 27.4709 18.2656 26.8834 18.7692 26.1297C19.2729 25.376 19.5417 24.4898 19.5417 23.5833C19.5417 22.9814 19.4231 22.3854 19.1928 21.8294C18.9625 21.2733 18.6248 20.768 18.1992 20.3424C17.7736 19.9168 17.2684 19.5792 16.7123 19.3489C16.1562 19.1186 15.5602 19 14.9583 19Z" fill="white"/>
</g>
<defs>
<clipPath id="clip0_2784_7173">
<rect width="22" height="22" fill="white" transform="translate(9 8)"/>
</clipPath>
</defs>
</svg>
