<svg width="26" height="26" viewBox="0 0 26 26" fill="none" xmlns="http://www.w3.org/2000/svg">
<path d="M21.6668 10.8333V7.58333C21.6668 6.38672 20.6968 5.41667 19.5002 5.41667H6.50016C5.30355 5.41667 4.3335 6.38672 4.3335 7.58333V10.8333M21.6668 10.8333V20.5833C21.6668 21.78 20.6968 22.75 19.5002 22.75H6.50016C5.30355 22.75 4.3335 21.78 4.3335 20.5833V10.8333M21.6668 10.8333H4.3335M8.66683 3.25V7.58333M17.3335 3.25V7.58333" stroke="#903594" stroke-width="2" stroke-linecap="round"/>
<path d="M7.5 15.25V14H8.75V15.25H7.5Z" fill="black" stroke="#903594" stroke-width="2"/>
<path d="M12.375 15.25V14H13.625V15.25H12.375Z" fill="black" stroke="#903594" stroke-width="2"/>
<path d="M17.25 15.25V14H18.5V15.25H17.25Z" fill="black" stroke="#903594" stroke-width="2"/>
</svg>
