<svg width="18" height="24" viewBox="0 0 18 24" fill="none" xmlns="http://www.w3.org/2000/svg">
<path d="M0.725 19.5625V10H16.475V19.5625C16.475 20.5117 15.7016 21.25 14.7875 21.25H2.4125C1.46328 21.25 0.725 20.5117 0.725 19.5625ZM2.975 12.8125V16.1875C2.975 16.5039 3.22109 16.75 3.5375 16.75H6.9125C7.19375 16.75 7.475 16.5039 7.475 16.1875V12.8125C7.475 12.5312 7.19375 12.25 6.9125 12.25H3.5375C3.22109 12.25 2.975 12.5312 2.975 12.8125ZM14.7875 5.5C15.7016 5.5 16.475 6.27344 16.475 7.1875V8.875H0.725V7.1875C0.725 6.27344 1.46328 5.5 2.4125 5.5H4.1V3.8125C4.1 3.53125 4.34609 3.25 4.6625 3.25H5.7875C6.06875 3.25 6.35 3.53125 6.35 3.8125V5.5H10.85V3.8125C10.85 3.53125 11.0961 3.25 11.4125 3.25H12.5375C12.8188 3.25 13.1 3.53125 13.1 3.8125V5.5H14.7875Z" fill="#903594"/>
</svg>
