<svg width="21" height="21" viewBox="0 0 21 21" fill="none" xmlns="http://www.w3.org/2000/svg">
<path d="M17.5 8.75V6.125C17.5 5.1585 16.7165 4.375 15.75 4.375H5.25C4.2835 4.375 3.5 5.1585 3.5 6.125V8.75M17.5 8.75V16.625C17.5 17.5915 16.7165 18.375 15.75 18.375H5.25C4.2835 18.375 3.5 17.5915 3.5 16.625V8.75M17.5 8.75H3.5M7 2.625V6.125M14 2.625V6.125" stroke="#800080" stroke-width="1.5" stroke-linecap="round"/>
<path d="M6 12.375V11.25H7.125V12.375H6Z" fill="black" stroke="#800080" stroke-width="1.5"/>
<path d="M9.9375 12.375V11.25H11.0625V12.375H9.9375Z" fill="black" stroke="#800080" stroke-width="1.5"/>
<path d="M13.875 12.375V11.25H15V12.375H13.875Z" fill="black" stroke="#800080" stroke-width="1.5"/>
</svg>
