<svg width="17" height="17" viewBox="0 0 17 17" fill="none" xmlns="http://www.w3.org/2000/svg">
<path fill-rule="evenodd" clip-rule="evenodd" d="M5.25607 13.8264C4.76329 15.3048 5.86367 16.8315 7.4221 16.8315C8.15939 16.8315 8.85144 16.4755 9.27997 15.8755L13.0265 10.6304H16.1141L17 9.74452L17 0.885746L16.1141 -0.000131587H3.16422L0.443276 5.44175C-0.364763 7.05771 -0.0479739 9.00936 1.22946 10.2869C2.01671 11.0741 3.08426 11.5163 4.19751 11.5163H6.0262L5.25607 13.8264ZM11.6847 9.46057L7.83823 14.8456C7.7422 14.98 7.58723 15.0598 7.4221 15.0598C7.07307 15.0598 6.82656 14.7178 6.937 14.3867L8.48433 9.74452L4.19751 9.74452C3.55412 9.74452 2.9372 9.48892 2.48233 9.03405C1.74398 8.29582 1.56102 7.16792 2.02793 6.23408L4.25916 1.77162L11.6847 1.77162L11.6847 9.46057ZM13.4565 1.77162H15.2282L15.2282 8.85864H13.4565L13.4565 1.77162Z" fill="#800080"/>
</svg>
