<svg width="16" height="17" viewBox="0 0 16 17" fill="none" xmlns="http://www.w3.org/2000/svg">
<path d="M4.13849 3.48407L6.60479 6.57739L6.78593 6.80033V7.09294L6.8138 10.0469V10.3535L6.61873 10.5903L3.80408 14.0599C3.74835 14.1296 3.66474 14.3664 3.67868 14.464V14.5197L3.73441 15.3557L2.06235 15.4672L2.00661 14.6312V14.5754C1.97874 14.0599 2.17382 13.405 2.50823 13.0009L5.32287 9.53137L5.14173 10.0609L5.11387 7.10688L5.29501 7.62243L2.46643 4.08323L1.99268 3.498H4.13849V3.48407ZM11.5095 13.5165L9.04322 10.4231L8.86208 10.2002V9.90759L8.83421 6.95361V6.64706L9.02929 6.41018L11.8439 2.94065C11.8997 2.87098 11.9833 2.6341 11.9693 2.53656V2.48083L11.9136 1.6448L13.5857 1.53333L13.6414 2.36936V2.42509C13.6693 2.94065 13.4742 3.59554 13.1398 3.99962L10.3251 7.46916L10.5063 6.93967L10.5341 9.89366L10.353 9.3781L13.1816 12.9173L13.6553 13.5025H11.5095V13.5165Z" fill="#800080"/>
<path d="M7.92775 11.7045L9.46047 13.6552H6.39502L7.92775 11.7045Z" fill="#FC830A"/>
<path d="M7.92775 5.2951L9.46047 3.34436H6.39502L7.92775 5.2951Z" fill="#61B6F2"/>
<path d="M1.67207 0H15.7453C15.7453 0 15.6478 1.67207 13.6552 1.67207H0C0 1.67207 0.139339 0 1.67207 0ZM1.67207 15.1879H15.7453C15.7453 15.1879 15.6478 16.86 13.6552 16.86H0C0 16.86 0.139339 15.1879 1.67207 15.1879Z" fill="#800080"/>
</svg>
