<svg width="30" height="30" viewBox="0 0 30 30" fill="none" xmlns="http://www.w3.org/2000/svg">
<circle cx="15" cy="15" r="15" fill="#903594"/>
<path d="M10.3333 19.6667H11.2833L17.8 13.15L16.85 12.2L10.3333 18.7167V19.6667ZM9 21V18.1667L17.8 9.38333C17.9333 9.26111 18.0807 9.16667 18.242 9.1C18.4033 9.03333 18.5727 9 18.75 9C18.9278 9 19.1 9.03333 19.2667 9.1C19.4333 9.16667 19.5778 9.26667 19.7 9.4L20.6167 10.3333C20.75 10.4556 20.8473 10.6 20.9087 10.7667C20.97 10.9333 21.0004 11.1 21 11.2667C21 11.4444 20.9693 11.614 20.908 11.7753C20.8467 11.9367 20.7496 12.0838 20.6167 12.2167L11.8333 21H9ZM17.3167 12.6833L16.85 12.2L17.8 13.15L17.3167 12.6833Z" fill="white"/>
</svg>
