<svg width="70" height="70" viewBox="0 0 70 70" fill="none" xmlns="http://www.w3.org/2000/svg">
<path d="M41.1307 36.8594C40.1299 36.6242 37.565 36.5039 35.0002 36.5039C32.4354 36.5039 29.8705 36.6242 28.8697 36.8594C22.7283 38.3195 17.4619 42.0164 17.4619 50.7664V67.8125H52.5385V50.7664C52.5385 42.0164 47.2721 38.3195 41.1307 36.8594Z" fill="url(#paint0_linear_2784_7043)"/>
<path d="M35 40.5344C32.8836 40.5344 31.1719 38.8227 31.1719 36.7063V33.1953H38.8281V36.7063C38.8281 38.8227 37.1164 40.5344 35 40.5344Z" fill="#E59600"/>
<path d="M17.4619 52.9485V67.8125H22.9307V52.9485H17.4619Z" fill="url(#paint1_linear_2784_7043)"/>
<path d="M47.0693 52.9485V67.8125H52.5381V52.9485H47.0693Z" fill="url(#paint2_linear_2784_7043)"/>
<path d="M44.8602 18.9984H25.1398C23.0125 18.9984 21.2734 20.8523 21.2734 23.1164C21.2734 25.3804 23.0125 27.2343 25.1398 27.2343H44.8547C46.982 27.2343 48.7211 25.3804 48.7211 23.1164C48.7211 20.8523 46.982 18.9984 44.8602 18.9984Z" fill="#E59600"/>
<path d="M35.0001 4.43518C28.722 4.43518 22.9087 11.1508 22.9087 20.8086C22.9087 30.4172 28.897 35.1696 35.0001 35.1696C41.1032 35.1696 47.0915 30.4172 47.0915 20.8086C47.0915 11.1508 41.2782 4.43518 35.0001 4.43518Z" fill="#FFCA28"/>
<path d="M38.035 28.1859C36.8866 28.8695 33.1186 28.8695 31.9701 28.1859C31.3084 27.7922 30.6358 28.3937 30.9092 28.9953C31.1772 29.5859 33.2334 30.9531 35.0108 30.9531C36.7881 30.9531 38.817 29.5859 39.085 28.9953C39.3639 28.3937 38.6967 27.7922 38.035 28.1859Z" fill="#795548"/>
<path d="M36.3892 25.2656C36.3532 25.2488 36.3141 25.2395 36.2744 25.2383H33.7205C33.6822 25.2438 33.6439 25.2547 33.6057 25.2656C33.376 25.3586 33.2447 25.5992 33.3541 25.8562C33.4635 26.1133 33.9721 26.8297 34.9947 26.8297C36.0174 26.8297 36.526 26.1133 36.6353 25.8562C36.7502 25.5992 36.6244 25.3586 36.3892 25.2656Z" fill="#E59600"/>
<path d="M29.0718 23.8109C30.0534 23.8109 30.8491 22.9858 30.8491 21.968C30.8491 20.9501 30.0534 20.125 29.0718 20.125C28.0902 20.125 27.2944 20.9501 27.2944 21.968C27.2944 22.9858 28.0902 23.8109 29.0718 23.8109Z" fill="#404040"/>
<path d="M40.9282 23.8109C41.9098 23.8109 42.7056 22.9858 42.7056 21.968C42.7056 20.9501 41.9098 20.125 40.9282 20.125C39.9466 20.125 39.1509 20.9501 39.1509 21.968C39.1509 22.9858 39.9466 23.8109 40.9282 23.8109Z" fill="#404040"/>
<path d="M26.3376 18.8727C26.3376 18.8727 27.311 17.5875 29.0556 17.5875C30.8001 17.5875 31.7954 18.8891 31.7954 18.8891C31.8655 18.987 31.9026 19.1046 31.9016 19.225C31.9005 19.3454 31.8613 19.4623 31.7896 19.559C31.7178 19.6557 31.6173 19.7271 31.5023 19.7629C31.3874 19.7988 31.2641 19.7973 31.1501 19.7586C31.1501 19.7586 30.6196 19.518 30.122 19.3977C29.6243 19.2774 29.0774 19.2391 28.536 19.2992C27.7157 19.3922 27.0431 19.7422 27.0431 19.7422C26.5235 19.9555 26.0204 19.343 26.3376 18.8727Z" fill="#6D4C41"/>
<path d="M43.6626 18.8727C43.6626 18.8727 42.6837 17.5875 40.9447 17.5875C39.2056 17.5875 38.2048 18.8891 38.2048 18.8891C38.1348 18.987 38.0976 19.1046 38.0987 19.225C38.0997 19.3454 38.1389 19.4623 38.2107 19.559C38.2824 19.6557 38.383 19.7271 38.4979 19.7629C38.6128 19.7988 38.7361 19.7973 38.8501 19.7586C38.8501 19.7586 39.3806 19.518 39.8783 19.3977C40.3759 19.2774 40.9228 19.2391 41.4642 19.2992C42.2845 19.3922 42.9572 19.7422 42.9572 19.7422C43.4767 19.9555 43.9798 19.343 43.6626 18.8727Z" fill="#6D4C41"/>
<path d="M35.0436 2.29688H35.0381H35.0326C18.7686 2.38437 22.099 20.9617 22.099 20.9617C22.099 20.9617 22.8264 22.8758 23.16 23.7234C23.2092 23.8438 23.3842 23.8328 23.4115 23.7016C23.7615 22.1484 25.0084 16.6414 25.6373 14.968C26.0092 13.9836 27.0318 13.4094 28.0709 13.5953C29.6678 13.8852 32.2053 14.2406 35.0053 14.2406H35.0709C37.8709 14.2406 40.4084 13.8852 42.0053 13.5953C43.0443 13.4094 44.067 13.9836 44.4389 14.968C45.0678 16.6359 46.3092 22.1102 46.6592 23.6852C46.6865 23.8164 46.867 23.8273 46.9108 23.7016L47.9772 20.9562C47.9772 20.9617 51.3076 2.38437 35.0436 2.29688Z" fill="#543930"/>
<path d="M47.9774 20.9617C47.9774 20.9617 51.3079 2.38438 35.0438 2.29688H35.0384H35.0329C34.7813 2.29688 34.5298 2.30234 34.2891 2.31328C33.8024 2.33516 33.3376 2.37344 32.8891 2.42266H32.8727L32.7798 2.43906C19.086 4.16172 22.0993 20.9617 22.0993 20.9617L23.1657 23.7125C23.2149 23.8328 23.3899 23.8219 23.4173 23.6961C23.7673 22.1266 25.0141 16.6414 25.643 14.9734C26.0149 13.9891 27.0376 13.4148 28.0766 13.6008C29.6735 13.8906 32.211 14.2461 35.011 14.2461H35.0766C37.8766 14.2461 40.4141 13.8906 42.011 13.6008C43.0501 13.4148 44.0727 13.9891 44.4446 14.9734C45.0735 16.6523 46.3259 22.1648 46.6704 23.7125C46.6977 23.8383 46.8727 23.8547 46.9219 23.7289C47.2446 22.8813 47.9774 20.9617 47.9774 20.9617Z" fill="url(#paint3_radial_2784_7043)"/>
<g opacity="0.4">
<path d="M41.1307 36.8594C40.1299 36.6242 37.565 36.5039 35.0002 36.5039C32.4354 36.5039 29.8705 36.6242 28.8697 36.8594C22.7283 38.3195 17.4619 42.0164 17.4619 50.7664V67.8125H52.5385V50.7664C52.5385 42.0164 47.2721 38.3195 41.1307 36.8594Z" fill="url(#paint4_radial_2784_7043)"/>
</g>
<path d="M46.7853 66.7078C46.7853 61.3265 39.9438 59.5219 37.5595 59.5219H32.4298C30.0509 59.5219 23.1985 61.3265 23.1985 66.7078C23.1985 66.7078 23.1931 67.1398 23.1821 67.8125H46.7962C46.7962 67.2547 46.7853 66.7078 46.7853 66.7078Z" fill="#E1BEE7"/>
<path d="M34.9943 63.6015C33.5725 63.6015 32.4951 62.5515 32.4951 61.2554V59.9539H37.7068V61.2554C37.7123 62.5515 36.4217 63.6015 34.9943 63.6015Z" fill="#E59600"/>
<path d="M24.8608 60.7414L25.1998 59.1445L22.2522 59.8828C22.2522 59.8828 22.0444 57.039 24.5819 55.3984C27.3654 53.5992 30.5647 55.5187 30.5647 55.5187C30.5647 55.5187 30.2475 57.6679 28.3444 59.5109C27.0592 60.7523 24.8608 60.7414 24.8608 60.7414Z" fill="#543930"/>
<path d="M45.1502 60.7414L44.8111 59.1445L47.7588 59.8828C47.7588 59.8828 47.9666 57.039 45.4291 55.3984C42.6455 53.5992 39.4463 55.5187 39.4463 55.5187C39.4463 55.5187 39.7635 57.6679 41.6666 59.5109C42.9463 60.7523 45.1502 60.7414 45.1502 60.7414Z" fill="#543930"/>
<path d="M45.1502 60.7414L44.8111 59.1445L47.7588 59.8828C47.7588 59.8828 47.9666 57.039 45.4291 55.3984C42.6455 53.5992 39.4463 55.5187 39.4463 55.5187C39.4463 55.5187 39.7635 57.6679 41.6666 59.5109C42.9463 60.7523 45.1502 60.7414 45.1502 60.7414Z" fill="url(#paint5_radial_2784_7043)"/>
<path d="M24.7787 60.7414L25.1178 59.1445L22.1701 59.8828C22.1701 59.8828 21.9623 57.039 24.4998 55.3984C27.2834 53.5992 30.4826 55.5187 30.4826 55.5187C30.4826 55.5187 30.1654 57.6679 28.2623 59.5109C26.9826 60.7523 24.7787 60.7414 24.7787 60.7414Z" fill="url(#paint6_radial_2784_7043)"/>
<path d="M43.1704 48.7867H27.054C25.3149 48.7867 23.8931 50.1539 23.8931 51.8274C23.8931 53.5008 25.3149 54.868 27.054 54.868H43.1704C44.9095 54.868 46.1181 53.5008 46.1181 51.8274C46.1181 50.1539 44.9095 48.7867 43.1704 48.7867Z" fill="#E59600"/>
<path d="M34.9943 36.2415C29.892 36.2415 25.3857 41.6008 25.3857 49.3118C25.3857 56.979 30.7834 60.7743 34.9943 60.7743C39.2053 60.7743 44.6029 56.9844 44.6029 49.3118C44.6029 41.5954 40.0967 36.2415 34.9943 36.2415Z" fill="#FFCA28"/>
<path d="M37.3681 55.2618C36.4712 55.7922 33.54 55.7922 32.6431 55.2618C32.129 54.9555 31.604 55.4258 31.8173 55.8907C32.0251 56.35 33.6275 57.4164 35.0111 57.4164C36.3947 57.4164 37.9751 56.35 38.1829 55.8907C38.4017 55.4258 37.8822 54.9555 37.3681 55.2618Z" fill="#795548"/>
<path d="M36.0882 52.8937C36.0589 52.8807 36.0274 52.8733 35.9953 52.8718H34.0101C33.9773 52.8773 33.95 52.8828 33.9172 52.8937C33.7367 52.9648 33.6382 53.1507 33.7257 53.3531C33.8132 53.5499 34.207 54.1078 35.0054 54.1078C35.8039 54.1078 36.1976 53.5499 36.2851 53.3531C36.3672 53.1507 36.2687 52.9648 36.0882 52.8937Z" fill="#E59600"/>
<path d="M30.3299 52.8773C31.094 52.8773 31.7135 52.2359 31.7135 51.4445C31.7135 50.6532 31.094 50.0117 30.3299 50.0117C29.5657 50.0117 28.9463 50.6532 28.9463 51.4445C28.9463 52.2359 29.5657 52.8773 30.3299 52.8773Z" fill="#404040"/>
<path d="M39.6761 52.8773C40.4402 52.8773 41.0597 52.2359 41.0597 51.4445C41.0597 50.6532 40.4402 50.0117 39.6761 50.0117C38.9119 50.0117 38.2925 50.6532 38.2925 51.4445C38.2925 52.2359 38.9119 52.8773 39.6761 52.8773Z" fill="#404040"/>
<path d="M28.1696 48.8961C28.2243 48.825 28.2407 48.7812 28.3392 48.6828C28.5579 48.4531 28.9845 48.1797 29.4001 48.0375C29.7993 47.9008 29.9853 47.9008 30.286 47.9008C30.7509 47.9008 31.0353 47.9992 31.172 48.0375C31.3634 48.1031 31.5438 48.1906 31.7243 48.289C32.0251 48.4695 32.6759 48.9125 32.479 49.3117C32.2603 49.7547 31.9267 49.5906 31.6259 49.4758C31.4946 49.4375 30.904 49.2023 30.2806 49.2023C29.9415 49.2023 29.7993 49.2406 29.7118 49.2515C29.3126 49.3172 29.0118 49.4429 28.9571 49.4594C28.7493 49.5414 28.6017 49.6617 28.3665 49.5687C28.1149 49.4594 28.011 49.1312 28.1696 48.8961Z" fill="#6D4C41"/>
<path d="M41.8361 48.8961C41.7814 48.825 41.765 48.7812 41.6665 48.6828C41.4532 48.4531 41.0212 48.1797 40.6056 48.0375C40.2064 47.9008 40.0204 47.9008 39.7196 47.9008C39.2548 47.9008 38.9704 47.9992 38.8337 48.0375C38.6423 48.1031 38.4618 48.1906 38.2814 48.289C37.9806 48.4695 37.3298 48.9125 37.5267 49.3117C37.7454 49.7547 38.079 49.5906 38.3798 49.4758C38.5111 49.4375 39.1017 49.2023 39.7251 49.2023C40.0642 49.2023 40.2064 49.2406 40.2939 49.2515C40.6931 49.3172 40.9939 49.4429 41.0486 49.4594C41.2564 49.5414 41.404 49.6617 41.6337 49.5687C41.8907 49.4594 41.9947 49.1312 41.8361 48.8961Z" fill="#6D4C41"/>
<path d="M43.5151 38.2321C42.2409 36.9032 41.0213 36.4164 40.901 36.4C39.419 35.7219 37.5104 35.1696 35.0385 35.1696C24.1667 35.1696 23.4284 44.0289 23.8659 47.9282C24.2542 51.368 26.2557 52.2157 26.2557 52.2157L25.9276 48.3274C25.9276 48.3274 29.8159 47.1352 31.9651 45.686C34.0815 44.2586 34.962 43.2852 34.962 43.2852C34.962 43.2852 35.6182 43.9852 37.937 45.6586C40.3432 47.3977 43.9745 48.3492 43.9745 48.3492L43.6956 52.2157C43.6956 52.2157 45.801 51.3735 46.1018 47.9282C46.4846 43.6133 45.9651 41.0321 43.5151 38.2321Z" fill="#543930"/>
<path d="M43.5151 38.2321C42.2409 36.9032 41.0213 36.4164 40.901 36.4C39.419 35.7219 37.5104 35.1696 35.0385 35.1696C24.1667 35.1696 23.4284 44.0289 23.8659 47.9282C24.2542 51.368 26.2557 52.2157 26.2557 52.2157L25.9276 48.3274C25.9276 48.3274 29.8159 47.1352 31.9651 45.686C34.0815 44.2586 34.962 43.2852 34.962 43.2852C34.962 43.2852 35.6182 43.9852 37.937 45.6586C40.3432 47.3977 43.9745 48.3492 43.9745 48.3492L43.6956 52.2157C43.6956 52.2157 45.801 51.3735 46.1018 47.9282C46.4846 43.6133 45.9651 41.0321 43.5151 38.2321Z" fill="url(#paint7_radial_2784_7043)"/>
<defs>
<linearGradient id="paint0_linear_2784_7043" x1="35.0007" y1="67.6889" x2="35.0007" y2="37.8153" gradientUnits="userSpaceOnUse">
<stop stop-color="#009E89"/>
<stop offset="1" stop-color="#00BFA5"/>
</linearGradient>
<linearGradient id="paint1_linear_2784_7043" x1="20.1957" y1="67.8924" x2="20.1957" y2="53.0611" gradientUnits="userSpaceOnUse">
<stop offset="0.606" stop-color="#FFCA28"/>
<stop offset="1" stop-color="#FFB300"/>
</linearGradient>
<linearGradient id="paint2_linear_2784_7043" x1="49.8043" y1="67.8924" x2="49.8043" y2="53.0611" gradientUnits="userSpaceOnUse">
<stop offset="0.606" stop-color="#FFCA28"/>
<stop offset="1" stop-color="#FFB300"/>
</linearGradient>
<radialGradient id="paint3_radial_2784_7043" cx="0" cy="0" r="1" gradientUnits="userSpaceOnUse" gradientTransform="translate(35.0384 17.7119) scale(13.6358 15.3839)">
<stop offset="0.794" stop-color="#6D4C41" stop-opacity="0"/>
<stop offset="1" stop-color="#6D4C41"/>
</radialGradient>
<radialGradient id="paint4_radial_2784_7043" cx="0" cy="0" r="1" gradientUnits="userSpaceOnUse" gradientTransform="translate(34.9641 62.6637) scale(21.0623)">
<stop stop-color="#212121"/>
<stop offset="0.574" stop-color="#616161" stop-opacity="0.05"/>
</radialGradient>
<radialGradient id="paint5_radial_2784_7043" cx="0" cy="0" r="1" gradientUnits="userSpaceOnUse" gradientTransform="translate(43.7 57.6244) rotate(30.1059) scale(4.85625 3.20821)">
<stop offset="0.525" stop-color="#6D4C41" stop-opacity="0"/>
<stop offset="1" stop-color="#6D4C41"/>
</radialGradient>
<radialGradient id="paint6_radial_2784_7043" cx="0" cy="0" r="1" gradientUnits="userSpaceOnUse" gradientTransform="translate(26.2247 57.6148) rotate(149.894) scale(4.85625 3.20821)">
<stop offset="0.525" stop-color="#6D4C41" stop-opacity="0"/>
<stop offset="1" stop-color="#6D4C41"/>
</radialGradient>
<radialGradient id="paint7_radial_2784_7043" cx="0" cy="0" r="1" gradientUnits="userSpaceOnUse" gradientTransform="translate(34.9366 43.1771) scale(12.0438 8.93243)">
<stop offset="0.699" stop-color="#6D4C41" stop-opacity="0"/>
<stop offset="1" stop-color="#6D4C41"/>
</radialGradient>
</defs>
</svg>
