<svg width="14" height="13" viewBox="0 0 14 13" fill="none" xmlns="http://www.w3.org/2000/svg">
<path d="M10.0979 8.01561C10.0979 8.01561 10.8174 10.6915 11.0252 11.4205C11.2211 12.1058 10.6215 12.0875 10.2538 11.8533C9.84214 11.589 6.9963 9.72353 6.9963 9.72353C6.9963 9.72353 4.12647 11.6037 3.73077 11.8566C3.39103 12.0728 2.75951 12.1205 3.01532 11.4282C3.19918 10.8454 4.09849 8.01561 4.09849 8.01561C4.09849 8.01561 1.47249 6.25271 1.1927 6.05479C0.912916 5.86055 0.900925 5.31079 1.40454 5.27084C1.90416 5.23382 5.13372 4.9813 5.13372 4.9813C5.13372 4.9813 6.38477 1.80369 6.55264 1.38184C6.71651 0.879726 7.2601 0.86873 7.47993 1.37451C7.6598 1.785 9.06273 4.9813 9.06273 4.9813C9.06273 4.9813 12.1124 5.23015 12.5721 5.2668C13.0757 5.29613 13.1156 5.86824 12.7879 6.09914C12.4641 6.33334 10.0979 8.01561 10.0979 8.01561Z" fill="#FFC44D"/>
<path fill-rule="evenodd" clip-rule="evenodd" d="M7.48155 1.37442C7.66141 1.78527 9.06355 4.98159 9.06355 4.98159C9.06355 4.98159 12.114 5.23044 12.5733 5.26563C13.0765 5.29495 13.1161 5.86707 12.7895 6.0998C12.4638 6.33143 10.0976 8.01516 10.0976 8.01516C10.0976 8.01516 10.8166 10.6896 11.0257 11.4182C11.2215 12.1046 10.6208 12.0863 10.2554 11.8521C9.84176 11.5879 6.99592 9.72162 6.99592 9.72162C6.99592 9.72162 4.1277 11.6022 3.7328 11.8551C3.39306 12.0717 2.75874 12.1189 3.01455 11.4284C3.20041 10.8457 4.09972 8.01516 4.09972 8.01516C4.09972 8.01516 1.47132 6.25153 1.19233 6.05472C0.911747 5.85827 0.902954 5.30998 1.40337 5.27076C1.90459 5.23191 5.13414 4.98159 5.13414 4.98159C5.13414 4.98159 6.38598 1.8025 6.55426 1.38212C6.71733 0.879636 7.26052 0.868275 7.48155 1.37442Z" stroke="#FFC44D" stroke-linecap="round" stroke-linejoin="round"/>
</svg>
