<svg width="24" height="24" viewBox="0 0 24 24" fill="none" xmlns="http://www.w3.org/2000/svg">
<path d="M6.79386 10.4448V5.24618C6.79386 5.12196 6.74452 5.00284 6.65669 4.91501C6.56885 4.82718 6.44973 4.77783 6.32552 4.77783C6.2013 4.77783 6.08218 4.82718 5.99435 4.91501C5.90652 5.00284 5.85717 5.12196 5.85717 5.24618V10.4448C5.32781 10.5523 4.85188 10.8395 4.51004 11.2577C4.16819 11.676 3.98145 12.1995 3.98145 12.7397C3.98145 13.2799 4.16819 13.8034 4.51004 14.2217C4.85188 14.6399 5.32781 14.9271 5.85717 15.0346V18.9843C5.85717 19.1085 5.90652 19.2276 5.99435 19.3155C6.08218 19.4033 6.2013 19.4526 6.32552 19.4526C6.44973 19.4526 6.56885 19.4033 6.65669 19.3155C6.74452 19.2276 6.79386 19.1085 6.79386 18.9843V15.0346C7.32323 14.9271 7.79915 14.6399 8.141 14.2217C8.48284 13.8034 8.66959 13.2799 8.66959 12.7397C8.66959 12.1995 8.48284 11.676 8.141 11.2577C7.79915 10.8395 7.32323 10.5523 6.79386 10.4448ZM6.32552 14.1447C6.04763 14.1447 5.77598 14.0623 5.54492 13.9079C5.31386 13.7535 5.13378 13.5341 5.02743 13.2774C4.92109 13.0206 4.89327 12.7381 4.94748 12.4656C5.00169 12.193 5.13551 11.9427 5.33201 11.7462C5.5285 11.5497 5.77886 11.4159 6.05141 11.3617C6.32396 11.3074 6.60646 11.3353 6.8632 11.4416C7.11994 11.548 7.33937 11.728 7.49376 11.9591C7.64815 12.1902 7.73055 12.4618 7.73055 12.7397C7.73055 13.1123 7.58252 13.4697 7.31903 13.7332C7.05553 13.9967 6.69815 14.1447 6.32552 14.1447ZM12.414 6.69805V5.24618C12.414 5.12196 12.3647 5.00284 12.2768 4.91501C12.189 4.82718 12.0699 4.77783 11.9457 4.77783C11.8214 4.77783 11.7023 4.82718 11.6145 4.91501C11.5267 5.00284 11.4773 5.12196 11.4773 5.24618V6.69805C10.9479 6.80554 10.472 7.09273 10.1302 7.51097C9.78833 7.92921 9.60158 8.45277 9.60158 8.99293C9.60158 9.5331 9.78833 10.0567 10.1302 10.4749C10.472 10.8931 10.9479 11.1803 11.4773 11.2878V18.9843C11.4773 19.1085 11.5267 19.2276 11.6145 19.3155C11.7023 19.4033 11.8214 19.4526 11.9457 19.4526C12.0699 19.4526 12.189 19.4033 12.2768 19.3155C12.3647 19.2276 12.414 19.1085 12.414 18.9843V11.2878C12.9434 11.1803 13.4193 10.8931 13.7611 10.4749C14.103 10.0567 14.2897 9.5331 14.2897 8.99293C14.2897 8.45277 14.103 7.92921 13.7611 7.51097C13.4193 7.09273 12.9434 6.80554 12.414 6.69805ZM11.9457 10.398C11.6678 10.398 11.3961 10.3156 11.1651 10.1612C10.934 10.0068 10.7539 9.78735 10.6476 9.53062C10.5412 9.27388 10.5134 8.99138 10.5676 8.71883C10.6218 8.44628 10.7556 8.19592 10.9521 7.99943C11.1486 7.80293 11.399 7.66911 11.6715 7.6149C11.9441 7.56068 12.2266 7.58851 12.4833 7.69485C12.7401 7.8012 12.9595 7.98128 13.1139 8.21234C13.2683 8.4434 13.3507 8.71504 13.3507 8.99293C13.3507 9.36557 13.2027 9.72295 12.9392 9.98644C12.6757 10.2499 12.3183 10.398 11.9457 10.398ZM19.9075 15.2375C19.9069 14.6979 19.7202 14.175 19.379 13.7569C19.0377 13.3389 18.5627 13.0513 18.0341 12.9426V5.24618C18.0341 5.12196 17.9848 5.00284 17.897 4.91501C17.8091 4.82718 17.69 4.77783 17.5658 4.77783C17.4416 4.77783 17.3225 4.82718 17.2346 4.91501C17.1468 5.00284 17.0974 5.12196 17.0974 5.24618V12.9426C16.5681 13.0501 16.0922 13.3373 15.7503 13.7556C15.4085 14.1738 15.2217 14.6974 15.2217 15.2375C15.2217 15.7777 15.4085 16.3013 15.7503 16.7195C16.0922 17.1377 16.5681 17.4249 17.0974 17.5324V18.9843C17.0974 19.1085 17.1468 19.2276 17.2346 19.3155C17.3225 19.4033 17.4416 19.4526 17.5658 19.4526C17.69 19.4526 17.8091 19.4033 17.897 19.3155C17.9848 19.2276 18.0341 19.1085 18.0341 18.9843V17.5324C18.5627 17.4238 19.0377 17.1362 19.379 16.7181C19.7202 16.3001 19.9069 15.7772 19.9075 15.2375ZM17.5658 16.6426C17.2879 16.6426 17.0163 16.5602 16.7852 16.4058C16.5541 16.2514 16.3741 16.032 16.2677 15.7752C16.1614 15.5185 16.1335 15.236 16.1878 14.9634C16.242 14.6909 16.3758 14.4405 16.5723 14.244C16.7688 14.0475 17.0191 13.9137 17.2917 13.8595C17.5642 13.8053 17.8467 13.8331 18.1035 13.9394C18.3602 14.0458 18.5796 14.2259 18.734 14.4569C18.8884 14.688 18.9708 14.9596 18.9708 15.2375C18.9708 15.6102 18.8228 15.9675 18.5593 16.231C18.2958 16.4945 17.9384 16.6426 17.5658 16.6426Z" fill="#2A2C2E" fill-opacity="0.7"/>
</svg>
