<svg width="301" height="163" viewBox="0 0 301 163" fill="none" xmlns="http://www.w3.org/2000/svg">
<path d="M55.0559 30.8052C39.6652 29.0378 26.3906 40.1405 30.6872 50.926C30.559 50.8354 26.7113 50.201 24.4027 50.4275C22.0299 50.6541 19.3365 51.8777 17.6051 53.1466C13.8857 55.6843 11.7053 60.2161 12.4107 63.8414C12.9237 67.7387 15.6171 72.9502 21.2604 74.3097C24.4668 75.0801 28.6351 74.491 31.9698 73.9019L37.0359 72.633C38.8956 72.7236 40.7553 73.4034 42.6792 73.7206C49.2203 74.5816 59.1601 70.7297 63.585 67.4215C70.3826 62.2553 73.4607 55.6843 73.6531 48.5695C73.7813 40.1859 67.2403 32.0288 55.0559 30.8052Z" fill="#1CA538"/>
<path d="M54.7994 44.5363C47.7453 45.2614 43.064 50.926 43.064 55.7296C43.064 56.6813 43.2564 57.633 43.3846 58.5846C43.577 59.5363 43.7053 60.4426 43.7053 61.3037C43.7053 61.6209 43.7053 61.9381 43.6411 62.3006C43.4487 63.4336 42.8075 64.5212 42.0379 65.5635C41.9097 64.068 41.2043 62.6179 40.3065 61.5756C38.1902 59.0378 34.4067 57.3611 30.8796 57.4064C27.9297 57.4517 25.4929 58.6299 23.8897 60.7145C22.2223 63.071 22.0941 66.3339 25.1081 67.8293C26.7113 68.5997 28.3786 68.6904 29.6612 68.0559C31.1361 67.3308 31.8415 65.7901 31.3926 64.3399C31.3285 64.1133 31.0079 63.9321 30.6231 63.9321C30.3025 63.9321 29.9818 64.1133 29.9177 64.3852C29.7253 65.2463 29.084 65.6088 28.5069 65.5635C27.9297 65.5635 27.2884 65.1103 27.2243 64.2493C27.2243 63.3882 27.9939 61.9834 29.2123 61.6209C30.3666 61.3037 31.585 61.5756 32.3546 61.8928C33.8936 62.4366 35.1762 63.5242 35.561 64.5212V64.5665C35.8816 65.2463 36.074 65.9713 36.074 66.7417C36.074 67.6934 35.8175 68.7357 35.3686 69.778C34.8556 70.775 34.2784 71.6813 33.7013 72.5876C32.3546 74.7629 31.072 76.8475 31.072 79.3852C31.072 80.1556 31.2003 80.926 31.4568 81.787C31.4568 81.8324 31.5209 81.8777 31.5209 81.923L32.1622 82.784C32.2263 82.8747 32.2904 82.92 32.4187 82.9653C33.4448 84.2795 38.3826 84.778 42.8716 84.5967C46.3345 84.4608 52.1702 83.8716 53.068 82.2402L53.1321 82.1949C53.2603 82.1043 53.2603 81.9683 53.2603 81.8777C53.2603 81.8324 53.2603 81.7417 53.1962 81.6964C52.6191 80.6994 52.106 79.5212 51.6571 78.4336C50.6311 76.1677 50.1181 74.1737 50.1181 72.1345C50.1181 70.4124 50.5028 68.6904 51.2082 66.7417L51.6571 65.6994C52.5549 63.5242 53.581 61.1224 53.581 58.8112C53.581 58.1768 53.5169 57.5876 53.3245 56.9532C53.1321 56.2734 52.8756 55.5937 52.6191 54.8686C52.106 53.5997 51.6571 52.3308 51.6571 51.1073C51.6571 50.1103 51.9778 49.1586 52.9397 48.3429C54.2223 47.3006 57.3004 46.3943 59.2243 46.9381C60.1221 47.21 60.6351 47.7538 60.7633 48.4789C60.8275 49.1586 60.4427 49.7931 59.8655 50.065C59.2243 50.3822 58.4547 50.2009 57.9417 49.9743C57.6211 49.8384 57.2363 49.8837 57.0439 50.1103C56.7874 50.2916 56.7874 50.5635 56.9798 50.7447C58.6471 52.3308 60.3786 51.9683 61.0199 51.7417C62.9437 51.062 63.9697 48.9774 63.2643 47.3459C61.9818 44.9895 58.1341 44.2644 54.7994 44.5363Z" fill="#65320B"/>
<path d="M62.4945 47.5725C61.4043 45.352 57.749 44.8082 54.9273 45.0801C48.1939 45.8051 43.8332 51.4698 43.8332 55.9562C43.8332 58.1767 44.7951 60.4879 44.4744 62.7085C44.0897 64.8384 42.4223 66.787 41.0757 68.645C42.0376 66.6057 41.3322 63.932 39.8572 62.1647C36.4584 57.9048 28.3783 56.2281 24.723 61.2583C23.3763 63.207 22.8633 66.3792 25.6849 67.8293C29.0837 69.506 31.5206 67.1042 30.8151 64.8384C30.3021 67.1496 26.9033 67.0589 26.6468 64.6571C26.6468 63.6148 27.4805 61.8928 29.0837 61.4849C32.0336 60.6692 35.6889 62.7991 36.3943 64.7477C37.228 66.5151 37.0356 68.5544 36.1378 70.4124C34.0857 74.5816 30.751 77.5725 32.226 82.3761L32.8672 83.2825H32.9955C33.3161 84.3248 37.6127 85.0499 42.8712 84.8686C48.1297 84.6873 52.2981 83.6903 52.4905 82.648H52.6187C51.9774 81.6057 51.5285 80.4275 51.0155 79.2946C49.0917 74.9441 48.9634 71.5 50.5025 67.0589C51.7209 63.9773 53.4524 60.3973 52.5546 57.3157C51.8492 54.3701 49.2841 50.7447 52.2981 48.1163C53.773 46.8928 57.1718 45.8958 59.3522 46.5302C63.0075 47.6631 61.2119 52.1042 57.4283 50.6088C60.3141 53.3278 63.4564 49.8837 62.4945 47.5725Z" fill="#65320B"/>
<g clip-path="url(#clip0_2784_6880)">
<path d="M152.048 34.4063C152.048 34.9531 151.274 35.5 150.5 35.5C149.726 35.5 148.952 34.9531 148.952 34.4063V22.5938C148.952 21.9375 149.726 21.5 150.5 21.5C151.274 21.5 152.048 21.9375 152.048 22.5938V34.4063Z" fill="#B2C1C0"/>
<path d="M107.163 52.125H193.837V87.125H107.163V52.125Z" fill="#E5DEC1"/>
<path d="M194.611 43.1562C193.837 42.0625 191.825 41.1875 189.968 41.1875H110.877C109.175 41.1875 107.008 42.0625 106.234 43.1562L101.126 50.1563C100.352 51.25 101.126 52.125 102.829 52.125H197.861C199.564 52.125 200.338 51.25 199.564 50.1563L194.611 43.1562Z" fill="#D33B23"/>
<path d="M124.188 70.7188C124.188 71.2656 123.569 71.8125 122.64 71.8125H113.354C112.425 71.8125 111.806 71.2656 111.806 70.7188V66.3438C111.806 65.7969 112.425 65.25 113.354 65.25H122.64C123.569 65.25 124.188 65.7969 124.188 66.3438V70.7188Z" fill="#D6EEF0"/>
<path d="M124.188 59.7812C124.188 60.3281 123.569 60.875 122.64 60.875H113.354C112.425 60.875 111.806 60.3281 111.806 59.7812V55.4062C111.806 54.8594 112.425 54.3125 113.354 54.3125H122.64C123.569 54.3125 124.188 54.8594 124.188 55.4062V59.7812Z" fill="#D6EEF0"/>
<path d="M122.64 61.4219H113.354C112.116 61.4219 111.032 60.6563 111.032 59.7812V55.4062C111.032 54.5312 112.116 53.7656 113.354 53.7656H122.64C123.879 53.7656 124.962 54.5312 124.962 55.4062V59.7812C124.962 60.6563 123.879 61.4219 122.64 61.4219ZM113.354 54.8594C112.89 54.8594 112.58 55.0781 112.58 55.4062V59.7812C112.58 60.1094 112.89 60.3281 113.354 60.3281H122.64C123.105 60.3281 123.414 60.1094 123.414 59.7812V55.4062C123.414 55.0781 123.105 54.8594 122.64 54.8594H113.354Z" fill="#DBB471"/>
<path d="M117.223 54.3125H118.771V60.875H117.223V54.3125Z" fill="#DBB471"/>
<path d="M122.64 72.9062H113.354C112.116 72.9062 111.032 72.1406 111.032 71.2656V66.8906C111.032 66.0156 112.116 65.25 113.354 65.25H122.64C123.879 65.25 124.962 66.0156 124.962 66.8906V71.2656C124.962 72.1406 123.879 72.9062 122.64 72.9062ZM113.354 66.3438C112.89 66.3438 112.58 66.5625 112.58 66.8906V71.2656C112.58 71.5938 112.89 71.8125 113.354 71.8125H122.64C123.105 71.8125 123.414 71.5938 123.414 71.2656V66.8906C123.414 66.5625 123.105 66.3438 122.64 66.3438H113.354Z" fill="#DBB471"/>
<path d="M117.223 65.7969H118.771V72.3594H117.223V65.7969Z" fill="#DBB471"/>
<path d="M124.188 81.6562C124.188 82.2031 123.569 82.75 122.64 82.75H113.354C112.425 82.75 111.806 82.2031 111.806 81.6562V77.2812C111.806 76.7344 112.425 76.1875 113.354 76.1875H122.64C123.569 76.1875 124.188 76.7344 124.188 77.2812V81.6562Z" fill="#D6EEF0"/>
<path d="M122.64 83.8438H113.354C112.116 83.8438 111.032 83.0781 111.032 82.2031V77.8281C111.032 76.9531 112.116 76.1875 113.354 76.1875H122.64C123.879 76.1875 124.962 76.9531 124.962 77.8281V82.2031C124.962 83.0781 123.879 83.8438 122.64 83.8438ZM113.354 77.2812C112.89 77.2812 112.58 77.5 112.58 77.8281V82.2031C112.58 82.5313 112.89 82.75 113.354 82.75H122.64C123.105 82.75 123.414 82.5313 123.414 82.2031V77.8281C123.414 77.5 123.105 77.2812 122.64 77.2812H113.354Z" fill="#DBB471"/>
<path d="M117.223 76.7344H118.771V83.2969H117.223V76.7344Z" fill="#DBB471"/>
<path d="M189.194 70.7188C189.194 71.2656 188.42 71.8125 187.646 71.8125H178.36C177.586 71.8125 176.812 71.2656 176.812 70.7188V66.3438C176.812 65.7969 177.586 65.25 178.36 65.25H187.646C188.42 65.25 189.194 65.7969 189.194 66.3438V70.7188Z" fill="#D6EEF0"/>
<path d="M189.194 59.7812C189.194 60.3281 188.42 60.875 187.646 60.875H178.36C177.586 60.875 176.812 60.3281 176.812 59.7812V55.4062C176.812 54.8594 177.586 54.3125 178.36 54.3125H187.646C188.42 54.3125 189.194 54.8594 189.194 55.4062V59.7812Z" fill="#D6EEF0"/>
<path d="M187.646 61.4219H178.36C177.122 61.4219 176.038 60.6563 176.038 59.7812V55.4062C176.038 54.5312 177.122 53.7656 178.36 53.7656H187.646C188.884 53.7656 189.968 54.5312 189.968 55.4062V59.7812C189.968 60.6563 188.884 61.4219 187.646 61.4219ZM178.36 54.8594C177.895 54.8594 177.586 55.0781 177.586 55.4062V59.7812C177.586 60.1094 177.895 60.3281 178.36 60.3281H187.646C188.111 60.3281 188.42 60.1094 188.42 59.7812V55.4062C188.42 55.0781 188.111 54.8594 187.646 54.8594H178.36Z" fill="#DBB471"/>
<path d="M182.229 54.3125H183.777V60.875H182.229V54.3125Z" fill="#DBB471"/>
<path d="M187.646 72.9062H178.36C177.122 72.9062 176.038 72.1406 176.038 71.2656V66.8906C176.038 66.0156 177.122 65.25 178.36 65.25H187.646C188.884 65.25 189.968 66.0156 189.968 66.8906V71.2656C189.968 72.1406 188.884 72.9062 187.646 72.9062ZM178.36 66.3438C177.895 66.3438 177.586 66.5625 177.586 66.8906V71.2656C177.586 71.5938 177.895 71.8125 178.36 71.8125H187.646C188.111 71.8125 188.42 71.5938 188.42 71.2656V66.8906C188.42 66.5625 188.111 66.3438 187.646 66.3438H178.36Z" fill="#DBB471"/>
<path d="M182.229 65.7969H183.777V72.3594H182.229V65.7969Z" fill="#DBB471"/>
<path d="M189.194 81.6562C189.194 82.2031 188.42 82.75 187.646 82.75H178.36C177.586 82.75 176.812 82.2031 176.812 81.6562V77.2812C176.812 76.7344 177.586 76.1875 178.36 76.1875H187.646C188.42 76.1875 189.194 76.7344 189.194 77.2812V81.6562Z" fill="#D6EEF0"/>
<path d="M187.646 83.8438H178.36C177.122 83.8438 176.038 83.0781 176.038 82.2031V77.8281C176.038 76.9531 177.122 76.1875 178.36 76.1875H187.646C188.884 76.1875 189.968 76.9531 189.968 77.8281V82.2031C189.968 83.0781 188.884 83.8438 187.646 83.8438ZM178.36 77.2812C177.895 77.2812 177.586 77.5 177.586 77.8281V82.2031C177.586 82.5313 177.895 82.75 178.36 82.75H187.646C188.111 82.75 188.42 82.5313 188.42 82.2031V77.8281C188.42 77.5 188.111 77.2812 187.646 77.2812H178.36Z" fill="#DBB471"/>
<path d="M182.229 76.7344H183.777V83.2969H182.229V76.7344Z" fill="#DBB471"/>
<path d="M151.738 34.1875C151.119 33.8594 150.036 33.8594 149.262 34.1875L119.235 51.4687C118.616 51.7969 118.616 52.125 119.545 52.125H181.455C182.229 52.125 182.539 51.7969 181.765 51.4687L151.738 34.1875Z" fill="#F15744"/>
<path d="M175.574 51.4687L151.738 37.4688C151.119 37.0313 150.036 37.0313 149.416 37.4688L125.426 51.4687C124.652 51.7969 124.807 52.125 125.736 52.125H128.831V87.125H172.168V52.125H175.264C176.038 52.125 176.347 51.7969 175.574 51.4687Z" fill="#F9F3D9"/>
<path d="M138.118 70.7188H162.882V87.125H138.118V70.7188Z" fill="#E5DEC1"/>
<path d="M141.213 70.7188H159.786V87.125H141.213V70.7188Z" fill="#42ADE2"/>
<path d="M132.236 63.0625C132.701 63.1719 133.32 63.2813 133.939 63.2813C134.713 63.2813 135.022 63.0625 135.022 62.8437C135.022 62.625 134.713 62.4062 133.939 62.2969C132.855 62.0781 132.082 61.6406 132.082 61.0938C132.082 60.3281 133.01 59.7812 134.713 59.7812C135.487 59.7812 136.106 59.8906 136.415 60L136.106 60.7656C135.796 60.6563 135.332 60.5469 134.713 60.5469C134.094 60.5469 133.784 60.7656 133.784 60.9844C133.784 61.2031 134.094 61.4219 135.022 61.5312C136.26 61.8594 136.725 62.1875 136.725 62.8437C136.725 63.5 135.796 64.1562 133.939 64.1562C133.165 64.1562 132.391 64.0469 132.082 63.9375L132.236 63.0625Z" fill="#89664C"/>
<path d="M142.606 63.9375C142.297 64.0469 141.677 64.1562 140.904 64.1562C138.582 64.1562 137.344 63.2812 137.344 62.0781C137.344 60.6562 139.046 59.7812 141.058 59.7812C141.832 59.7812 142.451 59.8906 142.761 60L142.451 60.7656C142.142 60.6563 141.677 60.6562 141.213 60.6562C139.975 60.6562 139.046 61.0937 139.046 62.0781C139.046 62.9531 139.82 63.5 141.213 63.5C141.677 63.5 142.142 63.3906 142.451 63.3906L142.606 63.9375Z" fill="#89664C"/>
<path d="M145.083 59.8906V61.5313H147.559V59.8906H149.107V64.1563H147.559V62.4063H145.083V64.1563H143.535V59.8906H145.083Z" fill="#89664C"/>
<path d="M156.691 61.9688C156.691 63.3906 155.298 64.1562 153.441 64.1562C151.429 64.1562 150.19 63.1719 150.19 61.9688C150.19 60.6562 151.429 59.7812 153.441 59.7812C155.453 59.7812 156.691 60.7656 156.691 61.9688ZM151.738 61.9688C151.738 62.8438 152.357 63.3906 153.441 63.3906C154.524 63.3906 154.988 62.7344 154.988 61.9688C154.988 61.2031 154.369 60.5469 153.286 60.5469C152.357 60.5469 151.738 61.2031 151.738 61.9688Z" fill="#89664C"/>
<path d="M163.811 61.9688C163.811 63.3906 162.418 64.1562 160.56 64.1562C158.548 64.1562 157.31 63.1719 157.31 61.9688C157.31 60.6562 158.548 59.7812 160.56 59.7812C162.727 59.7812 163.811 60.7656 163.811 61.9688ZM159.013 61.9688C159.013 62.8438 159.632 63.3906 160.715 63.3906C161.799 63.3906 162.263 62.7344 162.263 61.9688C162.263 61.2031 161.644 60.5469 160.56 60.5469C159.632 60.5469 159.013 61.2031 159.013 61.9688Z" fill="#89664C"/>
<path d="M164.894 59.8906H166.442V63.2813H169.073V64.0469H164.894V59.8906Z" fill="#89664C"/>
<path d="M150.5 57.5938C156.483 57.5938 161.334 54.1659 161.334 49.9375C161.334 45.7091 156.483 42.2812 150.5 42.2812C144.516 42.2812 139.666 45.7091 139.666 49.9375C139.666 54.1659 144.516 57.5938 150.5 57.5938Z" fill="#DBB471"/>
<path d="M150.5 55.4062C154.774 55.4062 158.239 52.9578 158.239 49.9375C158.239 46.9172 154.774 44.4688 150.5 44.4688C146.226 44.4688 142.761 46.9172 142.761 49.9375C142.761 52.9578 146.226 55.4062 150.5 55.4062Z" fill="white"/>
<path d="M149.726 70.7188H151.274V87.125H149.726V70.7188Z" fill="#E5DEC1"/>
<path d="M150.5 45.5625C149.726 45.5625 148.952 46.1094 148.952 46.6562V51.0312C148.952 51.5781 149.726 52.125 150.5 52.125C151.274 52.125 152.048 51.5781 152.048 51.0312V46.6562C152.048 46.1094 151.274 45.5625 150.5 45.5625Z" fill="#B2C1C0"/>
<path d="M150.5 49.9375H147.405C146.631 49.9375 145.857 50.4844 145.857 51.0312C145.857 51.5781 146.631 52.125 147.405 52.125H150.5C151.274 52.125 152.048 51.5781 152.048 51.0312C152.048 50.4844 151.274 49.9375 150.5 49.9375Z" fill="#F15744"/>
<path d="M152.048 23.6875V31.7812C158.239 35.2812 164.43 24.2344 170.621 27.7344C164.43 21.5 158.239 29.8125 152.048 23.6875Z" fill="#B4D7EE"/>
<path d="M151.893 65.5781C151.119 65.1406 149.726 65.1406 148.952 65.5781C145.702 67.2188 135.022 71.8125 135.022 71.8125V74H165.978V71.8125C165.978 71.8125 155.298 67.2188 151.893 65.5781Z" fill="#F15744"/>
<path d="M198.481 87.125H102.519C101.591 87.125 100.972 87.6719 100.972 88.2188V90.4062C100.972 90.9531 101.591 91.5 102.519 91.5H198.481C199.254 91.5 200.028 90.9531 200.028 90.4062V88.2188C200.028 87.6719 199.254 87.125 198.481 87.125Z" fill="#666666"/>
<path d="M131.927 89.3125H169.073V91.5H131.927V89.3125Z" fill="#E8E8E8"/>
<path d="M135.022 87.125H165.978V89.3125H135.022V87.125Z" fill="#D0D0D0"/>
<path d="M146.012 80.0156H148.179V80.7813H146.012V80.0156Z" fill="#666666"/>
<path d="M152.822 80.0156H154.989V80.7813H152.822V80.0156Z" fill="#666666"/>
</g>
<path d="M271.018 30.8052C255.628 29.0378 242.353 40.1405 246.65 50.926C246.521 50.8354 242.674 50.201 240.365 50.4275C237.992 50.6541 235.299 51.8777 233.567 53.1466C229.848 55.6843 227.668 60.2161 228.373 63.8414C228.886 67.7387 231.58 72.9502 237.223 74.3097C240.429 75.0801 244.598 74.491 247.932 73.9019L252.998 72.633C254.858 72.7236 256.718 73.4034 258.642 73.7206C265.183 74.5816 275.123 70.7297 279.547 67.4215C286.345 62.2553 289.423 55.6843 289.615 48.5695C289.744 40.1859 283.203 32.0288 271.018 30.8052Z" fill="#1CA538"/>
<path d="M270.762 44.5363C263.708 45.2614 259.026 50.926 259.026 55.7296C259.026 56.6813 259.219 57.633 259.347 58.5846C259.539 59.5363 259.668 60.4426 259.668 61.3037C259.668 61.6209 259.668 61.9381 259.604 62.3006C259.411 63.4336 258.77 64.5212 258 65.5635C257.872 64.068 257.167 62.6179 256.269 61.5756C254.153 59.0378 250.369 57.3611 246.842 57.4064C243.892 57.4517 241.455 58.6299 239.852 60.7145C238.185 63.071 238.056 66.3339 241.07 67.8293C242.674 68.5997 244.341 68.6904 245.624 68.0559C247.099 67.3308 247.804 65.7901 247.355 64.3399C247.291 64.1133 246.97 63.9321 246.586 63.9321C246.265 63.9321 245.944 64.1133 245.88 64.3852C245.688 65.2463 245.046 65.6088 244.469 65.5635C243.892 65.5635 243.251 65.1103 243.187 64.2493C243.187 63.3882 243.956 61.9834 245.175 61.6209C246.329 61.3037 247.547 61.5756 248.317 61.8928C249.856 62.4366 251.139 63.5242 251.523 64.5212V64.5665C251.844 65.2463 252.036 65.9713 252.036 66.7417C252.036 67.6934 251.78 68.7357 251.331 69.778C250.818 70.775 250.241 71.6813 249.664 72.5876C248.317 74.7629 247.034 76.8475 247.034 79.3852C247.034 80.1556 247.163 80.926 247.419 81.787C247.419 81.8324 247.483 81.8777 247.483 81.923L248.125 82.784C248.189 82.8747 248.253 82.92 248.381 82.9653C249.407 84.2795 254.345 84.778 258.834 84.5967C262.297 84.4608 268.133 83.8716 269.03 82.2402L269.094 82.1949C269.223 82.1043 269.223 81.9683 269.223 81.8777C269.223 81.8324 269.223 81.7417 269.159 81.6964C268.581 80.6994 268.068 79.5212 267.62 78.4336C266.593 76.1677 266.08 74.1737 266.08 72.1345C266.08 70.4124 266.465 68.6904 267.171 66.7417L267.62 65.6994C268.517 63.5242 269.543 61.1224 269.543 58.8112C269.543 58.1768 269.479 57.5876 269.287 56.9532C269.094 56.2734 268.838 55.5937 268.581 54.8686C268.068 53.5997 267.62 52.3308 267.62 51.1073C267.62 50.1103 267.94 49.1586 268.902 48.3429C270.185 47.3006 273.263 46.3943 275.187 46.9381C276.084 47.21 276.597 47.7538 276.726 48.4789C276.79 49.1586 276.405 49.7931 275.828 50.065C275.187 50.3822 274.417 50.2009 273.904 49.9743C273.583 49.8384 273.199 49.8837 273.006 50.1103C272.75 50.2916 272.75 50.5635 272.942 50.7447C274.61 52.3308 276.341 51.9683 276.982 51.7417C278.906 51.062 279.932 48.9774 279.227 47.3459C277.944 44.9895 274.096 44.2644 270.762 44.5363Z" fill="#65320B"/>
<path d="M278.457 47.5725C277.367 45.352 273.711 44.8082 270.89 45.0801C264.156 45.8051 259.796 51.4698 259.796 55.9562C259.796 58.1767 260.757 60.4879 260.437 62.7085C260.052 64.8384 258.385 66.787 257.038 68.645C258 66.6057 257.295 63.932 255.82 62.1647C252.421 57.9048 244.341 56.2281 240.685 61.2583C239.339 63.207 238.826 66.3792 241.647 67.8293C245.046 69.506 247.483 67.1042 246.778 64.8384C246.265 67.1496 242.866 67.0589 242.609 64.6571C242.609 63.6148 243.443 61.8928 245.046 61.4849C247.996 60.6692 251.651 62.7991 252.357 64.7477C253.19 66.5151 252.998 68.5544 252.1 70.4124C250.048 74.5816 246.713 77.5725 248.188 82.3761L248.83 83.2825H248.958C249.279 84.3248 253.575 85.0499 258.834 84.8686C264.092 84.6873 268.26 83.6903 268.453 82.648H268.581C267.94 81.6057 267.491 80.4275 266.978 79.2946C265.054 74.9441 264.926 71.5 266.465 67.0589C267.683 63.9773 269.415 60.3973 268.517 57.3157C267.812 54.3701 265.246 50.7447 268.26 48.1163C269.735 46.8928 273.134 45.8958 275.315 46.5302C278.97 47.6631 277.174 52.1042 273.391 50.6088C276.276 53.3278 279.419 49.8837 278.457 47.5725Z" fill="#65320B"/>
<path d="M138.619 96.1708L123.878 137.837C123.719 138.288 123.351 138.689 122.833 138.975C122.315 139.261 121.676 139.416 121.019 139.417C120.776 139.416 120.535 139.395 120.299 139.354C119.542 139.22 118.89 138.878 118.488 138.405C118.086 137.932 117.967 137.365 118.156 136.829L132.897 95.1625C132.983 94.8916 133.145 94.6356 133.373 94.4096C133.601 94.1836 133.891 93.9922 134.226 93.8464C134.56 93.7007 134.932 93.6037 135.321 93.5612C135.709 93.5186 136.105 93.5312 136.486 93.5985C136.868 93.6657 137.226 93.786 137.54 93.9525C137.855 94.119 138.119 94.3282 138.317 94.5678C138.516 94.8075 138.644 95.0728 138.696 95.348C138.747 95.6233 138.723 95.903 138.619 96.1708ZM168.1 95.1625C168.014 94.8916 167.852 94.6356 167.624 94.4096C167.395 94.1836 167.105 93.9922 166.771 93.8464C166.437 93.7007 166.064 93.6037 165.676 93.5612C165.288 93.5186 164.891 93.5312 164.51 93.5985C164.129 93.6657 163.771 93.786 163.456 93.9525C163.142 94.119 162.878 94.3282 162.679 94.5678C162.481 94.8075 162.352 95.0728 162.301 95.348C162.25 95.6233 162.277 95.903 162.381 96.1708L177.121 137.837C177.28 138.288 177.648 138.689 178.166 138.975C178.685 139.261 179.323 139.416 179.981 139.417C180.222 139.416 180.463 139.395 180.697 139.354C181.456 139.22 182.108 138.879 182.51 138.406C182.913 137.932 183.033 137.365 182.844 136.829L168.1 95.1625ZM150.5 93.5833C149.718 93.5833 148.968 93.8028 148.415 94.1935C147.862 94.5842 147.552 95.1141 147.552 95.6666V104C147.552 104.552 147.862 105.082 148.415 105.473C148.968 105.864 149.718 106.083 150.5 106.083C151.282 106.083 152.032 105.864 152.584 105.473C153.137 105.082 153.448 104.552 153.448 104V95.6666C153.448 95.1141 153.137 94.5842 152.584 94.1935C152.032 93.8028 151.282 93.5833 150.5 93.5833ZM150.5 110.067C149.718 110.067 148.968 110.286 148.415 110.677C147.862 111.068 147.552 111.597 147.552 112.15V120.85C147.552 121.402 147.862 121.932 148.415 122.323C148.968 122.714 149.718 122.933 150.5 122.933C151.282 122.933 152.032 122.714 152.584 122.323C153.137 121.932 153.448 121.402 153.448 120.85V112.15C153.448 111.597 153.137 111.068 152.584 110.677C152.032 110.286 151.282 110.067 150.5 110.067ZM150.5 126.917C149.718 126.917 148.968 127.136 148.415 127.527C147.862 127.918 147.552 128.447 147.552 129V137.333C147.552 137.886 147.862 138.416 148.415 138.806C148.968 139.197 149.718 139.417 150.5 139.417C151.282 139.417 152.032 139.197 152.584 138.806C153.137 138.416 153.448 137.886 153.448 137.333V129C153.448 128.447 153.137 127.918 152.584 127.527C152.032 127.136 151.282 126.917 150.5 126.917Z" fill="black" fill-opacity="0.35"/>
<defs>
<clipPath id="clip0_2784_6880">
<rect width="99.0566" height="70" fill="white" transform="translate(100.972 21.5)"/>
</clipPath>
</defs>
</svg>
