<svg width="27" height="26" viewBox="0 0 27 26" fill="none" xmlns="http://www.w3.org/2000/svg">
<path d="M3.83742 0.0204459C3.52587 0.0773064 3.246 0.289241 3.08759 0.59422C2.97141 0.832001 2.95029 0.935383 2.95029 1.34375V1.81931L1.91002 1.83998C0.948961 1.85549 0.848631 1.86583 0.642689 1.96921C0.3681 2.11395 0.125195 2.39825 0.0512673 2.67738C0.00374233 2.83246 -0.00681878 5.25679 0.00374232 11.7286L0.019584 20.5678L0.151598 20.8004C0.320576 21.0899 0.626848 21.3018 0.991206 21.369C1.17074 21.4 3.71597 21.4207 8.01962 21.4207H14.7682L14.9847 21.8652C15.856 23.6434 17.6091 24.9409 19.6104 25.2769C20.3286 25.4009 21.559 25.3544 22.2402 25.1787C23.2963 24.9047 24.1887 24.424 24.986 23.6951C26.0105 22.7595 26.6864 21.5499 26.9293 20.2318C27.0349 19.6684 27.0191 18.495 26.9029 17.9574C26.6758 16.9235 26.1108 15.7967 25.4771 15.1195L25.2606 14.8921L25.2342 8.73045L25.2078 2.574L25.0652 2.3569C24.986 2.24318 24.8065 2.07776 24.6692 2.00023C24.4157 1.85549 24.4052 1.85549 23.3807 1.83998L22.3405 1.81931L22.3194 1.32307C22.2982 0.806155 22.2243 0.589051 21.992 0.340933C21.6804 -0.000230885 21.052 -0.0984449 20.6296 0.128997C20.2071 0.361609 20.0065 0.811324 20.0065 1.52467V1.82965H18.322H16.6375L16.6164 1.32307C16.5952 0.785478 16.4949 0.516684 16.2467 0.29958C15.8824 -0.026076 15.3226 -0.0881069 14.9107 0.149674C14.4883 0.387454 14.3035 0.811324 14.3035 1.52467V1.82965H12.619H10.9345L10.9134 1.32307C10.8922 0.800985 10.8183 0.589051 10.586 0.340933C10.2639 -0.0105692 9.63547 -0.0984452 9.20775 0.149674C8.7853 0.387454 8.60048 0.811324 8.60048 1.52467V1.82965H6.91599H5.23149L5.21037 1.32307C5.19453 0.945721 5.16284 0.769971 5.07835 0.614896C4.83017 0.154843 4.3602 -0.0725987 3.83742 0.0204459ZM4.34436 0.909539C4.413 1.00775 4.42885 1.20418 4.42885 2.04675C4.42885 3.00304 4.42357 3.07541 4.32323 3.17362C4.26515 3.23048 4.15954 3.27701 4.08561 3.27701C4.01168 3.27701 3.90607 3.23048 3.84798 3.17362C3.74765 3.07541 3.74237 3.00304 3.74237 2.04675C3.74237 0.883692 3.76878 0.795817 4.08561 0.795817C4.21234 0.795817 4.29155 0.832002 4.34436 0.909539ZM10.0474 0.909539C10.116 1.00775 10.1318 1.20418 10.1318 2.04675C10.1318 3.00304 10.1266 3.07541 10.0262 3.17362C9.8995 3.29768 9.72524 3.30802 9.56154 3.1943C9.44537 3.11676 9.44537 3.09092 9.44537 2.05192C9.44537 1.13181 9.45593 0.971569 9.53514 0.888863C9.65659 0.754465 9.94702 0.764803 10.0474 0.909539ZM15.7081 0.868184C15.7979 0.935383 15.8084 1.02326 15.8243 1.96921C15.8401 2.95135 15.8348 3.00304 15.7292 3.13744C15.6025 3.29251 15.4388 3.31319 15.2645 3.1943C15.1484 3.11676 15.1484 3.09092 15.1484 2.05192C15.1484 1.13181 15.1589 0.971569 15.2381 0.888863C15.3385 0.775142 15.5655 0.76997 15.7081 0.868184ZM21.3583 0.83717C21.5114 0.935384 21.5378 1.12664 21.5378 2.05192C21.5378 2.93584 21.5326 3.01338 21.4269 3.14261C21.3055 3.29251 21.1418 3.31319 20.9675 3.1943C20.8514 3.11676 20.8514 3.09092 20.8514 2.05192C20.8514 1.13181 20.8619 0.971569 20.9411 0.888863C21.0256 0.795818 21.2527 0.764802 21.3583 0.83717ZM2.93445 2.9255C2.92389 2.9927 2.91333 2.95135 2.91333 2.83763C2.90805 2.72391 2.91861 2.67222 2.93445 2.71874C2.94501 2.77043 2.94501 2.86348 2.93445 2.9255ZM5.25789 2.89966C5.24205 2.95135 5.23149 2.91 5.23149 2.81178C5.23149 2.71357 5.24205 2.67222 5.25789 2.71874C5.26845 2.77043 5.26845 2.85314 5.25789 2.89966ZM8.63745 2.9772C8.62689 3.04439 8.61632 2.9927 8.61632 2.86347C8.61632 2.73425 8.62689 2.68255 8.63745 2.74458C8.64801 2.81178 8.64801 2.91517 8.63745 2.9772ZM14.3404 3.00304C14.3299 3.08575 14.3193 3.02889 14.3193 2.88932C14.3193 2.74458 14.3299 2.68255 14.3404 2.74458C14.351 2.81178 14.351 2.9255 14.3404 3.00304ZM20.0434 3.00304C20.0329 3.08575 20.0223 3.02889 20.0223 2.88932C20.0223 2.74458 20.0329 2.68255 20.0434 2.74458C20.054 2.81178 20.054 2.9255 20.0434 3.00304ZM24.4369 2.88415C24.4263 2.89449 24.3682 2.8428 24.3154 2.77043L24.2151 2.63086L24.3418 2.74458C24.4052 2.80661 24.4527 2.86864 24.4369 2.88415ZM0.822228 4.86393C0.816947 5.23094 0.806386 4.93113 0.806386 4.20745C0.806386 3.48377 0.816947 3.18396 0.822228 3.5458C0.832789 3.91281 0.832789 4.50209 0.822228 4.86393ZM3.29881 3.75257C3.85327 4.25914 4.7932 4.09373 5.11004 3.43208L5.19453 3.25116H6.93711H8.67969L8.76418 3.43208C8.81171 3.53029 8.91732 3.67503 9.0018 3.75257C9.55626 4.25914 10.4962 4.09373 10.813 3.43208L10.8975 3.25116H12.6401H14.3827L14.4672 3.43208C14.8685 4.27465 16.157 4.24364 16.5424 3.38039L16.6005 3.25116H18.3431H20.0857L20.1702 3.43208C20.5081 4.14542 21.5431 4.26948 22.0606 3.65952C22.1504 3.5458 22.2402 3.4114 22.256 3.35454C22.2824 3.25633 22.3141 3.25116 22.9425 3.27701C23.518 3.29768 23.6184 3.31836 23.6817 3.40107C23.7398 3.48377 23.7557 3.72155 23.7557 4.50209V5.49974H12.6401H1.52454V4.47625C1.52454 3.55097 1.5351 3.43725 1.61959 3.36488C1.69352 3.29768 1.85194 3.27701 2.34303 3.26667L2.97669 3.25116L3.06118 3.43208C3.10871 3.53029 3.21432 3.67503 3.29881 3.75257ZM24.4421 10.2295V14.1787L24.0514 13.9358L23.6606 13.6928L23.6395 12.7831C23.6237 11.9715 23.6131 11.8578 23.5233 11.7596C23.423 11.651 23.3913 11.651 21.2632 11.651C19.1774 11.651 19.1035 11.6562 19.0032 11.7544C18.9081 11.8474 18.8976 11.925 18.8976 12.5298C18.8976 13.1294 18.887 13.2069 18.8078 13.2379C18.755 13.2535 18.5279 13.3413 18.3061 13.4344L17.8995 13.5998L17.8837 12.7365C17.8679 11.9715 17.8573 11.8578 17.7675 11.7596C17.6672 11.651 17.6355 11.651 15.5074 11.651C13.4216 11.651 13.3477 11.6562 13.2474 11.7544C13.147 11.8526 13.1418 11.925 13.1418 13.4344C13.1418 14.9438 13.147 15.0161 13.2474 15.1143C13.3477 15.2126 13.4216 15.2177 14.5411 15.2177C15.1959 15.2177 15.7292 15.2332 15.7292 15.2539C15.7292 15.2694 15.6289 15.4348 15.5074 15.6106L15.2804 15.9362L14.3404 15.9414C13.4163 15.9414 13.4005 15.9414 13.2738 16.0706L13.1418 16.1947V17.7713V19.3479L13.2791 19.4513C13.4005 19.5443 13.4956 19.5598 13.8863 19.5598C14.1451 19.5598 14.3563 19.5753 14.3563 19.596C14.3563 19.6218 14.3932 19.8441 14.4355 20.0974C14.4777 20.3507 14.4989 20.5781 14.483 20.604C14.4408 20.666 1.32916 20.6557 1.09682 20.5936C0.975364 20.5626 0.885595 20.4954 0.848631 20.4075C0.801106 20.3145 0.785264 18.4846 0.785264 13.3103C0.785264 9.47998 0.801106 6.3268 0.822228 6.31129C0.83807 6.29062 6.16087 6.27511 12.6507 6.27511H24.4421V10.2295ZM17.1022 13.2431V14.0598L16.8381 14.2511L16.5794 14.4424H15.254H13.9338V13.4344V12.4264H15.518H17.1022V13.2431ZM22.858 12.8658C22.858 13.3413 22.8474 13.3568 22.5675 13.2535C22.4936 13.2276 22.1926 13.1552 21.8969 13.0984C21.3477 12.9847 20.2916 12.9485 19.885 13.0208L19.6896 13.057V12.7417V12.4264H21.2738H22.858V12.8658ZM21.2157 13.7704C23.3174 13.9823 25.1233 15.3366 25.852 17.244C26.1372 17.9832 26.2006 18.3502 26.2006 19.198C26.2006 19.8338 26.1794 20.025 26.0633 20.4541C25.9154 20.9917 25.5616 21.7774 25.287 22.1702L25.1181 22.4132L24.9332 22.0462C24.7062 21.6016 24.252 21.1622 23.8771 21.033C22.9741 20.7074 22.1398 20.3197 22.1821 20.2421C22.1926 20.2215 22.293 20.0199 22.4091 19.7924C22.5253 19.565 22.6732 19.322 22.7365 19.2497C23.1484 18.8103 23.2699 17.9884 22.9741 17.6007C22.9055 17.5077 22.8633 17.3422 22.8421 17.0683C22.7893 16.3446 22.4197 15.807 21.7702 15.4969C21.4692 15.3521 21.4322 15.347 20.6929 15.347C19.9748 15.347 19.9114 15.3573 19.6263 15.4865C18.9556 15.7915 18.5807 16.3343 18.5385 17.0528C18.5226 17.3578 18.491 17.4921 18.4223 17.5697C18.1055 17.9057 18.1583 18.557 18.5385 19.1153C18.6335 19.2548 18.8236 19.5753 18.9556 19.8286L19.1986 20.2887L18.7761 20.5006C18.5438 20.6143 18.116 20.7952 17.8256 20.909C17.5299 21.0175 17.1972 21.1726 17.0863 21.2501C16.8276 21.4259 16.516 21.8239 16.3629 22.1651L16.252 22.4235L16.0936 22.1909C14.6203 20.0664 14.9002 17.1872 16.7484 15.3625C17.7728 14.3545 18.9451 13.8582 20.5926 13.7238C20.6401 13.7238 20.92 13.7445 21.2157 13.7704ZM21.4058 16.1947C21.8811 16.4118 22.0659 16.7581 22.0659 17.4353C22.0659 17.8902 22.0659 17.9005 22.2296 18.0246C22.388 18.1435 22.388 18.1538 22.3299 18.3709C22.293 18.5105 22.1979 18.6604 22.0923 18.7586C21.9761 18.8568 21.8705 19.0377 21.786 19.2652C21.5378 19.9372 21.1999 20.2783 20.751 20.3248C20.4448 20.3507 20.2599 20.268 19.9854 19.9682C19.79 19.7562 19.5312 19.2755 19.5312 19.1153C19.5312 19.0739 19.4467 18.9498 19.3411 18.8465C19.1457 18.6552 19.0032 18.3967 19.0032 18.2365C19.0032 18.19 19.0771 18.0866 19.1616 18.0091C19.3147 17.8695 19.32 17.854 19.32 17.3681C19.32 16.7943 19.4098 16.5514 19.7002 16.3394C19.9642 16.1482 20.1438 16.1068 20.6929 16.1016C21.0731 16.1016 21.2474 16.1223 21.4058 16.1947ZM14.8315 16.7375C14.8315 16.753 14.7576 16.9701 14.6731 17.2285C14.5464 17.5904 14.3563 18.5001 14.3563 18.7431C14.3563 18.7689 14.2612 18.7844 14.1451 18.7844H13.9338V17.7506V16.7168H14.3827C14.6309 16.7168 14.8315 16.7271 14.8315 16.7375ZM20.0329 20.9865C20.3444 21.1312 21.0626 21.1261 21.3583 20.971L21.5695 20.8624L22.2296 21.1829C22.5887 21.3638 23.0639 21.5706 23.2857 21.6481C23.5075 21.7308 23.7768 21.8601 23.8771 21.9428C24.0883 22.1134 24.3735 22.6354 24.421 22.9301C24.4633 23.1575 24.3946 23.2247 23.7187 23.6744C22.8633 24.243 22.0078 24.5118 20.9464 24.5584C19.4995 24.6204 18.2481 24.212 17.1391 23.3178C16.8487 23.0852 16.8434 23.0283 17.0916 22.4907C17.2817 22.0668 17.6091 21.7929 18.1583 21.6068C18.3959 21.5292 18.8553 21.3277 19.1774 21.1622C19.5048 20.9968 19.7794 20.8676 19.7953 20.8728C19.8111 20.8779 19.9167 20.9296 20.0329 20.9865Z" fill="#2A2C2E" fill-opacity="0.7"/>
<path d="M1.74605 7.43323C1.62988 7.55212 1.62988 7.58313 1.62988 9.13388V10.7208L1.76718 10.8242C1.90447 10.9276 1.96256 10.9327 4.00613 10.9327C5.99689 10.9327 6.11307 10.9276 6.22924 10.8345L6.35597 10.7363V9.12354V7.51077L6.22924 7.41255C6.11307 7.31951 5.99689 7.31434 3.98501 7.31434H1.85695L1.74605 7.43323ZM5.57973 9.10803L5.56389 10.1315L3.99557 10.147L2.42196 10.1574V9.12354V8.08971H4.00613H5.59029L5.57973 9.10803Z" fill="#2A2C2E" fill-opacity="0.7"/>
<path d="M7.50143 7.43323C7.38525 7.55212 7.38525 7.58313 7.38525 9.13388V10.7208L7.52255 10.8242C7.65984 10.9276 7.71793 10.9327 9.76678 10.9327C11.7945 10.9327 11.879 10.9276 11.9793 10.8294C12.0374 10.7725 12.0955 10.6743 12.1113 10.6123C12.1272 10.5451 12.1377 9.82137 12.1272 9.00465L12.1113 7.51077L11.9846 7.41255C11.8684 7.31951 11.7523 7.31434 9.74038 7.31434H7.61232L7.50143 7.43323ZM11.3351 9.10803L11.3193 10.1315L9.75094 10.147L8.17734 10.1574V9.12354V8.08971H9.7615H11.3457L11.3351 9.10803Z" fill="#2A2C2E" fill-opacity="0.7"/>
<path d="M13.2588 7.43323C13.1426 7.55212 13.1426 7.58313 13.1426 9.13388V10.7208L13.2799 10.8242C13.4172 10.9276 13.4753 10.9327 15.5188 10.9327C17.5096 10.9327 17.6258 10.9276 17.7419 10.8345L17.8687 10.7363L17.8845 9.15455L17.9003 7.5728L17.7683 7.44357L17.6363 7.31434H15.503H13.3696L13.2588 7.43323ZM17.0924 9.10803L17.0766 10.1315L15.5083 10.147L13.9347 10.1574V9.12354V8.08971H15.5188H17.103L17.0924 9.10803Z" fill="#2A2C2E" fill-opacity="0.7"/>
<path d="M19.0131 7.43323C18.897 7.55212 18.897 7.58313 18.897 9.13388V10.7208L19.0343 10.8242C19.1716 10.9276 19.2296 10.9327 21.2732 10.9327C23.264 10.9327 23.3802 10.9276 23.4963 10.8345L23.6231 10.7363L23.6389 9.15455L23.6547 7.5728L23.5227 7.44357L23.3907 7.31434H21.2574H19.124L19.0131 7.43323ZM22.8468 9.10803L22.831 10.1315L21.2627 10.147L19.6891 10.1574V9.12354V8.08971H21.2732H22.8574L22.8468 9.10803Z" fill="#2A2C2E" fill-opacity="0.7"/>
<path d="M1.85695 11.6542C1.79358 11.6801 1.71965 11.7473 1.68797 11.8041C1.65101 11.8713 1.62988 12.4606 1.62988 13.4583C1.62988 14.947 1.63516 15.0194 1.73549 15.1176C1.83582 15.2158 1.90975 15.2209 4.00086 15.2209H6.16589L6.2715 15.0865C6.37711 14.9522 6.38239 14.8901 6.38239 13.4324V11.9179L6.25565 11.7731L6.12892 11.6284L4.04838 11.6181C2.90778 11.6129 1.92031 11.6284 1.85695 11.6542ZM5.5903 13.4376V14.4456H4.00614H2.42197V13.4376V12.4296H4.00614H5.5903V13.4376Z" fill="#2A2C2E" fill-opacity="0.7"/>
<path d="M7.61232 11.6542C7.54895 11.6801 7.47502 11.7473 7.44334 11.8041C7.40638 11.8713 7.38525 12.4606 7.38525 13.4583C7.38525 14.947 7.39053 15.0194 7.49087 15.1176C7.5912 15.2158 7.66512 15.2209 9.75623 15.2209H11.9213L12.0269 15.0865C12.1325 14.9522 12.1378 14.8901 12.1378 13.4324V11.9179L12.011 11.7731L11.8843 11.6284L9.80375 11.6181C8.66315 11.6129 7.67568 11.6284 7.61232 11.6542ZM11.3457 13.4376V14.4456H9.76151H8.17734V13.4376V12.4296H9.76151H11.3457V13.4376Z" fill="#2A2C2E" fill-opacity="0.7"/>
<path d="M1.74605 16.0608C1.62988 16.1797 1.62988 16.2107 1.62988 17.7614V19.3484L1.76718 19.4518C1.90447 19.5551 1.96256 19.5603 4.00613 19.5603C5.99689 19.5603 6.11307 19.5551 6.22924 19.4621L6.35597 19.3639V17.7511V16.1383L6.22924 16.0401C6.11307 15.9471 5.99689 15.9419 3.98501 15.9419H1.85695L1.74605 16.0608ZM5.57973 17.7356L5.56389 18.7591L3.99557 18.7746L2.42196 18.7849V17.7511V16.7173H4.00613H5.59029L5.57973 17.7356Z" fill="#2A2C2E" fill-opacity="0.7"/>
<path d="M7.50143 16.0608C7.38525 16.1797 7.38525 16.2107 7.38525 17.7614V19.3484L7.52255 19.4518C7.65984 19.5551 7.71793 19.5603 9.7615 19.5603C11.7523 19.5603 11.8684 19.5551 11.9846 19.4621L12.1113 19.3639V17.7511V16.1383L11.9846 16.0401C11.8684 15.9471 11.7523 15.9419 9.74038 15.9419H7.61232L7.50143 16.0608ZM11.3193 17.7511V18.7591L9.75094 18.7746L8.17734 18.7849V17.7511V16.7173L9.75094 16.7276L11.3193 16.7431V17.7511Z" fill="#2A2C2E" fill-opacity="0.7"/>
<path d="M0.900802 22.784C0.668457 22.8563 0.277696 23.2027 0.145682 23.4508C-0.181712 24.0762 0.0875964 24.8826 0.726543 25.2083L1.00641 25.353H6.28697H11.5622L12.9193 24.8826C14.5194 24.3244 14.6408 24.2417 14.4401 23.8591C14.3715 23.7351 14.1972 23.6575 12.9457 23.2182L11.5306 22.7168L6.30281 22.7219C2.8018 22.7271 1.01697 22.7478 0.900802 22.784ZM2.31599 24.0349V24.5777H1.74569C1.10146 24.5777 0.985291 24.5311 0.853277 24.2313C0.752946 23.9884 0.837435 23.7299 1.06978 23.5903C1.20179 23.5128 1.33381 23.4921 1.77737 23.4921H2.31599V24.0349ZM11.0289 24.0349V24.5777H7.06849H3.10807V24.0349V23.4921H7.06849H11.0289V24.0349ZM12.8718 24.0349C12.8824 24.0504 12.8613 24.0711 12.819 24.0814C12.7768 24.0969 12.5444 24.1796 12.3015 24.2675C12.0533 24.3502 11.8474 24.4226 11.8368 24.4226C11.8263 24.4226 11.821 24.252 11.821 24.0401V23.6575L12.3332 23.8385C12.6184 23.9367 12.8613 24.0246 12.8718 24.0349Z" fill="#2A2C2E" fill-opacity="0.7"/>
</svg>
