<svg width="32" height="32" viewBox="0 0 32 32" fill="none" xmlns="http://www.w3.org/2000/svg">
<circle cx="16" cy="16" r="16" fill="#800080"/>
<path d="M12.1291 20.8346H6C6 17.8858 8.19358 17.7285 8.87101 17.3353C9.29037 17.0994 9.87102 16.6669 9.87102 16.2737C9.87102 16.0771 9.8065 15.9199 9.74198 15.8806C8.93552 15.3694 8.77423 13.6001 8.70971 13.6001C8.45164 13.6001 8.25809 12.8138 8.25809 12.2634C8.25809 11.8309 8.35487 11.8309 8.54842 11.7129V11.6343C8.54842 10.2188 9.35488 9 10.5162 9C11.7098 9 12.484 10.2582 12.484 11.6736V11.7522C12.6775 11.8702 12.742 11.9488 12.742 12.3813C12.742 12.9317 12.5807 13.6788 12.3227 13.6788C12.2581 13.6788 12.0969 15.3301 11.3227 15.8806C11.2581 15.9199 11.1936 15.9985 11.1936 16.1951C11.1936 16.6276 11.8065 17.0601 12.2259 17.296C12.6452 17.5319 14.0969 17.7678 14.7421 19.2225" stroke="white" stroke-opacity="0.86" stroke-width="1.5"/>
<path d="M17.1934 19.3405C17.8063 17.8071 19.2902 17.6105 19.8063 17.3353C20.2257 17.0994 20.8063 16.6669 20.8063 16.2737C20.8063 16.0772 20.7418 15.9199 20.6773 15.8806C19.8708 15.3694 19.7418 13.6001 19.6773 13.6001C19.4192 13.6001 19.2256 12.8138 19.2256 12.2634C19.2256 11.8309 19.3224 11.8309 19.516 11.7129V11.6343C19.516 10.2188 20.2579 9 21.4515 9C22.645 9 23.4838 10.2582 23.4838 11.6736V11.7522C23.6773 11.8702 23.7418 11.9488 23.7418 12.3813C23.7418 12.9318 23.5805 13.6788 23.3225 13.6788C23.258 13.6788 23.0644 15.3301 22.2902 15.8806C22.2257 15.9199 22.1612 15.9985 22.1612 16.1951C22.1612 16.6276 22.7741 17.0601 23.1934 17.296C23.7096 17.6105 25.9999 17.8858 25.9999 20.7953H19.645" stroke="white" stroke-opacity="0.86" stroke-width="1.5"/>
<path fill-rule="evenodd" clip-rule="evenodd" d="M14.3222 19.6944C14.7415 19.4585 15.3222 19.026 15.3222 18.6328C15.3222 18.4362 15.2577 18.2789 15.1932 18.2396C14.3867 17.7285 14.2577 15.9592 14.1931 15.9592C13.9351 15.9592 13.7415 15.1729 13.7415 14.6224C13.7415 14.1899 13.8383 14.1899 14.0319 14.072V14.0326C14.0319 12.6172 14.7738 11.3984 15.9674 11.3984C17.1609 11.3984 17.9996 12.6565 17.9996 14.072V14.1506C18.1932 14.2686 18.2577 14.3472 18.2577 14.7797C18.2577 15.3301 18.0964 16.0772 17.8384 16.0772C17.7738 16.0772 17.5803 17.7285 16.8061 18.2789C16.7416 18.3183 16.677 18.3969 16.677 18.5935C16.677 19.026 17.29 19.4585 17.7093 19.6944C18.2255 20.0089 20.5158 20.2841 20.5158 23.1936H11.4512C11.4512 20.2448 13.677 20.0875 14.3222 19.6944Z" stroke="white" stroke-opacity="0.86" stroke-width="1.5"/>
</svg>
