<svg width="30" height="30" viewBox="0 0 30 30" fill="none" xmlns="http://www.w3.org/2000/svg">
<circle cx="15" cy="15" r="15" fill="#903594"/>
<g clip-path="url(#clip0_2784_7135)">
<path d="M15 22.5C19.1421 22.5 22.5 19.1421 22.5 15C22.5 10.8579 19.1421 7.5 15 7.5C10.8579 7.5 7.5 10.8579 7.5 15C7.5 19.1421 10.8579 22.5 15 22.5Z" stroke="white" stroke-width="1.5"/>
<path d="M14.9941 18.75H15.0009" stroke="white" stroke-width="2" stroke-linecap="round" stroke-linejoin="round"/>
<path d="M13.5 12.75C13.5 11.9216 14.1716 11.25 15 11.25C15.8284 11.25 16.5 11.9216 16.5 12.75C16.5 13.0486 16.4128 13.3268 16.2623 13.5606C15.814 14.2573 15 14.9216 15 15.75V16.125" stroke="white" stroke-width="1.5" stroke-linecap="round"/>
</g>
<defs>
<clipPath id="clip0_2784_7135">
<rect width="18" height="18" fill="white" transform="translate(6 6)"/>
</clipPath>
</defs>
</svg>
