<svg width="40" height="40" viewBox="0 0 40 40" fill="none" xmlns="http://www.w3.org/2000/svg">
<circle cx="20" cy="20" r="19.25" stroke="#E8E8E8" stroke-width="1.5"/>
<g clip-path="url(#clip0_2784_7186)">
<path d="M24.1304 11H10.6522C10.292 11 10 11.292 10 11.6522V30.3479C10 30.708 10.292 31 10.6522 31H24.1304C24.4906 31 24.7826 30.708 24.7826 30.3478V11.6522C24.7826 11.292 24.4906 11 24.1304 11ZM23.4782 29.6957H11.3043V12.3043H23.4782V29.6957Z" fill="white"/>
<path d="M18.9129 13.6087H15.8695C15.5093 13.6087 15.2173 13.9007 15.2173 14.2609C15.2173 14.6211 15.5093 14.9131 15.8695 14.9131H18.9129C19.2731 14.9131 19.5651 14.6211 19.5651 14.2609C19.5651 13.9007 19.2731 13.6087 18.9129 13.6087Z" fill="white"/>
<path d="M21.522 16.2174H13.2611C12.9009 16.2174 12.6089 16.5094 12.6089 16.8696C12.6089 17.2298 12.9009 17.5218 13.2611 17.5218H21.5219C21.8821 17.5218 22.1741 17.2298 22.1741 16.8696C22.1741 16.5094 21.8821 16.2174 21.522 16.2174Z" fill="white"/>
<path d="M21.5218 18.8261H18.4784C18.1182 18.8261 17.8262 19.1181 17.8262 19.4783C17.8262 19.8385 18.1182 20.1305 18.4784 20.1305H21.5218C21.882 20.1305 22.174 19.8385 22.174 19.4783C22.174 19.1181 21.882 18.8261 21.5218 18.8261Z" fill="white"/>
<path d="M15.8698 18.8261H13.2611C12.9009 18.8261 12.6089 19.1181 12.6089 19.4783C12.6089 19.8385 12.9009 20.1305 13.2611 20.1305H15.8698C16.2299 20.1305 16.522 19.8385 16.522 19.4783C16.522 19.1181 16.2299 18.8261 15.8698 18.8261Z" fill="white"/>
<path d="M21.522 21.4348H13.2611C12.9009 21.4348 12.6089 21.7267 12.6089 22.0869C12.6089 22.4471 12.9009 22.7391 13.2611 22.7391H21.5219C21.8821 22.7391 22.1741 22.4471 22.1741 22.0869C22.1741 21.7268 21.8821 21.4348 21.522 21.4348Z" fill="white"/>
<path d="M17.1741 24.0435H13.2611C12.9009 24.0435 12.6089 24.3354 12.6089 24.6956C12.6089 25.0558 12.9009 25.3478 13.2611 25.3478H17.1741C17.5343 25.3478 17.8263 25.0558 17.8263 24.6956C17.8263 24.3354 17.5343 24.0435 17.1741 24.0435Z" fill="white"/>
<path d="M21.522 26.6522H13.2611C12.9009 26.6522 12.6089 26.9442 12.6089 27.3043C12.6089 27.6645 12.9009 27.9565 13.2611 27.9565H21.5219C21.8821 27.9565 22.1741 27.6645 22.1741 27.3043C22.1741 26.9442 21.8821 26.6522 21.522 26.6522Z" fill="white"/>
<path d="M21.5217 24.0435H19.7826C19.4224 24.0435 19.1304 24.3354 19.1304 24.6956C19.1304 25.0558 19.4224 25.3478 19.7826 25.3478H21.5217C21.8819 25.3478 22.1739 25.0558 22.1739 24.6956C22.1739 24.3354 21.8819 24.0435 21.5217 24.0435Z" fill="white"/>
<path d="M29.9472 14.4387L28.6429 11.3953C28.5401 11.1555 28.3043 11 28.0434 11C27.7826 11 27.5468 11.1555 27.444 11.3953L26.1396 14.4387C26.1049 14.5199 26.0869 14.6073 26.0869 14.6957V29.0435C26.0869 30.1249 26.962 31 28.0434 31C29.1248 31 30 30.1249 30 29.0435V14.6957C30 14.6073 29.982 14.5199 29.9472 14.4387ZM28.6956 29.0435C28.6956 29.4039 28.404 29.6957 28.0434 29.6957C27.683 29.6957 27.3913 29.404 27.3913 29.0435V28.3913H28.6956V29.0435H28.6956ZM28.6956 27.087H27.3913V16.2174H28.6956V27.087ZM28.6956 14.913H27.3913V14.8295L28.0435 13.3078L28.6957 14.8295L28.6956 14.913Z" fill="white"/>
</g>
<defs>
<clipPath id="clip0_2784_7186">
<rect width="20" height="20" fill="white" transform="translate(10 11)"/>
</clipPath>
</defs>
</svg>
