<svg width="23" height="22" viewBox="0 0 23 22" fill="none" xmlns="http://www.w3.org/2000/svg">
<g clip-path="url(#clip0_2904_2076)">
<path d="M13.875 4.125C12.9275 4.12469 11.9903 4.3212 11.1228 4.70209C12.3492 5.23597 13.3931 6.11633 14.1263 7.23511C14.8595 8.35388 15.25 9.66239 15.25 11C15.25 12.3376 14.8595 13.6461 14.1263 14.7649C13.3931 15.8837 12.3492 16.764 11.1228 17.2979C12.0593 17.7073 13.0754 17.9026 14.097 17.8698C15.1185 17.8369 16.1199 17.5767 17.0282 17.108C17.9366 16.6393 18.7289 15.974 19.3476 15.1604C19.9664 14.3468 20.3959 13.4055 20.6049 12.405C20.8139 11.4045 20.7972 10.37 20.556 9.37678C20.3148 8.38355 19.8551 7.45661 19.2104 6.66345C18.5657 5.87029 17.7523 5.23088 16.8293 4.79175C15.9064 4.35263 14.8971 4.12485 13.875 4.125Z" fill="#903594"/>
<path d="M7 11C6.99951 12.0303 7.23113 13.0474 7.67766 13.9759C8.12419 14.9043 8.77416 15.7203 9.5793 16.3631C10.7982 16.0903 11.8878 15.4105 12.6686 14.4357C13.4495 13.4608 13.8749 12.249 13.8749 11C13.8749 9.75099 13.4495 8.53922 12.6686 7.56436C11.8878 6.5895 10.7982 5.9097 9.5793 5.63696C8.77416 6.27977 8.12419 7.0957 7.67766 8.02416C7.23113 8.95262 6.99951 9.96975 7 11Z" fill="#903594"/>
<path d="M8.37508 16.5C7.60039 16.5021 6.83398 16.3406 6.12606 16.026C5.41813 15.7114 4.78465 15.2507 4.26712 14.6743C3.74959 14.0978 3.35967 13.4185 3.12291 12.6809C2.88615 11.9433 2.80789 11.164 2.89325 10.394C2.97861 9.62401 3.22567 8.88075 3.61824 8.21289C4.01082 7.54503 4.54005 6.96764 5.17128 6.51853C5.80251 6.06943 6.52149 5.75874 7.28114 5.60681C8.04079 5.45488 8.82397 5.46515 9.57937 5.63694C10.0504 5.25865 10.5694 4.94426 11.1229 4.70194C10.0765 4.24386 8.93258 4.0537 7.79432 4.14864C6.65606 4.24357 5.55939 4.6206 4.6034 5.24567C3.6474 5.87074 2.86221 6.72415 2.31876 7.72879C1.7753 8.73343 1.49072 9.85764 1.49072 10.9998C1.49072 12.1421 1.7753 13.2663 2.31876 14.2709C2.86221 15.2755 3.6474 16.129 4.6034 16.754C5.55939 17.3791 6.65606 17.7561 7.79432 17.8511C8.93258 17.946 10.0765 17.7558 11.1229 17.2978C10.5694 17.0554 10.0504 16.7411 9.57937 16.3628C9.18425 16.4529 8.78035 16.4989 8.37508 16.5Z" fill="#903594"/>
</g>
<defs>
<clipPath id="clip0_2904_2076">
<rect width="22" height="22" fill="white" transform="translate(0.125)"/>
</clipPath>
</defs>
</svg>
