<svg width="32" height="32" viewBox="0 0 32 32" fill="none" xmlns="http://www.w3.org/2000/svg">
<circle cx="16" cy="16" r="16" fill="#800080"/>
<path d="M16 26C21.5228 26 26 21.5228 26 16C26 10.4772 21.5228 6 16 6C10.4772 6 6 10.4772 6 16C6 21.5228 10.4772 26 16 26ZM16 26C18.7273 26 19.6364 21.4545 19.6364 16C19.6364 10.5455 18.7273 6 16 6C13.2727 6 12.3636 10.5455 12.3636 16C12.3636 21.4545 13.2727 26 16 26ZM6.90909 19.6364H25.0909ZM6.90909 12.3636H25.0909Z" fill="#800080"/>
<path d="M16 26C21.5228 26 26 21.5228 26 16C26 10.4772 21.5228 6 16 6M16 26C10.4772 26 6 21.5228 6 16C6 10.4772 10.4772 6 16 6M16 26C18.7273 26 19.6364 21.4545 19.6364 16C19.6364 10.5455 18.7273 6 16 6M16 26C13.2727 26 12.3636 21.4545 12.3636 16C12.3636 10.5455 13.2727 6 16 6M6.90909 19.6364H25.0909M6.90909 12.3636H25.0909" stroke="white" stroke-width="1.67"/>
</svg>
