<svg width="17" height="17" viewBox="0 0 17 17" fill="none" xmlns="http://www.w3.org/2000/svg">
<path fill-rule="evenodd" clip-rule="evenodd" d="M11.7439 3.00512C12.2367 1.52671 11.1363 0 9.5779 0C8.84061 0 8.14856 0.356088 7.72003 0.956086L3.97354 6.20114H0.885878L0 7.08702V15.9458L0.885878 16.8317H13.8358L16.5567 11.3898C17.3648 9.77383 17.048 7.82218 15.7705 6.54463C14.9833 5.75748 13.9157 5.31527 12.8025 5.31527H10.9738L11.7439 3.00512ZM5.3153 7.37097L9.16177 1.9859C9.2578 1.85152 9.41277 1.77176 9.5779 1.77176C9.92693 1.77176 10.1734 2.11372 10.063 2.44483L8.51567 7.08702H12.8025C13.4459 7.08702 14.0628 7.34263 14.5177 7.79749C15.256 8.53573 15.439 9.66362 14.9721 10.5975L12.7408 15.0599H5.3153V7.37097ZM3.54355 15.0599H1.77176V7.9729H3.54355V15.0599Z" fill="#800080"/>
</svg>
