<svg width="41" height="45" viewBox="0 0 41 45" fill="none" xmlns="http://www.w3.org/2000/svg">
<path d="M28.3644 6.1372C22.5569 3.3047 14.2173 3.20654 10.2364 11.3686C7.53517 16.907 11.2432 33.871 12.583 38.4938C16.7281 36.5462 32.5592 29.473 35.4026 23.643C39.3835 15.4809 34.1718 8.96969 28.3644 6.1372Z" fill="#C9C5C5"/>
<path d="M30.7744 18.8608L27.7225 17.3723L27.7983 15.6797L29.2527 14.2349L30.245 12.2005C30.6369 11.397 30.6101 10.5701 30.1855 10.363L19.3253 5.06612C18.9007 4.85903 18.2326 5.34697 17.8407 6.15052L12.0197 18.0852C11.6278 18.8887 11.6546 19.7156 12.0792 19.9227L28.287 27.8278L30.8918 22.4873C31.6684 20.8948 31.6159 19.2713 30.7744 18.8608Z" fill="#FFB819"/>
<path d="M30.1763 12.337L17.772 6.28699L17.2376 7.38266L29.6419 13.4327L30.1763 12.337Z" fill="#333E48"/>
<path d="M26.5535 19.7655L15.1003 14.1794C14.9404 14.1014 14.9305 13.7929 15.078 13.4903C15.2256 13.1878 15.4748 13.0057 15.6347 13.0837L27.0879 18.6698C27.2478 18.7478 27.2577 19.0563 27.1102 19.3588C26.9626 19.6614 26.7134 19.8434 26.5535 19.7655Z" fill="#333E48"/>
<path d="M25.7576 21.3972L14.3044 15.8111C14.1445 15.7331 14.1346 15.4246 14.2821 15.1221C14.4297 14.8195 14.6789 14.6374 14.8388 14.7154L26.292 20.3015C26.4519 20.3795 26.4618 20.688 26.3143 20.9905C26.1667 21.2931 25.9175 21.4752 25.7576 21.3972Z" fill="#333E48"/>
<path d="M12.135 20.2587C11.9978 20.5399 11.764 20.7107 11.6154 20.6382L10.715 20.199C10.5664 20.1265 10.557 19.8372 10.6942 19.5559L11.3453 18.2209C11.4825 17.9397 11.7163 17.7689 11.8649 17.8414L12.7653 18.2805C12.9139 18.353 12.9233 18.6424 12.7861 18.9236L12.135 20.2587Z" fill="#333E48"/>
<path d="M28.6699 28.3234C28.5327 28.6047 28.2989 28.7754 28.1503 28.7029L27.3669 28.3208C27.2183 28.2484 27.2089 27.959 27.3461 27.6778L27.9972 26.3427C28.1344 26.0615 28.3682 25.8907 28.5168 25.9632L29.3002 26.3453C29.4488 26.4178 29.4582 26.7072 29.321 26.9884L28.6699 28.3234Z" fill="#333E48"/>
<path opacity="0.2" d="M26.0437 26.7336C27.0373 24.6964 26.9701 22.6195 25.8935 22.0944C24.817 21.5693 23.1389 22.795 22.1453 24.8322L26.0437 26.7336Z" fill="black"/>
<path d="M22.5723 28.902C23.4828 29.3461 24.9021 28.3094 25.7424 26.5865C26.5827 24.8636 26.5258 23.107 25.6153 22.6629C24.7049 22.2189 23.2856 23.2556 22.4453 24.9784C21.605 26.7013 21.6619 28.4579 22.5723 28.902Z" fill="#333E48"/>
<path d="M23.3946 27.2167C23.8131 27.4209 24.4656 26.9443 24.8519 26.1522C25.2382 25.3602 25.2121 24.5527 24.7935 24.3485C24.3749 24.1444 23.7225 24.621 23.3362 25.413C22.9499 26.205 22.976 27.0126 23.3946 27.2167Z" fill="#D1D3D3"/>
<path opacity="0.2" d="M16.8826 22.2656C17.8762 20.2284 17.809 18.1514 16.7324 17.6263C15.6558 17.1013 13.9778 18.327 12.9842 20.3642L16.8826 22.2656Z" fill="black"/>
<path d="M13.4127 24.4343C14.3231 24.8784 15.7424 23.8417 16.5827 22.1189C17.4229 20.396 17.3661 18.6394 16.4556 18.1954C15.5452 17.7513 14.1259 18.788 13.2857 20.5108C12.4454 22.2337 12.5022 23.9903 13.4127 24.4343Z" fill="#333E48"/>
<path d="M14.2339 22.7487C14.6525 22.9528 15.305 22.4763 15.6913 21.6842C16.0776 20.8922 16.0514 20.0846 15.6329 19.8805C15.2143 19.6764 14.5618 20.1529 14.1755 20.945C13.7892 21.737 13.8154 22.5446 14.2339 22.7487Z" fill="#D1D3D3"/>
<path d="M18.963 12.6479C18.865 12.8488 18.698 12.9708 18.5918 12.919L16.4601 11.8793C16.3539 11.8275 16.3472 11.6208 16.4452 11.4199L17.6192 9.01279C17.7172 8.81188 17.8842 8.68995 17.9904 8.74171L20.1221 9.78144C20.2283 9.83323 20.2349 10.0399 20.137 10.2408L18.963 12.6479Z" fill="#00B3E3"/>
<path d="M22.2721 14.2618C22.1741 14.4627 22.0071 14.5847 21.901 14.5329L19.7692 13.4931C19.663 13.4414 19.6563 13.2347 19.7543 13.0338L20.9283 10.6267C21.0263 10.4258 21.1933 10.3038 21.2994 10.3556L23.4312 11.3954C23.5374 11.4471 23.5441 11.6538 23.4461 11.8547L22.2721 14.2618Z" fill="#00B3E3"/>
<path opacity="0.2" d="M23.4317 11.3957L21.2999 10.356C21.1938 10.3042 21.0268 10.4262 20.9288 10.627L20.626 11.248C20.724 11.0471 20.891 10.9251 20.9971 10.9769L23.1289 12.0166C23.2351 12.0684 23.2417 12.2751 23.1438 12.476L23.4466 11.8551C23.5446 11.6542 23.5379 11.4475 23.4317 11.3957Z" fill="black"/>
<path d="M21.5708 24.0999C21.4728 24.3008 21.3058 24.4228 21.1996 24.371L19.0678 23.3312C18.9616 23.2794 18.9549 23.0727 19.0529 22.8719L24.2379 12.2411C24.3359 12.0402 24.5029 11.9182 24.609 11.97L26.7409 13.0098C26.847 13.0615 26.8537 13.2683 26.7558 13.4691L21.5708 24.0999Z" fill="#D68231"/>
<path opacity="0.2" d="M26.7409 13.0098L24.609 11.97C24.5028 11.9182 24.3358 12.0402 24.2379 12.2411L23.9351 12.862C24.033 12.6611 24.2 12.5391 24.3062 12.5909L26.438 13.6307C26.5442 13.6825 26.5509 13.8892 26.4529 14.09L26.7558 13.4691C26.8537 13.2683 26.847 13.0615 26.7409 13.0098Z" fill="black"/>
<path d="M27.7203 17.3712L26.3888 16.7218C26.2826 16.67 26.276 16.4633 26.3739 16.2625L27.548 13.8553C27.6459 13.6544 27.8129 13.5325 27.9191 13.5842L29.2506 14.2337L27.7203 17.3712Z" fill="#00B3E3"/>
<path opacity="0.2" d="M20.1226 9.78181L17.9908 8.74208C17.8847 8.6903 17.7177 8.81231 17.6197 9.01315L17.3169 9.63407C17.4149 9.43317 17.5819 9.31123 17.688 9.363L19.8198 10.4027C19.9259 10.4545 19.9326 10.6612 19.8346 10.8621L20.1375 10.2411C20.2354 10.0403 20.2287 9.83358 20.1226 9.78181Z" fill="black"/>
<path opacity="0.2" d="M27.9191 13.5842C27.8129 13.5325 27.6459 13.6545 27.548 13.8553L27.2451 14.4762C27.3431 14.2753 27.5101 14.1534 27.6162 14.2052L28.9477 14.8546L29.2506 14.2337L27.9191 13.5842Z" fill="black"/>
<path d="M21.1715 20.5929C21.0116 20.5149 21.0017 20.2065 21.1492 19.9039L22.1 17.9546C22.2476 17.652 22.4968 17.4699 22.6567 17.5479C22.8166 17.6259 22.8266 17.9344 22.679 18.237L21.7283 20.1863C21.5807 20.4889 21.3315 20.6709 21.1715 20.5929Z" fill="white"/>
<path d="M22.0651 21.0287C21.9052 20.9507 21.8952 20.6422 22.0428 20.3397L22.9935 18.3904C23.1411 18.0878 23.3903 17.9057 23.5502 17.9837C23.7102 18.0617 23.7201 18.3702 23.5726 18.6728L22.6218 20.6221C22.4742 20.9247 22.225 21.1067 22.0651 21.0287Z" fill="white"/>
<path d="M23.1628 16.5101C23.0028 16.4321 22.9929 16.1236 23.1405 15.821L24.0912 13.8717C24.2388 13.5691 24.488 13.3871 24.6479 13.4651C24.8078 13.5431 24.8178 13.8515 24.6702 14.1541L23.7195 16.1034C23.5719 16.406 23.3227 16.5881 23.1628 16.5101Z" fill="white"/>
<path d="M24.0563 16.9458C23.8964 16.8678 23.8864 16.5594 24.034 16.2568L24.9848 14.3075C25.1323 14.0049 25.3815 13.8228 25.5415 13.9008C25.7014 13.9788 25.7113 14.2873 25.5638 14.5899L24.613 16.5392C24.4655 16.8418 24.2162 17.0238 24.0563 16.9458Z" fill="white"/>
<path d="M29.93 24.455L28.5479 23.7809L27.682 25.5562L29.0641 26.2303L29.93 24.455Z" fill="#00B3E3"/>
<path d="M27.9002 25.6626L27.5823 25.5076C27.5082 25.4714 27.5035 25.3273 27.5719 25.1871L28.1892 23.9214C28.2576 23.7812 28.3741 23.6962 28.4482 23.7323L28.7661 23.8874L27.9002 25.6626Z" fill="white"/>
</svg>
