<svg width="212" height="123" viewBox="0 0 212 123" fill="none" xmlns="http://www.w3.org/2000/svg">
<g clip-path="url(#clip0_2784_6943)">
<path d="M107.094 12.9063C107.094 13.4531 106.547 14 106 14C105.453 14 104.906 13.4531 104.906 12.9063V1.09375C104.906 0.4375 105.453 0 106 0C106.547 0 107.094 0.4375 107.094 1.09375V12.9063Z" fill="#B2C1C0"/>
<path d="M75.375 30.625H136.625V65.625H75.375V30.625Z" fill="#E5DEC1"/>
<path d="M137.172 21.6562C136.625 20.5625 135.203 19.6875 133.891 19.6875H78.0001C76.797 19.6875 75.2657 20.5625 74.7188 21.6562L71.1095 28.6563C70.5626 29.75 71.1095 30.625 72.3126 30.625H139.469C140.672 30.625 141.219 29.75 140.672 28.6563L137.172 21.6562Z" fill="#D33B23"/>
<path d="M87.4062 49.2188C87.4062 49.7656 86.9688 50.3125 86.3125 50.3125H79.75C79.0937 50.3125 78.6562 49.7656 78.6562 49.2188V44.8438C78.6562 44.2969 79.0937 43.75 79.75 43.75H86.3125C86.9688 43.75 87.4062 44.2969 87.4062 44.8438V49.2188Z" fill="#D6EEF0"/>
<path d="M87.4062 38.2812C87.4062 38.8281 86.9688 39.375 86.3125 39.375H79.75C79.0937 39.375 78.6562 38.8281 78.6562 38.2812V33.9062C78.6562 33.3594 79.0937 32.8125 79.75 32.8125H86.3125C86.9688 32.8125 87.4062 33.3594 87.4062 33.9062V38.2812Z" fill="#D6EEF0"/>
<path d="M86.3125 39.9219H79.75C78.875 39.9219 78.1094 39.1563 78.1094 38.2812V33.9062C78.1094 33.0312 78.875 32.2656 79.75 32.2656H86.3125C87.1875 32.2656 87.9531 33.0312 87.9531 33.9062V38.2812C87.9531 39.1563 87.1875 39.9219 86.3125 39.9219ZM79.75 33.3594C79.4219 33.3594 79.2031 33.5781 79.2031 33.9062V38.2812C79.2031 38.6094 79.4219 38.8281 79.75 38.8281H86.3125C86.6406 38.8281 86.8594 38.6094 86.8594 38.2812V33.9062C86.8594 33.5781 86.6406 33.3594 86.3125 33.3594H79.75Z" fill="#DBB471"/>
<path d="M82.4844 32.8125H83.5781V39.375H82.4844V32.8125Z" fill="#DBB471"/>
<path d="M86.3125 51.4062H79.75C78.875 51.4062 78.1094 50.6406 78.1094 49.7656V45.3906C78.1094 44.5156 78.875 43.75 79.75 43.75H86.3125C87.1875 43.75 87.9531 44.5156 87.9531 45.3906V49.7656C87.9531 50.6406 87.1875 51.4062 86.3125 51.4062ZM79.75 44.8438C79.4219 44.8438 79.2031 45.0625 79.2031 45.3906V49.7656C79.2031 50.0938 79.4219 50.3125 79.75 50.3125H86.3125C86.6406 50.3125 86.8594 50.0938 86.8594 49.7656V45.3906C86.8594 45.0625 86.6406 44.8438 86.3125 44.8438H79.75Z" fill="#DBB471"/>
<path d="M82.4844 44.2969H83.5781V50.8594H82.4844V44.2969Z" fill="#DBB471"/>
<path d="M87.4062 60.1562C87.4062 60.7031 86.9688 61.25 86.3125 61.25H79.75C79.0937 61.25 78.6562 60.7031 78.6562 60.1562V55.7812C78.6562 55.2344 79.0937 54.6875 79.75 54.6875H86.3125C86.9688 54.6875 87.4062 55.2344 87.4062 55.7812V60.1562Z" fill="#D6EEF0"/>
<path d="M86.3125 62.3438H79.75C78.875 62.3438 78.1094 61.5781 78.1094 60.7031V56.3281C78.1094 55.4531 78.875 54.6875 79.75 54.6875H86.3125C87.1875 54.6875 87.9531 55.4531 87.9531 56.3281V60.7031C87.9531 61.5781 87.1875 62.3438 86.3125 62.3438ZM79.75 55.7812C79.4219 55.7812 79.2031 56 79.2031 56.3281V60.7031C79.2031 61.0313 79.4219 61.25 79.75 61.25H86.3125C86.6406 61.25 86.8594 61.0313 86.8594 60.7031V56.3281C86.8594 56 86.6406 55.7812 86.3125 55.7812H79.75Z" fill="#DBB471"/>
<path d="M82.4844 55.2344H83.5781V61.7969H82.4844V55.2344Z" fill="#DBB471"/>
<path d="M133.344 49.2188C133.344 49.7656 132.797 50.3125 132.25 50.3125H125.688C125.141 50.3125 124.594 49.7656 124.594 49.2188V44.8438C124.594 44.2969 125.141 43.75 125.688 43.75H132.25C132.797 43.75 133.344 44.2969 133.344 44.8438V49.2188Z" fill="#D6EEF0"/>
<path d="M133.344 38.2812C133.344 38.8281 132.797 39.375 132.25 39.375H125.688C125.141 39.375 124.594 38.8281 124.594 38.2812V33.9062C124.594 33.3594 125.141 32.8125 125.688 32.8125H132.25C132.797 32.8125 133.344 33.3594 133.344 33.9062V38.2812Z" fill="#D6EEF0"/>
<path d="M132.25 39.9219H125.688C124.812 39.9219 124.047 39.1563 124.047 38.2812V33.9062C124.047 33.0312 124.812 32.2656 125.688 32.2656H132.25C133.125 32.2656 133.891 33.0312 133.891 33.9062V38.2812C133.891 39.1563 133.125 39.9219 132.25 39.9219ZM125.688 33.3594C125.359 33.3594 125.141 33.5781 125.141 33.9062V38.2812C125.141 38.6094 125.359 38.8281 125.688 38.8281H132.25C132.578 38.8281 132.797 38.6094 132.797 38.2812V33.9062C132.797 33.5781 132.578 33.3594 132.25 33.3594H125.688Z" fill="#DBB471"/>
<path d="M128.422 32.8125H129.516V39.375H128.422V32.8125Z" fill="#DBB471"/>
<path d="M132.25 51.4062H125.688C124.812 51.4062 124.047 50.6406 124.047 49.7656V45.3906C124.047 44.5156 124.812 43.75 125.688 43.75H132.25C133.125 43.75 133.891 44.5156 133.891 45.3906V49.7656C133.891 50.6406 133.125 51.4062 132.25 51.4062ZM125.688 44.8438C125.359 44.8438 125.141 45.0625 125.141 45.3906V49.7656C125.141 50.0938 125.359 50.3125 125.688 50.3125H132.25C132.578 50.3125 132.797 50.0938 132.797 49.7656V45.3906C132.797 45.0625 132.578 44.8438 132.25 44.8438H125.688Z" fill="#DBB471"/>
<path d="M128.422 44.2969H129.516V50.8594H128.422V44.2969Z" fill="#DBB471"/>
<path d="M133.344 60.1562C133.344 60.7031 132.797 61.25 132.25 61.25H125.688C125.141 61.25 124.594 60.7031 124.594 60.1562V55.7812C124.594 55.2344 125.141 54.6875 125.688 54.6875H132.25C132.797 54.6875 133.344 55.2344 133.344 55.7812V60.1562Z" fill="#D6EEF0"/>
<path d="M132.25 62.3438H125.688C124.812 62.3438 124.047 61.5781 124.047 60.7031V56.3281C124.047 55.4531 124.812 54.6875 125.688 54.6875H132.25C133.125 54.6875 133.891 55.4531 133.891 56.3281V60.7031C133.891 61.5781 133.125 62.3438 132.25 62.3438ZM125.688 55.7812C125.359 55.7812 125.141 56 125.141 56.3281V60.7031C125.141 61.0313 125.359 61.25 125.688 61.25H132.25C132.578 61.25 132.797 61.0313 132.797 60.7031V56.3281C132.797 56 132.578 55.7812 132.25 55.7812H125.688Z" fill="#DBB471"/>
<path d="M128.422 55.2344H129.516V61.7969H128.422V55.2344Z" fill="#DBB471"/>
<path d="M106.875 12.6875C106.438 12.3594 105.672 12.3594 105.125 12.6875L83.9065 29.9687C83.469 30.2969 83.469 30.625 84.1252 30.625H127.875C128.422 30.625 128.641 30.2969 128.094 29.9687L106.875 12.6875Z" fill="#F15744"/>
<path d="M123.719 29.9687L106.875 15.9688C106.438 15.5313 105.672 15.5313 105.234 15.9688L88.2813 29.9687C87.7344 30.2969 87.8438 30.625 88.5001 30.625H90.6876V65.625H121.313V30.625H123.5C124.047 30.625 124.266 30.2969 123.719 29.9687Z" fill="#F9F3D9"/>
<path d="M97.25 49.2188H114.75V65.625H97.25V49.2188Z" fill="#E5DEC1"/>
<path d="M99.4375 49.2188H112.562V65.625H99.4375V49.2188Z" fill="#42ADE2"/>
<path d="M93.0938 41.5625C93.4219 41.6719 93.8594 41.7813 94.2969 41.7813C94.8437 41.7813 95.0625 41.5625 95.0625 41.3437C95.0625 41.125 94.8437 40.9062 94.2969 40.7969C93.5312 40.5781 92.9844 40.1406 92.9844 39.5938C92.9844 38.8281 93.6406 38.2812 94.8437 38.2812C95.3906 38.2812 95.8281 38.3906 96.0469 38.5L95.8281 39.2656C95.6094 39.1563 95.2812 39.0469 94.8437 39.0469C94.4062 39.0469 94.1875 39.2656 94.1875 39.4844C94.1875 39.7031 94.4062 39.9219 95.0625 40.0312C95.9375 40.3594 96.2656 40.6875 96.2656 41.3437C96.2656 42 95.6094 42.6562 94.2969 42.6562C93.75 42.6562 93.2031 42.5469 92.9844 42.4375L93.0938 41.5625Z" fill="#89664C"/>
<path d="M100.422 42.4375C100.203 42.5469 99.7656 42.6562 99.2187 42.6562C97.5781 42.6562 96.7031 41.7812 96.7031 40.5781C96.7031 39.1562 97.9062 38.2812 99.3281 38.2812C99.875 38.2812 100.312 38.3906 100.531 38.5L100.312 39.2656C100.094 39.1563 99.7656 39.1562 99.4375 39.1562C98.5625 39.1562 97.9063 39.5937 97.9063 40.5781C97.9063 41.4531 98.4531 42 99.4375 42C99.7656 42 100.094 41.8906 100.312 41.8906L100.422 42.4375Z" fill="#89664C"/>
<path d="M102.172 38.3906V40.0313H103.922V38.3906H105.016V42.6563H103.922V40.9063H102.172V42.6563H101.078V38.3906H102.172Z" fill="#89664C"/>
<path d="M110.375 40.4688C110.375 41.8906 109.391 42.6562 108.078 42.6562C106.656 42.6562 105.781 41.6719 105.781 40.4688C105.781 39.1562 106.656 38.2812 108.078 38.2812C109.5 38.2812 110.375 39.2656 110.375 40.4688ZM106.875 40.4688C106.875 41.3438 107.313 41.8906 108.078 41.8906C108.844 41.8906 109.172 41.2344 109.172 40.4688C109.172 39.7031 108.734 39.0469 107.969 39.0469C107.312 39.0469 106.875 39.7031 106.875 40.4688Z" fill="#89664C"/>
<path d="M115.406 40.4688C115.406 41.8906 114.422 42.6562 113.109 42.6562C111.687 42.6562 110.812 41.6719 110.812 40.4688C110.812 39.1562 111.687 38.2812 113.109 38.2812C114.641 38.2812 115.406 39.2656 115.406 40.4688ZM112.016 40.4688C112.016 41.3438 112.453 41.8906 113.219 41.8906C113.984 41.8906 114.312 41.2344 114.312 40.4688C114.312 39.7031 113.875 39.0469 113.109 39.0469C112.453 39.0469 112.016 39.7031 112.016 40.4688Z" fill="#89664C"/>
<path d="M116.172 38.3906H117.266V41.7813H119.125V42.5469H116.172V38.3906Z" fill="#89664C"/>
<path d="M106 36.0938C110.228 36.0938 113.656 32.6659 113.656 28.4375C113.656 24.2091 110.228 20.7812 106 20.7812C101.772 20.7812 98.3438 24.2091 98.3438 28.4375C98.3438 32.6659 101.772 36.0938 106 36.0938Z" fill="#DBB471"/>
<path d="M106 33.9062C109.02 33.9062 111.469 31.4578 111.469 28.4375C111.469 25.4172 109.02 22.9688 106 22.9688C102.98 22.9688 100.531 25.4172 100.531 28.4375C100.531 31.4578 102.98 33.9062 106 33.9062Z" fill="white"/>
<path d="M105.453 49.2188H106.547V65.625H105.453V49.2188Z" fill="#E5DEC1"/>
<path d="M106 24.0625C105.453 24.0625 104.906 24.6094 104.906 25.1562V29.5312C104.906 30.0781 105.453 30.625 106 30.625C106.547 30.625 107.094 30.0781 107.094 29.5312V25.1562C107.094 24.6094 106.547 24.0625 106 24.0625Z" fill="#B2C1C0"/>
<path d="M106 28.4375H103.812C103.266 28.4375 102.719 28.9844 102.719 29.5312C102.719 30.0781 103.266 30.625 103.812 30.625H106C106.547 30.625 107.094 30.0781 107.094 29.5312C107.094 28.9844 106.547 28.4375 106 28.4375Z" fill="#F15744"/>
<path d="M107.094 2.1875V10.2812C111.469 13.7812 115.844 2.73437 120.219 6.23437C115.844 2.38419e-07 111.469 8.3125 107.094 2.1875Z" fill="#B4D7EE"/>
<path d="M106.984 44.0781C106.438 43.6406 105.453 43.6406 104.906 44.0781C102.609 45.7188 95.0625 50.3125 95.0625 50.3125V52.5H116.938V50.3125C116.938 50.3125 109.391 45.7188 106.984 44.0781Z" fill="#F15744"/>
<path d="M139.906 65.625H72.0938C71.4375 65.625 71 66.1719 71 66.7188V68.9062C71 69.4531 71.4375 70 72.0938 70H139.906C140.453 70 141 69.4531 141 68.9062V66.7188C141 66.1719 140.453 65.625 139.906 65.625Z" fill="#666666"/>
<path d="M92.875 67.8125H119.125V70H92.875V67.8125Z" fill="#E8E8E8"/>
<path d="M95.0625 65.625H116.938V67.8125H95.0625V65.625Z" fill="#D0D0D0"/>
<path d="M102.828 58.5156H104.359V59.2813H102.828V58.5156Z" fill="#666666"/>
<path d="M107.641 58.5156H109.172V59.2813H107.641V58.5156Z" fill="#666666"/>
</g>
<path d="M38.8595 42.3052C27.9834 40.5378 18.6027 51.6405 21.639 62.426C21.5484 62.3354 18.8293 61.701 17.1979 61.9275C15.5212 62.1541 13.6178 63.3777 12.3943 64.6466C9.76587 67.1843 8.22509 71.7161 8.72358 75.3414C9.08612 79.2387 10.9894 84.4502 14.9774 85.8097C17.2432 86.5801 20.1888 85.991 22.5453 85.4019L26.1254 84.133C27.4396 84.2236 28.7538 84.9034 30.1133 85.2206C34.7357 86.0816 41.7598 82.2297 44.8867 78.9215C49.6903 73.7553 51.8656 67.1843 52.0015 60.0695C52.0922 51.6859 47.4698 43.5288 38.8595 42.3052Z" fill="#1CA538"/>
<path d="M38.6783 56.0363C33.6934 56.7614 30.3852 62.426 30.3852 67.2296C30.3852 68.1813 30.5212 69.133 30.6118 70.0846C30.7478 71.0363 30.8384 71.9426 30.8384 72.8037C30.8384 73.1209 30.8384 73.4381 30.7931 73.8006C30.6571 74.9336 30.204 76.0212 29.6602 77.0635C29.5695 75.568 29.071 74.1179 28.4366 73.0756C26.9411 70.5378 24.2674 68.8611 21.775 68.9064C19.6904 68.9517 17.9683 70.1299 16.8354 72.2145C15.6571 74.571 15.5665 77.8339 17.6964 79.3293C18.8294 80.0997 20.0076 80.1904 20.9139 79.5559C21.9562 78.8308 22.4547 77.2901 22.1375 75.8399C22.0922 75.6133 21.8656 75.4321 21.5937 75.4321C21.3671 75.4321 21.1405 75.6133 21.0952 75.8852C20.9593 76.7463 20.5061 77.1088 20.0982 77.0635C19.6904 77.0635 19.2372 76.6103 19.1919 75.7493C19.1919 74.8882 19.7357 73.4834 20.5967 73.1209C21.4124 72.8037 22.2735 73.0756 22.8173 73.3928C23.9049 73.9366 24.8112 75.0242 25.0831 76.0212V76.0665C25.3097 76.7463 25.4457 77.4713 25.4457 78.2417C25.4457 79.1934 25.2644 80.2357 24.9472 81.278C24.5846 82.275 24.1768 83.1813 23.7689 84.0876C22.8173 86.2629 21.9109 88.3475 21.9109 90.8852C21.9109 91.6556 22.0016 92.426 22.1828 93.287C22.1828 93.3324 22.2281 93.3777 22.2281 93.423L22.6813 94.284C22.7266 94.3747 22.772 94.42 22.8626 94.4653C23.5877 95.7795 27.0771 96.278 30.2493 96.0967C32.6964 95.9608 36.8203 95.3716 37.4547 93.7402L37.5 93.6949C37.5907 93.6043 37.5907 93.4683 37.5907 93.3777C37.5907 93.3324 37.5907 93.2417 37.5454 93.1964C37.1375 92.1994 36.775 91.0212 36.4578 89.9336C35.7327 87.6677 35.3701 85.6737 35.3701 83.6345C35.3701 81.9124 35.642 80.1904 36.1405 78.2417L36.4578 77.1994C37.0922 75.0242 37.8173 72.6224 37.8173 70.3112C37.8173 69.6768 37.772 69.0876 37.636 68.4532C37.5 67.7734 37.3188 67.0937 37.1375 66.3686C36.775 65.0997 36.4578 63.8308 36.4578 62.6073C36.4578 61.6103 36.6843 60.6586 37.3641 59.8429C38.2704 58.8006 40.4457 57.8943 41.8052 58.4381C42.4396 58.71 42.8022 59.2538 42.8928 59.9789C42.9381 60.6586 42.6662 61.2931 42.2584 61.565C41.8052 61.8822 41.2614 61.7009 40.8988 61.4743C40.6723 61.3384 40.4003 61.3837 40.2644 61.6103C40.0831 61.7916 40.0831 62.0635 40.2191 62.2447C41.3973 63.8308 42.6209 63.4683 43.0741 63.2417C44.4336 62.562 45.1587 60.4774 44.6602 58.8459C43.7538 56.4895 41.0348 55.7644 38.6783 56.0363Z" fill="#65320B"/>
<path d="M44.1165 59.0725C43.3462 56.852 40.7631 56.3082 38.7691 56.5801C34.0108 57.3051 30.9292 62.9698 30.9292 67.4562C30.9292 69.6767 31.609 71.9879 31.3824 74.2085C31.1105 76.3384 29.9323 78.287 28.9806 80.145C29.6604 78.1057 29.1619 75.432 28.1196 73.6647C25.7178 69.4048 20.0078 67.7281 17.4247 72.7583C16.473 74.707 16.1105 77.8792 18.1045 79.3293C20.5063 81.006 22.2283 78.6042 21.7298 76.3384C21.3673 78.6496 18.9655 78.5589 18.7842 76.1571C18.7842 75.1148 19.3733 73.3928 20.5063 72.9849C22.5909 72.1692 25.1739 74.2991 25.6724 76.2477C26.2616 78.0151 26.1256 80.0544 25.4912 81.9124C24.041 86.0816 21.6845 89.0725 22.7268 93.8761L23.18 94.7825H23.2706C23.4972 95.8248 26.5335 96.5499 30.2495 96.3686C33.9655 96.1873 36.9111 95.1903 37.0471 94.148H37.1377C36.6845 93.1057 36.3673 91.9275 36.0048 90.7946C34.6452 86.4441 34.5546 83 35.6422 78.5589C36.5033 75.4773 37.7268 71.8973 37.0924 68.8157C36.5939 65.8701 34.7812 62.2447 36.9111 59.6163C37.9534 58.3928 40.3552 57.3958 41.896 58.0302C44.4791 59.1631 43.2102 63.6042 40.5365 62.1088C42.5758 64.8278 44.7963 61.3837 44.1165 59.0725Z" fill="#65320B"/>
<path d="M190.86 42.3052C179.983 40.5378 170.603 51.6405 173.639 62.426C173.548 62.3354 170.829 61.701 169.198 61.9275C167.521 62.1541 165.618 63.3777 164.394 64.6466C161.766 67.1843 160.225 71.7161 160.724 75.3414C161.086 79.2387 162.989 84.4502 166.977 85.8097C169.243 86.5801 172.189 85.991 174.545 85.4019L178.125 84.133C179.44 84.2236 180.754 84.9034 182.113 85.2206C186.736 86.0816 193.76 82.2297 196.887 78.9215C201.69 73.7553 203.866 67.1843 204.002 60.0695C204.092 51.6859 199.47 43.5288 190.86 42.3052Z" fill="#1CA538"/>
<path d="M190.678 56.0363C185.693 56.7614 182.385 62.426 182.385 67.2296C182.385 68.1813 182.521 69.133 182.612 70.0846C182.748 71.0363 182.838 71.9426 182.838 72.8037C182.838 73.1209 182.838 73.4381 182.793 73.8006C182.657 74.9336 182.204 76.0212 181.66 77.0635C181.57 75.568 181.071 74.1179 180.437 73.0756C178.941 70.5378 176.267 68.8611 173.775 68.9064C171.69 68.9517 169.968 70.1299 168.835 72.2145C167.657 74.571 167.567 77.8339 169.696 79.3293C170.829 80.0997 172.008 80.1904 172.914 79.5559C173.956 78.8308 174.455 77.2901 174.138 75.8399C174.092 75.6133 173.866 75.4321 173.594 75.4321C173.367 75.4321 173.141 75.6133 173.095 75.8852C172.959 76.7463 172.506 77.1088 172.098 77.0635C171.69 77.0635 171.237 76.6103 171.192 75.7493C171.192 74.8882 171.736 73.4834 172.597 73.1209C173.412 72.8037 174.273 73.0756 174.817 73.3928C175.905 73.9366 176.811 75.0242 177.083 76.0212V76.0665C177.31 76.7463 177.446 77.4713 177.446 78.2417C177.446 79.1934 177.264 80.2357 176.947 81.278C176.585 82.275 176.177 83.1813 175.769 84.0876C174.817 86.2629 173.911 88.3475 173.911 90.8852C173.911 91.6556 174.002 92.426 174.183 93.287C174.183 93.3324 174.228 93.3777 174.228 93.423L174.681 94.284C174.727 94.3747 174.772 94.42 174.863 94.4653C175.588 95.7795 179.077 96.278 182.249 96.0967C184.696 95.9608 188.82 95.3716 189.455 93.7402L189.5 93.6949C189.591 93.6043 189.591 93.4683 189.591 93.3777C189.591 93.3324 189.591 93.2417 189.545 93.1964C189.138 92.1994 188.775 91.0212 188.458 89.9336C187.733 87.6677 187.37 85.6737 187.37 83.6345C187.37 81.9124 187.642 80.1904 188.141 78.2417L188.458 77.1994C189.092 75.0242 189.817 72.6224 189.817 70.3112C189.817 69.6768 189.772 69.0876 189.636 68.4532C189.5 67.7734 189.319 67.0937 189.138 66.3686C188.775 65.0997 188.458 63.8308 188.458 62.6073C188.458 61.6103 188.684 60.6586 189.364 59.8429C190.27 58.8006 192.446 57.8943 193.805 58.4381C194.44 58.71 194.802 59.2538 194.893 59.9789C194.938 60.6586 194.666 61.2931 194.258 61.565C193.805 61.8822 193.261 61.7009 192.899 61.4743C192.672 61.3384 192.4 61.3837 192.264 61.6103C192.083 61.7916 192.083 62.0635 192.219 62.2447C193.397 63.8308 194.621 63.4683 195.074 63.2417C196.434 62.562 197.159 60.4774 196.66 58.8459C195.754 56.4895 193.035 55.7644 190.678 56.0363Z" fill="#65320B"/>
<path d="M196.117 59.0725C195.346 56.852 192.763 56.3082 190.769 56.5801C186.011 57.3051 182.929 62.9698 182.929 67.4562C182.929 69.6767 183.609 71.9879 183.382 74.2085C183.111 76.3384 181.932 78.287 180.981 80.145C181.66 78.1057 181.162 75.432 180.12 73.6647C177.718 69.4048 172.008 67.7281 169.425 72.7583C168.473 74.707 168.111 77.8792 170.104 79.3293C172.506 81.006 174.228 78.6042 173.73 76.3384C173.367 78.6496 170.965 78.5589 170.784 76.1571C170.784 75.1148 171.373 73.3928 172.506 72.9849C174.591 72.1692 177.174 74.2991 177.672 76.2477C178.262 78.0151 178.126 80.0544 177.491 81.9124C176.041 86.0816 173.685 89.0725 174.727 93.8761L175.18 94.7825H175.271C175.497 95.8248 178.533 96.5499 182.249 96.3686C185.965 96.1873 188.911 95.1903 189.047 94.148H189.138C188.685 93.1057 188.367 91.9275 188.005 90.7946C186.645 86.4441 186.555 83 187.642 78.5589C188.503 75.4773 189.727 71.8973 189.092 68.8157C188.594 65.8701 186.781 62.2447 188.911 59.6163C189.953 58.3928 192.355 57.3958 193.896 58.0302C196.479 59.1631 195.21 63.6042 192.536 62.1088C194.576 64.8278 196.796 61.3837 196.117 59.0725Z" fill="#65320B"/>
<path d="M97.6044 77.6708L87.1877 119.337C87.0753 119.788 86.8153 120.189 86.4491 120.475C86.0829 120.761 85.6316 120.916 85.1669 120.917C84.9956 120.916 84.8249 120.895 84.6586 120.854C84.1231 120.72 83.6628 120.378 83.3788 119.905C83.0948 119.432 83.0104 118.865 83.144 118.329L93.5606 76.6625C93.6216 76.3916 93.7361 76.1356 93.8974 75.9096C94.0587 75.6836 94.2635 75.4922 94.4998 75.3464C94.7362 75.2007 94.9992 75.1037 95.2736 75.0612C95.548 75.0186 95.8281 75.0312 96.0975 75.0985C96.3668 75.1657 96.6201 75.286 96.8423 75.4525C97.0645 75.619 97.2512 75.8282 97.3914 76.0678C97.5316 76.3075 97.6225 76.5728 97.6587 76.848C97.6949 77.1233 97.6778 77.403 97.6044 77.6708ZM118.438 76.6625C118.377 76.3916 118.262 76.1356 118.101 75.9096C117.94 75.6836 117.735 75.4922 117.499 75.3464C117.262 75.2007 116.999 75.1037 116.725 75.0612C116.45 75.0186 116.17 75.0312 115.901 75.0985C115.632 75.1657 115.378 75.286 115.156 75.4525C114.934 75.619 114.747 75.8282 114.607 76.0678C114.467 76.3075 114.376 76.5728 114.34 76.848C114.303 77.1233 114.323 77.403 114.396 77.6708L124.813 119.337C124.925 119.788 125.185 120.189 125.551 120.475C125.918 120.761 126.369 120.916 126.834 120.917C127.004 120.916 127.174 120.895 127.34 120.854C127.876 120.72 128.336 120.379 128.621 119.906C128.905 119.432 128.99 118.865 128.856 118.329L118.438 76.6625ZM106 75.0833C105.448 75.0833 104.918 75.3028 104.527 75.6935C104.136 76.0842 103.917 76.6141 103.917 77.1666V85.5C103.917 86.0525 104.136 86.5824 104.527 86.9731C104.918 87.3638 105.448 87.5833 106 87.5833C106.553 87.5833 107.083 87.3638 107.473 86.9731C107.864 86.5824 108.084 86.0525 108.084 85.5V77.1666C108.084 76.6141 107.864 76.0842 107.473 75.6935C107.083 75.3028 106.553 75.0833 106 75.0833ZM106 91.5666C105.448 91.5666 104.918 91.7861 104.527 92.1768C104.136 92.5675 103.917 93.0974 103.917 93.65V102.35C103.917 102.902 104.136 103.432 104.527 103.823C104.918 104.214 105.448 104.433 106 104.433C106.553 104.433 107.083 104.214 107.473 103.823C107.864 103.432 108.084 102.902 108.084 102.35V93.65C108.084 93.0974 107.864 92.5675 107.473 92.1768C107.083 91.7861 106.553 91.5666 106 91.5666ZM106 108.417C105.448 108.417 104.918 108.636 104.527 109.027C104.136 109.418 103.917 109.947 103.917 110.5V118.833C103.917 119.386 104.136 119.916 104.527 120.306C104.918 120.697 105.448 120.917 106 120.917C106.553 120.917 107.083 120.697 107.473 120.306C107.864 119.916 108.084 119.386 108.084 118.833V110.5C108.084 109.947 107.864 109.418 107.473 109.027C107.083 108.636 106.553 108.417 106 108.417Z" fill="black" fill-opacity="0.35"/>
<defs>
<clipPath id="clip0_2784_6943">
<rect width="70" height="70" fill="white" transform="translate(71)"/>
</clipPath>
</defs>
</svg>
