<svg width="30" height="30" viewBox="0 0 30 30" fill="none" xmlns="http://www.w3.org/2000/svg">
<circle cx="15" cy="15" r="15" fill="#903594"/>
<path d="M17.5 19.6875C17.4387 21.2307 16.1526 22.5412 14.4297 22.499C14.0288 22.4892 13.5334 22.3495 12.5426 22.07C10.158 21.3973 8.08796 20.2669 7.5913 17.7346C7.5 17.2692 7.5 16.7453 7.5 15.6977V14.3022C7.5 13.2547 7.5 12.7309 7.5913 12.2654C8.08796 9.73304 10.158 8.60263 12.5426 7.93002C13.5334 7.65053 14.0288 7.51079 14.4297 7.50099C16.1526 7.45884 17.4387 8.76922 17.5 10.3125" stroke="white" stroke-width="1.5" stroke-linecap="round"/>
<path d="M22.5002 15H13.3335M22.5002 15C22.5002 14.4165 20.8382 13.3263 20.4168 12.9167M22.5002 15C22.5002 15.5835 20.8382 16.6738 20.4168 17.0834" stroke="white" stroke-width="1.5" stroke-linecap="round" stroke-linejoin="round"/>
</svg>
