<svg width="21" height="20" viewBox="0 0 21 20" fill="none" xmlns="http://www.w3.org/2000/svg">
<ellipse cx="10.5653" cy="9.99988" rx="9.93789" ry="10" fill="white"/>
<path fill-rule="evenodd" clip-rule="evenodd" d="M14.292 10.6249H6.83862C6.49514 10.6249 6.2175 10.3436 6.2175 9.99988C6.2175 9.65613 6.49514 9.37488 6.83862 9.37488H14.292C14.6355 9.37488 14.9132 9.65613 14.9132 9.99988C14.9132 10.3436 14.6355 10.6249 14.292 10.6249ZM10.5653 -0.00012207C5.07651 -0.00012207 0.627441 4.47488 0.627441 9.99988C0.627441 15.5249 5.07651 19.9999 10.5653 19.9999C16.0541 19.9999 20.5032 15.5249 20.5032 9.99988C20.5032 4.47488 16.0541 -0.00012207 10.5653 -0.00012207Z" fill="#FF0000"/>
</svg>
