<svg width="21" height="20" viewBox="0 0 21 20" fill="none" xmlns="http://www.w3.org/2000/svg">
<path d="M11.125 18.5C15.5433 18.5 19.125 14.9183 19.125 10.5C19.125 6.08172 15.5433 2.5 11.125 2.5C6.70672 2.5 3.125 6.08172 3.125 10.5C3.125 14.9183 6.70672 18.5 11.125 18.5Z" fill="#903594"/>
<path d="M8.95801 13.5H11.458C11.8558 13.5 12.2374 13.342 12.5187 13.0607C12.8 12.7794 12.958 12.3978 12.958 12C12.958 11.6022 12.8 11.2206 12.5187 10.9393C12.2374 10.658 11.8558 10.5 11.458 10.5H10.458C10.0602 10.5 9.67865 10.342 9.39735 10.0607C9.11604 9.77936 8.95801 9.39782 8.95801 9C8.95801 8.60218 9.11604 8.22064 9.39735 7.93934C9.67865 7.65804 10.0602 7.5 10.458 7.5H12.958" stroke="white" stroke-width="2" stroke-linecap="round" stroke-linejoin="round"/>
</svg>
