<svg width="15" height="17" viewBox="0 0 15 17" fill="none" xmlns="http://www.w3.org/2000/svg">
<path d="M9.84278 7.73002L9.91531 7.64203C9.89609 7.67577 9.87754 7.7099 9.85968 7.74439M9.84278 7.73002L9.80633 7.69903L9.80629 7.699L9.80615 7.69921L9.77092 7.73445L9.77841 7.74032L9.81234 7.76694M9.84278 7.73002L9.85968 7.74439M9.84278 7.73002L9.81234 7.76694M9.81234 7.76694L9.78209 7.80364C9.79744 7.79558 9.81323 7.78782 9.82949 7.7804M9.81234 7.76694L9.82949 7.7804M9.82949 7.7804L9.83734 7.78655C9.83967 7.78234 9.84209 7.77803 9.84458 7.77366M9.82949 7.7804C9.83447 7.77812 9.8395 7.77588 9.84458 7.77366M9.84458 7.77366C9.84464 7.77364 9.84471 7.77361 9.84478 7.77358C9.84515 7.77284 9.84553 7.77209 9.8459 7.77135M9.84458 7.77366C9.84502 7.7729 9.84546 7.77212 9.8459 7.77135M9.8459 7.77135C9.85003 7.76415 9.85436 7.75682 9.85882 7.74951L9.87662 7.76039C9.87705 7.76022 9.87748 7.76005 9.8779 7.75989L9.85968 7.74439M9.8459 7.77135C9.85045 7.76234 9.85504 7.75335 9.85968 7.74439M10.2855 8.01024L10.2211 7.97825C10.209 7.99242 10.1969 8.00662 10.1848 8.02084L10.1064 7.95417L10.1063 7.95408L10.0134 7.87508L9.86117 7.79947C9.85995 7.80047 9.85875 7.80146 9.85758 7.80243L10.0404 7.94586L9.78588 8.33049C9.72996 8.41499 9.68431 8.49114 9.63497 8.57401L9.66566 8.60149M10.2855 8.01024C10.2743 8.02849 10.2633 8.05003 10.2521 8.07194C10.2219 8.13119 10.1903 8.19318 10.1502 8.20031C9.9591 8.23442 9.85544 8.36566 9.75276 8.49566C9.72427 8.53173 9.69585 8.56771 9.66566 8.60149M10.2855 8.01024L10.2252 7.9734C10.2956 7.8908 10.3655 7.80912 10.435 7.72821C10.4352 7.72794 10.4355 7.72768 10.4357 7.72741C10.4671 7.69084 10.4984 7.65443 10.5296 7.61816C10.5271 7.62501 10.5247 7.63189 10.5224 7.63878C10.4968 7.67101 10.4712 7.70319 10.4455 7.73527C10.3861 7.8233 10.3327 7.91516 10.2855 8.01024ZM9.66566 8.60149L9.63495 8.57404C9.63199 8.57902 9.62901 8.58401 9.62602 8.58904C9.59405 8.64276 9.5602 8.69962 9.5208 8.7636C9.56903 8.70952 9.61731 8.65548 9.66566 8.60149ZM7.16467 6.16811L7.232 6.10076C7.54562 6.50595 7.89721 6.85828 8.27163 7.17814C8.27165 7.17816 8.27167 7.17817 8.27169 7.17819C8.62917 7.48357 9.00748 7.75937 9.39342 8.02331C9.41483 8.03796 9.43627 8.05256 9.45772 8.06714C9.44895 8.07714 9.44051 8.08699 9.43242 8.09659C9.40991 8.12333 9.39015 8.14815 9.37373 8.16887C9.3689 8.17497 9.36436 8.18072 9.36005 8.18616C9.33055 8.22346 9.31232 8.24651 9.29298 8.26816C9.23467 8.33327 9.1762 8.39875 9.1176 8.46452C9.14089 8.42616 9.16405 8.38734 9.18736 8.34827C9.24546 8.25087 9.30449 8.15191 9.36891 8.05456C9.25556 7.96563 9.14107 7.87797 9.02669 7.79039C8.7681 7.59239 8.51004 7.39479 8.26679 7.18384C8.00021 6.95709 7.74715 6.71758 7.4893 6.47353C7.38235 6.37231 7.27458 6.27031 7.16467 6.16811ZM7.16467 6.16811L7.22464 6.10362L7.22465 6.10361L7.22987 6.098C7.22101 6.08654 7.21218 6.07503 7.20338 6.06349C7.18684 6.09223 7.16881 6.12005 7.14936 6.14684C7.13275 6.16973 7.1151 6.19185 7.09647 6.21316C7.11812 6.19695 7.14011 6.18118 7.16242 6.16586L7.16467 6.16811ZM6.90849 6.37321C6.92824 6.35414 6.94838 6.33549 6.9689 6.31727L6.66432 5.93747M6.90849 6.37321L7.00004 6.29019L6.66432 5.93747M6.90849 6.37321C6.82452 6.46713 6.74011 6.56077 6.65545 6.65427L6.90849 6.37321ZM6.66432 5.93747C6.63367 5.96665 6.60338 5.99623 6.57333 6.02608C6.56494 6.03441 6.55657 6.04276 6.54822 6.05113C6.50023 6.09922 6.45277 6.14787 6.40534 6.1965C6.37027 6.23246 6.33521 6.2684 6.29995 6.30409L6.82434 5.53704M6.66432 5.93747C6.69498 5.91288 6.72206 5.88439 6.74494 5.85283C6.77771 5.82691 6.81115 5.80181 6.84521 5.77757C6.85654 5.76951 6.86794 5.76154 6.8794 5.75366L6.94989 5.70527C6.94008 5.69029 6.93031 5.67524 6.9206 5.66012L6.84024 5.53508L6.82434 5.53704M6.82434 5.53704L6.84012 5.53491L6.82135 5.5057C6.82206 5.51616 6.82305 5.52661 6.82434 5.53704ZM11.5949 8.03848C11.5959 8.03938 11.5968 8.04028 11.5978 8.04118C11.5986 8.0419 11.5994 8.04263 11.6001 8.04335C11.6044 8.04728 11.6086 8.05114 11.6127 8.05495M11.5949 8.03848L11.7881 7.91813C11.7558 7.95566 11.7237 7.99184 11.6912 8.02765M11.5949 8.03848L11.6315 8.00747L11.6606 7.98282L11.6606 7.98286L11.6724 8.00003M11.5949 8.03848L11.6724 8.00003M11.6127 8.05495L11.3075 8.33599L11.3052 8.33374L11.1976 8.2261L10.9782 8.00672C10.9953 8.10996 11.0507 8.20677 11.1352 8.28971L11.1457 8.30007C11.3069 8.45836 11.4722 8.62079 11.7362 8.71343M11.6127 8.05495L11.6724 8.00003M11.6127 8.05495C11.6227 8.06408 11.6325 8.07287 11.6421 8.08132M11.7362 8.71343C11.7841 8.66126 11.8325 8.60975 11.8807 8.55838C11.9783 8.4544 12.0754 8.35099 12.1674 8.24388C12.7416 7.57524 13.2384 6.85241 13.7045 6.10899C13.2886 6.69851 12.8649 7.2812 12.4435 7.86064C12.3886 7.93618 12.3337 8.01165 12.2789 8.08708L12.2623 8.10991L12.2432 8.13073C12.2127 8.1641 12.1809 8.19625 12.1479 8.2271C12.0833 8.2875 12.0141 8.34295 11.941 8.39293L11.88 8.30369L11.7362 8.71343ZM11.7362 8.71343L11.368 8.37509C11.4241 8.31406 11.4763 8.25847 11.5261 8.20545C11.5661 8.16291 11.6045 8.12202 11.6421 8.08132M11.6421 8.08132C11.7003 8.13247 11.7527 8.17141 11.8104 8.20191L11.6912 8.02765M11.6421 8.08132C11.6586 8.06344 11.675 8.04559 11.6912 8.02765M11.6912 8.02765L11.6724 8.00003M14.8637 4.00668L14.8637 4.0067L14.8637 4.00668ZM14.8637 4.00668L14.8636 4.00666L14.8637 4.00668ZM1.50792 13.0707C1.50271 13.0796 1.49747 13.0886 1.49221 13.0976C1.42434 13.2135 1.35312 13.3352 1.28424 13.4593C1.27398 13.483 1.26394 13.5067 1.25412 13.5306L1.68638 13.7657M1.50792 13.0707L1.91918 13.304C1.91923 13.3039 1.91928 13.3038 1.91932 13.3038M1.50792 13.0707C1.50793 13.0707 1.50794 13.0707 1.50795 13.0707M1.50792 13.0707L1.4843 13.0573L1.50795 13.0707M1.91932 13.3038C1.85037 13.4258 1.78835 13.5515 1.73353 13.6802C1.71766 13.7086 1.70193 13.7371 1.68638 13.7657M1.91932 13.3038C1.97807 13.2002 2.03666 13.0968 2.09517 12.9935C2.13149 12.9293 2.16779 12.8653 2.20406 12.8013M1.91932 13.3038C1.91941 13.3036 1.91949 13.3035 1.91957 13.3033L1.50795 13.0707M1.68638 13.7657C1.6326 13.8646 1.60558 13.9497 1.60504 14.0287M1.68638 13.7657L1.25402 13.5308L1.60504 14.0287M1.60504 14.0287C1.59325 14.0663 1.58205 14.1041 1.57145 14.1421L1.57123 14.1429C1.54765 14.2268 1.52147 14.3102 1.49143 14.3928C1.52012 14.399 1.54669 14.4057 1.56891 14.4114C1.59761 14.4188 1.63141 14.428 1.66926 14.4383L1.76151 14.3502M1.60504 14.0287C1.60428 14.1407 1.65669 14.2406 1.76151 14.3502M1.76151 14.3502L1.66932 14.4384C1.68234 14.4419 1.69585 14.4456 1.70979 14.4494C1.72397 14.4533 1.7386 14.4573 1.75363 14.4614L2.16871 14.5749C2.19926 14.5515 2.2299 14.5283 2.2606 14.5052C2.07064 14.5796 1.93336 14.5302 1.76151 14.3502ZM4.58174 12.8473C4.55646 12.8655 4.53118 12.8838 4.5059 12.9021C4.2489 13.0877 3.99188 13.2734 3.73811 13.4637M4.58174 12.8473L2.38582 14.4434C2.51557 14.3678 2.64098 14.2851 2.76145 14.1955M4.58174 12.8473L4.84774 13.2451M4.58174 12.8473L8.78667 8.91778C8.47758 9.23459 8.18032 9.56059 7.88364 9.88597C7.79958 9.97816 7.71556 10.0703 7.63133 10.1622C7.63049 10.1631 7.62964 10.164 7.62879 10.1649C7.14406 10.6936 6.65228 11.2131 6.10462 11.681C5.61712 12.0961 5.10137 12.4717 4.58415 12.8455L4.84774 13.2451M3.73811 13.4637C3.66334 13.52 3.58856 13.5764 3.51375 13.6328C3.28167 13.8077 3.04924 13.983 2.81535 14.1557C2.81534 14.1557 2.81534 14.1557 2.81533 14.1557C2.79738 14.169 2.77942 14.1822 2.76145 14.1955M3.73811 13.4637L4.01934 13.8387L7.99483 10.4864C7.50558 11.0435 6.97896 11.5654 6.41893 12.0489C6.41874 12.049 6.41855 12.0492 6.41836 12.0494C5.9203 12.4793 5.39583 12.8787 4.84774 13.2451M3.73811 13.4637L4.01989 13.8383C4.29127 13.634 4.56422 13.4321 4.84774 13.2451M2.76145 14.1955L3.03471 14.5629L1.77023 15.5568C1.80248 15.5169 1.83315 15.478 1.86251 15.4408C1.91203 15.378 1.95783 15.3199 2.00123 15.2693L2.20452 15.0324C2.31834 15.0186 2.42233 14.983 2.51444 14.9401C2.5514 14.9121 2.58853 14.8842 2.62581 14.8565C2.62594 14.8564 2.62607 14.8563 2.6262 14.8562C2.75989 14.7569 2.89559 14.6598 3.0329 14.5642L2.76145 14.1955ZM1.71325 14.9411C1.68603 14.9268 1.65997 14.9115 1.63503 14.8953C1.54186 14.8348 1.46425 14.7629 1.40006 14.6957L1.71325 14.9411ZM1.71325 14.9411C1.69741 14.9545 1.6816 14.968 1.66582 14.9815C1.642 15.002 1.61825 15.0225 1.59457 15.0432L1.62177 14.9437L1.35121 14.7116L1.71325 14.9411ZM2.2041 12.8012C2.35339 12.5378 2.50243 12.2754 2.65241 12.0147C2.82696 11.702 3.00814 11.3932 3.19581 11.0884L5.99945 6.63264C5.5 7.18136 4.98673 7.74528 4.51701 8.33397L4.51617 8.33502C4.07366 8.89269 3.65486 9.46824 3.26078 10.0601C3.26077 10.0601 3.26076 10.0601 3.26075 10.0601C3.09237 10.313 2.9285 10.5689 2.76922 10.8276C2.58221 11.1387 2.39894 11.4526 2.21763 11.7678C2.06728 12.037 1.92174 12.3091 1.78111 12.5838M2.2041 12.8012L1.7815 12.583C1.78137 12.5833 1.78124 12.5835 1.78111 12.5838M2.2041 12.8012C2.20409 12.8012 2.20408 12.8012 2.20406 12.8013M2.2041 12.8012L2.22579 12.8124L2.20406 12.8013M1.78111 12.5838C1.70399 12.7331 1.61869 12.8812 1.52691 13.0382C1.52063 13.049 1.5143 13.0598 1.50795 13.0707M1.78111 12.5838C1.78098 12.584 1.78085 12.5843 1.78072 12.5845L2.20406 12.8013M12.415 4.38578C12.08 4.92517 11.7273 5.43851 11.3246 5.91264C11.2853 5.95893 11.2455 6.00484 11.2052 6.05037C11.2436 6.00335 11.2819 5.95622 11.32 5.90892C11.7147 5.41956 12.0784 4.91088 12.415 4.38578ZM9.82215 7.6755C9.96849 7.50354 10.1114 7.33745 10.2513 7.17512C10.1846 7.2598 10.1194 7.34267 10.0553 7.42255L10.0424 7.43868L10.0309 7.45582C10.0215 7.46964 10.0124 7.48355 10.0033 7.49753L9.81551 7.68534L9.82215 7.6755ZM9.78959 7.87751C9.78829 7.87978 9.7884 7.87936 9.78995 7.87689L9.78959 7.87751ZM9.39019 7.41163L9.37616 7.42813C9.35618 7.41282 9.33629 7.3976 9.31649 7.38244C9.06423 7.18933 8.82587 7.00686 8.59438 6.8061L8.59439 6.80608L8.59074 6.80298C8.33475 6.58523 8.09671 6.35992 7.84332 6.12009C7.73639 6.01887 7.62672 5.91507 7.51181 5.80815L7.32787 5.62425C7.32938 5.57445 7.32693 5.52443 7.32045 5.47468L9.39019 7.41163ZM11.0876 7.72975C11.0935 7.7222 11.0994 7.71465 11.1054 7.70712C11.105 7.70884 11.1047 7.71056 11.1044 7.71228C11.1029 7.72065 11.1016 7.729 11.1005 7.73731L11.0876 7.72975ZM11.0875 7.72979L11.1005 7.73739C11.0995 7.74427 11.0987 7.75113 11.0979 7.75797L11.0274 7.80619C11.0428 7.78656 11.0582 7.76701 11.0735 7.74755C11.0782 7.74163 11.0829 7.73571 11.0875 7.72979ZM10.0626 7.70805L10.0624 7.70809L10.0626 7.70805ZM0.602293 14.8882C0.862985 14.6342 0.994458 14.3472 1.08987 14.0077C1.0964 13.9843 1.10312 13.961 1.11004 13.9377C1.1074 13.9621 1.10575 13.9868 1.10519 14.0119C1.10519 14.0119 1.10519 14.012 1.10519 14.012C1.10424 14.0552 1.10654 14.0996 1.11275 14.1451C1.12506 14.2353 1.15101 14.317 1.18526 14.3907C1.15253 14.399 1.1182 14.4108 1.08318 14.4275C0.968384 14.482 0.898211 14.5676 0.887568 14.5806C0.887022 14.5812 0.886633 14.5817 0.886398 14.582L0.884822 14.5838C0.862433 14.6103 0.839857 14.6369 0.817142 14.6637C0.75086 14.7419 0.683385 14.8214 0.615855 14.9021C0.512477 15.0255 0.408968 15.1514 0.309402 15.2784L0.309389 15.2784L0.306893 15.2817C0.237078 15.3723 0.208453 15.465 0.195424 15.5288C0.183073 15.5892 0.18096 15.6436 0.18015 15.6726C0.179242 15.7052 0.179165 15.7256 0.179106 15.7415C0.179019 15.7644 0.178969 15.7779 0.176492 15.805L0.17312 15.8419L0.173064 15.8425L0.140549 16.1981C0.00758514 16.1081 -0.0265783 15.9827 0.0193044 15.8032C0.112462 15.4328 0.341601 15.1421 0.602293 14.8882ZM1.20793 16.1131C1.0789 16.2299 0.950599 16.3019 0.819966 16.3347L0.887678 16.3028C1.00521 16.2473 1.11138 16.1829 1.20793 16.1131Z" fill="white" stroke="white"/>
<path d="M8.42566 8.57241C8.5014 8.49152 8.57318 8.38789 8.65875 8.24895C8.67286 8.22604 8.68792 8.20115 8.70378 8.17479C8.44954 7.97857 8.18692 7.77509 7.9399 7.56575L7.93732 7.56356L7.93733 7.56355C7.67384 7.33718 7.41568 7.09267 7.16318 6.85353C7.16069 6.85118 7.15821 6.84882 7.15572 6.84647C7.01582 7.00136 6.87656 7.15404 6.73834 7.30557C6.23754 7.85461 5.75051 8.38854 5.29705 8.9575C4.2885 10.2286 3.40811 11.5963 2.66875 13.0407L2.66797 13.0422C2.57765 13.2172 2.48053 13.3852 2.38821 13.5432C2.37625 13.5637 2.36439 13.5839 2.35262 13.604C2.27199 13.7418 2.19601 13.8717 2.12418 14.0038C2.12399 14.0042 2.12379 14.0046 2.1236 14.0049L8.42566 8.57241ZM8.42566 8.57241C8.09329 8.91324 7.78695 9.24943 7.48791 9.57763C6.93284 10.1868 6.4029 10.7684 5.77816 11.3009L5.77757 11.3014C5.28685 11.721 4.77569 12.0897 4.24614 12.4716C3.98061 12.6631 3.71047 12.858 3.43596 13.0642M8.42566 8.57241L3.43596 13.0642M3.43596 13.0642C3.43607 13.0641 3.43617 13.0641 3.43628 13.064L3.73595 13.4642L3.43562 13.0645C3.43573 13.0644 3.43585 13.0643 3.43596 13.0642ZM2.12892 14.0136C2.12685 14.0115 2.12471 14.0093 2.12251 14.007L2.12892 14.0136Z" fill="#31B836" stroke="white"/>
<path d="M13.511 0.964643L13.5105 0.97592L13.5105 0.987209C13.5103 1.15665 13.4791 1.32459 13.4187 1.48281C12.7466 2.95927 11.9428 4.34626 10.9367 5.59728C10.6253 5.97999 10.3072 6.3493 9.96679 6.74455C9.88559 6.83881 9.80312 6.93456 9.71917 7.03231C9.0184 6.53671 8.41559 6.02782 7.94382 5.38072C7.98812 5.31071 8.02184 5.26313 8.05459 5.22595C8.19927 5.06316 8.34042 4.90167 8.47995 4.74202C8.90481 4.25591 9.31472 3.78691 9.76396 3.35028C10.7595 2.3847 11.8369 1.57354 13.0847 1.033C13.2182 0.975615 13.362 0.945592 13.5073 0.944704C13.5086 0.94471 13.5099 0.944729 13.5111 0.944758C13.5113 0.950321 13.5114 0.956926 13.511 0.964643Z" fill="#31B836" stroke="white"/>
<mask id="path-4-inside-1_2784_7356" fill="white">
<path d="M11.6611 7.98247C11.5401 7.83972 11.6093 7.74356 11.6664 7.66017C11.9188 7.28453 12.184 6.92317 12.4342 6.54904C12.8849 5.87139 13.3322 5.19073 13.7759 4.50707C13.8796 4.3463 13.9405 4.15848 14.0374 3.99245C14.1944 3.72199 14.2019 3.47257 14.0006 3.21864C13.9334 3.13606 13.8914 3.03592 13.8796 2.93015C13.8751 2.84375 13.945 2.75435 13.9961 2.62964C14.0982 2.7228 14.1576 2.77989 14.2214 2.83624C14.5971 3.14652 14.6083 3.50562 14.4123 3.93009C14.1422 4.51391 13.8211 5.07276 13.4529 5.60018C12.9368 6.33868 12.4056 7.06591 11.8752 7.79465C11.8113 7.86524 11.7394 7.92826 11.6611 7.98247Z"/>
</mask>
<path d="M11.6611 7.98247C11.5401 7.83972 11.6093 7.74356 11.6664 7.66017C11.9188 7.28453 12.184 6.92317 12.4342 6.54904C12.8849 5.87139 13.3322 5.19073 13.7759 4.50707C13.8796 4.3463 13.9405 4.15848 14.0374 3.99245C14.1944 3.72199 14.2019 3.47257 14.0006 3.21864C13.9334 3.13606 13.8914 3.03592 13.8796 2.93015C13.8751 2.84375 13.945 2.75435 13.9961 2.62964C14.0982 2.7228 14.1576 2.77989 14.2214 2.83624C14.5971 3.14652 14.6083 3.50562 14.4123 3.93009C14.1422 4.51391 13.8211 5.07276 13.4529 5.60018C12.9368 6.33868 12.4056 7.06591 11.8752 7.79465C11.8113 7.86524 11.7394 7.92826 11.6611 7.98247Z" fill="#31B836"/>
<path d="M11.6611 7.98247L10.8982 8.62895L11.4845 9.32087L12.2302 8.80473L11.6611 7.98247ZM11.6664 7.66017L12.4915 8.22514L12.4964 8.21793L11.6664 7.66017ZM12.4342 6.54904L13.2654 7.10489L13.2668 7.10288L12.4342 6.54904ZM13.7759 4.50707L14.6147 5.05152L14.6163 5.04902L13.7759 4.50707ZM14.0374 3.99245L14.901 4.49657L14.9022 4.49453L14.0374 3.99245ZM14.0006 3.21864L14.7842 2.59729L14.7765 2.58783L14.0006 3.21864ZM13.8796 2.93015L12.881 2.98225L12.8825 3.01187L12.8858 3.04134L13.8796 2.93015ZM13.9961 2.62964L14.6698 1.89068L13.6129 0.927003L13.0707 2.25057L13.9961 2.62964ZM14.2214 2.83624L13.5598 3.58608L13.572 3.59686L13.5846 3.60723L14.2214 2.83624ZM14.4123 3.93009L15.3198 4.34996L15.3201 4.34946L14.4123 3.93009ZM13.4529 5.60018L14.2725 6.17302L14.2728 6.17267L13.4529 5.60018ZM11.8752 7.79465L12.6163 8.46603L12.6522 8.42638L12.6837 8.38312L11.8752 7.79465ZM12.424 7.33598C12.459 7.37724 12.5172 7.45859 12.5561 7.58134C12.5974 7.71173 12.604 7.84786 12.5815 7.97406C12.5608 8.09047 12.5202 8.17188 12.5009 8.20709C12.485 8.23599 12.469 8.25797 12.4915 8.22512L10.8412 7.09522C10.8352 7.10406 10.7891 7.16934 10.748 7.24418C10.7034 7.32534 10.6424 7.45535 10.6124 7.62406C10.5403 8.02976 10.6886 8.38161 10.8982 8.62895L12.424 7.33598ZM12.4964 8.21793C12.6159 8.03996 12.7394 7.86419 12.8697 7.67834C12.9981 7.49535 13.1332 7.30264 13.2654 7.10489L11.6029 5.99318C11.4849 6.16956 11.3623 6.3446 11.2325 6.52974C11.1046 6.71201 10.9692 6.90474 10.8364 7.10241L12.4964 8.21793ZM13.2668 7.10288C13.7196 6.42211 14.1689 5.73832 14.6147 5.05152L12.9371 3.96262C12.4954 4.64314 12.0502 5.32066 11.6015 5.99519L13.2668 7.10288ZM14.6163 5.04902C14.7113 4.90174 14.7786 4.75483 14.8181 4.66876C14.8666 4.56303 14.8831 4.52725 14.901 4.49656L13.1737 3.48834C13.0947 3.62369 13.0324 3.76482 13.0003 3.83471C12.9592 3.92425 12.9442 3.95164 12.9355 3.96512L14.6163 5.04902ZM14.9022 4.49453C15.0419 4.25395 15.1635 3.93981 15.1529 3.57072C15.142 3.18862 14.9928 2.86048 14.7841 2.59734L13.217 3.83993C13.216 3.83866 13.2 3.81814 13.184 3.77786C13.1672 3.73563 13.1554 3.68398 13.1538 3.62797C13.1505 3.5147 13.1899 3.46049 13.1726 3.49037L14.9022 4.49453ZM14.7765 2.58783C14.8303 2.65399 14.8639 2.73422 14.8734 2.81896L12.8858 3.04134C12.919 3.33761 13.0366 3.61812 13.2246 3.84945L14.7765 2.58783ZM14.8782 2.87805C14.8847 3.00093 14.863 3.09669 14.8469 3.15048C14.8388 3.17759 14.831 3.19774 14.8264 3.20904C14.8218 3.22027 14.8187 3.22655 14.8193 3.22541C14.8199 3.22403 14.8219 3.21992 14.8276 3.20872C14.8315 3.20094 14.8417 3.18111 14.8497 3.16504C14.8679 3.1288 14.8947 3.07402 14.9214 3.00871L13.0707 2.25057C13.0719 2.24762 13.0708 2.25078 13.0616 2.26907C13.0595 2.27324 13.0311 2.32875 13.0147 2.36311C12.985 2.42526 12.8646 2.66784 12.881 2.98225L14.8782 2.87805ZM13.3223 3.36859C13.3974 3.43711 13.4915 3.52582 13.5598 3.58608L14.8831 2.0864C14.8236 2.03396 14.799 2.00849 14.6698 1.89068L13.3223 3.36859ZM13.5846 3.60723C13.6076 3.62627 13.5989 3.62437 13.5819 3.59628C13.5734 3.5823 13.5644 3.56418 13.5566 3.54244C13.5488 3.52065 13.5437 3.49878 13.5408 3.47811C13.5349 3.4361 13.5405 3.4129 13.5394 3.41798C13.5379 3.42509 13.5304 3.45456 13.5044 3.51073L15.3201 4.34946C15.46 4.04659 15.5837 3.64805 15.5217 3.20258C15.4554 2.72556 15.1986 2.34634 14.8583 2.06524L13.5846 3.60723ZM13.5047 3.51023C13.2593 4.04069 12.9676 4.54847 12.633 5.02768L14.2728 6.17267C14.6747 5.59706 15.0251 4.98713 15.3198 4.34996L13.5047 3.51023ZM12.6332 5.02733C12.1238 5.75624 11.599 6.47477 11.0667 7.20618L12.6837 8.38312C13.2122 7.65705 13.7497 6.92111 14.2725 6.17302L12.6332 5.02733ZM11.1341 7.12326C11.1215 7.13715 11.1074 7.14954 11.092 7.16021L12.2302 8.80473C12.3714 8.70697 12.501 8.59333 12.6163 8.46603L11.1341 7.12326Z" fill="white" mask="url(#path-4-inside-1_2784_7356)"/>
<mask id="path-6-inside-2_2784_7356" fill="white">
<path d="M1.62171 14.9437C1.32195 15.2931 1.12362 15.6387 0.672852 15.852C0.684872 15.7205 0.66609 15.6341 0.7014 15.5883C0.880955 15.3554 1.07704 15.1323 1.26486 14.9084C1.31068 14.8551 1.31669 14.8603 1.62171 14.9437Z"/>
</mask>
<path d="M1.62171 14.9437C1.32195 15.2931 1.12362 15.6387 0.672852 15.852C0.684872 15.7205 0.66609 15.6341 0.7014 15.5883C0.880955 15.3554 1.07704 15.1323 1.26486 14.9084C1.31068 14.8551 1.31669 14.8603 1.62171 14.9437Z" fill="#31B836"/>
<path d="M1.62171 14.9437L2.38062 15.5949L3.40953 14.3958L1.88543 13.9791L1.62171 14.9437ZM0.672852 15.852L-0.322995 15.761L-0.482471 17.5052L1.10068 16.7559L0.672852 15.852ZM0.7014 15.5883L-0.0905587 14.9777L-0.090741 14.978L0.7014 15.5883ZM1.26486 14.9084L0.506301 14.2567L0.498746 14.2657L1.26486 14.9084ZM0.8628 14.2925C0.773401 14.3967 0.690875 14.5015 0.629079 14.5789C0.561992 14.6628 0.513171 14.7224 0.466113 14.7738C0.382344 14.8654 0.320923 14.9122 0.245024 14.9482L1.10068 16.7559C1.80503 16.4225 2.21242 15.7909 2.38062 15.5949L0.8628 14.2925ZM1.6687 15.9431C1.67475 15.8768 1.67654 15.8202 1.67726 15.7794C1.6776 15.7602 1.67773 15.7416 1.67782 15.7316C1.67787 15.7258 1.67791 15.7221 1.67795 15.7191C1.67799 15.7163 1.67802 15.7155 1.678 15.7159C1.678 15.716 1.67774 15.7269 1.67627 15.7438C1.67481 15.7606 1.6715 15.7913 1.66348 15.8306C1.6476 15.9083 1.60669 16.0518 1.49354 16.1987L-0.090741 14.978C-0.221544 15.1477 -0.273348 15.3192 -0.296012 15.4301C-0.317322 15.5344 -0.32021 15.624 -0.321219 15.6602C-0.321823 15.6818 -0.322001 15.7022 -0.322105 15.7142C-0.322232 15.7287 -0.322285 15.7361 -0.322427 15.7442C-0.32267 15.758 -0.323039 15.7615 -0.322995 15.761L1.6687 15.9431ZM1.49336 16.1989C1.65615 15.9877 1.82326 15.7987 2.03097 15.5511L0.498746 14.2657C0.330817 14.4659 0.105755 14.7231 -0.0905587 14.9777L1.49336 16.1989ZM2.02336 15.5601C2.02332 15.5601 2.02299 15.5605 2.02245 15.5611C2.02191 15.5618 2.02107 15.5627 2.01998 15.564C2.01788 15.5664 2.01433 15.5703 2.00971 15.5754C2.00088 15.585 1.98473 15.6021 1.9628 15.6226C1.917 15.6653 1.84085 15.7274 1.73311 15.7796C1.50218 15.8915 1.29876 15.8757 1.23498 15.8686C1.17999 15.8625 1.14938 15.8523 1.1941 15.8639C1.22893 15.8728 1.27469 15.8855 1.35799 15.9083L1.88543 13.9791C1.81622 13.9602 1.74685 13.941 1.69333 13.9272C1.64971 13.9159 1.55754 13.8922 1.4572 13.881C1.34806 13.8688 1.11548 13.8565 0.861002 13.9798C0.741481 14.0377 0.654959 14.1075 0.598875 14.1598C0.549331 14.206 0.512699 14.2494 0.506354 14.2567L2.02336 15.5601Z" fill="white" mask="url(#path-6-inside-2_2784_7356)"/>
</svg>
