<svg width="7" height="7" viewBox="0 0 7 7" fill="none" xmlns="http://www.w3.org/2000/svg">
<path d="M6.55 1V1.13652C6.55 1.51353 6.10628 1.81915 5.55893 1.81915H1.99107C1.44372 1.81915 1 1.51353 1 1.13652V1" stroke="#2A2C2E" stroke-opacity="0.7" stroke-width="0.5" stroke-linecap="round"/>
<path d="M1 3.61344C1 3.09857 1 2.84114 1.23222 2.68119C1.46444 2.52124 1.8382 2.52124 2.58571 2.52124H4.96429C5.71179 2.52124 6.08554 2.52124 6.31777 2.68119C6.55 2.84114 6.55 3.09857 6.55 3.61344V3.88649C6.55 4.40135 6.55 4.65878 6.31777 4.81873C6.08554 4.97869 5.71179 4.97869 4.96429 4.97869H2.58571C1.8382 4.97869 1.46444 4.97869 1.23222 4.81873C1 4.65878 1 4.40135 1 3.88649V3.61344Z" stroke="#2A2C2E" stroke-opacity="0.7" stroke-width="0.5"/>
<path d="M6.55 6.49981V6.36329C6.55 5.98629 6.10628 5.68066 5.55893 5.68066H1.99107C1.44372 5.68066 1 5.98629 1 6.36329V6.49981" stroke="#2A2C2E" stroke-opacity="0.7" stroke-width="0.5" stroke-linecap="round"/>
</svg>
