<svg width="41" height="40" viewBox="0 0 41 40" fill="none" xmlns="http://www.w3.org/2000/svg">
<circle cx="20" cy="20" r="19.25" stroke="#E8E8E8" stroke-width="1.5"/>
<circle cx="34.5" cy="6.5" r="5.25" fill="#FF0004" stroke="#FAFAFA" stroke-width="1.5"/>
<path d="M17.6867 10C17.1567 10 16.7271 10.4296 16.7271 10.9595C16.7271 11.4894 17.1567 11.919 17.6867 11.919V10ZM21.9558 11.919C22.4858 11.919 22.9154 11.4894 22.9154 10.9595C22.9154 10.4296 22.4858 10 21.9558 10V11.919ZM17.3262 26.7414C17.8562 26.7414 18.2858 26.3118 18.2858 25.7819C18.2858 25.252 17.8562 24.8224 17.3262 24.8224V26.7414ZM14.7637 25.7819L14.7533 26.7414H14.7637V25.7819ZM13.248 24.8864L14.0785 24.4053L14.0704 24.3919L13.248 24.8864ZM13.4152 19.5899L12.4555 19.5825V19.5899H13.4152ZM19.8212 13.1178L19.8144 14.0773L19.8281 14.0772L19.8212 13.1178ZM26.2273 19.5912H27.187V19.5839L26.2273 19.5912ZM26.3945 24.8851L25.5729 24.3891L25.564 24.4042L26.3945 24.8851ZM24.8787 25.7806V26.7403L24.8892 26.7401L24.8787 25.7806ZM22.3164 24.8211C21.7863 24.8211 21.3567 25.2507 21.3567 25.7806C21.3567 26.3105 21.7863 26.7401 22.3164 26.7401V24.8211ZM18.2859 25.7806C18.2859 25.2506 17.8562 24.8211 17.3262 24.8211C16.7962 24.8211 16.3666 25.2506 16.3666 25.7806H18.2859ZM17.3262 26.3986H16.3664L16.3667 26.4151L17.3262 26.3986ZM19.8213 28.8702L19.8379 27.9109C19.8268 27.9106 19.8157 27.9106 19.8045 27.9109L19.8213 28.8702ZM22.3164 26.3998L23.276 26.4167V26.3998H22.3164ZM23.276 25.7819C23.276 25.2519 22.8463 24.8224 22.3164 24.8224C21.7864 24.8224 21.3567 25.2519 21.3567 25.7819H23.276ZM17.3262 24.8224C16.7962 24.8224 16.3666 25.252 16.3666 25.782C16.3666 26.3119 16.7962 26.7414 17.3262 26.7414V24.8224ZM22.3164 26.7415C22.8463 26.7415 23.276 26.3118 23.276 25.7819C23.276 25.2519 22.8463 24.8224 22.3164 24.8224V26.7415ZM17.6867 11.919H21.9558V10H17.6867V11.919ZM17.3262 24.8224H14.7637V26.7414H17.3262V24.8224ZM14.7742 24.8225C14.4977 24.8195 14.231 24.6685 14.0785 24.4053L12.4176 25.3673C12.9016 26.2027 13.7838 26.7308 14.7533 26.7414L14.7742 24.8225ZM14.0704 24.3919C13.8969 24.1034 13.8726 23.7127 13.9998 23.0216C14.0698 22.6413 14.1378 22.3835 14.2268 21.9369C14.3038 21.5506 14.3748 21.1132 14.3748 20.6646H12.4555C12.4555 20.9234 12.4138 21.2147 12.3446 21.5619C12.2874 21.8486 12.1759 22.3287 12.1122 22.6743C11.9722 23.4348 11.8643 24.4476 12.4256 25.3808L14.0704 24.3919ZM14.3748 20.6646V19.5899H12.4555V20.6646H14.3748ZM14.3748 19.5975C14.399 16.5036 16.8559 14.0564 19.8144 14.0773L19.8281 12.1583C15.7646 12.1295 12.4876 15.4753 12.4555 19.5825L14.3748 19.5975ZM19.8281 14.0772C22.787 14.0563 25.2442 16.5042 25.2677 19.5985L27.187 19.5839C27.1556 15.4762 23.8784 12.1296 19.8144 12.1583L19.8281 14.0772ZM25.2677 19.5912V20.6633H27.187V19.5912H25.2677ZM25.2677 20.6633C25.2677 21.113 25.3386 21.5511 25.4156 21.9381C25.5048 22.3867 25.5724 22.6425 25.6426 23.0242C25.77 23.7162 25.745 24.1041 25.5729 24.3891L27.2159 25.3811C27.7786 24.4495 27.6701 23.4365 27.5303 22.6768C27.4668 22.3326 27.3549 21.8499 27.2979 21.5638C27.2288 21.2161 27.187 20.9236 27.187 20.6633H25.2677ZM25.564 24.4042C25.4117 24.6674 25.1449 24.8182 24.8682 24.8213L24.8892 26.7401C25.8587 26.7295 26.7408 26.2014 27.2249 25.366L25.564 24.4042ZM24.8787 24.8211H22.3164V26.7401L24.8787 26.7403V24.8211ZM16.3666 25.7806L16.3664 26.3986H18.2859V25.7806H16.3666ZM16.3667 26.4151C16.3993 28.3108 17.9308 29.8626 19.8379 29.8295L19.8045 27.9109C19.0029 27.9248 18.3008 27.264 18.2858 26.382L16.3667 26.4151ZM19.8045 29.8295C21.711 29.8626 23.2425 28.3118 23.276 26.4167L21.3569 26.3828C21.3412 27.2645 20.6393 27.9248 19.8379 27.9109L19.8045 29.8295ZM23.276 26.3998V25.7819H21.3567V26.3998H23.276ZM17.3262 26.7414L22.3164 26.7415V24.8224H17.3262V26.7414Z" fill="white"/>
</svg>
