<svg width="12" height="12" viewBox="0 0 12 12" fill="none" xmlns="http://www.w3.org/2000/svg">
<path d="M5.05443 1.88474C4.54526 2.9236 4.12643 3.77358 4.12233 3.77358C4.11822 3.77358 3.28878 3.89265 2.27455 4.04048C1.26444 4.1883 0.35287 4.31969 0.250216 4.33201C0.147562 4.34844 0.040802 4.37307 0.0120589 4.38539C-0.0413212 4.41414 -0.000259672 4.4552 1.94606 6.34814L2.9685 7.34183L2.77551 8.46281C2.67285 9.07874 2.51271 10.0067 2.42238 10.5241C2.33204 11.0374 2.26634 11.4685 2.27455 11.4808C2.28687 11.4891 3.12042 11.062 4.13054 10.5323C5.13655 9.99852 5.97831 9.56326 5.99884 9.56326C6.01937 9.56326 6.52033 9.81785 7.11572 10.1299C7.71111 10.442 8.47486 10.8444 8.81157 11.021C9.15238 11.1934 9.48908 11.3782 9.56299 11.4193C9.6369 11.4644 9.71081 11.4932 9.72313 11.4808C9.73545 11.4685 9.58352 10.5323 9.39053 9.40312L9.0374 7.35004L9.99003 6.41384C10.5156 5.90057 11.1972 5.23537 11.5011 4.93562C11.8707 4.57017 12.0349 4.3895 11.9938 4.37307C11.961 4.36486 11.0289 4.22525 9.92434 4.06511C8.64321 3.88444 7.9 3.75715 7.86715 3.7243C7.84251 3.69556 7.41547 2.84558 6.92273 1.83547C6.42588 0.82535 6.01116 1.13678e-05 5.99884 1.13678e-05C5.98653 1.13678e-05 5.56359 0.849987 5.05443 1.88474ZM6.77901 2.64849C7.19374 3.49846 7.55508 4.20062 7.57972 4.20883C7.60025 4.21704 8.37631 4.33612 9.3002 4.47162C10.2241 4.60713 10.9837 4.7221 10.9919 4.73031C11.0001 4.73442 10.454 5.27643 9.78062 5.92931C9.10721 6.5863 8.54466 7.13652 8.53645 7.16116C8.52413 7.18169 8.64732 7.95365 8.80335 8.87343C8.96349 9.79321 9.08257 10.557 9.07025 10.5734C9.05383 10.5857 8.35989 10.2367 7.52634 9.79732L6.00295 8.99661L4.47956 9.79732C3.64191 10.2367 2.94386 10.5857 2.93154 10.5734C2.91101 10.5528 2.97671 10.1381 3.30931 8.21644L3.48998 7.17758L2.55788 6.26602C2.04461 5.76506 1.48207 5.21484 1.30961 5.05059C1.13304 4.88224 0.993432 4.73852 1.00164 4.73031C1.00986 4.7262 1.71612 4.61534 2.5702 4.49215C3.42839 4.36486 4.20034 4.254 4.28657 4.23757L4.44671 4.21293L5.21457 2.66081C5.6334 1.80672 5.98653 1.10868 5.99884 1.10457C6.01116 1.10457 6.36429 1.79851 6.77901 2.64849Z" fill="black"/>
</svg>
