<svg width="40" height="40" viewBox="0 0 40 40" fill="none" xmlns="http://www.w3.org/2000/svg">
<g clip-path="url(#clip0_1359_2132)">
<path d="M32.3599 40.0001H7.64018C6.80534 40.0001 6.12854 39.3233 6.12854 38.4885V33.6942C6.12854 26.0455 12.3513 19.8228 20 19.8228C27.6488 19.8228 33.8715 26.0455 33.8715 33.6942V38.4885C33.8716 39.3233 33.1948 40.0001 32.3599 40.0001Z" fill="#54596E"/>
<path d="M20 19.8228V40.0001H32.3598C33.1947 40.0001 33.8715 39.3233 33.8715 38.4885V33.6942C33.8716 26.0455 27.6488 19.8228 20 19.8228Z" fill="#54596E"/>
<path d="M29.4871 23.5842C24.1592 18.5815 15.8697 18.5545 10.5131 23.5842C10.7453 23.8165 18.6981 31.7693 18.9313 32.0024C19.2264 32.2976 19.6133 32.4452 20.0001 32.4452C20.387 32.4452 20.7738 32.2977 21.0689 32.0024C21.3019 31.7694 29.2199 23.8513 29.4871 23.5842Z" fill="#FFEAB2"/>
<path d="M20 18.6304C14.8652 18.6304 10.6877 14.4529 10.6877 9.31813C10.6877 4.18336 14.8652 0.00585938 20 0.00585938C25.1348 0.00585938 29.3123 4.18328 29.3123 9.31805C29.3123 14.4528 25.1349 18.6304 20 18.6304Z" fill="#FFEAB2"/>
<path d="M20 0.00585938V18.6303C25.1348 18.6303 29.3123 14.4528 29.3123 9.31805C29.3123 4.1832 25.1348 0.00585938 20 0.00585938Z" fill="#FFE08C"/>
<path d="M28.9044 6.5877C25.8356 -3.43098 10.6877 -1.43355 10.6877 9.31801C10.6877 10.0045 10.7652 10.6961 10.918 11.3737C11.1226 12.2803 12.0895 12.7885 12.9514 12.4457C15.0627 11.6057 16.8922 10.1869 18.2389 8.37441C18.7951 8.72176 19.3932 9.01457 20.0277 9.24457C22.8021 10.2504 25.8123 9.90941 28.285 8.29652C28.8491 7.92855 29.1017 7.23176 28.9044 6.5877Z" fill="#54596E"/>
<path d="M29.4871 23.5843C26.8576 21.1152 23.4927 19.8228 20 19.8228V32.4451C20.3869 32.4451 20.7737 32.2976 21.0688 32.0024L29.4871 23.5843Z" fill="#FFE08C"/>
<path d="M28.9044 6.58773C27.6528 2.50195 23.9277 0.0101562 20 0V9.23414C20.0093 9.23758 20.0184 9.24117 20.0276 9.24461C22.802 10.2505 25.8122 9.90945 28.2849 8.29656C28.8491 7.92859 29.1017 7.2318 28.9044 6.58773Z" fill="#54596E"/>
</g>
<defs>
<clipPath id="clip0_1359_2132">
<rect width="40" height="40" fill="white"/>
</clipPath>
</defs>
</svg>
