<svg width="45" height="45" viewBox="0 0 45 45" fill="none" xmlns="http://www.w3.org/2000/svg">
<path d="M41.1417 21.7656V31.4873C41.1416 31.6846 41.0625 31.8742 40.923 32.0137C40.7834 32.153 40.5938 32.2314 40.3966 32.2314H39.4611C39.1956 31.2055 38.6606 30.2592 37.8986 29.4971C36.8457 28.4442 35.4412 27.8234 33.9611 27.75L33.6642 27.7432C32.0759 27.7432 30.5529 28.374 29.4298 29.4971C28.6677 30.2592 28.1328 31.2055 27.8673 32.2314H17.0187C16.7532 31.2056 16.2182 30.2592 15.4562 29.4971C14.4034 28.4443 12.9987 27.8235 11.5187 27.75L11.2218 27.7432C9.63354 27.7432 8.10952 28.374 6.98645 29.4971C6.22447 30.2592 5.68938 31.2056 5.42395 32.2314H4.4884C4.29109 32.2314 4.10157 32.1532 3.96204 32.0137C3.82253 31.8742 3.74434 31.6846 3.74426 31.4873V21.7656H41.1417Z" fill="#F3FE21" stroke="#95A0D1" stroke-width="3"/>
<path d="M6.57572 33.7314H4.48854C3.89332 33.7314 3.32248 33.4949 2.9016 33.074C2.48071 32.6532 2.24426 32.0823 2.24426 31.4871V9.04433C2.24426 8.44911 2.48071 7.87827 2.9016 7.45739C3.32248 7.03651 3.89332 6.80006 4.48854 6.80006H36.5368C37.0073 6.79884 37.4663 6.94553 37.8489 7.21938C38.2315 7.49323 38.5183 7.8804 38.6689 8.32616L42.6413 19.9291C42.713 20.1541 42.7508 20.3886 42.7535 20.6248V31.4871C42.7535 32.0823 42.517 32.6532 42.0961 33.074C41.6752 33.4949 41.1044 33.7314 40.5092 33.7314H38.4893" stroke="#95A0D1" stroke-width="3" stroke-linecap="round" stroke-linejoin="round"/>
<path d="M29.0409 33.7316H15.9792M42.4617 20.266H2.24426M29.1756 6.80029V20.266M11.2214 29.2431C10.3336 29.2431 9.4658 29.5063 8.72766 29.9995C7.98952 30.4927 7.41421 31.1937 7.07449 32.0139C6.73476 32.8341 6.64587 33.7366 6.81906 34.6073C6.99225 35.478 7.41975 36.2778 8.04748 36.9055C8.67522 37.5332 9.475 37.9607 10.3457 38.1339C11.2164 38.3071 12.1189 38.2182 12.9391 37.8785C13.7592 37.5388 14.4603 36.9635 14.9535 36.2253C15.4467 35.4872 15.7099 34.6194 15.7099 33.7316C15.7099 32.5412 15.237 31.3995 14.3953 30.5577C13.5535 29.716 12.4118 29.2431 11.2214 29.2431ZM33.6641 29.2431C32.7764 29.2431 31.9086 29.5063 31.1704 29.9995C30.4323 30.4927 29.857 31.1937 29.5173 32.0139C29.1775 32.8341 29.0886 33.7366 29.2618 34.6073C29.435 35.478 29.8625 36.2778 30.4903 36.9055C31.118 37.5332 31.9178 37.9607 32.7885 38.1339C33.6592 38.3071 34.5617 38.2182 35.3818 37.8785C36.202 37.5388 36.903 36.9635 37.3962 36.2253C37.8894 35.4872 38.1527 34.6194 38.1527 33.7316C38.1527 32.5412 37.6798 31.3995 36.838 30.5577C35.9963 29.716 34.8546 29.2431 33.6641 29.2431Z" stroke="#95A0D1" stroke-width="3" stroke-linecap="round" stroke-linejoin="round"/>
</svg>
