<svg width="59" height="68" viewBox="0 0 59 68" fill="none" xmlns="http://www.w3.org/2000/svg">
<path d="M45.6164 51.5994H13.6949C8.47193 51.5994 4.24384 55.1308 4.24384 59.4949V66.3574H53.9861V58.5884C53.9861 54.7618 50.2446 51.5994 45.6164 51.5994Z" fill="#800080" stroke="#54596E" stroke-width="2" stroke-linecap="round" stroke-linejoin="round"/>
<path d="M11.814 62.1406V65.3031" stroke="#54596E" stroke-width="2" stroke-linecap="round" stroke-linejoin="round"/>
<path d="M46.4173 62.1406V65.3031" stroke="#54596E" stroke-width="2" stroke-linecap="round" stroke-linejoin="round"/>
<path d="M24.7894 44.2205H33.4403V54.7619C33.4403 55.8802 32.9846 56.9527 32.1734 57.7435C31.3622 58.5343 30.262 58.9785 29.1148 58.9785C27.9677 58.9785 26.8675 58.5343 26.0563 57.7435C25.2451 56.9527 24.7894 55.8802 24.7894 54.7619V44.2205Z" fill="#FFD578" stroke="#54596E" stroke-width="2" stroke-linecap="round" stroke-linejoin="round"/>
<path d="M45.0106 17.6762C44.4699 10.7399 38.2089 7.32446 29.1147 7.32446C20.0205 7.32446 13.7594 10.7399 13.2187 17.6762L8.56889 40.646C8.46844 41.3376 8.51815 42.042 8.7148 42.7136C8.91145 43.3853 9.25066 44.0091 9.71045 44.5448C10.1702 45.0805 10.7403 45.516 11.3838 45.8232C12.0273 46.1303 12.7298 46.3023 13.4458 46.3279H44.8051C45.5193 46.2994 46.2194 46.1254 46.8603 45.8169C47.5012 45.5085 48.0687 45.0726 48.5262 44.5372C48.9836 44.0019 49.3209 43.379 49.5163 42.7088C49.7117 42.0386 49.7608 41.3359 49.6604 40.646L45.0106 17.6762Z" fill="#FFF35F" stroke="#54596E" stroke-width="2" stroke-linecap="round" stroke-linejoin="round"/>
<path d="M44.2541 32.6241C46.643 32.6241 48.5795 30.7363 48.5795 28.4075C48.5795 26.0787 46.643 24.1909 44.2541 24.1909C41.8653 24.1909 39.9287 26.0787 39.9287 28.4075C39.9287 30.7363 41.8653 32.6241 44.2541 32.6241Z" fill="#FFD578" stroke="#54596E" stroke-width="2" stroke-linecap="round" stroke-linejoin="round"/>
<path d="M13.976 32.6241C16.3649 32.6241 18.3014 30.7363 18.3014 28.4075C18.3014 26.0787 16.3649 24.1909 13.976 24.1909C11.5871 24.1909 9.65057 26.0787 9.65057 28.4075C9.65057 30.7363 11.5871 32.6241 13.976 32.6241Z" fill="#FFD578" stroke="#54596E" stroke-width="2" stroke-linecap="round" stroke-linejoin="round"/>
<path d="M12.8954 16.8123H45.3361V35.7869C45.3361 39.9805 43.6272 44.0024 40.5853 46.9678C37.5434 49.9331 33.4177 51.5991 29.1158 51.5991C24.8139 51.5991 20.6882 49.9331 17.6463 46.9678C14.6044 44.0024 12.8954 39.9805 12.8954 35.7869V16.8123Z" fill="#FFD578" stroke="#54596E" stroke-width="2" stroke-linecap="round" stroke-linejoin="round"/>
<path d="M19.9235 30.5164C20.8193 30.5164 21.5455 29.8085 21.5455 28.9352C21.5455 28.0619 20.8193 27.354 19.9235 27.354C19.0277 27.354 18.3015 28.0619 18.3015 28.9352C18.3015 29.8085 19.0277 30.5164 19.9235 30.5164Z" fill="#54596E"/>
<path d="M38.3072 30.5164C39.203 30.5164 39.9292 29.8085 39.9292 28.9352C39.9292 28.0619 39.203 27.354 38.3072 27.354C37.4113 27.354 36.6851 28.0619 36.6851 28.9352C36.6851 29.8085 37.4113 30.5164 38.3072 30.5164Z" fill="#54596E"/>
<path d="M28.0339 41.0574H30.1966" stroke="#FF927D" stroke-width="2" stroke-linecap="round" stroke-linejoin="round"/>
<path d="M24.7894 40.0032H33.4403" stroke="#FF927D" stroke-width="2" stroke-linecap="round" stroke-linejoin="round"/>
<path d="M29.1149 66.3571V58.978" stroke="#54596E" stroke-width="2" stroke-linecap="round" stroke-linejoin="round"/>
<path d="M24.7896 60.0325L19.3828 62.1408L18.3015 51.5994H24.7896V60.0325Z" fill="white" stroke="#54596E" stroke-width="2" stroke-linecap="round" stroke-linejoin="round"/>
<path d="M33.4399 60.0325L38.8467 62.1408L39.928 51.5994H33.4399V60.0325Z" fill="white" stroke="#54596E" stroke-width="2" stroke-linecap="round" stroke-linejoin="round"/>
<path d="M45.3361 7.32446H12.8954V23.1367H45.3361V7.32446Z" fill="#800080" stroke="#54596E" stroke-width="2" stroke-linecap="round" stroke-linejoin="round"/>
<path d="M29.1152 1L1 7.32489L29.1152 13.6498L57.2304 7.32489L29.1152 1Z" fill="#800080" stroke="#54596E" stroke-width="2" stroke-linecap="round" stroke-linejoin="round"/>
<path d="M52.9045 18.9203V8.37891" stroke="#61C5A8" stroke-width="2" stroke-linecap="round" stroke-linejoin="round"/>
<path d="M55.068 22.0831L52.9053 18.9207L50.7426 22.0831" stroke="#61C5A8" stroke-width="2" stroke-linecap="round" stroke-linejoin="round"/>
<path d="M37.7665 37.8956C38.3637 37.8956 38.8478 37.4237 38.8478 36.8415C38.8478 36.2593 38.3637 35.7874 37.7665 35.7874C37.1693 35.7874 36.6851 36.2593 36.6851 36.8415C36.6851 37.4237 37.1693 37.8956 37.7665 37.8956Z" fill="#FF927D"/>
<path d="M19.3828 38.9498C19.98 38.9498 20.4642 38.4779 20.4642 37.8957C20.4642 37.3135 19.98 36.8416 19.3828 36.8416C18.7856 36.8416 18.3015 37.3135 18.3015 37.8957C18.3015 38.4779 18.7856 38.9498 19.3828 38.9498Z" fill="#FF927D"/>
<path d="M17.2203 36.8412C17.8175 36.8412 18.3016 36.3692 18.3016 35.7871C18.3016 35.2049 17.8175 34.7329 17.2203 34.7329C16.6231 34.7329 16.1389 35.2049 16.1389 35.7871C16.1389 36.3692 16.6231 36.8412 17.2203 36.8412Z" fill="#FF927D"/>
<path d="M21.5458 34.7326C22.143 34.7326 22.6272 34.2606 22.6272 33.6784C22.6272 33.0962 22.143 32.6243 21.5458 32.6243C20.9486 32.6243 20.4645 33.0962 20.4645 33.6784C20.4645 34.2606 20.9486 34.7326 21.5458 34.7326Z" fill="#FF927D"/>
<path d="M35.603 34.7326C36.2002 34.7326 36.6843 34.2606 36.6843 33.6784C36.6843 33.0962 36.2002 32.6243 35.603 32.6243C35.0057 32.6243 34.5216 33.0962 34.5216 33.6784C34.5216 34.2606 35.0057 34.7326 35.603 34.7326Z" fill="#FF927D"/>
<path d="M39.9283 34.7326C40.5256 34.7326 41.0097 34.2606 41.0097 33.6784C41.0097 33.0962 40.5256 32.6243 39.9283 32.6243C39.3311 32.6243 38.847 33.0962 38.847 33.6784C38.847 34.2606 39.3311 34.7326 39.9283 34.7326Z" fill="#FF927D"/>
</svg>
