<svg width="40" height="40" viewBox="0 0 40 40" fill="none" xmlns="http://www.w3.org/2000/svg">
<path d="M13.292 17.3911H9.31689V21.3665H13.292V17.3911Z" fill="#5A9A9A"/>
<path d="M30.6831 17.3911H26.7081V21.3665H30.6831V17.3911Z" fill="#5A9A9A"/>
<path d="M24.8862 17.3911H20.9111V21.3665H24.8862V17.3911Z" fill="#5A9A9A"/>
<path d="M13.292 23.6023H9.31689V27.5777H13.292V23.6023Z" fill="#5A9A9A"/>
<path d="M24.8862 23.6023H20.9111V27.5777H24.8862V23.6023Z" fill="#5A9A9A"/>
<path d="M19.0892 23.6023H15.1141V27.5777H19.0892V23.6023Z" fill="#5A9A9A"/>
<path d="M30.6831 29.8135H26.7081V33.7889H30.6831V29.8135Z" fill="#5A9A9A"/>
<path d="M24.8862 29.8135H20.9111V33.7889H24.8862V29.8135Z" fill="#5A9A9A"/>
<path d="M19.0892 29.8135H15.1141V33.7889H19.0892V29.8135Z" fill="#5A9A9A"/>
<path d="M34.3185 4.30054H31.086V7.39976C31.086 8.55616 30.1333 9.49663 28.9624 9.49663H24.7417C23.5707 9.49663 22.6181 8.55616 22.6181 7.39976V4.30054H17.3763V7.37062C17.3763 8.54312 16.4131 9.49663 15.2292 9.49663H11.0554C9.87142 9.49663 8.90821 8.54312 8.90821 7.37062V4.30054H5.67571C3.57368 4.30054 1.86353 5.99523 1.86353 8.07819V36.2224C1.86353 38.3053 3.57368 40.0001 5.67571 40.0001H34.3185C36.4238 40.0001 38.1365 38.3054 38.1365 36.2224V8.07819C38.1365 5.9953 36.4238 4.30054 34.3185 4.30054ZM35.4037 36.1491C35.4037 36.8178 34.9544 37.267 34.2856 37.267H5.71438C5.04563 37.267 4.59634 36.8178 4.59634 36.1491V13.9133H35.4037V36.1491Z" fill="#5A9A9A"/>
<path d="M11.0567 8.00836H15.2279C15.5811 8.00836 15.8685 7.72297 15.8685 7.37211V1.60102C15.8685 0.718203 15.1443 0 14.2539 0H12.0306C11.1403 0 10.4159 0.718125 10.4159 1.60102V7.37211C10.416 7.72297 10.7033 8.00836 11.0567 8.00836Z" fill="#5A9A9A"/>
<path d="M24.7416 8.00836H28.9623C29.302 8.00836 29.5783 7.73391 29.5783 7.39696V1.57641C29.5783 0.707266 28.8652 0 27.9884 0H25.7156C24.839 0 24.1259 0.707266 24.1259 1.57641V7.39696C24.1258 7.73391 24.4021 8.00836 24.7416 8.00836Z" fill="#5A9A9A"/>
</svg>
