<svg width="40" height="40" viewBox="0 0 40 40" fill="none" xmlns="http://www.w3.org/2000/svg">
<g clip-path="url(#clip0_1359_2103)">
<path d="M31.6667 40H10C9.11597 40 8.26812 39.6488 7.643 39.0237C7.01788 38.3986 6.66669 37.5507 6.66669 36.6667V3.33333C6.66669 2.44928 7.01788 1.60143 7.643 0.976311C8.26812 0.35119 9.11597 0 10 0L31.6667 0C32.5507 0 33.3986 0.35119 34.0237 0.976311C34.6488 1.60143 35 2.44928 35 3.33333V36.6667C35 37.5507 34.6488 38.3986 34.0237 39.0237C33.3986 39.6488 32.5507 40 31.6667 40ZM10 3.33333V36.6667H31.6667V3.33333H10Z" fill="#7D95D0"/>
<path d="M31.6667 5.83325H10V9.16659H31.6667V5.83325Z" fill="#7D95D0"/>
<path d="M22.5 34.1666H19.1667C18.7246 34.1666 18.3007 33.991 17.9882 33.6784C17.6756 33.3659 17.5 32.9419 17.5 32.4999C17.5 32.0579 17.6756 31.634 17.9882 31.3214C18.3007 31.0088 18.7246 30.8333 19.1667 30.8333H22.5C22.942 30.8333 23.366 31.0088 23.6785 31.3214C23.9911 31.634 24.1667 32.0579 24.1667 32.4999C24.1667 32.9419 23.9911 33.3659 23.6785 33.6784C23.366 33.991 22.942 34.1666 22.5 34.1666Z" fill="#7D95D0"/>
<path d="M31.6667 25H10V28.3333H31.6667V25Z" fill="#7D95D0"/>
<path d="M16.6667 23.3334C16.3744 23.3331 16.0873 23.2559 15.8343 23.1097C15.5813 22.9634 15.3711 22.7532 15.225 22.5001L12.3833 17.3917L10.5667 20.1167C10.4103 20.3422 10.2007 20.5256 9.95652 20.6506C9.71229 20.7756 9.44098 20.8384 9.16667 20.8334H1.66667C1.22464 20.8334 0.800716 20.6578 0.488155 20.3452C0.175595 20.0327 0 19.6087 0 19.1667C0 18.7247 0.175595 18.3008 0.488155 17.9882C0.800716 17.6756 1.22464 17.5001 1.66667 17.5001H8.275L11.1167 13.2417C11.2754 13.0045 11.4925 12.812 11.747 12.6827C12.0015 12.5534 12.285 12.4916 12.5702 12.5033C12.8554 12.515 13.1329 12.5998 13.376 12.7495C13.619 12.8993 13.8196 13.1089 13.9583 13.3584L16.6667 18.3334L21.025 10.8334C21.1739 10.5753 21.3893 10.3619 21.6487 10.2153C21.9081 10.0688 22.2021 9.99443 22.5 10.0001C22.7909 10.0018 23.0762 10.0797 23.3276 10.2258C23.5791 10.372 23.7879 10.5815 23.9333 10.8334L27.925 17.5001L29.5917 16.1834C29.8871 15.9541 30.251 15.8308 30.625 15.8334H38.3333C38.7754 15.8334 39.1993 16.009 39.5118 16.3215C39.8244 16.6341 40 17.058 40 17.5001C40 17.9421 39.8244 18.366 39.5118 18.6786C39.1993 18.9911 38.7754 19.1667 38.3333 19.1667H31.2083L28.5 21.3084C28.3134 21.4619 28.0956 21.573 27.8618 21.634C27.628 21.695 27.3837 21.7044 27.1459 21.6616C26.9081 21.6188 26.6825 21.5248 26.4846 21.3861C26.2867 21.2474 26.1214 21.0673 26 20.8584L22.5 14.9501L18.1083 22.5001C17.9622 22.7532 17.7521 22.9634 17.499 23.1097C17.246 23.2559 16.9589 23.3331 16.6667 23.3334Z" fill="#FF927D"/>
</g>
<defs>
<clipPath id="clip0_1359_2103">
<rect width="40" height="40" fill="white"/>
</clipPath>
</defs>
</svg>
