<svg width="49" height="37" viewBox="0 0 49 37" fill="none" xmlns="http://www.w3.org/2000/svg">
<path d="M5.5672 7.1748V8.95508H3.41583C3.26502 8.95508 3.0729 9.0405 2.91388 9.18262C2.75382 9.32568 2.66103 9.49542 2.66095 9.63477V29.1572C2.66095 31.0513 4.37988 32.491 6.30743 32.4912H20.7693C22.0754 32.4914 22.903 33.6931 22.9031 34.9414V35.0273H25.5096V34.9414C25.5097 34.2957 25.8177 33.6836 26.2762 33.2354C26.7347 32.7871 27.3562 32.4912 27.9998 32.4912H42.4608L42.6375 32.4863C44.4536 32.4014 45.7518 31.0105 45.7518 29.1572V9.63477C45.7517 9.45081 45.7161 9.2714 45.6453 9.14355C45.5779 9.02197 45.485 8.95508 45.3524 8.95508H42.8445V7.1748H45.3524C46.66 7.1748 47.4783 8.3879 47.4783 9.63477V29.1572L47.4725 29.4248C47.344 32.1641 45.2462 34.2177 42.4608 34.2178H27.9998C27.8534 34.2178 27.6602 34.3105 27.4969 34.4648C27.3331 34.6197 27.2373 34.8008 27.2371 34.9414V35.3037L27.2313 35.4609C27.2042 35.8204 27.0822 36.1289 26.866 36.3564C26.6179 36.6176 26.261 36.7549 25.8299 36.7549H22.9383C22.5101 36.7549 22.0744 36.6196 21.743 36.373C21.4099 36.1251 21.1757 35.7587 21.1756 35.3037V34.9414L21.1688 34.8037C21.1549 34.6658 21.1202 34.5313 21.0643 34.4258C20.9917 34.2888 20.8955 34.2179 20.7693 34.2178H6.30743C3.44624 34.2175 0.933411 32.0426 0.933411 29.1572V9.63477C0.933469 8.98945 1.23969 8.37539 1.69611 7.9248C2.15255 7.47426 2.77177 7.1748 3.41583 7.1748H5.5672Z" fill="#FFC061" stroke="#FFC061" stroke-width="0.3"/>
<path d="M20.7357 13.6758V15.4561H11.7679V13.6758H20.7357ZM36.6439 13.6758V15.4561H27.6761V13.6758H36.6439ZM20.7357 10.4521V12.1787H11.7679V10.4521H20.7357ZM36.6439 10.4521V12.1787H27.6761V10.4521H36.6439ZM20.7357 7.1748V8.95508H11.7679V7.1748H20.7357ZM36.6439 7.1748V8.95508H27.6761V7.1748H36.6439Z" fill="#FFC061" stroke="#FFC061" stroke-width="0.3"/>
<path d="M19.6846 1.04419C21.6616 1.04424 23.3949 2.08292 24.3838 3.63794C25.3727 2.08267 27.1068 1.04423 29.084 1.04419H37.7607L37.918 1.04907C39.5299 1.13913 40.6084 2.60893 40.6084 4.21216V4.32153H41.376C42.1286 4.32153 42.7598 4.70061 43.1982 5.28052C43.6354 5.8588 43.8847 6.64009 43.8848 7.46606V26.9885C43.8847 29.0541 42.459 30.6241 40.4727 30.6243H27.2764C26.1668 30.6244 25.2579 31.6103 25.2578 32.6409V32.7913H23.5117V32.6409C23.5116 31.6103 22.6018 30.6243 21.4922 30.6243H8.2959C6.3297 30.624 4.52744 29.0743 4.52734 26.9885V7.46606C4.52734 6.62753 4.87421 5.843 5.40137 5.2688C5.92787 4.69539 6.64467 4.32153 7.39258 4.32153H7.80469V4.21216C7.8047 2.53229 9.33251 1.04419 11.0078 1.04419H19.6846ZM40.6074 24.8196C40.6073 25.652 40.3192 26.3774 39.8145 26.8958C39.3093 27.4145 38.5955 27.717 37.7607 27.717H29.084C27.9385 27.7171 26.9087 28.2369 26.2061 29.0432C26.5465 28.9458 26.9054 28.8967 27.2764 28.8967H40.4727C40.978 28.8966 41.3811 28.6996 41.6602 28.3694C41.9062 28.0782 42.0625 27.6757 42.0977 27.1975L42.1045 26.9885V7.46606C42.1045 7.08976 42.0343 6.72253 41.9014 6.45532C41.7682 6.18778 41.5899 6.04812 41.376 6.0481H40.6074V24.8196ZM7.39258 6.0481C7.16068 6.0481 6.8765 6.208 6.64258 6.48462C6.41183 6.75757 6.25488 7.11688 6.25488 7.46606V26.9885L6.2666 27.1907C6.38151 28.1837 7.32997 28.8965 8.2959 28.8967H21.4922C21.8628 28.8967 22.2213 28.946 22.5615 29.0432C21.859 28.2372 20.8298 27.7171 19.6846 27.717H11.0078C9.35157 27.717 7.80493 26.5167 7.80469 24.8196V6.0481H7.39258ZM28.8867 2.77661C26.8551 2.88791 25.0696 4.70053 25.0693 6.74243V27.6711C26.1664 26.6998 27.5803 25.9905 29.084 25.9905H37.7607C38.1254 25.9905 38.401 25.8717 38.5859 25.676C38.7718 25.4793 38.8808 25.1889 38.8809 24.8196V4.21216C38.8809 3.84091 38.7708 3.47522 38.5742 3.2063C38.3796 2.94007 38.1037 2.77173 37.7607 2.77173H29.084L28.8867 2.77661ZM10.875 2.77954C10.5652 2.81715 10.2501 2.98296 10 3.22583C9.7498 3.46884 9.57887 3.77537 9.54004 4.0813L9.53125 4.21216V24.8196C9.53139 25.1611 9.70757 25.4507 9.98535 25.6594C10.2648 25.8694 10.6397 25.9905 11.0078 25.9905H19.6846C21.127 25.9905 22.514 26.6429 23.3428 27.5754V6.74243C23.3426 4.61685 21.7793 2.77185 19.6846 2.77173H11.0078L10.875 2.77954Z" fill="#FFC061" stroke="#FFC061" stroke-width="0.3"/>
<path d="M19.8626 16.9524C20.3447 16.9524 20.7354 17.3434 20.7357 17.8254V20.7131C20.7357 21.1953 20.3448 21.5862 19.8626 21.5862H12.6409C12.1589 21.586 11.7679 21.1952 11.7679 20.7131V17.8254C11.7681 17.3436 12.1591 16.9526 12.6409 16.9524H19.8626ZM35.7708 16.9524C36.2529 16.9524 36.6436 17.3434 36.6439 17.8254V20.7131C36.6439 21.1953 36.253 21.5862 35.7708 21.5862H28.5491C28.0671 21.586 27.6761 21.1952 27.6761 20.7131V17.8254C27.6763 17.3436 28.0673 16.9526 28.5491 16.9524H35.7708Z" fill="#FFC061" stroke="#FFC061" stroke-width="0.3"/>
</svg>
