<svg width="44" height="44" viewBox="0 0 44 44" fill="none" xmlns="http://www.w3.org/2000/svg">
<path d="M9.16669 21.0833C9.16669 17.6264 9.16669 15.8979 10.2406 14.8239C11.3146 13.75 13.043 13.75 16.5 13.75H27.5C30.9569 13.75 32.6854 13.75 33.7594 14.8239C34.8333 15.8979 34.8333 17.6264 34.8333 21.0833V22.9167C34.8333 26.3736 34.8333 28.1021 33.7594 29.176C32.6854 30.25 30.9569 30.25 27.5 30.25H16.5C13.043 30.25 11.3146 30.25 10.2406 29.176C9.16669 28.1021 9.16669 26.3736 9.16669 22.9167V21.0833Z" stroke="#FFD578" stroke-width="3"/>
<path opacity="0.5" d="M34.8333 3.66675V4.58341C34.8333 7.11472 32.7813 9.16675 30.25 9.16675H13.75C11.2187 9.16675 9.16669 7.11472 9.16669 4.58341V3.66675" stroke="#1C274C" stroke-width="3" stroke-linecap="round"/>
<path opacity="0.5" d="M34.8333 40.3333V39.4166C34.8333 36.8853 32.7813 34.8333 30.25 34.8333H13.75C11.2187 34.8333 9.16669 36.8853 9.16669 39.4166V40.3333" stroke="#1C274C" stroke-width="3" stroke-linecap="round"/>
</svg>
