<svg width="42" height="62" viewBox="0 0 42 62" fill="none" xmlns="http://www.w3.org/2000/svg">
<g clip-path="url(#clip0_1359_2176)">
<path d="M22.8343 27.3777H18.3174V33.0468H22.8343V27.3777Z" fill="white"/>
<path d="M10.3783 16.9094H5.026V33.0469H10.3783V16.9094Z" fill="#56ACE0"/>
<path d="M36.1199 16.9094H30.7676V33.0469H36.1199V16.9094Z" fill="#56ACE0"/>
<path d="M12.3256 33.0528H16.3758V26.4157C16.3758 25.8799 16.8078 25.4421 17.3494 25.4421H23.8136C24.3494 25.4421 24.7872 25.8741 24.7872 26.4157V33.0528H28.8317V9.01074H12.3256V33.0528Z" fill="#FFC10D"/>
<path d="M20.5758 21.5704C23.0545 21.5704 25.0639 19.5611 25.0639 17.0823C25.0639 14.6036 23.0545 12.5942 20.5758 12.5942C18.0971 12.5942 16.0877 14.6036 16.0877 17.0823C16.0877 19.5611 18.0971 21.5704 20.5758 21.5704Z" fill="white"/>
<path d="M20.5759 10.595C16.9923 10.595 14.0886 13.4987 14.0886 17.0822C14.0886 20.6658 16.9923 23.5695 20.5759 23.5695C24.1594 23.5695 27.0631 20.6658 27.0631 17.0822C27.0631 13.4987 24.1594 10.595 20.5759 10.595ZM20.5759 21.5702C18.0985 21.5702 16.0878 19.5595 16.0878 17.0821C16.0878 14.6048 18.0985 12.594 20.5759 12.594C23.0532 12.594 25.064 14.6048 25.064 17.0821C25.064 19.5595 23.0532 21.5702 20.5759 21.5702Z" fill="#194F82"/>
<path d="M7.70509 21.34C8.24088 21.34 8.67873 20.9079 8.67873 20.3663V19.2371C8.67873 18.7013 8.24667 18.2634 7.70509 18.2634C7.1635 18.2634 6.73145 18.6955 6.73145 19.2371V20.3663C6.73136 20.902 7.16929 21.34 7.70509 21.34Z" fill="#194F82"/>
<path d="M7.70509 26.5192C8.24088 26.5192 8.67873 26.087 8.67873 25.5455V24.4163C8.67873 23.8805 8.24667 23.4426 7.70509 23.4426C7.1635 23.4426 6.73145 23.8747 6.73145 24.4163V25.5455C6.73136 26.0813 7.16929 26.5192 7.70509 26.5192Z" fill="#194F82"/>
<path d="M7.70509 31.6986C8.24088 31.6986 8.67873 31.2665 8.67873 30.725V29.5957C8.67873 29.0599 8.24667 28.6221 7.70509 28.6221C7.1635 28.6221 6.73145 29.0541 6.73145 29.5957V30.725C6.73136 31.2607 7.16929 31.6986 7.70509 31.6986Z" fill="#194F82"/>
<path d="M33.4466 21.34C33.9824 21.34 34.4202 20.9079 34.4202 20.3663V19.2371C34.4202 18.7013 33.9882 18.2634 33.4466 18.2634C32.9108 18.2634 32.473 18.6955 32.473 19.2371V20.3663C32.473 20.902 32.9108 21.34 33.4466 21.34Z" fill="#194F82"/>
<path d="M33.4466 26.5192C33.9824 26.5192 34.4202 26.087 34.4202 25.5455V24.4163C34.4202 23.8805 33.9882 23.4426 33.4466 23.4426C32.9108 23.4426 32.473 23.8747 32.473 24.4163V25.5455C32.473 26.0813 32.9108 26.5192 33.4466 26.5192Z" fill="#194F82"/>
<path d="M33.4466 31.6986C33.9824 31.6986 34.4202 31.2665 34.4202 30.725V29.5957C34.4202 29.0599 33.9882 28.6221 33.4466 28.6221C32.9108 28.6221 32.473 29.0541 32.473 29.5957V30.725C32.473 31.2607 32.9108 31.6986 33.4466 31.6986Z" fill="#194F82"/>
<path d="M29.3964 1.95312H11.7552L7.94122 7.06347H33.2104L29.3964 1.95312Z" fill="white"/>
<path d="M37.1023 14.968H30.7707V9.005H35.1492C35.9846 8.97042 36.3821 8.11771 35.927 7.4494L30.8513 0.645232C30.5114 0.230376 30.0275 0.0344896 29.4167 0H11.7294C11.1706 0.0287859 10.6694 0.201679 10.2949 0.645232L5.23069 7.4494C4.72368 8.23874 5.32863 9.0107 6.00844 9.005H10.387V14.968H4.05537C3.51957 14.968 3.08173 15.4 3.08173 15.9416V34.0264C3.08173 34.5622 3.51378 35 4.05537 35H37.0965C37.6323 35 38.0702 34.5679 38.0702 34.0264V15.9416C38.0702 15.4 37.6381 14.968 37.1023 14.968ZM36.1287 33.0527H30.7707V16.9094H36.123V33.0526H36.1287V33.0527ZM22.8372 27.3778V33.0469H18.3203V27.3778H22.8372ZM28.8291 33.0527H24.7789V26.4157C24.7789 25.8799 24.3468 25.442 23.8053 25.442H17.3411C16.8053 25.442 16.3674 25.8741 16.3674 26.4157V33.0527H12.323V9.0107H28.8234V33.0527H28.8291ZM7.94423 7.06342L11.7582 1.95316H29.3994L33.2134 7.06342H7.94423ZM10.387 33.0527H5.02901V16.9094H10.387V33.0527Z" fill="#194F82"/>
<path d="M18.9281 18.0561H20.5759C21.1116 18.0561 21.5495 17.624 21.5495 17.0824V14.7261C21.5495 14.1903 21.1174 13.7524 20.5759 13.7524C20.0343 13.7524 19.6022 14.1845 19.6022 14.7261V16.1088H18.9281C18.3923 16.1088 17.9545 16.5408 17.9545 17.0824C17.9602 17.6182 18.3923 18.0561 18.9281 18.0561Z" fill="#194F82"/>
</g>
<path fill-rule="evenodd" clip-rule="evenodd" d="M32.1535 43.5367C32.3638 43.3264 32.7082 43.3355 32.8999 43.5628C35.6141 46.7821 37.1663 50.8357 37.2838 55.0655C37.2917 55.3515 37.059 55.5835 36.7728 55.5835H27.438C27.1518 55.5835 26.9216 55.3515 26.9038 55.0659C26.8093 53.5576 26.3041 52.1101 25.4517 50.877C25.3033 50.6621 25.3201 50.3701 25.5047 50.1855L32.1535 43.5367ZM30.662 41.3251C30.8893 41.5168 30.8986 41.8612 30.6883 42.0715L24.0393 48.7203C23.8549 48.9049 23.5627 48.9217 23.3481 48.7734C22.3821 48.1059 21.2845 47.6513 20.1295 47.4404C19.8727 47.3935 19.6779 47.1749 19.6779 46.9138V37.511C19.6779 37.2136 19.9281 36.9766 20.2244 37.0018C24.0663 37.3289 27.714 38.8398 30.662 41.3251ZM17.6058 37.511C17.6058 37.2136 17.3559 36.9766 17.0596 37.0018C13.2177 37.3289 9.56985 38.8398 6.62195 41.3251C6.39456 41.5168 6.38536 41.8612 6.59565 42.0715L13.2446 48.7203C13.4291 48.9049 13.7212 48.9217 13.936 48.7734C14.9019 48.1059 15.9993 47.6513 17.1545 47.4404C17.4113 47.3935 17.6058 47.1749 17.6058 46.9138V37.511ZM11.8323 50.877C11.9807 50.6621 11.9638 50.3701 11.7792 50.1855L5.13041 43.5367C4.92013 43.3264 4.57574 43.3355 4.38403 43.5628C1.66986 46.7821 0.117624 50.8357 0.000197168 55.0655C-0.00773901 55.3515 0.224938 55.5835 0.511034 55.5835H9.846C10.1321 55.5835 10.3624 55.3515 10.3802 55.0659C10.4747 53.5576 10.9799 52.1101 11.8323 50.877Z" fill="#317B1D"/>
<path fill-rule="evenodd" clip-rule="evenodd" d="M19.6779 46.9139C19.6779 47.1749 19.8724 47.3935 20.1294 47.4404C21.2844 47.6513 22.3817 48.1059 23.3478 48.7734C23.5626 48.9217 23.8546 48.9049 24.0392 48.7203L30.688 42.0715C30.8983 41.8612 30.8892 41.5168 30.6619 41.3251C27.7139 38.8398 24.0662 37.3289 20.2243 37.0018C19.928 36.9766 19.6779 37.2136 19.6779 37.511V46.9139Z" fill="#317B1D"/>
<path fill-rule="evenodd" clip-rule="evenodd" d="M24.2931 51.0634C24.0735 51.2831 24.1229 51.9173 24.2775 52.1506C24.9718 53.1999 25.4176 54.4108 25.5851 55.7015C25.6225 55.9885 25.857 56.1948 26.1517 56.1788L36.7645 55.603C37.1002 55.5848 37.3831 55.2881 37.3728 54.9552C37.2388 50.639 35.7568 46.6143 33.1321 43.4393C32.9296 43.1944 32.5227 43.1891 32.2725 43.4393L24.2931 51.0634Z" fill="#CCD2D7"/>
<defs>
<clipPath id="clip0_1359_2176">
<rect width="35" height="35" fill="white" transform="translate(3.07294)"/>
</clipPath>
</defs>
</svg>
