<svg width="53" height="61" viewBox="0 0 53 61" fill="none" xmlns="http://www.w3.org/2000/svg">
<path d="M34.5535 46.3598H3.85947e-07V44.4937H34.5535C38.9829 44.4937 42.5866 48.0974 42.5866 52.5267C42.5866 55.0022 41.4605 57.2189 39.6943 58.6937H43.6071V1.86612H11.3656C10.311 1.86612 9.45312 2.72401 9.45312 3.77872V43.5334H7.58689V3.77872C7.58701 1.6952 9.28209 0 11.3656 0H53V60.5598H3.85947e-07V58.6937H33.1334H34.5535C37.954 58.6937 40.7204 55.9272 40.7204 52.5267C40.7204 49.1263 37.954 46.3598 34.5535 46.3598ZM45.4733 58.6937H47.3394V56.7653H49.2055V58.6937H51.1339V1.86612H49.2055V3.76748H47.3394V1.86612H45.4733V58.6937Z" fill="#800080"/>
<path d="M32.1553 47.3098H34.0214V57.7602H32.1553V47.3098Z" fill="#800080"/>
<path d="M1.93656 47.3098H31.2969V49.1759H1.93656V47.3098Z" fill="#800080"/>
<path d="M1.93656 50.1697H31.2969V52.0358H1.93656V50.1697Z" fill="#800080"/>
<path d="M1.93656 53.0339H31.2969V54.9001H1.93656V53.0339Z" fill="#800080"/>
<path d="M1.93656 55.8965H31.2969V57.7626H1.93656V55.8965Z" fill="#800080"/>
<path d="M35.0263 49.2003V47.3342C37.6288 47.3342 39.746 49.4516 39.746 52.054V53.0006C39.746 55.6031 37.6287 57.7203 35.0263 57.7203V55.8542C36.5996 55.8542 37.8799 54.5741 37.8799 53.0006V52.054C37.8798 50.4805 36.5996 49.2003 35.0263 49.2003Z" fill="#800080"/>
<path d="M47.339 5.6333H49.2051V54.8989H47.339V5.6333Z" fill="#800080"/>
<path d="M40.6982 7.57495V22.6944H12.3252V7.57495H40.6982ZM14.1912 20.8282H38.8319V9.44107H14.1912V20.8282Z" fill="#800080"/>
<path d="M37.8837 10.3599V13.2213H36.0176V12.226H16.9831V13.2213H15.117V10.3599H37.8837Z" fill="#800080"/>
<path d="M16.9831 17.0789V17.9496H36.0176V17.0789H37.8837V19.8158H15.117V17.0789H16.9831Z" fill="#800080"/>
<path d="M36.0186 14.2163H37.8847V16.0824H36.0186V14.2163Z" fill="#800080"/>
<path d="M15.1204 14.2163H16.9865V16.0824H15.1204V14.2163Z" fill="#800080"/>
<path d="M19.8485 14.2185H33.1602V16.0846H19.8485V14.2185Z" fill="#800080"/>
<path d="M24.5769 24.6692H40.7499V26.5353H24.5769V24.6692Z" fill="#800080"/>
<path d="M36.0224 28.4001H40.7499V30.2663H36.0224V28.4001Z" fill="#800080"/>
</svg>
