<svg width="45" height="45" viewBox="0 0 45 45" fill="none" xmlns="http://www.w3.org/2000/svg">
<path d="M15.9375 29.5142C15.9375 27.6703 17.2662 26.0996 19.0719 25.809C21.3429 25.4436 23.6571 25.4436 25.9281 25.809C27.7339 26.0996 29.0625 27.6703 29.0625 29.5142V29.9224C29.0625 31.0009 28.1955 31.875 27.1262 31.875H17.8738C16.8044 31.875 15.9375 31.0009 15.9375 29.9224V29.5142Z" stroke="#E2A8B4" stroke-width="3"/>
<path d="M26.3282 16.9853C26.3282 19.1173 24.6143 20.8455 22.5 20.8455C20.3858 20.8455 18.6719 19.1173 18.6719 16.9853C18.6719 14.8533 20.3858 13.125 22.5 13.125C24.6143 13.125 26.3282 14.8533 26.3282 16.9853Z" stroke="#E2A8B4" stroke-width="3"/>
<path d="M39.375 13.125C39.375 8.98286 35.1776 5.625 30 5.625M5.625 30C5.625 35.1776 8.98286 39.375 13.125 39.375M13.125 5.625C8.98286 5.625 5.625 8.98286 5.625 13.125M30 39.375C35.1776 39.375 39.375 35.1776 39.375 30" stroke="#E2A8B4" stroke-width="3" stroke-linecap="round"/>
</svg>
