<svg width="42" height="42" viewBox="0 0 42 42" fill="none" xmlns="http://www.w3.org/2000/svg">
<g clip-path="url(#clip0_1359_2157)">
<path d="M23.7137 32.8533H18.2934V39.6562H23.7137V32.8533Z" fill="white"/>
<path d="M8.76646 20.2913H2.34369V39.6562H8.76646V20.2913Z" fill="#56ACE0"/>
<path d="M39.6564 20.2913H33.2336V39.6562H39.6564V20.2913Z" fill="#56ACE0"/>
<path d="M11.1032 39.6632H15.9634V31.6987C15.9634 31.0557 16.4819 30.5303 17.1318 30.5303H24.8888C25.5317 30.5303 26.0572 31.0488 26.0572 31.6987V39.6632H30.9105V10.8127H11.1032V39.6632Z" fill="#FFC10D"/>
<path d="M21.0035 25.8845C23.9779 25.8845 26.3892 23.4732 26.3892 20.4988C26.3892 17.5243 23.9779 15.113 21.0035 15.113C18.029 15.113 15.6177 17.5243 15.6177 20.4988C15.6177 23.4732 18.029 25.8845 21.0035 25.8845Z" fill="white"/>
<path d="M21.0035 12.7141C16.7033 12.7141 13.2188 16.1986 13.2188 20.4988C13.2188 24.7991 16.7033 28.2835 21.0035 28.2835C25.3038 28.2835 28.7882 24.7991 28.7882 20.4988C28.7882 16.1986 25.3038 12.7141 21.0035 12.7141ZM21.0035 25.8844C18.0307 25.8844 15.6178 23.4716 15.6178 20.4987C15.6178 17.5259 18.0307 15.113 21.0035 15.113C23.9764 15.113 26.3892 17.5259 26.3892 20.4987C26.3892 23.4716 23.9764 25.8844 21.0035 25.8844Z" fill="#194F82"/>
<path d="M5.55857 25.6081C6.20152 25.6081 6.72694 25.0896 6.72694 24.4397V23.0846C6.72694 22.4417 6.20847 21.9163 5.55857 21.9163C4.90867 21.9163 4.3902 22.4347 4.3902 23.0846V24.4397C4.39009 25.0826 4.91562 25.6081 5.55857 25.6081Z" fill="#194F82"/>
<path d="M5.55857 31.8232C6.20152 31.8232 6.72694 31.3046 6.72694 30.6548V29.2997C6.72694 28.6568 6.20847 28.1313 5.55857 28.1313C4.90867 28.1313 4.3902 28.6498 4.3902 29.2997V30.6548C4.39009 31.2978 4.91562 31.8232 5.55857 31.8232Z" fill="#194F82"/>
<path d="M5.55857 38.0385C6.20152 38.0385 6.72694 37.5199 6.72694 36.8701V35.515C6.72694 34.8721 6.20847 34.3467 5.55857 34.3467C4.90867 34.3467 4.3902 34.8651 4.3902 35.515V36.8701C4.39009 37.5131 4.91562 38.0385 5.55857 38.0385Z" fill="#194F82"/>
<path d="M36.4484 25.6081C37.0914 25.6081 37.6168 25.0896 37.6168 24.4397V23.0846C37.6168 22.4417 37.0983 21.9163 36.4484 21.9163C35.8054 21.9163 35.28 22.4347 35.28 23.0846V24.4397C35.28 25.0826 35.8054 25.6081 36.4484 25.6081Z" fill="#194F82"/>
<path d="M36.4484 31.8232C37.0914 31.8232 37.6168 31.3046 37.6168 30.6548V29.2997C37.6168 28.6568 37.0983 28.1313 36.4484 28.1313C35.8054 28.1313 35.28 28.6498 35.28 29.2997V30.6548C35.28 31.2978 35.8054 31.8232 36.4484 31.8232Z" fill="#194F82"/>
<path d="M36.4484 38.0385C37.0914 38.0385 37.6168 37.5199 37.6168 36.8701V35.515C37.6168 34.8721 37.0983 34.3467 36.4484 34.3467C35.8054 34.3467 35.28 34.8651 35.28 35.515V36.8701C35.28 37.5131 35.8054 38.0385 36.4484 38.0385Z" fill="#194F82"/>
<path d="M31.5882 2.34375H10.4188L5.84198 8.47616H36.165L31.5882 2.34375Z" fill="white"/>
<path d="M40.833 17.9615H33.235V10.806H38.4893C39.4918 10.7645 39.9688 9.74126 39.4226 8.93928L33.3318 0.774278C32.9239 0.276452 32.3432 0.0413875 31.6103 0H10.3856C9.71491 0.0345431 9.11345 0.242015 8.66407 0.774278L2.58705 8.93928C1.97865 9.88649 2.70459 10.8128 3.52036 10.806H8.77465V17.9615H1.17667C0.533719 17.9615 0.00830078 18.48 0.00830078 19.1299V40.8316C0.00830078 41.4746 0.526768 42 1.17667 42H40.826C41.469 42 41.9944 41.4815 41.9944 40.8316V19.1299C41.9945 18.48 41.4759 17.9615 40.833 17.9615ZM39.6646 39.6633H33.235V20.2913H39.6578V39.6632H39.6646V39.6633ZM23.7149 32.8534V39.6563H18.2946V32.8534H23.7149ZM30.9051 39.6633H26.0449V31.6988C26.0449 31.0558 25.5264 30.5304 24.8765 30.5304H17.1195C16.4766 30.5304 15.9512 31.0489 15.9512 31.6988V39.6633H11.0978V10.8128H30.8983V39.6633H30.9051ZM5.8433 8.4761L10.4201 2.3438H31.5896L36.1664 8.4761H5.8433ZM8.77465 39.6633H2.34504V20.2913H8.77465V39.6633Z" fill="#194F82"/>
<path d="M19.0262 21.6673H21.0035C21.6465 21.6673 22.1719 21.1488 22.1719 20.4989V17.6713C22.1719 17.0283 21.6534 16.5029 21.0035 16.5029C20.3536 16.5029 19.8351 17.0214 19.8351 17.6713V19.3305H19.0262C18.3833 19.3305 17.8578 19.849 17.8578 20.4989C17.8647 21.1419 18.3833 21.6673 19.0262 21.6673Z" fill="#194F82"/>
</g>
<defs>
<clipPath id="clip0_1359_2157">
<rect width="42" height="42" fill="white"/>
</clipPath>
</defs>
</svg>
