<svg width="46" height="46" viewBox="0 0 46 46" fill="none" xmlns="http://www.w3.org/2000/svg">
<path d="M27.3125 8.625H25.875C25.875 7.8625 25.5721 7.13123 25.0329 6.59207C24.4938 6.0529 23.7625 5.75 23 5.75H21.5625V4.3125C21.5625 3.16875 21.1081 2.07185 20.2994 1.2631C19.4906 0.454351 18.3937 0 17.25 0C16.1063 0 15.0094 0.454351 14.2006 1.2631C13.3919 2.07185 12.9375 3.16875 12.9375 4.3125V5.75H11.5C10.7375 5.75 10.0062 6.0529 9.46707 6.59207C8.9279 7.13123 8.625 7.8625 8.625 8.625H7.1875C6.04375 8.625 4.94685 9.07935 4.1381 9.8881C3.32935 10.6969 2.875 11.7938 2.875 12.9375V41.6875C2.875 42.8312 3.32935 43.9281 4.1381 44.7369C4.94685 45.5456 6.04375 46 7.1875 46H27.3125C28.4562 46 29.5531 45.5456 30.3619 44.7369C31.1706 43.9281 31.625 42.8312 31.625 41.6875V12.9375C31.625 11.7938 31.1706 10.6969 30.3619 9.8881C29.5531 9.07935 28.4562 8.625 27.3125 8.625ZM15.8125 4.3125C15.8125 3.93125 15.964 3.56562 16.2335 3.29603C16.5031 3.02645 16.8688 2.875 17.25 2.875C17.6312 2.875 17.9969 3.02645 18.2665 3.29603C18.536 3.56562 18.6875 3.93125 18.6875 4.3125V5.75H15.8125V4.3125ZM11.5 8.625H23V10.0625V11.5H11.5V8.625ZM28.75 41.6875C28.75 42.0687 28.5986 42.4344 28.329 42.704C28.0594 42.9736 27.6937 43.125 27.3125 43.125H7.1875C6.80625 43.125 6.44062 42.9736 6.17103 42.704C5.90145 42.4344 5.75 42.0687 5.75 41.6875V12.9375C5.75 12.5563 5.90145 12.1906 6.17103 11.921C6.44062 11.6515 6.80625 11.5 7.1875 11.5H8.625C8.625 12.2625 8.9279 12.9938 9.46707 13.5329C10.0062 14.0721 10.7375 14.375 11.5 14.375H23C23.7625 14.375 24.4938 14.0721 25.0329 13.5329C25.5721 12.9938 25.875 12.2625 25.875 11.5H27.3125C27.6937 11.5 28.0594 11.6515 28.329 11.921C28.5986 12.1906 28.75 12.5563 28.75 12.9375V41.6875Z" fill="#56ACE0"/>
<path d="M38.8125 8.625C37.6688 8.625 36.5719 9.07935 35.7631 9.8881C34.9544 10.6969 34.5 11.7938 34.5 12.9375V40.25C34.5022 40.5318 34.5872 40.8067 34.7444 41.0406L37.6194 45.3531C37.7509 45.5488 37.9285 45.7091 38.1365 45.82C38.3446 45.9309 38.5767 45.9888 38.8125 45.9888C39.0483 45.9888 39.2804 45.9309 39.4885 45.82C39.6965 45.7091 39.8741 45.5488 40.0056 45.3531L42.8806 41.0406C43.0378 40.8067 43.1228 40.5318 43.125 40.25V12.9375C43.125 11.7938 42.6706 10.6969 41.8619 9.8881C41.0531 9.07935 39.9562 8.625 38.8125 8.625ZM38.8125 11.5C39.1937 11.5 39.5594 11.6515 39.829 11.921C40.0986 12.1906 40.25 12.5563 40.25 12.9375V15.8125H37.375V12.9375C37.375 12.5563 37.5264 12.1906 37.796 11.921C38.0656 11.6515 38.4313 11.5 38.8125 11.5ZM38.8125 41.975L37.375 39.8188V18.6875H40.25V39.8188L38.8125 41.975Z" fill="#56ACE0"/>
<path d="M9.81644 32L12.2524 22.438H15.6264L18.0484 32H16.1164L15.5844 30.068H12.2384L11.7344 32H9.81644ZM12.5464 28.514H15.3044L14.2264 24.006H13.6384L12.5464 28.514ZM21.3147 31.706V29.256H18.9347V27.674H21.3147V25.266H22.8967V27.674H25.2907V29.256H22.8967V31.706H21.3147Z" fill="#56ACE0"/>
</svg>
