<svg width="66" height="66" viewBox="0 0 66 66" fill="none" xmlns="http://www.w3.org/2000/svg">
<g clip-path="url(#clip0_1359_2142)">
<path d="M44.3149 40.9999H22.6851C21.9546 40.9999 21.3624 40.4077 21.3624 39.6772V35.4823C21.3624 28.7896 26.8073 23.3447 33.5 23.3447C40.1926 23.3447 45.6375 28.7896 45.6375 35.4823V39.6772C45.6376 40.4077 45.0454 40.9999 44.3149 40.9999Z" fill="#54596E"/>
<path d="M33.5 23.3447V40.9999H44.3149C45.0453 40.9999 45.6375 40.4077 45.6375 39.6772V35.4823C45.6376 28.7896 40.1927 23.3447 33.5 23.3447Z" fill="#54596E"/>
<path d="M41.8012 26.6362C37.1392 22.2588 29.886 22.2351 25.1989 26.6362C25.4021 26.8394 32.3609 33.7981 32.5648 34.0021C32.8231 34.2603 33.1616 34.3895 33.5001 34.3895C33.8386 34.3895 34.1771 34.2604 34.4353 34.0021C34.6391 33.7982 41.5674 26.8699 41.8012 26.6362Z" fill="#FFEAB2"/>
<path d="M33.5 22.3016C29.0071 22.3016 25.3517 18.6463 25.3517 14.1534C25.3517 9.66044 29.0071 6.00513 33.5 6.00513C37.9929 6.00513 41.6482 9.66037 41.6482 14.1533C41.6482 18.6462 37.993 22.3016 33.5 22.3016Z" fill="#FFEAB2"/>
<path d="M33.5 6.00513V22.3015C37.9929 22.3015 41.6482 18.6462 41.6482 14.1533C41.6483 9.6603 37.993 6.00513 33.5 6.00513Z" fill="#FFE08C"/>
<path d="M41.2913 11.7644C38.6061 2.99805 25.3517 4.74579 25.3517 14.1534C25.3517 14.7541 25.4196 15.3593 25.5532 15.9521C25.7322 16.7454 26.5783 17.1901 27.3325 16.8901C29.1799 16.1552 30.7806 14.9137 31.959 13.3278C32.4457 13.6317 32.969 13.8879 33.5242 14.0892C35.9518 14.9693 38.5857 14.6709 40.7494 13.2596C41.2429 12.9376 41.464 12.3279 41.2913 11.7644Z" fill="#54596E"/>
<path d="M41.8012 26.6361C39.5004 24.4756 36.5561 23.3447 33.5 23.3447V34.3893C33.8385 34.3893 34.177 34.2602 34.4352 34.0019L41.8012 26.6361Z" fill="#FFE08C"/>
<path d="M41.2913 11.7643C40.1962 8.18921 36.9367 6.00889 33.5 6V14.0799C33.5081 14.0829 33.5161 14.086 33.5241 14.089C35.9518 14.9692 38.5857 14.6708 40.7493 13.2595C41.2429 12.9375 41.464 12.3278 41.2913 11.7643Z" fill="#54596E"/>
<path fill-rule="evenodd" clip-rule="evenodd" d="M46.1535 49.8729C46.3638 49.6626 46.7082 49.6717 46.8999 49.899C49.6141 53.1182 51.1663 57.1719 51.2838 61.4017C51.2917 61.6876 51.059 61.9197 50.7728 61.9197H41.438C41.1518 61.9197 40.9216 61.6876 40.9038 61.4021C40.8093 59.8938 40.3041 58.4463 39.4517 57.2131C39.3033 56.9983 39.3201 56.7063 39.5047 56.5217L46.1535 49.8729ZM44.662 47.6613C44.8893 47.853 44.8986 48.1974 44.6883 48.4077L38.0393 55.0565C37.8549 55.2411 37.5627 55.2579 37.3481 55.1095C36.3821 54.4421 35.2845 53.9875 34.1295 53.7765C33.8727 53.7297 33.6779 53.5111 33.6779 53.25V43.8472C33.6779 43.5498 33.9281 43.3128 34.2244 43.338C38.0663 43.665 41.714 45.176 44.662 47.6613ZM31.6058 43.8472C31.6058 43.5498 31.3559 43.3128 31.0596 43.338C27.2177 43.665 23.5699 45.176 20.6219 47.6613C20.3946 47.853 20.3854 48.1974 20.5957 48.4077L27.2446 55.0565C27.4291 55.2411 27.7212 55.2579 27.936 55.1095C28.9019 54.4421 29.9993 53.9875 31.1545 53.7765C31.4113 53.7297 31.6058 53.5111 31.6058 53.25V43.8472ZM25.8323 57.2131C25.9807 56.9983 25.9638 56.7063 25.7792 56.5217L19.1304 49.8729C18.9201 49.6626 18.5757 49.6717 18.384 49.899C15.6699 53.1182 14.1176 57.1719 14.0002 61.4017C13.9923 61.6876 14.2249 61.9197 14.511 61.9197H23.846C24.1321 61.9197 24.3624 61.6876 24.3802 61.4021C24.4747 59.8938 24.9799 58.4463 25.8323 57.2131Z" fill="#317B1D"/>
<path fill-rule="evenodd" clip-rule="evenodd" d="M33.6779 53.25C33.6779 53.5111 33.8724 53.7297 34.1294 53.7766C35.2844 53.9875 36.3817 54.4421 37.3478 55.1095C37.5626 55.2579 37.8546 55.2411 38.0392 55.0565L44.688 48.4077C44.8983 48.1974 44.8892 47.853 44.6619 47.6613C41.7139 45.176 38.0662 43.665 34.2243 43.338C33.928 43.3128 33.6779 43.5498 33.6779 43.8472V53.25Z" fill="#317B1D"/>
<path fill-rule="evenodd" clip-rule="evenodd" d="M38.2931 57.3996C38.0735 57.6192 38.1229 58.2535 38.2775 58.4868C38.9718 59.5361 39.4176 60.7469 39.5851 62.0377C39.6225 62.3247 39.857 62.5309 40.1517 62.5149L50.7645 61.9391C51.1002 61.9209 51.3831 61.6243 51.3728 61.2914C51.2388 56.9751 49.7568 52.9505 47.1321 49.7755C46.9296 49.5306 46.5227 49.5252 46.2725 49.7755L38.2931 57.3996Z" fill="#CCD2D7"/>
</g>
<defs>
<clipPath id="clip0_1359_2142">
<rect width="66" height="66" fill="white"/>
</clipPath>
</defs>
</svg>
