<svg width="43" height="43" viewBox="0 0 43 43" fill="none" xmlns="http://www.w3.org/2000/svg">
<g clip-path="url(#clip0_1359_2064)">
<path d="M2.29804 1.01709H28.3428C29.2421 1.01709 29.9748 1.74981 29.9748 2.64905V40.3507C29.9748 41.25 29.2421 41.9827 28.3428 41.9827H2.29804C1.39879 41.9827 0.666077 41.25 0.666077 40.3507V2.64905C0.666077 1.74981 1.39879 1.01709 2.29804 1.01709Z" fill="white"/>
<path d="M28.3428 0.51709C29.5182 0.5171 30.4746 1.4736 30.4747 2.64893V40.3511C30.4745 41.4528 29.634 42.3617 28.5606 42.4712L28.3428 42.4829H2.29791C1.1227 42.4828 0.166269 41.5263 0.166077 40.3511V2.64893C0.166145 1.47364 1.12263 0.517158 2.29791 0.51709H28.3428Z" stroke="#2A2C2E" stroke-opacity="0.7"/>
<path d="M28.3429 42.6489H2.29807C1.03247 42.6489 0 41.6164 0 40.3508V2.64914C0 1.38354 1.03247 0.351074 2.29807 0.351074H28.3429C29.6085 0.351074 30.6409 1.38354 30.6409 2.64914V40.3508C30.6409 41.6164 29.6085 42.6489 28.3429 42.6489ZM2.29807 1.68329C1.76518 1.68329 1.33221 2.11626 1.33221 2.64914V40.3508C1.33221 40.8837 1.76518 41.3167 2.29807 41.3167H28.3429C28.8757 41.3167 29.3087 40.8837 29.3087 40.3508V2.64914C29.3087 2.11626 28.8757 1.68329 28.3429 1.68329H2.29807Z" fill="#2A2C2E" fill-opacity="0.7"/>
<path d="M28.3428 -0.148926C29.8844 -0.148926 31.1405 1.10728 31.1406 2.64893V40.3511C31.1405 41.8927 29.8844 43.1489 28.3428 43.1489H2.29785C0.756297 43.1488 -0.499851 41.8926 -0.5 40.3511V2.64893C-0.499882 1.10735 0.756278 -0.148807 2.29785 -0.148926H28.3428ZM2.29785 2.18311C2.04128 2.18322 1.83215 2.39235 1.83203 2.64893V40.3511C1.83218 40.6076 2.0413 40.8168 2.29785 40.8169H28.3428C28.5994 40.8169 28.8084 40.6077 28.8086 40.3511V2.64893L28.7988 2.55518C28.7552 2.34331 28.5673 2.18311 28.3428 2.18311H2.29785Z" stroke="#2A2C2E" stroke-opacity="0.7"/>
<path d="M11.3904 36.1544C11.2239 36.1544 11.0574 36.0878 10.9242 35.9546L7.09406 32.1578C6.82762 31.8913 6.82762 31.4917 7.09406 31.2252C7.3605 30.9588 7.76017 30.9588 8.02661 31.2252L11.8567 35.0553C12.1232 35.3218 12.1232 35.7214 11.8567 35.9879C11.7235 36.0878 11.557 36.1544 11.3904 36.1544Z" fill="#2A2C2E" fill-opacity="0.7"/>
<path d="M6.74091 30.8721C7.20261 30.4104 7.91885 30.4104 8.38055 30.8721L12.2106 34.7021L12.2917 34.791C12.6704 35.2518 12.6435 35.909 12.2106 36.3418L12.1852 36.3662L12.1569 36.3877C11.9806 36.5199 11.7522 36.6253 11.4997 36.6494L11.3903 36.6543C11.0877 36.6543 10.7957 36.5327 10.572 36.3096L6.74188 32.5127L6.74091 32.5117C6.2792 32.05 6.2792 31.3338 6.74091 30.8721Z" stroke="#2A2C2E" stroke-opacity="0.7"/>
<path d="M7.49368 36.2541C7.32716 36.2541 7.16063 36.1875 7.02741 36.0543C6.76096 35.7879 6.76096 35.3882 7.02741 35.1218L11.024 31.1251C11.2905 30.8587 11.6902 30.8587 11.9566 31.1251C12.223 31.3916 12.223 31.7912 11.9566 32.0577L7.95996 36.0543C7.82674 36.1875 7.66021 36.2541 7.49368 36.2541Z" fill="#2A2C2E" fill-opacity="0.7"/>
<path d="M10.7602 30.6899C11.221 30.3115 11.8773 30.3392 12.31 30.772C12.7716 31.2337 12.7717 31.95 12.31 32.4116L8.3139 36.4077C8.08991 36.6317 7.7969 36.7544 7.49359 36.7544C7.19037 36.7544 6.89822 36.6316 6.67426 36.4077C6.21255 35.946 6.21255 35.2298 6.67426 34.7681L10.6703 30.772L10.7602 30.6899Z" stroke="#2A2C2E" stroke-opacity="0.7"/>
<path d="M17.3521 30.1595L39.7333 7.77826C40.0997 7.47851 40.6658 7.51181 40.9656 7.87817L42.0647 8.97725C42.431 9.277 42.4643 9.84319 42.1646 10.2095L19.7834 32.5907L16.3196 33.5899L17.3521 30.1595Z" fill="#2A2C2E" fill-opacity="0.7"/>
<path d="M39.4163 7.39136C39.9651 6.94234 40.823 6.96291 41.3187 7.52417L42.4183 8.62378H42.4173C42.9795 9.11928 43.0004 9.97701 42.5511 10.5261L42.5355 10.5457L20.137 32.9441L20.0462 33.0359L19.9222 33.071L16.4583 34.0701L15.5765 34.325L15.8411 33.446L16.8734 30.0154L16.9095 29.8953L16.9984 29.8054L39.3802 7.42456L39.3978 7.40698L39.4163 7.39136Z" stroke="#2A2C2E" stroke-opacity="0.7"/>
<path d="M16.3196 34.256C16.1531 34.256 15.9866 34.1894 15.8534 34.0561C15.6868 33.8896 15.6202 33.6232 15.6868 33.39L16.7193 29.9596C16.7526 29.8597 16.8192 29.7597 16.8858 29.6931L39.267 7.31193L39.3003 7.27863C39.9331 6.74574 40.899 6.84566 41.4319 7.44515L42.4976 8.51092C43.0971 9.04381 43.1971 10.0097 42.6642 10.6425C42.6642 10.6758 42.6309 10.6758 42.6309 10.6758L20.2497 33.057C20.1831 33.1236 20.0831 33.1902 19.9499 33.2235L16.4862 34.2227C16.4529 34.256 16.3863 34.256 16.3196 34.256ZM17.9516 30.4925L17.3188 32.624L19.4503 31.9912L41.6983 9.74322C41.7649 9.64331 41.7316 9.54339 41.665 9.44348L41.6317 9.41017L40.5326 8.31109L40.4993 8.27779C40.4327 8.21118 40.2995 8.17787 40.1996 8.24448L17.9516 30.4925Z" fill="#2A2C2E" fill-opacity="0.7"/>
<path d="M38.9787 6.89624C39.8204 6.18769 41.0761 6.31899 41.7844 7.09155H41.7853L42.8508 8.15698H42.8498C43.6033 8.84632 43.7462 10.0546 43.0988 10.8953C43.0911 10.9097 43.0847 10.9252 43.0754 10.9392C43.0353 10.9994 42.9853 11.0405 42.9396 11.073L20.6037 33.4109C20.4824 33.5322 20.3088 33.6441 20.0871 33.7029L20.0881 33.7039L16.676 34.6873C16.5961 34.7252 16.5255 34.7412 16.4865 34.7468C16.4153 34.757 16.3436 34.7556 16.3195 34.7556C16.0542 34.7556 15.7972 34.6624 15.5871 34.489L15.5002 34.4099C15.2006 34.1103 15.0916 33.654 15.2062 33.2527L15.2082 33.2458L16.2404 29.8152L16.2424 29.8083L16.2453 29.8015L16.299 29.6687C16.3614 29.5401 16.4462 29.4258 16.5324 29.3396L38.9621 6.90991L38.9787 6.89624ZM18.3937 30.7566L18.0598 31.8816L19.1867 31.5466L41.1242 9.60913L40.3322 8.81812L18.3937 30.7566Z" stroke="#2A2C2E" stroke-opacity="0.7"/>
<path d="M34.6376 22.1995C34.471 22.1995 34.3045 22.1329 34.1713 21.9997C33.9048 21.7332 33.9048 21.3336 34.1713 21.0671L40.1662 15.0722L36.3028 11.2087C36.0364 10.9423 36.0364 10.5426 36.3028 10.2762C36.5693 10.0098 36.9689 10.0098 37.2354 10.2762L41.5984 14.6392C41.7316 14.7724 41.7982 14.9389 41.7982 15.1055C41.7982 15.272 41.7316 15.4385 41.5984 15.5717L35.1371 22.033C35.0039 22.1662 34.8041 22.1995 34.6376 22.1995ZM24.3129 8.24457H6.59445C6.22809 8.24457 5.92834 7.94482 5.92834 7.57846C5.92834 7.2121 6.22809 6.91235 6.59445 6.91235H24.3129C24.6793 6.91235 24.979 7.2121 24.979 7.57846C24.979 7.94482 24.6793 8.24457 24.3129 8.24457ZM24.3129 12.0747H6.59445C6.22809 12.0747 5.92834 11.7749 5.92834 11.4086C5.92834 11.0422 6.22809 10.7425 6.59445 10.7425H24.3129C24.6793 10.7425 24.979 11.0422 24.979 11.4086C24.979 11.7749 24.6793 12.0747 24.3129 12.0747ZM24.3129 16.0713H6.59445C6.22809 16.0713 5.92834 15.7716 5.92834 15.4052C5.92834 15.0389 6.22809 14.7391 6.59445 14.7391H24.3129C24.6793 14.7391 24.979 15.0389 24.979 15.4052C24.979 15.7716 24.6793 16.0713 24.3129 16.0713Z" fill="#2A2C2E" fill-opacity="0.7"/>
<path d="M35.9489 9.9231C36.4106 9.46139 37.1268 9.46139 37.5885 9.9231L41.9518 14.2854L42.0309 14.3723C42.2045 14.5826 42.2985 14.8402 42.2985 15.1057C42.2984 15.3711 42.2043 15.628 42.0309 15.8381L41.9518 15.925L35.4908 22.387C35.2137 22.664 34.8427 22.6995 34.6373 22.6995C34.3341 22.6994 34.0419 22.5767 33.818 22.3528C33.3564 21.8911 33.3563 21.1748 33.818 20.7131L39.4586 15.0725L35.9489 11.5627C35.4873 11.1012 35.4876 10.3848 35.9489 9.9231ZM24.3131 14.2395C24.9555 14.2396 25.4791 14.7631 25.4791 15.4055C25.479 16.0478 24.9554 16.5714 24.3131 16.5715H6.59436C5.952 16.5715 5.42851 16.0479 5.42834 15.4055C5.42834 14.763 5.9519 14.2396 6.59436 14.2395H24.3131ZM24.3131 10.2424C24.9555 10.2425 25.4791 10.7661 25.4791 11.4084C25.4791 12.0509 24.9555 12.5743 24.3131 12.5745H6.59436C5.9519 12.5744 5.42834 12.0509 5.42834 11.4084C5.42841 10.766 5.95194 10.2425 6.59436 10.2424H24.3131ZM24.3131 6.41235C24.9555 6.41247 25.4791 6.93598 25.4791 7.57837C25.4791 8.2208 24.9555 8.74427 24.3131 8.74438H6.59436C5.9519 8.74433 5.42834 8.22084 5.42834 7.57837C5.42839 6.93594 5.95193 6.4124 6.59436 6.41235H24.3131Z" stroke="#2A2C2E" stroke-opacity="0.7"/>
<path d="M24.3129 19.9013H6.59445C6.22809 19.9013 5.92834 19.6016 5.92834 19.2352C5.92834 18.8688 6.22809 18.5691 6.59445 18.5691H24.3129C24.6793 18.5691 24.979 18.8688 24.979 19.2352C24.979 19.6016 24.6793 19.9013 24.3129 19.9013Z" fill="#2A2C2E" fill-opacity="0.7"/>
<path d="M24.3131 18.0691L24.4323 18.075C25.019 18.135 25.4791 18.6329 25.4791 19.2351C25.4791 19.8775 24.9555 20.401 24.3131 20.4011H6.59436C5.9519 20.4011 5.42834 19.8776 5.42834 19.2351C5.42839 18.5927 5.95193 18.0691 6.59436 18.0691H24.3131Z" stroke="#2A2C2E" stroke-opacity="0.7"/>
<path d="M14.721 24.1977H6.59445C6.22809 24.1977 5.92834 23.8979 5.92834 23.5316C5.92834 23.1652 6.22809 22.8655 6.59445 22.8655H14.6877C15.054 22.8655 15.3538 23.1652 15.3538 23.5316C15.3538 23.8979 15.0873 24.1977 14.721 24.1977Z" fill="#2A2C2E" fill-opacity="0.7"/>
<path d="M14.6881 22.3655C15.3304 22.3657 15.8541 22.8892 15.8541 23.5315C15.8541 24.1396 15.3967 24.6973 14.7213 24.6975H6.59436C5.9519 24.6975 5.42834 24.174 5.42834 23.5315C5.42839 22.8891 5.95193 22.3655 6.59436 22.3655H14.6881Z" stroke="#2A2C2E" stroke-opacity="0.7"/>
</g>
<defs>
<clipPath id="clip0_1359_2064">
<rect width="43" height="43" fill="white"/>
</clipPath>
</defs>
</svg>
