<svg width="45" height="45" viewBox="0 0 45 45" fill="none" xmlns="http://www.w3.org/2000/svg">
<path d="M34.0875 15.0737L34.9565 14.2048C36.3962 12.7651 38.7305 12.7651 40.1702 14.2048C41.61 15.6445 41.61 17.9788 40.1702 19.4184L39.3013 20.2875M34.0875 15.0737C34.0875 15.0737 34.1962 16.9203 35.8254 18.5495C37.4548 20.1787 39.3013 20.2875 39.3013 20.2875M34.0875 15.0737L26.0988 23.0623C25.5577 23.6034 25.2872 23.874 25.0545 24.1723C24.7802 24.5242 24.5448 24.9051 24.3528 25.3078C24.1901 25.6494 24.069 26.0122 23.8271 26.7382L23.0523 29.0625L22.8017 29.8144M39.3013 20.2875L31.3127 28.2761C30.7715 28.8172 30.501 29.0878 30.2027 29.3205C29.8507 29.5948 29.4699 29.8301 29.0672 30.0221C28.7255 30.1849 28.3627 30.306 27.6367 30.5479L25.3125 31.3226L24.5606 31.5733M22.8017 29.8144L22.551 30.5664C22.4319 30.9236 22.5249 31.3176 22.7912 31.5838C23.0574 31.8501 23.4513 31.9431 23.8085 31.824L24.5606 31.5733M22.8017 29.8144L24.5606 31.5733" stroke="#2A2C2E" stroke-opacity="0.7" stroke-width="2.5"/>
<path d="M15 24.375H19.6875" stroke="#2A2C2E" stroke-opacity="0.7" stroke-width="2.5" stroke-linecap="round"/>
<path d="M15 16.875H27.1875" stroke="#2A2C2E" stroke-opacity="0.7" stroke-width="2.5" stroke-linecap="round"/>
<path d="M15 31.875H17.8125" stroke="#2A2C2E" stroke-opacity="0.7" stroke-width="2.5" stroke-linecap="round"/>
<path d="M5.625 26.25V18.75C5.625 11.6789 5.625 8.14341 7.82169 5.94669C10.0184 3.75 13.5539 3.75 20.625 3.75H24.375C31.446 3.75 34.9817 3.75 37.1782 5.94669M39.375 26.25C39.375 33.321 39.375 36.8567 37.1782 39.0533M37.1782 39.0533C34.9817 41.25 31.446 41.25 24.375 41.25H20.625C13.5539 41.25 10.0184 41.25 7.82169 39.0533M37.1782 39.0533C38.9466 37.2849 39.2914 34.6493 39.3587 30" stroke="#2A2C2E" stroke-opacity="0.7" stroke-width="2.5" stroke-linecap="round"/>
</svg>
