<svg width="42" height="42" viewBox="0 0 42 42" fill="none" xmlns="http://www.w3.org/2000/svg">
<path fill-rule="evenodd" clip-rule="evenodd" d="M7.875 20.9213V36.7933C7.875 38.9445 9.61801 40.6875 11.7692 40.6875H11.8558C14.007 40.6875 15.75 38.9445 15.75 36.7933V20.9213C18.0587 19.1441 19.6875 15.7487 19.6875 11.8125C19.6875 8.3895 18.4603 5.36418 16.6267 3.48336C15.2814 2.1013 13.608 1.3125 11.8125 1.3125C10.017 1.3125 8.34356 2.1013 6.99825 3.48336C5.16469 5.36418 3.9375 8.3895 3.9375 11.8125C3.9375 15.7474 5.56631 19.1441 7.875 20.9213ZM13.125 31.5V36.7933C13.125 37.4942 12.5567 38.0625 11.8558 38.0625H11.7692C11.0683 38.0625 10.5 37.4942 10.5 36.7933V31.5H13.125ZM13.125 28.875H10.5V20.2348C10.5 19.7781 10.2624 19.3541 9.87263 19.1152C7.875 17.892 6.5625 15.0596 6.5625 11.8125C6.5625 9.15075 7.45238 6.77776 8.87776 5.31433C9.70463 4.46645 10.71 3.9375 11.8125 3.9375C12.915 3.9375 13.9204 4.46645 14.7472 5.31433C16.1726 6.77776 17.0625 9.15075 17.0625 11.8125C17.0625 15.0596 15.75 17.892 13.7524 19.1152C13.3626 19.3541 13.125 19.7781 13.125 20.2348V28.875Z" fill="#FD8F08" fill-opacity="0.58"/>
<path fill-rule="evenodd" clip-rule="evenodd" d="M27.5625 20.7756V36.7933C27.5625 38.9445 29.3055 40.6875 31.4567 40.6875H31.5433C33.6945 40.6875 35.4375 38.9445 35.4375 36.7933V20.7756C35.9861 20.5813 36.4901 20.2663 36.9101 19.8476C37.6478 19.11 38.0625 18.1086 38.0625 17.0651V2.625C38.0625 1.9005 37.4745 1.3125 36.75 1.3125C36.0255 1.3125 35.4375 1.9005 35.4375 2.625V7.875H32.8125V2.625C32.8125 1.9005 32.2245 1.3125 31.5 1.3125C30.7755 1.3125 30.1875 1.9005 30.1875 2.625V7.875H27.5625V2.625C27.5625 1.9005 26.9745 1.3125 26.25 1.3125C25.5255 1.3125 24.9375 1.9005 24.9375 2.625V17.0625C24.9375 18.7766 26.0334 20.2361 27.5625 20.7756ZM32.8125 31.5H30.1875V36.7933C30.1875 37.4942 30.7558 38.0625 31.4567 38.0625H31.5433C32.2442 38.0625 32.8125 37.4942 32.8125 36.7933V31.5ZM32.8125 28.875V20.0393C32.8125 19.1888 33.4464 18.4708 34.2904 18.3658L34.2917 18.3645C34.5778 18.3291 34.8469 18.1978 35.0543 17.9918C35.2997 17.7463 35.4375 17.413 35.4375 17.0651V10.5026L27.5625 10.5V17.0625C27.5625 17.7017 28.0193 18.2332 28.623 18.3514C29.5313 18.5272 30.1875 19.3226 30.1875 20.2479V28.875H32.8125Z" fill="#FD8F08" fill-opacity="0.58"/>
</svg>
