<svg width="19" height="22" viewBox="0 0 19 22" fill="none" xmlns="http://www.w3.org/2000/svg">
<path d="M5.20193 16.4857L7.17725 18.7861M16.2809 13.9251C15.4422 14.8994 14.3911 15.5885 13.2408 15.9181C12.0906 16.2478 10.8848 16.2054 9.75375 15.7955L5.70864 20.4965C5.41664 20.8466 4.84122 21.0566 4.42897 20.9866L2.55671 20.6865C1.93835 20.5865 1.36293 19.9064 1.26846 19.1862L1.01081 17.0058C0.950692 16.5257 1.14822 15.8555 1.43164 15.5155L5.46817 10.8145C4.7811 8.21397 5.31357 5.26337 7.08278 3.21295C9.61634 0.262349 13.7302 0.262349 16.2723 3.21295C18.8145 6.16356 18.8145 10.9745 16.2809 13.9251Z" stroke="#D6C1D8" stroke-width="1.5" stroke-miterlimit="10" stroke-linecap="round" stroke-linejoin="round"/>
<path d="M11.7375 9.99439C12.0791 9.99439 12.4068 9.83632 12.6484 9.55496C12.89 9.2736 13.0257 8.89199 13.0257 8.49408C13.0257 8.09617 12.89 7.71457 12.6484 7.4332C12.4068 7.15184 12.0791 6.99377 11.7375 6.99377C11.3958 6.99377 11.0681 7.15184 10.8265 7.4332C10.5849 7.71457 10.4492 8.09617 10.4492 8.49408C10.4492 8.89199 10.5849 9.2736 10.8265 9.55496C11.0681 9.83632 11.3958 9.99439 11.7375 9.99439Z" stroke="#D6C1D8" stroke-width="1.5" stroke-linecap="round" stroke-linejoin="round"/>
</svg>
