<svg width="27" height="31" viewBox="0 0 27 31" fill="none" xmlns="http://www.w3.org/2000/svg">
<path d="M1.92856 0H18.3147L27 8.65162V28.9287C27 29.9942 26.136 30.8572 25.0714 30.8572H1.92856C0.863955 30.8572 0 29.9942 0 28.9287V1.92856C0 0.863057 0.864054 0 1.92856 0Z" fill="#E2574C"/>
<path d="M26.9724 8.67859H20.2503C19.1857 8.67859 18.3218 7.81463 18.3218 6.75003V0.0192871L26.9724 8.67859Z" fill="#B53629"/>
<path d="M19.7661 14.6219C20.0892 14.6219 20.2473 14.3403 20.2473 14.0674C20.2473 13.7848 20.0824 13.512 19.7661 13.512H17.9262C17.5665 13.512 17.366 13.8099 17.366 14.1388V18.6603C17.366 19.0634 17.5955 19.2871 17.906 19.2871C18.2146 19.2871 18.4451 19.0634 18.4451 18.6603V17.4193H19.5578C19.9031 17.4193 20.0757 17.1367 20.0757 16.8561C20.0757 16.5814 19.9031 16.3084 19.5578 16.3084H18.4451V14.6219H19.7661ZM13.5474 13.512H12.2012C11.8357 13.512 11.5763 13.7627 11.5763 14.1349V18.6642C11.5763 19.126 11.9495 19.2707 12.2166 19.2707H13.6293C15.3013 19.2707 16.4054 18.1705 16.4054 16.4723C16.4045 14.6768 15.3651 13.512 13.5474 13.512ZM13.612 18.1541H12.7914V14.6286H13.531C14.6506 14.6286 15.1375 15.3799 15.1375 16.4164C15.1375 17.3865 14.6592 18.1541 13.612 18.1541ZM8.68064 13.512H7.34704C6.96999 13.512 6.75977 13.7607 6.75977 14.1388V18.6603C6.75977 19.0634 7.00082 19.2871 7.32479 19.2871C7.64876 19.2871 7.88982 19.0634 7.88982 18.6603V17.3401H8.72584C9.75761 17.3401 10.6091 16.6092 10.6091 15.4337C10.6092 14.2834 9.78765 13.512 8.68064 13.512ZM8.65849 16.2795H7.88992V14.5737H8.65849C9.13292 14.5737 9.43474 14.9439 9.43474 15.4271C9.43374 15.9093 9.13292 16.2795 8.65849 16.2795Z" fill="white"/>
</svg>
