<svg width="18" height="20" viewBox="0 0 18 20" fill="none" xmlns="http://www.w3.org/2000/svg">
<path d="M17.1334 13.4459L12.8935 11.3349L12.8818 11.3289C12.6617 11.2243 12.4216 11.1823 12.1832 11.2068C11.9448 11.2312 11.7157 11.3213 11.5165 11.4689C11.493 11.4861 11.4705 11.5048 11.449 11.5249L9.25837 13.5999C7.87056 12.8509 6.43775 11.2709 5.76365 9.74889L7.63386 7.27787C7.65186 7.25287 7.66896 7.22787 7.68516 7.20087C7.81515 6.98017 7.89401 6.72718 7.91474 6.46443C7.93547 6.20168 7.89741 5.93731 7.80396 5.69485V5.68285L5.89865 0.963807C5.77511 0.647069 5.5627 0.383216 5.29311 0.211638C5.02353 0.0400599 4.71123 -0.0300417 4.40284 0.0117978C3.1833 0.190106 2.06388 0.855574 1.25366 1.88391C0.44343 2.91225 -0.00219685 4.23313 8.14384e-06 5.59985C8.14384e-06 13.5399 5.81405 20 12.9601 20C14.1901 20.0024 15.3789 19.5073 16.3044 18.607C17.2299 17.7068 17.8289 16.463 17.9893 15.1079C18.0271 14.7654 17.9641 14.4185 17.8099 14.119C17.6556 13.8194 17.4183 13.5834 17.1334 13.4459ZM12.9601 18.4C9.90581 18.3963 6.97757 17.0465 4.81786 14.6468C2.65814 12.2471 1.44335 8.99352 1.44002 5.59985C1.43663 4.62333 1.75327 3.67883 2.33079 2.94273C2.90831 2.20664 3.70723 1.72928 4.57834 1.59981C4.57799 1.6038 4.57799 1.60782 4.57834 1.61181L6.46835 6.31186L4.60804 8.78588C4.58916 8.81002 4.57201 8.83577 4.55674 8.86288C4.4213 9.0938 4.34185 9.35968 4.32608 9.63475C4.31031 9.90982 4.35876 10.1848 4.46674 10.4329C5.28215 12.2859 6.96246 14.1389 8.64817 15.0439C8.87314 15.1628 9.12201 15.2148 9.37046 15.1948C9.61892 15.1748 9.85846 15.0836 10.0657 14.9299C10.0888 14.9126 10.111 14.894 10.1323 14.8739L12.3202 12.7999L16.5502 14.9049C16.5502 14.9049 16.5574 14.9049 16.5601 14.9049C16.445 15.8742 16.016 16.7637 15.3534 17.407C14.6908 18.0503 13.84 18.4033 12.9601 18.4Z" fill="#6F2877" fill-opacity="0.25"/>
</svg>
