<svg width="13" height="18" viewBox="0 0 13 18" fill="none" xmlns="http://www.w3.org/2000/svg">
<path d="M11.55 1V1.37679C11.55 2.41725 10.7065 3.26072 9.66607 3.26072H2.88393C1.84346 3.26072 1 2.41725 1 1.37679V1" stroke="#2A2C2E" stroke-opacity="0.7" stroke-width="1.5" stroke-linecap="round"/>
<path d="M1 8.27503C1 6.85408 1 6.1436 1.44143 5.70218C1.88286 5.26074 2.59334 5.26074 4.01429 5.26074H8.53571C9.95665 5.26074 10.6671 5.26074 11.1086 5.70218C11.55 6.1436 11.55 6.85408 11.55 8.27503V9.0286C11.55 10.4495 11.55 11.16 11.1086 11.6014C10.6671 12.0429 9.95665 12.0429 8.53571 12.0429H4.01429C2.59334 12.0429 1.88286 12.0429 1.44143 11.6014C1 11.16 1 10.4495 1 9.0286V8.27503Z" stroke="#2A2C2E" stroke-opacity="0.7" stroke-width="1.5"/>
<path d="M11.55 16.3037V15.9269C11.55 14.8864 10.7065 14.043 9.66607 14.043H2.88393C1.84346 14.043 1 14.8864 1 15.9269V16.3037" stroke="#2A2C2E" stroke-opacity="0.7" stroke-width="1.5" stroke-linecap="round"/>
</svg>
