<svg width="12" height="16" viewBox="0 0 12 16" fill="none" xmlns="http://www.w3.org/2000/svg">
<path d="M10.55 1V1.34107C10.55 2.28291 9.78648 3.04643 8.84464 3.04643H2.70536C1.76352 3.04643 1 2.28291 1 1.34107V1" stroke="#2A2C2E" stroke-opacity="0.7" stroke-width="1.2" stroke-linecap="round"/>
<path d="M1 7.77496C1 6.4887 1 5.84556 1.39959 5.44598C1.79918 5.04639 2.44231 5.04639 3.72857 5.04639H7.82143C9.10768 5.04639 9.7508 5.04639 10.1504 5.44598C10.55 5.84556 10.55 6.4887 10.55 7.77496V8.4571C10.55 9.74335 10.55 10.3865 10.1504 10.7861C9.7508 11.1857 9.10768 11.1857 7.82143 11.1857H3.72857C2.44231 11.1857 1.79918 11.1857 1.39959 10.7861C1 10.3865 1 9.74335 1 8.4571V7.77496Z" stroke="#2A2C2E" stroke-opacity="0.7" stroke-width="1.2"/>
<path d="M10.55 15.2322V14.8911C10.55 13.9493 9.78648 13.1858 8.84464 13.1858H2.70536C1.76352 13.1858 1 13.9493 1 14.8911V15.2322" stroke="#2A2C2E" stroke-opacity="0.7" stroke-width="1.2" stroke-linecap="round"/>
</svg>
