<svg width="130" height="123" viewBox="0 0 130 123" fill="none" xmlns="http://www.w3.org/2000/svg">
<path d="M18.4765 0.0989202C16.9764 0.372693 15.6289 1.39312 14.8662 2.86154C14.3068 4.00641 14.2051 4.50417 14.2051 6.47036V8.76011L9.1964 8.85966C4.56907 8.93433 4.086 8.9841 3.09443 9.48187C1.77234 10.1787 0.602791 11.5476 0.246843 12.8916C0.0180186 13.6382 -0.0328312 25.3109 0.0180186 56.4713L0.0942932 99.0306L0.729915 100.151C1.54351 101.544 3.01815 102.565 4.77247 102.888C5.63692 103.038 17.8917 103.137 38.613 103.137H71.106L72.1484 105.278C76.3435 113.839 84.7846 120.086 94.4206 121.704C97.8784 122.301 103.802 122.077 107.082 121.231C112.167 119.912 116.464 117.597 120.303 114.088C125.236 109.583 128.49 103.759 129.66 97.4128C130.168 94.7 130.092 89.0503 129.532 86.4619C128.439 81.4842 125.719 76.0585 122.668 72.7981L121.625 71.703L121.498 42.036L121.371 12.3938L120.685 11.3485C120.303 10.801 119.439 10.0045 118.778 9.6312C117.557 8.93432 117.506 8.93433 112.574 8.85966L107.565 8.76011L107.464 6.37081C107.362 3.88196 107.006 2.83665 105.887 1.642C104.387 -0.000634434 101.362 -0.473517 99.3276 0.621576C97.2936 1.74156 96.3275 3.90685 96.3275 7.34146V8.80989H88.2169H80.1064L80.0047 6.37081C79.903 3.78241 79.4199 2.48822 78.225 1.4429C76.4706 -0.125074 73.7756 -0.423741 71.7925 0.721128C69.7585 1.866 68.8686 3.90685 68.8686 7.34146V8.80989H60.7581H52.6475L52.5458 6.37081C52.4441 3.85707 52.0882 2.83665 50.9695 1.642C49.4186 -0.0504115 46.393 -0.473518 44.3336 0.721128C42.2996 1.866 41.4097 3.90685 41.4097 7.34146V8.80989H33.2992H25.1887L25.087 6.37081C25.0107 4.55395 24.8581 3.70774 24.4513 2.96109C23.2564 0.746016 20.9935 -0.349072 18.4765 0.0989202ZM20.9173 4.37974C21.2478 4.85262 21.3241 5.79838 21.3241 9.8552C21.3241 14.4596 21.2986 14.808 20.8156 15.2809C20.5359 15.5547 20.0274 15.7787 19.6715 15.7787C19.3155 15.7787 18.807 15.5547 18.5273 15.2809C18.0443 14.808 18.0188 14.4596 18.0188 9.8552C18.0188 4.25529 18.146 3.83219 19.6715 3.83219C20.2817 3.83219 20.663 4.00641 20.9173 4.37974ZM48.3762 4.37974C48.7067 4.85262 48.783 5.79838 48.783 9.8552C48.783 14.4596 48.7575 14.808 48.2745 15.2809C47.6643 15.8782 46.8252 15.928 46.0371 15.3804C45.4777 15.0071 45.4777 14.8827 45.4777 9.88009C45.4777 5.44994 45.5286 4.6784 45.9099 4.28019C46.4947 3.63309 47.8931 3.68286 48.3762 4.37974ZM75.6316 4.18062C76.0638 4.50417 76.1147 4.92728 76.191 9.48187C76.2673 14.2107 76.2418 14.4596 75.7333 15.1067C75.1231 15.8533 74.335 15.9529 73.4959 15.3804C72.9366 15.0071 72.9366 14.8827 72.9366 9.88009C72.9366 5.44994 72.9874 4.6784 73.3688 4.28019C73.8519 3.73264 74.9452 3.70774 75.6316 4.18062ZM102.836 4.03129C103.574 4.50418 103.701 5.42506 103.701 9.88009C103.701 14.136 103.675 14.5093 103.167 15.1316C102.582 15.8533 101.794 15.9529 100.955 15.3804C100.395 15.0071 100.395 14.8827 100.395 9.88009C100.395 5.44994 100.446 4.6784 100.828 4.28019C101.234 3.83219 102.328 3.68286 102.836 4.03129ZM14.1288 14.0862C14.078 14.4098 14.0271 14.2107 14.0271 13.6631C14.0017 13.1156 14.0526 12.8667 14.1288 13.0907C14.1797 13.3396 14.1797 13.7876 14.1288 14.0862ZM25.3158 13.9618C25.2395 14.2107 25.1887 14.0116 25.1887 13.5387C25.1887 13.0658 25.2395 12.8667 25.3158 13.0907C25.3666 13.3396 25.3666 13.7378 25.3158 13.9618ZM41.5877 14.3351C41.5369 14.6587 41.486 14.4098 41.486 13.7876C41.486 13.1654 41.5369 12.9165 41.5877 13.2151C41.6386 13.5387 41.6386 14.0365 41.5877 14.3351ZM69.0466 14.4596C68.9957 14.8578 68.9449 14.584 68.9449 13.912C68.9449 13.2151 68.9957 12.9165 69.0466 13.2151C69.0974 13.5387 69.0974 14.0862 69.0466 14.4596ZM96.5055 14.4596C96.4546 14.8578 96.4038 14.584 96.4038 13.912C96.4038 13.2151 96.4546 12.9165 96.5055 13.2151C96.5563 13.5387 96.5563 14.0862 96.5055 14.4596ZM117.659 13.8871C117.608 13.9369 117.328 13.688 117.074 13.3396L116.591 12.6676L117.201 13.2151C117.506 13.5138 117.735 13.8125 117.659 13.8871ZM3.95888 23.4194C3.93345 25.1865 3.8826 23.743 3.8826 20.2586C3.8826 16.7742 3.93345 15.3307 3.95888 17.0729C4.00973 18.8399 4.00973 21.6772 3.95888 23.4194ZM15.8831 18.0684C18.5528 20.5075 23.0784 19.711 24.6039 16.5253L25.0107 15.6542H33.4009H41.7911L42.1979 16.5253C42.4267 16.9982 42.9352 17.6951 43.342 18.0684C46.0116 20.5075 50.5373 19.711 52.0628 16.5253L52.4696 15.6542H60.8598H69.25L69.6568 16.5253C71.5891 20.5821 77.7927 20.4328 79.6488 16.2764L79.9284 15.6542H88.3186H96.7089L97.1157 16.5253C98.7428 19.9599 103.726 20.5572 106.218 17.6204C106.65 17.0728 107.082 16.4258 107.158 16.152C107.286 15.6791 107.438 15.6542 110.464 15.7787C113.235 15.8782 113.718 15.9778 114.023 16.376C114.303 16.7742 114.379 17.9191 114.379 21.6772V26.4807H60.8598H7.34039V21.5528C7.34039 17.0977 7.39124 16.5502 7.79803 16.2018C8.15398 15.8782 8.91673 15.7787 11.2812 15.7289L14.3322 15.6542L14.739 16.5253C14.9679 16.9982 15.4763 17.6951 15.8831 18.0684ZM117.684 49.2536V68.2684L115.803 67.0987L113.922 65.9289L113.82 61.5485C113.744 57.6411 113.693 57.0935 113.26 56.6206C112.777 56.098 112.625 56.098 102.379 56.098C92.3358 56.098 91.9798 56.1229 91.4968 56.5957C91.0391 57.0437 90.9883 57.4171 90.9883 60.329C90.9883 63.2161 90.9374 63.5894 90.556 63.7387C90.3018 63.8134 89.2085 64.2365 88.1407 64.6845L86.183 65.4809L86.1067 61.3245C86.0304 57.641 85.9796 57.0935 85.5473 56.6206C85.0643 56.098 84.9117 56.098 74.6655 56.098C64.6227 56.098 64.2667 56.1229 63.7836 56.5957C63.3006 57.0686 63.2751 57.4171 63.2751 64.6845C63.2751 71.9519 63.3006 72.3004 63.7836 72.7732C64.2667 73.2461 64.6227 73.271 70.0127 73.271C73.1654 73.271 75.7333 73.3457 75.7333 73.4452C75.7333 73.5199 75.2503 74.3163 74.6655 75.1625L73.5722 76.7305L69.0466 76.7554C64.5972 76.7554 64.521 76.7554 63.9108 77.3776L63.2751 77.9749V85.5659V93.1569L63.9362 93.6547C64.521 94.1026 64.9786 94.1773 66.86 94.1773C68.1059 94.1773 69.1229 94.252 69.1229 94.3515C69.1229 94.476 69.3008 95.5462 69.5042 96.7657C69.7076 97.9852 69.8093 99.0803 69.7331 99.2048C69.5297 99.5034 6.39966 99.4537 5.28097 99.155C4.6962 99.0057 4.26397 98.6821 4.086 98.259C3.85718 97.811 3.7809 89.0005 3.7809 64.0872C3.7809 45.6448 3.85718 30.4628 3.95888 30.3882C4.03515 30.2886 29.6634 30.214 60.9106 30.214H117.684V49.2536ZM82.3438 63.7636V67.696L81.0726 68.6169L79.8267 69.5377H73.4451H67.0889V64.6845V59.8312H74.7163H82.3438V63.7636ZM110.057 61.9468C110.057 64.2365 110.006 64.3112 108.659 63.8134C108.303 63.6889 106.853 63.3405 105.43 63.0667C102.785 62.5192 97.7004 62.345 95.7427 62.6934L94.802 62.8676V61.3494V59.8312H102.429H110.057V61.9468ZM102.15 66.3022C112.269 67.3227 120.964 73.8434 124.473 83.0273C125.846 86.5863 126.151 88.3534 126.151 92.4351C126.151 95.4964 126.049 96.4173 125.49 98.483C124.778 101.071 123.074 104.854 121.752 106.746L120.939 107.916L120.049 106.149C118.956 104.008 116.769 101.893 114.964 101.271C110.616 99.7026 106.599 97.8359 106.803 97.4626C106.853 97.363 107.336 96.3924 107.896 95.2973C108.455 94.2022 109.167 93.0324 109.472 92.684C111.455 90.5685 112.04 86.6112 110.616 84.7446C110.286 84.2966 110.082 83.5002 109.981 82.1811C109.726 78.6967 107.947 76.1083 104.819 74.615C103.37 73.9181 103.192 73.8932 99.6327 73.8932C96.1749 73.8932 95.8698 73.943 94.4969 74.5652C91.2679 76.0336 89.4628 78.6469 89.2594 82.1064C89.1831 83.5748 89.0305 84.2219 88.7 84.5953C87.1745 86.213 87.4288 89.349 89.2594 92.0369C89.717 92.7089 90.6323 94.252 91.2679 95.4715L92.4375 97.6866L90.4035 98.707C89.2848 99.2546 87.2254 100.126 85.827 100.673C84.4032 101.196 82.8014 101.943 82.2675 102.316C81.0217 103.162 79.5216 105.078 78.7843 106.721L78.2504 107.966L77.4876 106.846C70.3941 96.6164 71.7416 82.7535 80.6403 73.9679C85.5728 69.1146 91.2171 66.7253 99.1496 66.0782C99.3785 66.0782 100.726 66.1778 102.15 66.3022ZM103.065 77.9749C105.353 79.0202 106.243 80.6878 106.243 83.9482C106.243 86.1383 106.243 86.1881 107.031 86.7854C107.794 87.3579 107.794 87.4077 107.514 88.453C107.336 89.125 106.879 89.8467 106.37 90.3196C105.811 90.7925 105.302 91.6636 104.896 92.7587C103.701 95.9942 102.074 97.6368 99.9124 97.8608C98.4377 97.9852 97.5479 97.587 96.2258 96.1435C95.2851 95.1231 94.0392 92.8084 94.0392 92.0369C94.0392 91.8378 93.6324 91.2405 93.124 90.7427C92.1832 89.8218 91.4968 88.5774 91.4968 87.8059C91.4968 87.5819 91.8527 87.0841 92.2595 86.7108C92.9968 86.0388 93.0222 85.9641 93.0222 83.6246C93.0222 80.862 93.4545 79.6922 94.8528 78.6718C96.1241 77.7509 96.9885 77.5518 99.6327 77.5269C101.463 77.5269 102.302 77.6265 103.065 77.9749ZM71.4111 80.5882C71.4111 80.6629 71.0551 81.7082 70.6483 82.9526C70.0382 84.6948 69.1229 89.0752 69.1229 90.2449C69.1229 90.3694 68.6652 90.444 68.1059 90.444H67.0889V85.4664V80.4887H69.25C70.445 80.4887 71.4111 80.5384 71.4111 80.5882ZM96.4546 101.047C97.9547 101.743 101.412 101.719 102.836 100.972L103.853 100.449L107.031 101.992C108.76 102.863 111.048 103.859 112.116 104.232C113.184 104.63 114.481 105.253 114.964 105.651C115.981 106.472 117.354 108.986 117.583 110.405C117.786 111.5 117.456 111.823 114.201 113.989C110.082 116.726 105.964 118.02 100.853 118.244C93.8867 118.543 87.861 116.577 82.5218 112.271C81.1234 111.151 81.098 110.877 82.2929 108.289C83.2082 106.248 84.7846 104.929 87.4288 104.033C88.5729 103.66 90.7849 102.689 92.3358 101.893C93.9121 101.096 95.2342 100.474 95.3105 100.499C95.3868 100.524 95.8953 100.773 96.4546 101.047Z" fill="#903594"/>
<path d="M8.40798 35.7641C7.84863 36.3365 7.84863 36.4859 7.84863 43.9524V51.5932L8.50968 52.0909C9.17073 52.5887 9.4504 52.6136 19.2898 52.6136C28.875 52.6136 29.4344 52.5887 29.9937 52.1407L30.6039 51.6678V43.9026V36.1374L29.9937 35.6645C29.4344 35.2166 28.875 35.1917 19.1881 35.1917H8.9419L8.40798 35.7641ZM26.8664 43.828L26.7902 48.7559L19.239 48.8305L11.6624 48.8803V43.9026V38.9249H19.2898H26.9173L26.8664 43.828Z" fill="#903594"/>
<path d="M36.1214 35.7641C35.562 36.3365 35.562 36.4859 35.562 43.9524V51.5932L36.2231 52.0909C36.8841 52.5887 37.1638 52.6136 47.0286 52.6136C56.7918 52.6136 57.1986 52.5887 57.6817 52.1158C57.9613 51.842 58.241 51.3692 58.3173 51.0705C58.3936 50.747 58.4444 47.2626 58.3936 43.3302L58.3173 36.1374L57.7071 35.6645C57.1477 35.2166 56.5884 35.1917 46.9015 35.1917H36.6553L36.1214 35.7641ZM54.5798 43.828L54.5035 48.7559L46.9524 48.8305L39.3757 48.8803V43.9026V38.9249H47.0032H54.6307L54.5798 43.828Z" fill="#903594"/>
<path d="M47.7151 41.5879C45.7065 43.5043 45.6811 43.5292 45.2489 43.0065C44.7404 42.3843 43.9013 41.9114 43.3166 41.9114C43.0877 41.9114 42.5538 42.2599 42.1216 42.6581C41.5114 43.2803 41.3843 43.5541 41.5368 44.1016C41.7402 44.9478 44.5878 47.7851 45.4014 48.0091C46.2913 48.2082 47.3337 47.5113 50.0033 44.7985C52.6221 42.1603 52.9017 41.4385 51.7068 40.2937C50.6389 39.2235 49.9779 39.4475 47.7151 41.5879Z" fill="#44F429"/>
<path d="M63.8347 35.7641C63.2754 36.3365 63.2754 36.4859 63.2754 43.9524V51.5932L63.9364 52.0909C64.5975 52.5887 64.8772 52.6136 74.7166 52.6136C84.3018 52.6136 84.8611 52.5887 85.4205 52.1407L86.0307 51.6678L86.1069 44.052L86.1832 36.4361L85.5476 35.8139L84.912 35.1917H74.6403H64.3687L63.8347 35.7641ZM82.2932 43.828L82.2169 48.7559L74.6657 48.8305L67.0891 48.8803V43.9026V38.9249H74.7166H82.3441L82.2932 43.828Z" fill="#903594"/>
<path d="M91.5476 35.7641C90.9883 36.3365 90.9883 36.4859 90.9883 43.9524V51.5932L91.6493 52.0909C92.3104 52.5887 92.59 52.6136 102.429 52.6136C112.015 52.6136 112.574 52.5887 113.133 52.1407L113.744 51.6678L113.82 44.052L113.896 36.4361L113.26 35.8139L112.625 35.1917H102.353H92.0816L91.5476 35.7641ZM110.006 43.828L109.93 48.7559L102.379 48.8305L94.802 48.8803V43.9026V38.9249H102.429H110.057L110.006 43.828Z" fill="#903594"/>
<path d="M8.9419 56.098C8.6368 56.2224 8.28086 56.5459 8.12831 56.8197C7.95033 57.1433 7.84863 59.9806 7.84863 64.784C7.84863 71.9519 7.87406 72.3003 8.35713 72.7732C8.8402 73.2461 9.19615 73.271 19.2644 73.271H29.6886L30.1971 72.6239C30.7056 71.9768 30.731 71.6781 30.731 64.6596V57.3673L30.1208 56.6704L29.5106 55.9735L19.4932 55.9237C14.0015 55.8988 9.247 55.9735 8.9419 56.098ZM26.9173 64.6845V69.5377H19.2898H11.6624V64.6845V59.8312H19.2898H26.9173V64.6845Z" fill="#903594"/>
<path d="M20.18 62.3198C19.2139 63.2656 18.324 64.062 18.1969 64.062C18.0698 64.062 17.6375 63.7882 17.2053 63.4398C15.9849 62.4194 14.5357 62.6683 13.9764 64.0371C13.5441 65.0078 13.9764 65.7793 15.8069 67.4966C17.9681 69.4877 18.2477 69.413 21.7564 65.9784C24.1463 63.6389 24.6294 63.0416 24.6294 62.4194C24.6294 61.4487 23.7141 60.5776 22.6971 60.5776C22.1123 60.5776 21.5784 60.951 20.18 62.3198Z" fill="#44F429"/>
<path d="M36.6553 56.098C36.3502 56.2224 35.9942 56.5459 35.8417 56.8197C35.6637 57.1433 35.562 59.9806 35.562 64.784C35.562 71.9519 35.5874 72.3003 36.0705 72.7732C36.5536 73.2461 36.9095 73.271 46.9778 73.271H57.402L57.9105 72.6239C58.419 71.9768 58.4444 71.6781 58.4444 64.6596V57.3673L57.8342 56.6704L57.224 55.9735L47.2066 55.9237C41.7148 55.8988 36.9604 55.9735 36.6553 56.098ZM54.6307 64.6845V69.5377H47.0032H39.3757V64.6845V59.8312H47.0032H54.6307V64.6845Z" fill="#903594"/>
<path d="M8.40798 77.3273C7.84863 77.8998 7.84863 78.0491 7.84863 85.5156V93.1564L8.50968 93.6542C9.17073 94.1519 9.4504 94.1768 19.2898 94.1768C28.875 94.1768 29.4344 94.1519 29.9937 93.7039L30.6039 93.2311V85.4659V77.7007L29.9937 77.2278C29.4344 76.7798 28.875 76.7549 19.1881 76.7549H8.9419L8.40798 77.3273ZM26.8664 85.3912L26.7902 90.3191L19.239 90.3938L11.6624 90.4435V85.4659V80.4882H19.2898H26.9173L26.8664 85.3912Z" fill="#903594"/>
<path d="M22.0868 81.4095C21.8834 81.4841 20.8918 82.3303 19.8748 83.301L18.0443 85.0432L17.129 84.2716C16.0357 83.3259 15.4763 83.2761 14.561 84.0476C13.3661 85.0681 13.5949 85.964 15.5018 87.8556C16.3916 88.7516 17.3832 89.5231 17.6629 89.5978C18.5528 89.8218 19.5189 89.1498 22.1631 86.5116C24.1717 84.4956 24.6293 83.8983 24.6293 83.301C24.6293 82.0068 23.2564 80.9864 22.0868 81.4095Z" fill="#44F429"/>
<path d="M36.1214 77.3273C35.562 77.8998 35.562 78.0491 35.562 85.5156V93.1564L36.2231 93.6542C36.8841 94.1519 37.1638 94.1768 47.0032 94.1768C56.5884 94.1768 57.1477 94.1519 57.7071 93.7039L58.3173 93.2311V85.4659V77.7007L57.7071 77.2278C57.1477 76.7798 56.5884 76.7549 46.9015 76.7549H36.6553L36.1214 77.3273ZM54.5035 85.4659V90.3191L46.9524 90.3938L39.3757 90.4435V85.4659V80.4882L46.9524 80.5379L54.5035 80.6126V85.4659Z" fill="#903594"/>
<path d="M4.34023 109.683C3.22154 110.031 1.34009 111.699 0.704472 112.893C-0.871871 115.905 0.424798 119.788 3.50121 121.355L4.84873 122.052H30.2736H55.6731L62.2073 119.788C69.911 117.1 70.4958 116.701 69.5296 114.86C69.1991 114.262 68.3601 113.889 62.3344 111.773L55.5205 109.359L30.3499 109.384C13.4932 109.409 4.89958 109.509 4.34023 109.683ZM11.1541 115.706V118.319H8.40821C5.30638 118.319 4.74703 118.095 4.11141 116.652C3.62833 115.482 4.03513 114.237 5.15383 113.565C5.78945 113.192 6.42507 113.093 8.56076 113.093H11.1541V115.706ZM53.1052 115.706V118.319H34.0365H14.9678V115.706V113.093H34.0365H53.1052V115.706ZM61.9784 115.706C62.0293 115.78 61.9276 115.88 61.7242 115.93C61.5208 116.004 60.4021 116.403 59.2325 116.826C58.0376 117.224 57.046 117.572 56.9952 117.572C56.9443 117.572 56.9189 116.751 56.9189 115.731V113.889L59.3851 114.76C60.758 115.233 61.9276 115.656 61.9784 115.706Z" fill="#903594"/>
</svg>
