<svg width="22" height="22" viewBox="0 0 22 22" fill="none" xmlns="http://www.w3.org/2000/svg">
<path d="M11 0C17.0751 0 22 4.92487 22 11C22 17.0751 17.0751 22 11 22C4.92487 22 0 17.0751 0 11C0 4.92487 4.92487 0 11 0ZM11 1.375C5.68426 1.375 1.375 5.68426 1.375 11C1.375 16.3157 5.68426 20.625 11 20.625C16.3157 20.625 20.625 16.3157 20.625 11C20.625 5.68426 16.3157 1.375 11 1.375ZM11.8937 14.0937V15.8812H10.1062V14.0937H11.8937ZM11 6.1875C12.5188 6.1875 13.75 7.41872 13.75 8.9375C13.75 10.2187 12.8738 11.2953 11.688 11.6007L11.6875 13.0625H10.3125V10.3125H11C11.7594 10.3125 12.375 9.69689 12.375 8.9375C12.375 8.17811 11.7594 7.5625 11 7.5625C10.2751 7.5625 9.68126 8.12342 9.62877 8.83488L9.625 8.9375H8.25C8.25 7.41872 9.48122 6.1875 11 6.1875Z" fill="#800080"/>
</svg>
