<svg width="18" height="19" viewBox="0 0 18 19" fill="none" xmlns="http://www.w3.org/2000/svg">
<g clip-path="url(#clip0_2784_7147)">
<path d="M17.7798 17.4502L13.3031 12.9735C14.5231 11.4814 15.1229 9.57756 14.9785 7.65566C14.8341 5.73376 13.9565 3.94089 12.5273 2.64788C11.0981 1.35487 9.22654 0.660658 7.29982 0.708831C5.37311 0.757005 3.53862 1.54388 2.1758 2.9067C0.812985 4.26952 0.0261092 6.10401 -0.0220646 8.03072C-0.0702385 9.95743 0.623975 11.829 1.91698 13.2582C3.20999 14.6874 5.00287 15.565 6.92476 15.7094C8.84666 15.8538 10.7505 15.254 12.2426 14.034L16.7193 18.5107C16.8608 18.6474 17.0502 18.723 17.2469 18.7212C17.4435 18.7195 17.6317 18.6407 17.7707 18.5016C17.9098 18.3625 17.9886 18.1744 17.9904 17.9778C17.9921 17.7811 17.9165 17.5917 17.7798 17.4502ZM7.49959 14.2305C6.3129 14.2305 5.15287 13.8786 4.16617 13.2193C3.17948 12.56 2.41044 11.6229 1.95632 10.5266C1.50219 9.43023 1.38337 8.22383 1.61488 7.05995C1.84639 5.89606 2.41784 4.82696 3.25695 3.98785C4.09607 3.14873 5.16516 2.57729 6.32905 2.34578C7.49294 2.11427 8.69934 2.23309 9.79569 2.68721C10.8921 3.14134 11.8291 3.91037 12.4884 4.89707C13.1477 5.88376 13.4996 7.0438 13.4996 8.23049C13.4978 9.82124 12.8651 11.3463 11.7403 12.4712C10.6154 13.596 9.09034 14.2287 7.49959 14.2305Z" fill="#ABABAB"/>
</g>
<defs>
<clipPath id="clip0_2784_7147">
<rect width="18" height="18" fill="white" transform="translate(0 0.72998)"/>
</clipPath>
</defs>
</svg>
