<svg width="30" height="30" viewBox="0 0 30 30" fill="none" xmlns="http://www.w3.org/2000/svg">
<circle cx="15" cy="15" r="15" fill="#903594"/>
<g clip-path="url(#clip0_2784_7138)">
<path d="M21.9881 11.356L21.6179 10.7136C21.3379 10.2277 21.198 9.98479 20.9598 9.88791C20.7216 9.79104 20.4522 9.86748 19.9135 10.0204L18.9983 10.2781C18.6544 10.3575 18.2935 10.3125 17.9794 10.1511L17.7268 10.0053C17.4574 9.83282 17.2503 9.5785 17.1356 9.27956L16.8852 8.53152C16.7205 8.03651 16.6381 7.789 16.4421 7.64743C16.2461 7.50586 15.9857 7.50586 15.4649 7.50586H14.6288C14.1081 7.50586 13.8477 7.50586 13.6516 7.64743C13.4556 7.789 13.3733 8.03651 13.2086 8.53152L12.9581 9.27956C12.8435 9.5785 12.6363 9.83282 12.367 10.0053L12.1144 10.1511C11.8003 10.3125 11.4394 10.3575 11.0955 10.2781L10.1803 10.0204C9.64156 9.86748 9.37219 9.79104 9.134 9.88791C8.89582 9.98479 8.75584 10.2277 8.47586 10.7136L8.10568 11.356C7.84324 11.8115 7.71202 12.0392 7.73749 12.2816C7.76296 12.524 7.93862 12.7194 8.28994 13.1101L9.06322 13.9746C9.25222 14.2139 9.38641 14.6309 9.38641 15.0058C9.38641 15.3809 9.25227 15.7977 9.06325 16.037L8.28994 16.9016C7.93862 17.2923 7.76296 17.4876 7.73749 17.7301C7.71202 17.9725 7.84324 18.2002 8.10568 18.6556L8.47585 19.298C8.75582 19.7839 8.89582 20.0269 9.134 20.1237C9.37219 20.2206 9.64156 20.1442 10.1803 19.9913L11.0955 19.7335C11.4395 19.6541 11.8004 19.6992 12.1145 19.8606L12.3671 20.0064C12.6364 20.1789 12.8435 20.4331 12.9581 20.7321L13.2086 21.4802C13.3733 21.9752 13.4556 22.2227 13.6516 22.3643C13.8477 22.5058 14.1081 22.5058 14.6288 22.5058H15.4649C15.9857 22.5058 16.2461 22.5058 16.4421 22.3643C16.6381 22.2227 16.7205 21.9752 16.8852 21.4802L17.1357 20.7321C17.2503 20.4331 17.4574 20.1789 17.7267 20.0064L17.9793 19.8606C18.2934 19.6992 18.6543 19.6541 18.9983 19.7335L19.9135 19.9913C20.4522 20.1442 20.7216 20.2206 20.9598 20.1237C21.198 20.0269 21.3379 19.7839 21.6179 19.298L21.9881 18.6556C22.2505 18.2002 22.3817 17.9725 22.3563 17.7301C22.3308 17.4876 22.1551 17.2923 21.8038 16.9016L21.0305 16.037C20.8415 15.7977 20.7073 15.3809 20.7073 15.0058C20.7073 14.6309 20.8416 14.2139 21.0305 13.9746L21.8038 13.1101C22.1551 12.7194 22.3308 12.524 22.3563 12.2816C22.3817 12.0392 22.2505 11.8115 21.9881 11.356Z" stroke="white" stroke-width="1.5" stroke-linecap="round"/>
<path d="M17.6396 15C17.6396 16.4497 16.4644 17.625 15.0146 17.625C13.5649 17.625 12.3896 16.4497 12.3896 15C12.3896 13.5503 13.5649 12.375 15.0146 12.375C16.4644 12.375 17.6396 13.5503 17.6396 15Z" stroke="white" stroke-width="1.5"/>
</g>
<defs>
<clipPath id="clip0_2784_7138">
<rect width="18" height="18" fill="white" transform="translate(6 6)"/>
</clipPath>
</defs>
</svg>
