<svg width="18" height="18" viewBox="0 0 18 18" fill="none" xmlns="http://www.w3.org/2000/svg">
<path d="M14.1367 9.44297C14.1658 9.21017 14.1877 8.97737 14.1877 8.73002C14.1877 8.48267 14.1658 8.24987 14.1367 8.01707L15.6718 6.81669C15.81 6.70757 15.8464 6.51114 15.7591 6.35109L14.3041 3.83394C14.2386 3.71754 14.1149 3.65207 13.984 3.65207C13.9403 3.65207 13.8967 3.65934 13.8603 3.67389L12.0488 4.40139C11.6705 4.11039 11.2631 3.87032 10.8193 3.68844L10.5429 1.76057C10.5211 1.58597 10.3683 1.45502 10.1864 1.45502H7.27641C7.09453 1.45502 6.94176 1.58597 6.91993 1.76057L6.64348 3.68844C6.19971 3.87032 5.79231 4.11767 5.41401 4.40139L3.60253 3.67389C3.55888 3.65934 3.51523 3.65207 3.47158 3.65207C3.34791 3.65207 3.22423 3.71754 3.15876 3.83394L1.70376 6.35109C1.60918 6.51114 1.65283 6.70757 1.79106 6.81669L3.32608 8.01707C3.29698 8.24987 3.27516 8.48994 3.27516 8.73002C3.27516 8.97009 3.29698 9.21017 3.32608 9.44297L1.79106 10.6433C1.65283 10.7525 1.61646 10.9489 1.70376 11.1089L3.15876 13.6261C3.22423 13.7425 3.34791 13.808 3.47886 13.808C3.52251 13.808 3.56616 13.8007 3.60253 13.7861L5.41401 13.0586C5.79231 13.3496 6.19971 13.5897 6.64348 13.7716L6.91993 15.6995C6.94176 15.8741 7.09453 16.005 7.27641 16.005H10.1864C10.3683 16.005 10.5211 15.8741 10.5429 15.6995L10.8193 13.7716C11.2631 13.5897 11.6705 13.3424 12.0488 13.0586L13.8603 13.7861C13.9039 13.8007 13.9476 13.808 13.9912 13.808C14.1149 13.808 14.2386 13.7425 14.3041 13.6261L15.7591 11.1089C15.8464 10.9489 15.81 10.7525 15.6718 10.6433L14.1367 9.44297ZM12.6963 8.19894C12.7254 8.42447 12.7327 8.57724 12.7327 8.73002C12.7327 8.88279 12.7181 9.04284 12.6963 9.26109L12.5944 10.0832L13.2419 10.5924L14.0276 11.2035L13.5184 12.0838L12.5944 11.7128L11.8378 11.4072L11.1831 11.9019C10.8703 12.1347 10.572 12.3093 10.2737 12.433L9.50256 12.7458L9.38616 13.5679L9.24066 14.55H8.22216L7.96753 12.7458L7.19638 12.433C6.88356 12.302 6.59256 12.1347 6.30156 11.9165L5.63953 11.4072L4.86838 11.72L3.94446 12.0911L3.43521 11.2108L4.22091 10.5997L4.86838 10.0904L4.76653 9.26837C4.74471 9.04284 4.73016 8.87552 4.73016 8.73002C4.73016 8.58452 4.74471 8.41719 4.76653 8.19894L4.86838 7.37687L4.22091 6.86762L3.43521 6.25652L3.94446 5.37624L4.86838 5.74727L5.62498 6.05282L6.27973 5.55812C6.59256 5.32532 6.89083 5.15072 7.18911 5.02704L7.96026 4.71422L8.07666 3.89214L8.22216 2.91002H9.23338L9.48801 4.71422L10.2592 5.02704C10.572 5.15799 10.863 5.32532 11.154 5.54357L11.816 6.05282L12.5872 5.73999L13.5111 5.36897L14.0203 6.24924L13.2419 6.86762L12.5944 7.37687L12.6963 8.19894ZM8.73141 5.82002C7.12363 5.82002 5.82141 7.12224 5.82141 8.73002C5.82141 10.3378 7.12363 11.64 8.73141 11.64C10.3392 11.64 11.6414 10.3378 11.6414 8.73002C11.6414 7.12224 10.3392 5.82002 8.73141 5.82002ZM8.73141 10.185C7.93116 10.185 7.27641 9.53027 7.27641 8.73002C7.27641 7.92977 7.93116 7.27502 8.73141 7.27502C9.53166 7.27502 10.1864 7.92977 10.1864 8.73002C10.1864 9.53027 9.53166 10.185 8.73141 10.185Z" fill="white"/>
</svg>
