<svg width="33" height="24" viewBox="0 0 33 24" fill="none" xmlns="http://www.w3.org/2000/svg">
<path d="M10.5001 19.3436H1C1 14.7729 4.40004 14.5291 5.45006 13.9197C6.10007 13.5541 7.00008 12.8837 7.00008 12.2743C7.00008 11.9696 6.90008 11.7258 6.80008 11.6649C5.55006 10.8726 5.30006 8.13023 5.20005 8.13023C4.80005 8.13023 4.50005 6.91138 4.50005 6.0582C4.50005 5.38783 4.65005 5.38783 4.95005 5.20501V5.08312C4.95005 2.88921 6.20007 1 8.00009 1C9.85012 1 11.0501 2.95015 11.0501 5.14406V5.26595C11.3501 5.44877 11.4501 5.57066 11.4501 6.24102C11.4501 7.09421 11.2001 8.25211 10.8001 8.25211C10.7001 8.25211 10.4501 10.8117 9.25011 11.6649C9.15011 11.7258 9.05011 11.8477 9.05011 12.1524C9.05011 12.8228 10.0001 13.4931 10.6501 13.8588C11.3001 14.2244 13.5502 14.5901 14.5502 16.8449" stroke="#C2C2C3" stroke-width="2"/>
<path d="M18.3496 17.0278C19.2996 14.651 21.5997 14.3463 22.3997 13.9197C23.0497 13.5541 23.9497 12.8837 23.9497 12.2743C23.9497 11.9696 23.8497 11.7258 23.7497 11.6649C22.4997 10.8726 22.2997 8.13023 22.1997 8.13023C21.7997 8.13023 21.4997 6.91139 21.4997 6.0582C21.4997 5.38783 21.6497 5.38783 21.9497 5.20501V5.08312C21.9497 2.88921 23.0997 1 24.9497 1C26.7997 1 28.0997 2.95015 28.0997 5.14407V5.26595C28.3997 5.44878 28.4997 5.57066 28.4997 6.24102C28.4997 7.09421 28.2497 8.25212 27.8497 8.25212C27.7497 8.25212 27.4497 10.8117 26.2497 11.6649C26.1497 11.7258 26.0497 11.8477 26.0497 12.1524C26.0497 12.8228 26.9997 13.4931 27.6497 13.8588C28.4497 14.3463 31.9998 14.7729 31.9998 19.2826H22.1497" stroke="#C2C2C3" stroke-width="2"/>
<path fill-rule="evenodd" clip-rule="evenodd" d="M13.8993 17.5763C14.5493 17.2107 15.4493 16.5403 15.4493 15.9309C15.4493 15.6262 15.3493 15.3824 15.2493 15.3215C13.9993 14.5292 13.7993 11.7868 13.6993 11.7868C13.2993 11.7868 12.9993 10.568 12.9993 9.71478C12.9993 9.04442 13.1493 9.04442 13.4493 8.8616V8.80065C13.4493 6.60674 14.5993 4.71753 16.4493 4.71753C18.2993 4.71753 19.5994 6.66768 19.5994 8.8616V8.98348C19.8994 9.16631 19.9994 9.28819 19.9994 9.95855C19.9994 10.8117 19.7494 11.9696 19.3494 11.9696C19.2494 11.9696 18.9493 14.5292 17.7493 15.3824C17.6493 15.4433 17.5493 15.5652 17.5493 15.8699C17.5493 16.5403 18.4993 17.2107 19.1494 17.5763C19.9494 18.0639 23.4994 18.4905 23.4994 23.0002H9.44922C9.44922 18.4295 12.8993 18.1857 13.8993 17.5763Z" stroke="#C2C2C3" stroke-width="2"/>
</svg>
