<svg width="23" height="17" viewBox="0 0 23 17" fill="none" xmlns="http://www.w3.org/2000/svg">
<path d="M19.7545 3.31566H19.7045V3.36566V4.04559V4.09559H19.7545H20.8379C20.9072 4.09559 20.9554 4.13139 20.9889 4.19181C21.0236 4.25432 21.0401 4.3404 21.0401 4.4269V13.3967C21.0401 14.2857 20.3965 14.9472 19.509 14.9472H12.8647C12.5747 14.9472 12.2939 15.0808 12.0861 15.284C11.8784 15.4871 11.7396 15.7637 11.7396 16.0544V16.1128H10.5041V16.0544C10.5041 15.4873 10.1289 14.9472 9.54259 14.9472H2.8983C2.00431 14.9472 1.20369 14.2795 1.20369 13.3967V4.4269C1.20369 4.3553 1.25058 4.27244 1.32622 4.20485C1.40147 4.13759 1.49405 4.09559 1.56946 4.09559H2.48925H2.53925V4.04559V3.36566V3.31566H2.48925H1.56946C1.27932 3.31566 0.999358 3.45042 0.792537 3.6546C0.585712 3.85878 0.448047 4.13634 0.448047 4.4269V13.3967C0.448047 14.7105 1.59251 15.7029 2.8983 15.7029H9.54259C9.60985 15.7029 9.65951 15.7414 9.69501 15.8084C9.73115 15.8765 9.74844 15.9682 9.74844 16.0544V16.2205C9.74844 16.4226 9.85218 16.5859 10.0016 16.697C10.1503 16.8076 10.3462 16.8684 10.5392 16.8684H11.8681C12.0621 16.8684 12.2206 16.8068 12.3304 16.6913C12.4398 16.5761 12.4953 16.4131 12.4953 16.2205V16.0544C12.4953 15.9824 12.5435 15.8942 12.6207 15.8213C12.6976 15.7485 12.7908 15.7029 12.8648 15.7029H19.509C20.8195 15.7029 21.7957 14.706 21.7957 13.3967V4.4269C21.7957 3.86039 21.4247 3.31566 20.8379 3.31566H19.7545Z" fill="#800080" stroke="#800080" stroke-width="0.1"/>
<path d="M5.47607 3.31566H5.42607V3.36566V4.04559V4.09559H5.47607H9.45849H9.50849V4.04559V3.36566V3.31566H9.45849H5.47607ZM5.47607 4.82121H5.42607V4.87121V5.52685V5.57685H5.47607H9.45849H9.50849V5.52685V4.87121V4.82121H9.45849H5.47607ZM5.47607 6.30247H5.42607V6.35247V7.03239V7.08239H5.47607H9.45849H9.50849V7.03239V6.35247V6.30247H9.45849H5.47607ZM12.7853 3.31566H12.7353V3.36566V4.04559V4.09559H12.7853H16.7677H16.8177V4.04559V3.36566V3.31566H16.7677H12.7853ZM12.7853 4.82121H12.7353V4.87121V5.52685V5.57685H12.7853H16.7677H16.8177V5.52685V4.87121V4.82121H16.7677H12.7853ZM12.7853 6.30247H12.7353V6.35247V7.03239V7.08239H12.7853H16.7677H16.8177V7.03239V6.35247V6.30247H16.7677H12.7853Z" fill="#800080" stroke="#800080" stroke-width="0.1"/>
<path d="M19.0108 2.00437H18.639V1.93529C18.639 1.18255 18.1171 0.498828 17.3498 0.498828H13.3632C12.4513 0.498828 11.6521 0.982481 11.2038 1.70521C10.7554 0.982481 9.95621 0.498828 9.04438 0.498828H5.05781C4.29824 0.498828 3.60496 1.17419 3.60496 1.93529V2.00437H3.39676C3.05944 2.00437 2.73496 2.17328 2.49585 2.43373C2.25653 2.69441 2.09941 3.05017 2.09941 3.43025V12.4C2.09941 13.3468 2.91769 14.0516 3.81202 14.0516H9.87493C10.3957 14.0516 10.8216 14.5137 10.8216 14.9972V15.0472H10.8716H11.536H11.586V14.9972C11.586 14.5137 12.0119 14.0516 12.5327 14.0516H18.5956C19.4966 14.0516 20.1446 13.34 20.1446 12.4V3.43025C20.1446 3.05431 20.0311 2.69944 19.833 2.43739C19.6344 2.1748 19.3497 2.00437 19.0108 2.00437ZM4.3606 1.93529V1.93042C4.36228 1.76569 4.44885 1.59724 4.5816 1.46834C4.71564 1.3382 4.89054 1.25447 5.05779 1.25447H9.04436C10.0192 1.25447 10.7441 2.11285 10.7441 3.09803V12.7195C10.3717 12.2753 9.72141 11.9604 9.04436 11.9604H5.05781C4.88481 11.9604 4.70869 11.9034 4.57683 11.8043C4.4455 11.7056 4.3606 11.5676 4.3606 11.4034V1.93529ZM19.3646 12.4V12.4083C19.363 12.6702 19.287 12.8915 19.1558 13.0468C19.0238 13.203 18.8332 13.296 18.5955 13.296H12.5326C12.3415 13.296 12.1574 13.3239 11.985 13.3807C12.3113 12.9785 12.808 12.716 13.3631 12.716H17.3497C17.7286 12.716 18.0516 12.5788 18.2799 12.3444C18.5081 12.11 18.639 11.7815 18.639 11.4034V2.76001H19.0108C19.1191 2.76001 19.2064 2.8311 19.2692 2.95736C19.332 3.08351 19.3646 3.25536 19.3646 3.43025V12.4ZM13.3632 1.25447H17.3497C17.5143 1.25447 17.6462 1.33565 17.7386 1.46197C17.8316 1.5892 17.8833 1.76122 17.8833 1.93529V11.4034C17.8833 11.5768 17.8321 11.7153 17.7426 11.81C17.6535 11.9043 17.5216 11.9604 17.3497 11.9604H13.3632C12.6638 11.9604 12.0057 12.2973 11.4998 12.7559V3.09803C11.4998 2.11881 12.3826 1.25447 13.3632 1.25447ZM3.812 13.296C3.33023 13.296 2.85503 12.9166 2.85503 12.4V3.43025C2.85503 3.26442 2.92952 3.09542 3.03778 2.96737C3.1471 2.83805 3.28235 2.76001 3.39673 2.76001H3.60494V11.4034C3.60494 12.1703 4.30453 12.716 5.05779 12.716H9.04436C9.59948 12.716 10.0961 12.9785 10.4225 13.3807C10.25 13.3239 10.066 13.296 9.87488 13.296H3.812Z" fill="#800080" stroke="#800080" stroke-width="0.1"/>
<path d="M9.12627 9.89924C9.33737 9.89924 9.50849 9.72812 9.50849 9.51702V8.19025C9.50849 7.97915 9.33737 7.80803 9.12627 7.80803H5.80829C5.59719 7.80803 5.42607 7.97915 5.42607 8.19025V9.51702C5.42607 9.72812 5.59719 9.89924 5.80829 9.89924H9.12627ZM16.4355 9.89924C16.6465 9.89924 16.8177 9.72812 16.8177 9.51702V8.19025C16.8177 7.97915 16.6465 7.80803 16.4355 7.80803H13.1175C12.9064 7.80803 12.7353 7.97915 12.7353 8.19025V9.51702C12.7353 9.72812 12.9064 9.89924 13.1175 9.89924H16.4355Z" fill="#800080" stroke="#800080" stroke-width="0.1"/>
</svg>
