<svg width="25" height="22" viewBox="0 0 25 22" fill="none" xmlns="http://www.w3.org/2000/svg">
<path d="M21.4286 0H19.6429H5.35714H3.57143H0V18.7501C0 19.4605 0.282206 20.1418 0.784536 20.6441C1.28687 21.1465 1.96817 21.4287 2.67857 21.4287H22.3214C23.0318 21.4287 23.7131 21.1465 24.2155 20.6441C24.7178 20.1418 25 19.4605 25 18.7501V0H21.4286ZM23.2143 18.7501C23.2143 18.9869 23.1202 19.214 22.9528 19.3814C22.7853 19.5489 22.5582 19.643 22.3214 19.643H2.67857C2.44177 19.643 2.21467 19.5489 2.04723 19.3814C1.87978 19.214 1.78571 18.9869 1.78571 18.7501V1.78572H3.57143H5.35714H19.6429H21.4286H23.2143V18.7501Z" fill="#800080"/>
<path d="M3.57178 11.6072H8.92895V6.25H3.57178V11.6072ZM5.3575 8.03572H7.14322V9.82145H5.3575V8.03572Z" fill="#800080"/>
<path d="M9.82178 11.6072H15.1789V6.25H9.82178V11.6072ZM11.6075 8.03572H13.3932V9.82145H11.6075V8.03572Z" fill="#800080"/>
<path d="M16.0718 11.6072H21.4289V6.25H16.0718V11.6072ZM17.8575 8.03572H19.6432V9.82145H17.8575V8.03572Z" fill="#800080"/>
<path d="M3.57178 17.8572H8.92895V12.5H3.57178V17.8572ZM5.3575 14.2857H7.14322V16.0714H5.3575V14.2857Z" fill="#800080"/>
<path d="M9.82178 17.8572H15.1789V12.5H9.82178V17.8572ZM11.6075 14.2857H13.3932V16.0714H11.6075V14.2857Z" fill="#800080"/>
<path d="M16.0718 17.8572H21.4289V12.5H16.0718V17.8572ZM17.8575 14.2857H19.6432V16.0714H17.8575V14.2857Z" fill="#800080"/>
</svg>
