<svg width="70" height="70" viewBox="0 0 70 70" fill="none" xmlns="http://www.w3.org/2000/svg">
<g clip-path="url(#clip0_2784_7025)">
<path d="M67.5863 44.0517H21.7243C20.3912 44.0517 19.3105 42.9711 19.3105 41.6379V5.43098C19.3105 4.09784 20.3912 3.01721 21.7243 3.01721H67.5863C68.9195 3.01721 70.0001 4.09784 70.0001 5.43098V41.6379C70.0001 42.9711 68.9195 44.0517 67.5863 44.0517Z" fill="#E4EAF8"/>
<path d="M63.9656 39.2241H57.9312V9.05168C57.9312 8.38518 58.4716 7.84473 59.1381 7.84473H62.7588C63.4253 7.84473 63.9658 8.38518 63.9658 9.05168V39.2241H63.9656Z" fill="#7DF5A5"/>
<path d="M53.1033 39.2242H47.0688V18.707C47.0688 18.0404 47.6093 17.5 48.2758 17.5H51.8965C52.563 17.5 53.1035 18.0404 53.1035 18.707V39.2242H53.1033Z" fill="#FFDC64"/>
<path d="M42.2415 39.2243H36.207V28.3622C36.207 27.6957 36.7475 27.1553 37.414 27.1553H41.0347C41.7012 27.1553 42.2417 27.6957 42.2417 28.3622V39.2243H42.2415Z" fill="#FF5050"/>
<path d="M31.3792 39.2242H25.3447V34.3967C25.3447 33.7301 25.8852 33.1897 26.5517 33.1897H30.1724C30.8389 33.1897 31.3794 33.7301 31.3794 34.3967V39.2242H31.3792Z" fill="#00C3FF"/>
<path d="M31.3794 34.3965C31.3794 33.73 30.8389 33.1896 30.1724 33.1896H26.5517C25.8852 33.1896 25.3447 33.73 25.3447 34.3965V39.2241H29.5583L29.5883 38.9836C30.4818 37.7293 31.0657 36.337 31.3792 34.8779L31.3794 34.3965Z" fill="#00AAF0"/>
<path d="M65.1726 40.431H24.1381C23.4711 40.431 22.9312 39.8912 22.9312 39.224C22.9312 38.557 23.4709 38.0171 24.1381 38.0171H65.1726C65.8396 38.0171 66.3796 38.5569 66.3796 39.224C66.3794 39.8912 65.8396 40.431 65.1726 40.431Z" fill="#AFB9D2"/>
<path d="M24.1381 38.0172C23.4711 38.0172 22.9312 38.557 22.9312 39.2242C22.9312 39.8912 23.4709 40.4311 24.1381 40.4311H29.4077L29.5885 38.9838C29.8097 38.6732 29.9863 38.3432 30.1729 38.0173H24.1381V38.0172Z" fill="#959CB5"/>
<path d="M30.4448 65.7759V51.826C30.4448 50.7871 29.7799 49.8647 28.7943 49.5361L24.8539 48.2227C23.8683 47.8941 23.2035 46.9717 23.2035 45.9328V42.845H15.962V45.9328C15.962 46.9717 15.2971 47.8941 14.3115 48.2227L10.3712 49.5361C9.38557 49.8647 8.7207 50.7871 8.7207 51.826V65.776H30.4448V65.7759Z" fill="#D29B6E"/>
<path d="M28.7943 49.536L24.8539 48.2225C24.6173 48.1436 24.4017 48.0268 24.2067 47.886C23.0998 49.2191 21.4509 50.0862 19.5827 50.0862C17.7146 50.0862 16.0656 49.2191 14.9588 47.886C14.7638 48.0268 14.5483 48.1437 14.3115 48.2225L10.3712 49.536C9.38543 49.8646 8.7207 50.787 8.7207 51.8259V65.7759H30.4449V51.8259C30.4446 50.7869 29.7798 49.8646 28.7943 49.536Z" fill="#5B5D6E"/>
<path d="M19.5834 41.638C24.9159 41.638 29.2387 37.5854 29.2387 32.5863C29.2387 27.5871 24.9159 23.5345 19.5834 23.5345C14.251 23.5345 9.92822 27.5871 9.92822 32.5863C9.92822 37.5854 14.251 41.638 19.5834 41.638Z" fill="#694B4B"/>
<path d="M21.9154 23.8117C21.167 23.6372 20.3884 23.5345 19.5825 23.5345C14.2502 23.5345 9.92725 27.5872 9.92725 32.5863C9.92725 36.879 13.118 40.4657 17.395 41.3959C17.395 39.8426 17.395 37.5317 17.395 34.095C17.395 28.8666 19.9124 25.595 21.9154 23.8117Z" fill="#5A4146"/>
<path d="M25.6687 42.2156L21.7417 44.179C20.3826 44.8585 18.7828 44.8585 17.4237 44.179L13.4967 42.2156C12.7749 41.8548 12.2813 41.1568 12.1811 40.3561L11.448 34.4918C11.3616 33.8006 11.8729 33.1835 12.568 33.1382C14.8176 32.9909 19.5088 32.4263 22.4011 30.2606C22.8888 29.8955 23.5696 29.9597 23.9865 30.4042L27.3418 33.9827C27.5872 34.2443 27.7035 34.6019 27.6589 34.9579L26.984 40.3561C26.8844 41.157 26.3905 41.8547 25.6687 42.2156Z" fill="#F0C087"/>
<path d="M27.3419 33.9826L23.9864 30.4041C23.8751 30.2852 23.7427 30.1982 23.6024 30.1346C23.5563 30.1139 23.5063 30.1095 23.4583 30.0947C23.3608 30.0649 23.2628 30.0382 23.1616 30.0339C23.0752 30.0303 22.9893 30.0414 22.9038 30.0568C22.8603 30.0646 22.8161 30.065 22.7735 30.0776C22.6432 30.1167 22.5163 30.1744 22.4015 30.2604C19.5042 32.4296 14.8015 32.9925 12.5566 33.1388C11.8576 33.1843 11.3614 33.7966 11.4484 34.4917L12.1815 40.3559C12.2817 41.1568 12.7752 41.8546 13.4971 42.2155L17.4241 44.1789C18.0105 44.4721 18.6435 44.6134 19.2807 44.6538L17.8065 41.7051C17.3876 40.8671 17.1694 39.9431 17.1694 39.0062V35.8979C17.1694 35.3361 17.5589 34.8592 18.104 34.7229C19.7568 34.3098 21.4569 33.7053 22.9332 32.8093L25.5815 35.6339C25.9728 36.0513 26.5263 36.5264 27.4691 36.481L27.6595 34.9577C27.7035 34.6018 27.5872 34.2444 27.3419 33.9826Z" fill="#E6AF78"/>
<path d="M25.3448 64.5689H13.2758C12.6093 64.5689 12.0688 64.0285 12.0688 63.362V56.1205C12.0688 55.454 12.6093 54.9136 13.2758 54.9136H25.3448C26.0113 54.9136 26.5517 55.454 26.5517 56.1205V63.362C26.5517 64.0285 26.0113 64.5689 25.3448 64.5689Z" fill="#D5DCED"/>
<path d="M37.4138 66.9828H1.20695C0.539902 66.9828 0 66.443 0 65.7758C0 65.1088 0.539766 64.5688 1.20695 64.5688H37.4139C38.081 64.5688 38.6209 65.1086 38.6209 65.7758C38.6207 66.443 38.081 66.9828 37.4138 66.9828Z" fill="#F5DCB4"/>
<path d="M19.3105 60.9485C19.9771 60.9485 20.5174 60.4081 20.5174 59.7415C20.5174 59.0749 19.9771 58.5345 19.3105 58.5345C18.6439 58.5345 18.1035 59.0749 18.1035 59.7415C18.1035 60.4081 18.6439 60.9485 19.3105 60.9485Z" fill="white"/>
</g>
<defs>
<clipPath id="clip0_2784_7025">
<rect width="70" height="70" fill="white"/>
</clipPath>
</defs>
</svg>
