<svg width="32" height="32" viewBox="0 0 32 32" fill="none" xmlns="http://www.w3.org/2000/svg">
<rect width="32" height="32" rx="16" fill="#903594"/>
<path d="M16 6C13.3478 6 10.8043 7.05357 8.92893 8.92893C7.05357 10.8043 6 13.3478 6 16C6 18.6522 7.05357 21.1957 8.92893 23.0711C10.8043 24.9464 13.3478 26 16 26C18.6522 26 21.1957 24.9464 23.0711 23.0711C24.9464 21.1957 26 18.6522 26 16C26 13.3478 24.9464 10.8043 23.0711 8.92893C21.1957 7.05357 18.6522 6 16 6ZM16 24.5714V7.42857C17.1256 7.42857 18.2402 7.65028 19.2801 8.08103C20.3201 8.51179 21.265 9.14315 22.0609 9.93908C22.8568 10.735 23.4882 11.6799 23.919 12.7199C24.3497 13.7598 24.5714 14.8744 24.5714 16C24.5714 17.1256 24.3497 18.2402 23.919 19.2801C23.4882 20.3201 22.8568 21.265 22.0609 22.0609C21.265 22.8568 20.3201 23.4882 19.2801 23.919C18.2402 24.3497 17.1256 24.5714 16 24.5714Z" fill="white"/>
</svg>
